<svg width="849" height="530" viewBox="0 0 849 530" fill="none" xmlns="http://www.w3.org/2000/svg">
<path d="M940.252 0.657455C935.283 21.2171 939.874 108.491 922.92 155.222C898.869 221.513 876.8 266.139 816.536 309.545C770.025 343.046 710.695 356.875 656.934 337.528C627.292 326.86 596.149 298.121 581.719 255.788C566.206 210.275 575.474 151.418 621.518 158.678C655.702 164.067 667.693 200.127 670.643 235.78C674.975 288.128 652.484 344.916 616.846 385.118C604.745 398.769 561.645 431.38 536.056 441.93C451.168 476.93 387.189 481.393 288.81 441.233C260.3 429.595 243.133 402.481 263.308 389.672C285.023 375.887 317.092 404.179 319.171 429.306C321.684 459.668 306.105 488.37 266.853 505.835C224.914 524.495 170.164 531.897 129.923 525.266C89.6821 518.634 80.9191 516.963 44.2377 491.85C21.857 476.527 1.79811 455.567 1.79811 455.567" stroke="#FFD17C" stroke-width="4.5815"/>
</svg>
