<svg width="800" height="714" viewBox="0 0 800 714" fill="none" xmlns="http://www.w3.org/2000/svg">
<path d="M-25.5308 0.385742C-24.8115 24.2186 -46.7984 121.539 -39.6448 176.557C-29.4967 254.605 -16.9336 308.027 33.1125 365.801C71.7383 410.39 126.808 434.81 183.104 421.138C214.145 413.599 250.274 385.992 272.837 340.614C297.093 291.828 299.866 224.343 253.518 225.597C219.109 226.528 200.183 265.226 190.153 304.822C175.427 362.96 185.961 430.102 212.64 480.588C221.7 497.73 257.178 540.81 280.009 556.492C355.749 608.515 417.232 623.113 521.205 592.754C551.336 583.956 573.514 556.08 556.413 538.673C538.008 519.938 501.065 546.905 493.997 574.811C485.456 608.531 494.886 643.097 529.651 668.591C566.796 695.83 618.69 712.346 659.254 710.928C699.818 709.511 708.697 708.947 749.498 686.24C774.393 672.386 798.155 651.853 798.155 651.853" stroke="#FFD17C" stroke-width="5"/>
</svg>
