<svg width="915" height="571" viewBox="0 0 915 571" fill="none" xmlns="http://www.w3.org/2000/svg">
<path d="M227.557 563.791V431.436V279.617C227.557 276.037 230.459 273.134 234.039 273.134H626.217C629.797 273.134 632.699 276.037 632.699 279.617V474.904V563.791C632.699 567.371 629.797 570.274 626.217 570.274H234.039C230.459 570.274 227.557 567.371 227.557 563.791Z" fill="#4F6234"/>
<path d="M655.148 504.086C649.669 504.665 640.55 498.473 632.037 498.603C629.279 498.646 627.513 501.217 627.513 503.976V539.37C627.513 542.23 629.419 544.914 632.274 544.751C639.973 544.313 646.501 537.802 655.148 538.291C662.791 538.723 665.486 537.623 671.611 542.419C676.39 546.16 676.315 546.547 683.958 552.444C691.602 558.341 689.25 478.728 678.667 488.753C675.055 492.174 675.309 496.042 671.611 499.369C665.827 504.572 661.615 503.403 655.148 504.086Z" fill="#4F6234"/>
<path d="M648.256 472.308H636.615C633.025 472.308 630.118 469.39 630.133 465.799L630.782 311.379C630.797 307.81 633.695 304.924 637.265 304.924H648.256C651.836 304.924 654.738 307.827 654.738 311.407V465.826C654.738 469.406 651.836 472.308 648.256 472.308Z" fill="#4F6234"/>
<path d="M716.968 472.308H705.327C701.737 472.308 698.83 469.39 698.845 465.799L699.494 311.379C699.509 307.81 702.407 304.924 705.977 304.924H716.968C720.548 304.924 723.45 307.827 723.45 311.407V465.826C723.45 469.406 720.548 472.308 716.968 472.308Z" fill="#4F6234"/>
<path d="M654.738 458.035V324.388H700.114V458.035H654.738Z" fill="#FFD17C"/>
<path d="M914.029 246.535L723.451 354.231V418.46L914.029 529.401V246.535Z" fill="#4F6234"/>
<ellipse cx="326.736" cy="517.723" rx="7.77872" ry="7.7853" fill="#FFD17C"/>
<ellipse cx="252.19" cy="548.215" rx="5.83404" ry="5.83898" fill="#FFFEFD"/>
<ellipse cx="610.011" cy="549.513" rx="5.83404" ry="5.83898" fill="#FFFEFD"/>
<ellipse cx="372.112" cy="517.723" rx="7.77872" ry="7.7853" fill="#FFD17C"/>
<ellipse cx="162.734" cy="278.325" rx="162.705" ry="162.843" fill="#FFD17C"/>
<ellipse cx="501.109" cy="162.843" rx="162.705" ry="162.843" fill="#FFD17C"/>
<rect x="416.191" y="429.489" width="169.835" height="108.994" rx="6.48227" fill="#FFD17C"/>
<ellipse cx="551.022" cy="503.45" rx="16.8539" ry="16.8682" fill="#4F6234"/>
<ellipse cx="551.022" cy="503.45" rx="6.48227" ry="6.48775" fill="#FFFEFD"/>
<ellipse cx="469.345" cy="486.582" rx="33.7078" ry="33.7363" fill="#4F6234"/>
<line y1="-1.27293" x2="67.8668" y2="-1.27293" transform="matrix(0.706808 0.707406 -0.706808 0.707406 444.737 463.201)" stroke="#FFFEFD" stroke-width="2.54586"/>
<ellipse cx="162.734" cy="278.325" rx="52.5064" ry="52.5508" fill="#4F6234"/>
<ellipse cx="501.109" cy="162.843" rx="52.5064" ry="52.5508" fill="#4F6234"/>
<ellipse cx="70.686" cy="226.423" rx="44.7277" ry="44.7655" fill="#4F6234"/>
<ellipse cx="409.061" cy="110.941" rx="44.7277" ry="44.7655" fill="#4F6234"/>
<ellipse cx="254.782" cy="226.423" rx="44.7277" ry="44.7655" fill="#4F6234"/>
<ellipse cx="593.157" cy="110.941" rx="44.7277" ry="44.7655" fill="#4F6234"/>
<ellipse cx="162.734" cy="171.925" rx="44.7277" ry="44.7655" fill="#4F6234"/>
<ellipse cx="501.109" cy="56.4435" rx="44.7277" ry="44.7655" fill="#4F6234"/>
<ellipse cx="162.734" cy="386.021" rx="44.7277" ry="44.7655" fill="#4F6234"/>
<ellipse cx="501.109" cy="270.539" rx="44.7277" ry="44.7655" fill="#4F6234"/>
<ellipse cx="70.686" cy="332.822" rx="44.7277" ry="44.7655" fill="#4F6234"/>
<ellipse cx="409.061" cy="217.34" rx="44.7277" ry="44.7655" fill="#4F6234"/>
<ellipse cx="254.782" cy="332.822" rx="44.7277" ry="44.7655" fill="#4F6234"/>
<ellipse cx="593.157" cy="217.34" rx="44.7277" ry="44.7655" fill="#4F6234"/>
<ellipse cx="181.533" cy="247.832" rx="7.77872" ry="7.7853" fill="#FFD17C"/>
<ellipse cx="519.908" cy="132.35" rx="7.77872" ry="7.7853" fill="#FFD17C"/>
<ellipse cx="198.387" cy="280.271" rx="7.77872" ry="7.7853" fill="#FFD17C"/>
<ellipse cx="536.761" cy="164.789" rx="7.77872" ry="7.7853" fill="#FFD17C"/>
<ellipse cx="180.236" cy="310.115" rx="7.77872" ry="7.7853" fill="#FFD17C"/>
<ellipse cx="518.611" cy="194.633" rx="7.77872" ry="7.7853" fill="#FFD17C"/>
<ellipse cx="143.936" cy="310.115" rx="7.77872" ry="7.7853" fill="#FFD17C"/>
<ellipse cx="482.31" cy="194.633" rx="7.77872" ry="7.7853" fill="#FFD17C"/>
<ellipse cx="127.082" cy="278.974" rx="7.77872" ry="7.7853" fill="#FFD17C"/>
<ellipse cx="465.456" cy="163.491" rx="7.77872" ry="7.7853" fill="#FFD17C"/>
<ellipse cx="143.936" cy="247.832" rx="7.77872" ry="7.7853" fill="#FFD17C"/>
<ellipse cx="482.31" cy="132.35" rx="7.77872" ry="7.7853" fill="#FFD17C"/>
<ellipse cx="162.734" cy="279.622" rx="13.6128" ry="13.6243" fill="#FFD17C"/>
<ellipse cx="501.109" cy="164.14" rx="13.6128" ry="13.6243" fill="#FFD17C"/>
<line x1="654.738" y1="328.93" x2="700.114" y2="328.93" stroke="#4F6234" stroke-width="1.29645"/>
<line x1="654.738" y1="354.881" x2="700.114" y2="354.881" stroke="#4F6234" stroke-width="1.29645"/>
<line x1="654.738" y1="380.832" x2="700.114" y2="380.832" stroke="#4F6234" stroke-width="1.29645"/>
<line x1="654.738" y1="406.783" x2="700.114" y2="406.783" stroke="#4F6234" stroke-width="1.29645"/>
<line x1="654.738" y1="432.734" x2="700.114" y2="432.734" stroke="#4F6234" stroke-width="1.29645"/>
<line x1="654.738" y1="334.12" x2="700.114" y2="334.12" stroke="#4F6234" stroke-width="1.29645"/>
<line x1="654.738" y1="360.071" x2="700.114" y2="360.071" stroke="#4F6234" stroke-width="1.29645"/>
<line x1="654.738" y1="386.022" x2="700.114" y2="386.022" stroke="#4F6234" stroke-width="1.29645"/>
<line x1="654.738" y1="411.973" x2="700.114" y2="411.973" stroke="#4F6234" stroke-width="1.29645"/>
<line x1="654.738" y1="437.924" x2="700.114" y2="437.924" stroke="#4F6234" stroke-width="1.29645"/>
<line x1="654.738" y1="339.31" x2="700.114" y2="339.31" stroke="#4F6234" stroke-width="1.29645"/>
<line x1="654.738" y1="365.261" x2="700.114" y2="365.261" stroke="#4F6234" stroke-width="1.29645"/>
<line x1="654.738" y1="391.212" x2="700.114" y2="391.212" stroke="#4F6234" stroke-width="1.29645"/>
<line x1="654.738" y1="417.163" x2="700.114" y2="417.163" stroke="#4F6234" stroke-width="1.29645"/>
<line x1="654.738" y1="443.114" x2="700.114" y2="443.114" stroke="#4F6234" stroke-width="1.29645"/>
<line x1="654.738" y1="344.5" x2="700.114" y2="344.5" stroke="#4F6234" stroke-width="1.29645"/>
<line x1="654.738" y1="370.451" x2="700.114" y2="370.451" stroke="#4F6234" stroke-width="1.29645"/>
<line x1="654.738" y1="396.402" x2="700.114" y2="396.402" stroke="#4F6234" stroke-width="1.29645"/>
<line x1="654.738" y1="422.353" x2="700.114" y2="422.353" stroke="#4F6234" stroke-width="1.29645"/>
<line x1="654.738" y1="448.304" x2="700.114" y2="448.304" stroke="#4F6234" stroke-width="1.29645"/>
<line x1="654.738" y1="349.691" x2="700.114" y2="349.691" stroke="#4F6234" stroke-width="1.29645"/>
<line x1="654.738" y1="375.641" x2="700.114" y2="375.641" stroke="#4F6234" stroke-width="1.29645"/>
<line x1="654.738" y1="401.593" x2="700.114" y2="401.593" stroke="#4F6234" stroke-width="1.29645"/>
<line x1="654.738" y1="427.544" x2="700.114" y2="427.544" stroke="#4F6234" stroke-width="1.29645"/>
<line x1="654.738" y1="453.494" x2="700.114" y2="453.494" stroke="#4F6234" stroke-width="1.29645"/>
</svg>
