<svg width="323" height="514" viewBox="0 0 323 514" fill="none" xmlns="http://www.w3.org/2000/svg">
<path d="M6.60071 2.68333C6.60071 1.20137 7.80208 0 9.28404 0H21.4412C22.9231 0 24.1245 1.20137 24.1245 2.68333V223.429H6.60071V2.68333Z" fill="#FFD17C"/>
<path d="M297.934 2.68333C297.934 1.20137 299.135 0 300.617 0H312.775C314.257 0 315.458 1.20137 315.458 2.68333V223.429H297.934V2.68333Z" fill="#FFD17C"/>
<rect x="4.41028" y="153.333" width="6.57143" height="24.0952" rx="2.68333" transform="rotate(-90 4.41028 153.333)" fill="#4F6234"/>
<rect x="293.553" y="153.333" width="6.57143" height="24.0952" rx="2.68333" transform="rotate(-90 293.553 153.333)" fill="#4F6234"/>
<rect x="6.29041" y="10.7334" width="308.857" height="124.857" fill="#4F6234"/>
<rect x="0.0292969" y="223.429" width="322" height="8.7619" fill="#4F6234"/>
<path fill-rule="evenodd" clip-rule="evenodd" d="M25.8451 232.19L301.861 504.122L282.601 503.738L6.97389 232.19L25.8451 232.19Z" fill="#FFD17C"/>
<path fill-rule="evenodd" clip-rule="evenodd" d="M295.76 232.19L19.7437 504.122L39.0043 503.738L314.631 232.19L295.76 232.19Z" fill="#FFD17C"/>
<circle cx="161.029" cy="373.475" r="3.28571" fill="#4F6234"/>
<path d="M89.1701 80.1509C87.7728 80.1509 86.5501 79.8426 85.5022 79.2262C84.4542 78.6097 83.6322 77.6747 83.0363 76.4213C82.4609 75.1472 82.1732 73.5444 82.1732 71.6128C82.1732 69.6607 82.4506 68.0579 83.0055 66.8044C83.5603 65.5509 84.3617 64.616 85.4097 63.9995C86.4577 63.383 87.7112 63.0748 89.1701 63.0748C90.7318 63.0748 92.1292 63.4344 93.3621 64.1536C94.6156 64.8523 95.6019 65.8386 96.3211 67.1126C97.0609 68.3867 97.4308 69.8867 97.4308 71.6128C97.4308 73.3595 97.0609 74.8698 96.3211 76.1439C95.6019 77.4179 94.6156 78.4042 93.3621 79.1029C92.1292 79.8016 90.7318 80.1509 89.1701 80.1509ZM79.3683 85.884V63.3214H83.961V66.7119L83.8685 71.6437L84.1768 76.5446V85.884H79.3683ZM88.3379 76.2055C89.1393 76.2055 89.8482 76.0206 90.4647 75.6507C91.1017 75.2808 91.6052 74.7568 91.975 74.0787C92.3655 73.38 92.5607 72.5581 92.5607 71.6128C92.5607 70.647 92.3655 69.8251 91.975 69.147C91.6052 68.4689 91.1017 67.9449 90.4647 67.575C89.8482 67.2051 89.1393 67.0202 88.3379 67.0202C87.5365 67.0202 86.8173 67.2051 86.1803 67.575C85.5432 67.9449 85.0398 68.4689 84.6699 69.147C84.3 69.8251 84.1151 70.647 84.1151 71.6128C84.1151 72.5581 84.3 73.38 84.6699 74.0787C85.0398 74.7568 85.5432 75.2808 86.1803 75.6507C86.8173 76.0206 87.5365 76.2055 88.3379 76.2055ZM108.907 80.1509C107.017 80.1509 105.352 79.781 103.914 79.0412C102.496 78.3015 101.397 77.2946 100.616 76.0206C99.835 74.726 99.4446 73.2567 99.4446 71.6128C99.4446 69.9484 99.8248 68.4791 100.585 67.2051C101.366 65.9105 102.424 64.9036 103.76 64.1844C105.096 63.4447 106.606 63.0748 108.291 63.0748C109.914 63.0748 111.373 63.4241 112.668 64.1228C113.983 64.8009 115.021 65.7872 115.781 67.0818C116.541 68.3558 116.921 69.8867 116.921 71.6745C116.921 71.8594 116.911 72.0752 116.891 72.3218C116.87 72.5478 116.849 72.7636 116.829 72.9691H103.359V70.1641H114.301L112.452 70.9964C112.452 70.1333 112.277 69.3833 111.928 68.7463C111.579 68.1093 111.096 67.6161 110.479 67.2668C109.863 66.8969 109.144 66.7119 108.322 66.7119C107.5 66.7119 106.77 66.8969 106.133 67.2668C105.517 67.6161 105.034 68.1195 104.685 68.7771C104.335 69.4141 104.161 70.1744 104.161 71.058V71.7978C104.161 72.7019 104.356 73.5033 104.746 74.202C105.157 74.8801 105.722 75.4041 106.441 75.774C107.181 76.1233 108.044 76.298 109.031 76.298C109.914 76.298 110.685 76.1644 111.342 75.8973C112.021 75.6301 112.637 75.2294 113.192 74.6952L115.75 77.4693C114.99 78.3323 114.034 79.0001 112.884 79.4728C111.733 79.9248 110.407 80.1509 108.907 80.1509ZM140.098 79.9043L135.691 72.0444L139.574 69.7326L145.801 79.9043H140.098ZM132.855 73.6164V69.7634H138.619V73.6164H132.855ZM140.068 72.1677L135.536 71.6745L140.314 63.3214H145.4L140.068 72.1677ZM123.7 79.9043H118.029L124.224 69.7326L128.108 72.0444L123.7 79.9043ZM134.273 79.9043H129.526V63.3214H134.273V79.9043ZM130.944 73.6164H125.211V69.7634H130.944V73.6164ZM123.731 72.1677L118.399 63.3214H123.485L128.231 71.6745L123.731 72.1677ZM148.3 79.9043V63.3214H153.078V73.1848L161.153 63.3214H165.561V79.9043H160.783V70.0409L152.739 79.9043H148.3ZM178.074 80.1509C176.286 80.1509 174.694 79.7913 173.296 79.0721C171.899 78.3323 170.8 77.3151 169.998 76.0206C169.217 74.726 168.827 73.2567 168.827 71.6128C168.827 69.9484 169.217 68.4791 169.998 67.2051C170.8 65.9105 171.899 64.9036 173.296 64.1844C174.694 63.4447 176.286 63.0748 178.074 63.0748C179.821 63.0748 181.341 63.4447 182.636 64.1844C183.93 64.9036 184.886 65.9414 185.502 67.2976L181.773 69.3011C181.341 68.5202 180.797 67.9449 180.139 67.575C179.502 67.2051 178.804 67.0202 178.043 67.0202C177.221 67.0202 176.481 67.2051 175.824 67.575C175.166 67.9449 174.642 68.4689 174.252 69.147C173.882 69.8251 173.697 70.647 173.697 71.6128C173.697 72.5786 173.882 73.4006 174.252 74.0787C174.642 74.7568 175.166 75.2808 175.824 75.6507C176.481 76.0206 177.221 76.2055 178.043 76.2055C178.804 76.2055 179.502 76.0308 180.139 75.6815C180.797 75.3116 181.341 74.726 181.773 73.9246L185.502 75.9589C184.886 77.2946 183.93 78.3323 182.636 79.0721C181.341 79.7913 179.821 80.1509 178.074 80.1509ZM196.104 80.1509C194.317 80.1509 192.724 79.7913 191.327 79.0721C189.93 78.3323 188.83 77.3151 188.029 76.0206C187.248 74.726 186.857 73.2567 186.857 71.6128C186.857 69.9484 187.248 68.4791 188.029 67.2051C188.83 65.9105 189.93 64.9036 191.327 64.1844C192.724 63.4447 194.317 63.0748 196.104 63.0748C197.851 63.0748 199.372 63.4447 200.666 64.1844C201.961 64.9036 202.916 65.9414 203.533 67.2976L199.803 69.3011C199.372 68.5202 198.827 67.9449 198.17 67.575C197.533 67.2051 196.834 67.0202 196.074 67.0202C195.252 67.0202 194.512 67.2051 193.854 67.575C193.197 67.9449 192.673 68.4689 192.282 69.147C191.912 69.8251 191.728 70.647 191.728 71.6128C191.728 72.5786 191.912 73.4006 192.282 74.0787C192.673 74.7568 193.197 75.2808 193.854 75.6507C194.512 76.0206 195.252 76.2055 196.074 76.2055C196.834 76.2055 197.533 76.0308 198.17 75.6815C198.827 75.3116 199.372 74.726 199.803 73.9246L203.533 75.9589C202.916 77.2946 201.961 78.3323 200.666 79.0721C199.372 79.7913 197.851 80.1509 196.104 80.1509ZM214.351 80.1509C212.46 80.1509 210.796 79.781 209.357 79.0412C207.939 78.3015 206.84 77.2946 206.059 76.0206C205.278 74.726 204.888 73.2567 204.888 71.6128C204.888 69.9484 205.268 68.4791 206.028 67.2051C206.809 65.9105 207.867 64.9036 209.203 64.1844C210.539 63.4447 212.049 63.0748 213.734 63.0748C215.357 63.0748 216.816 63.4241 218.111 64.1228C219.426 64.8009 220.464 65.7872 221.224 67.0818C221.984 68.3558 222.365 69.8867 222.365 71.6745C222.365 71.8594 222.354 72.0752 222.334 72.3218C222.313 72.5478 222.293 72.7636 222.272 72.9691H208.802V70.1641H219.745L217.895 70.9964C217.895 70.1333 217.721 69.3833 217.371 68.7463C217.022 68.1093 216.539 67.6161 215.923 67.2668C215.306 66.8969 214.587 66.7119 213.765 66.7119C212.943 66.7119 212.214 66.8969 211.577 67.2668C210.96 67.6161 210.477 68.1195 210.128 68.7771C209.778 69.4141 209.604 70.1744 209.604 71.058V71.7978C209.604 72.7019 209.799 73.5033 210.189 74.202C210.6 74.8801 211.166 75.4041 211.885 75.774C212.624 76.1233 213.488 76.298 214.474 76.298C215.357 76.298 216.128 76.1644 216.786 75.8973C217.464 75.6301 218.08 75.2294 218.635 74.6952L221.193 77.4693C220.433 78.3323 219.478 79.0001 218.327 79.4728C217.176 79.9248 215.851 80.1509 214.351 80.1509ZM235.821 80.1509C234.424 80.1509 233.201 79.8426 232.153 79.2262C231.105 78.6097 230.283 77.6747 229.688 76.4213C229.112 75.1472 228.825 73.5444 228.825 71.6128C228.825 69.6607 229.102 68.0579 229.657 66.8044C230.212 65.5509 231.013 64.616 232.061 63.9995C233.109 63.383 234.362 63.0748 235.821 63.0748C237.383 63.0748 238.78 63.4344 240.013 64.1536C241.267 64.8523 242.253 65.8386 242.972 67.1126C243.712 68.3867 244.082 69.8867 244.082 71.6128C244.082 73.3595 243.712 74.8698 242.972 76.1439C242.253 77.4179 241.267 78.4042 240.013 79.1029C238.78 79.8016 237.383 80.1509 235.821 80.1509ZM226.02 85.884V63.3214H230.612V66.7119L230.52 71.6437L230.828 76.5446V85.884H226.02ZM234.989 76.2055C235.791 76.2055 236.5 76.0206 237.116 75.6507C237.753 75.2808 238.256 74.7568 238.626 74.0787C239.017 73.38 239.212 72.5581 239.212 71.6128C239.212 70.647 239.017 69.8251 238.626 69.147C238.256 68.4689 237.753 67.9449 237.116 67.575C236.5 67.2051 235.791 67.0202 234.989 67.0202C234.188 67.0202 233.469 67.2051 232.832 67.575C232.195 67.9449 231.691 68.4689 231.321 69.147C230.951 69.8251 230.766 70.647 230.766 71.6128C230.766 72.5581 230.951 73.38 231.321 74.0787C231.691 74.7568 232.195 75.2808 232.832 75.6507C233.469 76.0206 234.188 76.2055 234.989 76.2055Z" fill="#FFD17C"/>
</svg>
