<svg width="283" height="284" viewBox="0 0 283 284" fill="none" xmlns="http://www.w3.org/2000/svg">
<ellipse cx="141.486" cy="141.605" rx="141.486" ry="141.605" fill="#4F6234"/>
<ellipse cx="141.621" cy="141.606" rx="45.6587" ry="45.6973" fill="#FFD17C"/>
<ellipse cx="141.183" cy="141.993" rx="35.0784" ry="35.1081" fill="#FFFEFD"/>
<ellipse cx="61.4423" cy="96.4718" rx="38.8944" ry="38.9273" fill="#FFD17C"/>
<ellipse cx="221.529" cy="96.4718" rx="38.8944" ry="38.9273" fill="#FFD17C"/>
<ellipse cx="141.486" cy="49.0821" rx="38.8944" ry="38.9273" fill="#FFD17C"/>
<ellipse cx="141.486" cy="235.257" rx="38.8944" ry="38.9273" fill="#FFD17C"/>
<ellipse cx="61.4423" cy="188.995" rx="38.8944" ry="38.9273" fill="#FFD17C"/>
<ellipse cx="221.529" cy="188.995" rx="38.8944" ry="38.9273" fill="#FFD17C"/>
<line opacity="0.4" x1="109.223" y1="141.993" x2="172.422" y2="141.993" stroke="#FFD17C" stroke-width="0.780181"/>
<line opacity="0.4" x1="109.223" y1="150.965" x2="172.422" y2="150.965" stroke="#FFD17C" stroke-width="0.780181"/>
<path d="M115.795 140.632V137.059L116.021 137.293H114.328V136.466H118.229V137.293H116.544L116.77 137.059V140.632H115.795ZM120.61 140.686C120.184 140.686 119.804 140.595 119.471 140.413C119.138 140.226 118.876 139.971 118.683 139.649C118.491 139.326 118.394 138.96 118.394 138.549C118.394 138.133 118.491 137.766 118.683 137.449C118.876 137.126 119.138 136.874 119.471 136.692C119.804 136.51 120.184 136.419 120.61 136.419C121.042 136.419 121.424 136.51 121.757 136.692C122.095 136.874 122.358 137.124 122.545 137.441C122.737 137.758 122.834 138.127 122.834 138.549C122.834 138.96 122.737 139.326 122.545 139.649C122.358 139.971 122.095 140.226 121.757 140.413C121.424 140.595 121.042 140.686 120.61 140.686ZM120.61 139.852C120.849 139.852 121.063 139.8 121.25 139.696C121.437 139.592 121.583 139.441 121.687 139.243C121.796 139.045 121.851 138.814 121.851 138.549C121.851 138.278 121.796 138.047 121.687 137.854C121.583 137.657 121.437 137.506 121.25 137.402C121.063 137.298 120.852 137.246 120.618 137.246C120.379 137.246 120.165 137.298 119.978 137.402C119.796 137.506 119.651 137.657 119.541 137.854C119.432 138.047 119.377 138.278 119.377 138.549C119.377 138.814 119.432 139.045 119.541 139.243C119.651 139.441 119.796 139.592 119.978 139.696C120.165 139.8 120.376 139.852 120.61 139.852ZM123.797 140.632V136.466H127.792V140.632H126.824V137.066L127.05 137.293H124.546L124.772 137.066V140.632H123.797ZM133.908 140.71C133.903 140.71 133.88 140.71 133.838 140.71C133.802 140.71 133.765 140.71 133.729 140.71C133.698 140.71 133.677 140.71 133.667 140.71C132.788 140.699 132.106 140.51 131.623 140.14C131.139 139.766 130.897 139.233 130.897 138.541C130.897 137.854 131.139 137.329 131.623 136.965C132.106 136.601 132.795 136.414 133.69 136.403C133.7 136.403 133.721 136.403 133.752 136.403C133.789 136.403 133.823 136.403 133.854 136.403C133.89 136.403 133.911 136.403 133.916 136.403C134.816 136.403 135.516 136.588 136.015 136.957C136.519 137.321 136.772 137.849 136.772 138.541C136.772 139.238 136.519 139.774 136.015 140.148C135.516 140.523 134.813 140.71 133.908 140.71ZM133.877 139.898C134.319 139.898 134.683 139.849 134.97 139.75C135.256 139.646 135.469 139.495 135.609 139.298C135.75 139.095 135.82 138.843 135.82 138.541C135.82 138.244 135.75 138 135.609 137.808C135.469 137.61 135.256 137.464 134.97 137.371C134.683 137.272 134.319 137.222 133.877 137.222C133.867 137.222 133.841 137.222 133.799 137.222C133.763 137.222 133.739 137.222 133.729 137.222C133.297 137.222 132.944 137.274 132.668 137.378C132.392 137.477 132.187 137.623 132.052 137.815C131.922 138.008 131.857 138.25 131.857 138.541C131.857 138.837 131.922 139.084 132.052 139.282C132.187 139.48 132.392 139.631 132.668 139.735C132.949 139.839 133.303 139.893 133.729 139.898C133.739 139.898 133.763 139.898 133.799 139.898C133.841 139.898 133.867 139.898 133.877 139.898ZM133.37 142.145V134.843H134.291V142.145H133.37ZM137.717 140.632V136.466H138.692V139.212L140.994 136.466H141.883V140.632H140.908V137.886L138.614 140.632H137.717ZM142.586 140.624L142.633 139.805C142.67 139.81 142.703 139.815 142.735 139.82C142.766 139.826 142.794 139.828 142.82 139.828C142.982 139.828 143.107 139.779 143.195 139.68C143.283 139.581 143.348 139.449 143.39 139.282C143.437 139.11 143.468 138.921 143.484 138.713C143.504 138.499 143.52 138.286 143.53 138.073L143.601 136.466H146.971V140.632H145.996V137.027L146.222 137.293H144.24L144.451 137.02L144.396 138.12C144.381 138.489 144.35 138.832 144.303 139.149C144.261 139.462 144.194 139.735 144.1 139.969C144.012 140.203 143.887 140.385 143.725 140.515C143.569 140.645 143.369 140.71 143.125 140.71C143.047 140.71 142.961 140.702 142.867 140.686C142.779 140.671 142.685 140.65 142.586 140.624ZM150.375 137.839C150.911 137.839 151.319 137.958 151.6 138.198C151.881 138.437 152.021 138.775 152.021 139.212C152.021 139.664 151.865 140.018 151.553 140.273C151.241 140.523 150.802 140.645 150.235 140.64L148.284 140.632V136.466H149.26V137.831L150.375 137.839ZM150.149 139.922C150.435 139.927 150.654 139.867 150.804 139.742C150.955 139.618 151.031 139.436 151.031 139.196C151.031 138.957 150.955 138.785 150.804 138.681C150.659 138.572 150.44 138.515 150.149 138.51L149.26 138.502V139.914L150.149 139.922ZM152.879 140.632V136.466H153.901L155.578 139.423H155.172L156.936 136.466H157.848L157.856 140.632H156.975V137.511L157.131 137.613L155.57 140.195H155.149L153.581 137.542L153.768 137.496V140.632H152.879ZM161.021 140.686C160.595 140.686 160.215 140.595 159.882 140.413C159.549 140.226 159.286 139.971 159.094 139.649C158.902 139.326 158.805 138.96 158.805 138.549C158.805 138.133 158.902 137.766 159.094 137.449C159.286 137.126 159.549 136.874 159.882 136.692C160.215 136.51 160.595 136.419 161.021 136.419C161.453 136.419 161.835 136.51 162.168 136.692C162.506 136.874 162.769 137.124 162.956 137.441C163.148 137.758 163.245 138.127 163.245 138.549C163.245 138.96 163.148 139.326 162.956 139.649C162.769 139.971 162.506 140.226 162.168 140.413C161.835 140.595 161.453 140.686 161.021 140.686ZM161.021 139.852C161.26 139.852 161.474 139.8 161.661 139.696C161.848 139.592 161.994 139.441 162.098 139.243C162.207 139.045 162.262 138.814 162.262 138.549C162.262 138.278 162.207 138.047 162.098 137.854C161.994 137.657 161.848 137.506 161.661 137.402C161.474 137.298 161.263 137.246 161.029 137.246C160.79 137.246 160.576 137.298 160.389 137.402C160.207 137.506 160.061 137.657 159.952 137.854C159.843 138.047 159.788 138.278 159.788 138.549C159.788 138.814 159.843 139.045 159.952 139.243C160.061 139.441 160.207 139.592 160.389 139.696C160.576 139.8 160.787 139.852 161.021 139.852ZM164.208 140.632V136.466H166.244C166.749 136.466 167.144 136.559 167.43 136.747C167.721 136.934 167.867 137.199 167.867 137.542C167.867 137.88 167.732 138.146 167.461 138.338C167.191 138.525 166.832 138.619 166.385 138.619L166.502 138.377C167.006 138.377 167.381 138.471 167.625 138.658C167.875 138.84 168 139.108 168 139.462C168 139.831 167.862 140.12 167.586 140.328C167.311 140.53 166.892 140.632 166.33 140.632H164.208ZM165.136 139.922H166.252C166.517 139.922 166.718 139.88 166.853 139.797C166.988 139.709 167.056 139.576 167.056 139.399C167.056 139.212 166.993 139.074 166.868 138.986C166.744 138.897 166.549 138.853 166.283 138.853H165.136V139.922ZM165.136 138.205H166.158C166.408 138.205 166.595 138.161 166.72 138.073C166.85 137.979 166.915 137.849 166.915 137.683C166.915 137.511 166.85 137.384 166.72 137.3C166.595 137.217 166.408 137.176 166.158 137.176H165.136V138.205ZM126.374 150.632L124.868 148.635L125.664 148.143L127.521 150.632H126.374ZM123.386 150.632V146.466H124.361V150.632H123.386ZM124.072 148.962V148.151H125.484V148.962H124.072ZM125.757 148.666L124.845 148.557L126.374 146.466H127.419L125.757 148.666ZM127.6 150.624L127.647 149.805C127.683 149.81 127.717 149.815 127.748 149.82C127.779 149.826 127.808 149.828 127.834 149.828C127.995 149.828 128.12 149.779 128.208 149.68C128.297 149.581 128.362 149.449 128.404 149.282C128.45 149.11 128.482 148.921 128.497 148.713C128.518 148.499 128.534 148.286 128.544 148.073L128.614 146.466H131.985V150.632H131.009V147.027L131.236 147.293H129.254L129.465 147.02L129.41 148.12C129.394 148.489 129.363 148.832 129.316 149.149C129.275 149.462 129.207 149.735 129.113 149.969C129.025 150.203 128.9 150.385 128.739 150.515C128.583 150.645 128.383 150.71 128.138 150.71C128.06 150.71 127.974 150.702 127.881 150.686C127.792 150.671 127.699 150.65 127.6 150.624ZM135.826 150.632V149.789L135.771 149.61V148.135C135.771 147.849 135.685 147.628 135.514 147.472C135.342 147.311 135.082 147.23 134.733 147.23C134.499 147.23 134.268 147.267 134.039 147.339C133.815 147.412 133.626 147.514 133.47 147.644L133.087 146.934C133.311 146.762 133.576 146.635 133.883 146.551C134.195 146.463 134.518 146.419 134.85 146.419C135.454 146.419 135.919 146.564 136.247 146.856C136.58 147.142 136.746 147.587 136.746 148.19V150.632H135.826ZM134.515 150.686C134.203 150.686 133.93 150.634 133.696 150.53C133.462 150.421 133.28 150.273 133.15 150.086C133.025 149.893 132.962 149.677 132.962 149.438C132.962 149.204 133.017 148.993 133.126 148.806C133.241 148.619 133.425 148.471 133.68 148.362C133.935 148.252 134.273 148.198 134.694 148.198H135.904V148.845H134.765C134.432 148.845 134.208 148.9 134.094 149.009C133.979 149.113 133.922 149.243 133.922 149.399C133.922 149.576 133.992 149.716 134.133 149.82C134.273 149.924 134.468 149.976 134.718 149.976C134.957 149.976 135.17 149.922 135.358 149.813C135.55 149.703 135.688 149.542 135.771 149.329L135.935 149.914C135.841 150.159 135.672 150.348 135.428 150.484C135.189 150.619 134.884 150.686 134.515 150.686ZM139.849 150.686C139.412 150.686 139.022 150.595 138.679 150.413C138.341 150.226 138.075 149.971 137.883 149.649C137.69 149.326 137.594 148.96 137.594 148.549C137.594 148.133 137.69 147.766 137.883 147.449C138.075 147.126 138.341 146.874 138.679 146.692C139.022 146.51 139.412 146.419 139.849 146.419C140.255 146.419 140.611 146.502 140.918 146.669C141.23 146.83 141.467 147.069 141.628 147.386L140.879 147.823C140.754 147.626 140.601 147.48 140.418 147.386C140.242 147.293 140.049 147.246 139.841 147.246C139.602 147.246 139.386 147.298 139.194 147.402C139.001 147.506 138.85 147.657 138.741 147.854C138.632 148.047 138.577 148.278 138.577 148.549C138.577 148.819 138.632 149.053 138.741 149.251C138.85 149.443 139.001 149.592 139.194 149.696C139.386 149.8 139.602 149.852 139.841 149.852C140.049 149.852 140.242 149.805 140.418 149.711C140.601 149.618 140.754 149.472 140.879 149.274L141.628 149.711C141.467 150.023 141.23 150.265 140.918 150.437C140.611 150.603 140.255 150.686 139.849 150.686ZM144.321 150.686C143.884 150.686 143.494 150.595 143.151 150.413C142.813 150.226 142.548 149.971 142.355 149.649C142.163 149.326 142.067 148.96 142.067 148.549C142.067 148.133 142.163 147.766 142.355 147.449C142.548 147.126 142.813 146.874 143.151 146.692C143.494 146.51 143.884 146.419 144.321 146.419C144.727 146.419 145.083 146.502 145.39 146.669C145.702 146.83 145.939 147.069 146.1 147.386L145.351 147.823C145.226 147.626 145.073 147.48 144.891 147.386C144.714 147.293 144.522 147.246 144.313 147.246C144.074 147.246 143.858 147.298 143.666 147.402C143.473 147.506 143.323 147.657 143.213 147.854C143.104 148.047 143.05 148.278 143.05 148.549C143.05 148.819 143.104 149.053 143.213 149.251C143.323 149.443 143.473 149.592 143.666 149.696C143.858 149.8 144.074 149.852 144.313 149.852C144.522 149.852 144.714 149.805 144.891 149.711C145.073 149.618 145.226 149.472 145.351 149.274L146.1 149.711C145.939 150.023 145.702 150.265 145.39 150.437C145.083 150.603 144.727 150.686 144.321 150.686ZM146.959 150.632V146.466H147.934V149.212L150.235 146.466H151.125V150.632H150.15V147.886L147.856 150.632H146.959ZM155.425 150.632L153.919 148.635L154.715 148.143L156.572 150.632H155.425ZM152.437 150.632V146.466H153.412V150.632H152.437ZM153.123 148.962V148.151H154.535V148.962H153.123ZM154.808 148.666L153.896 148.557L155.425 146.466H156.47L154.808 148.666ZM157.26 150.632V146.466H158.235V149.212L160.536 146.466H161.426V150.632H160.45V147.886L158.157 150.632H157.26Z" fill="#4F6234"/>
</svg>
