<svg width="613" height="470" viewBox="0 0 613 470" fill="none" xmlns="http://www.w3.org/2000/svg">
<rect x="27.1147" width="591.715" height="157.691" transform="rotate(9.05029 27.1147 0)" fill="#4F6234"/>
<path d="M200.296 104.468L193.326 88.241L199.592 85.7808L208.277 105.825L200.296 104.468ZM180.559 101.11L185.724 70.7465L192.708 71.9344L187.543 102.298L180.559 101.11ZM187.585 89.7192L188.581 83.8633L199.165 85.6637L198.169 91.5196L187.585 89.7192ZM199.622 89.5352L193.292 87.655L205.721 74.148L213.139 75.4097L199.622 89.5352ZM211.569 106.385L216.734 76.0213L223.718 77.2092L220.353 96.9891L238.206 79.6736L244.799 80.7952L239.634 111.159L232.694 109.978L236.051 90.242L218.206 107.514L211.569 106.385ZM273.18 85.6228L280.207 86.8181L275.042 117.182L268.015 115.987L273.18 85.6228ZM254.221 113.64L247.194 112.445L252.359 82.0811L259.386 83.2764L254.221 113.64ZM270.653 103.626L255.818 101.103L256.829 95.1599L271.664 97.6834L270.653 103.626ZM297.092 121.468C294.692 121.06 292.532 120.291 290.612 119.161C288.72 118.036 287.143 116.637 285.88 114.964C284.647 113.296 283.773 111.437 283.259 109.385C282.774 107.339 282.723 105.188 283.107 102.933C283.49 100.677 284.249 98.6637 285.384 96.8929C286.547 95.1269 288.001 93.6634 289.746 92.5022C291.491 91.341 293.441 90.5421 295.599 90.1057C297.756 89.6692 300.02 89.6527 302.391 90.056C304.791 90.4643 306.923 91.2285 308.785 92.3487C310.677 93.4739 312.239 94.8703 313.473 96.5382C314.736 98.2109 315.624 100.073 316.138 102.124C316.657 104.147 316.722 106.3 316.333 108.584C315.95 110.84 315.174 112.865 314.006 114.66C312.842 116.426 311.388 117.89 309.644 119.051C307.933 120.188 305.999 120.975 303.842 121.411C301.713 121.853 299.464 121.872 297.092 121.468ZM298.067 115.475C299.426 115.706 300.709 115.686 301.916 115.415C303.151 115.15 304.276 114.657 305.292 113.937C306.307 113.217 307.146 112.303 307.811 111.196C308.504 110.094 308.974 108.82 309.22 107.374C309.466 105.928 309.444 104.571 309.154 103.302C308.893 102.037 308.402 100.898 307.682 99.8825C306.991 98.8723 306.107 98.0375 305.029 97.378C303.951 96.7186 302.732 96.2732 301.373 96.0421C300.014 95.8109 298.716 95.8282 297.481 96.0942C296.274 96.365 295.164 96.8604 294.149 97.5804C293.133 98.3004 292.279 99.2113 291.586 100.313C290.922 101.42 290.466 102.697 290.22 104.143C289.979 105.56 289.987 106.915 290.243 108.208C290.533 109.477 291.024 110.617 291.715 111.627C292.435 112.642 293.334 113.48 294.412 114.139C295.49 114.798 296.708 115.244 298.067 115.475ZM338.814 128.03L331.844 111.803L338.11 109.343L346.795 129.387L338.814 128.03ZM319.077 124.672L324.242 94.3086L331.226 95.4965L326.061 125.86L319.077 124.672ZM326.103 113.281L327.099 107.425L337.683 109.226L336.687 115.082L326.103 113.281ZM338.141 113.097L331.81 111.217L344.239 97.71L351.657 98.9717L338.141 113.097ZM351.072 130.606C350.552 130.517 350.01 130.38 349.446 130.195C348.911 130.015 348.324 129.796 347.683 129.538L349.128 123.669C349.513 123.854 349.922 123.983 350.356 124.057C351.542 124.259 352.548 123.939 353.376 123.098C354.208 122.228 354.924 120.906 355.523 119.134C356.122 117.361 356.686 115.181 357.216 112.593L359.745 100.348L383.082 104.317L377.917 134.681L370.977 133.501L375.441 107.257L376.773 109.135L363.369 106.855L365.088 105.407L363.463 113.388C362.87 116.352 362.217 118.963 361.505 121.222C360.794 123.482 359.968 125.365 359.027 126.871C358.087 128.377 356.967 129.451 355.667 130.093C354.368 130.735 352.836 130.906 351.072 130.606ZM387.515 130.422C389.109 131.199 390.487 131.582 391.649 131.572C392.845 131.537 394.01 130.902 395.142 129.667L396.993 127.705L397.769 127.078L411.183 109.097L418.08 110.27L401.066 132.102C399.54 134.074 397.884 135.504 396.096 136.39C394.338 137.281 392.507 137.639 390.602 137.464C388.693 137.317 386.798 136.653 384.916 135.47L387.515 130.422ZM396.643 132.912L387.282 105.032L394.786 106.308L401.382 128.407L396.643 132.912ZM416.254 141.202L421.419 110.838L445.927 115.007L444.975 120.603L427.451 117.622L426.388 123.868L434.803 125.3C438.476 125.924 441.136 127.165 442.784 129.023C444.461 130.885 445.051 133.276 444.554 136.197C444.043 139.205 442.574 141.365 440.149 142.678C437.724 143.991 434.559 144.316 430.655 143.652L416.254 141.202ZM424.123 137.185L431.15 138.38C432.943 138.685 434.376 138.572 435.448 138.04C436.525 137.48 437.18 136.52 437.411 135.16C437.863 132.5 436.239 130.855 432.537 130.225L425.51 129.03L424.123 137.185Z" fill="#FFD17C"/>
<path d="M179.16 87.0363L446.78 132.559L446.411 134.728L178.791 89.2052L179.16 87.0363Z" fill="#FFD17C"/>
<path d="M238.529 151.096C237.63 150.943 236.86 150.605 236.218 150.082C235.589 149.562 235.127 148.911 234.834 148.131C234.553 147.352 234.489 146.508 234.644 145.597C234.801 144.674 235.141 143.892 235.664 143.251C236.199 142.611 236.849 142.156 237.613 141.884C238.391 141.603 239.23 141.538 240.129 141.691C240.874 141.818 241.524 142.075 242.079 142.461C242.646 142.85 243.071 143.36 243.353 143.993L242.615 144.36C242.364 143.83 242.009 143.411 241.551 143.102C241.092 142.792 240.573 142.589 239.993 142.49C239.271 142.367 238.593 142.422 237.957 142.655C237.334 142.878 236.807 143.257 236.376 143.792C235.958 144.317 235.682 144.97 235.549 145.751C235.417 146.532 235.46 147.245 235.678 147.891C235.911 148.527 236.283 149.059 236.795 149.487C237.32 149.905 237.943 150.175 238.665 150.298C239.245 150.396 239.802 150.376 240.337 150.235C240.872 150.095 241.346 149.817 241.757 149.4L242.332 149.99C241.857 150.494 241.288 150.835 240.625 151.015C239.973 151.196 239.274 151.223 238.529 151.096ZM250.51 153.061L252.556 141.03L252.892 141.525L249.45 140.94L249.588 140.123L253.528 140.794L251.415 153.215L250.51 153.061ZM259.395 154.664C258.448 154.503 257.652 154.106 257.005 153.472C256.358 152.839 255.907 152.019 255.652 151.014C255.399 149.998 255.383 148.839 255.604 147.537C255.825 146.236 256.223 145.153 256.796 144.289C257.371 143.413 258.068 142.783 258.888 142.399C259.708 142.015 260.591 141.904 261.538 142.065C262.496 142.228 263.293 142.625 263.928 143.256C264.575 143.89 265.025 144.715 265.278 145.732C265.533 146.737 265.55 147.89 265.328 149.191C265.107 150.493 264.709 151.581 264.134 152.457C263.561 153.321 262.864 153.945 262.044 154.329C261.236 154.715 260.353 154.827 259.395 154.664ZM259.537 153.83C260.329 153.965 261.057 153.869 261.721 153.544C262.387 153.207 262.955 152.659 263.425 151.899C263.896 151.139 264.228 150.185 264.423 149.037C264.621 147.878 264.622 146.868 264.428 146.007C264.235 145.135 263.879 144.435 263.36 143.909C262.843 143.37 262.189 143.034 261.396 142.899C260.615 142.766 259.886 142.867 259.208 143.202C258.544 143.527 257.977 144.07 257.507 144.83C257.039 145.578 256.706 146.532 256.509 147.691C256.314 148.839 256.312 149.849 256.505 150.721C256.697 151.594 257.052 152.299 257.569 152.838C258.1 153.366 258.756 153.697 259.537 153.83ZM266.823 155.909C266.622 155.875 266.457 155.774 266.327 155.606C266.211 155.428 266.172 155.232 266.208 155.019C266.244 154.806 266.345 154.641 266.511 154.523C266.689 154.407 266.879 154.367 267.08 154.401C267.281 154.435 267.44 154.535 267.558 154.701C267.688 154.869 267.735 155.06 267.698 155.273C267.662 155.486 267.554 155.656 267.374 155.784C267.208 155.902 267.024 155.943 266.823 155.909ZM274.246 157.19C273.299 157.029 272.503 156.632 271.856 155.998C271.209 155.365 270.758 154.546 270.503 153.541C270.25 152.524 270.234 151.365 270.455 150.063C270.677 148.762 271.074 147.679 271.647 146.815C272.222 145.939 272.919 145.309 273.739 144.925C274.559 144.541 275.442 144.43 276.389 144.591C277.347 144.754 278.144 145.151 278.779 145.783C279.426 146.416 279.876 147.241 280.129 148.258C280.384 149.263 280.401 150.416 280.18 151.718C279.958 153.019 279.56 154.108 278.985 154.983C278.412 155.848 277.715 156.472 276.895 156.856C276.087 157.242 275.204 157.353 274.246 157.19ZM274.388 156.356C275.18 156.491 275.909 156.396 276.573 156.07C277.238 155.733 277.806 155.185 278.277 154.425C278.747 153.665 279.079 152.711 279.275 151.564C279.472 150.404 279.473 149.394 279.279 148.533C279.086 147.661 278.731 146.961 278.212 146.435C277.694 145.896 277.04 145.56 276.247 145.425C275.466 145.292 274.737 145.393 274.059 145.728C273.395 146.054 272.828 146.596 272.358 147.356C271.89 148.104 271.557 149.058 271.36 150.217C271.165 151.365 271.164 152.375 271.356 153.248C271.548 154.12 271.903 154.826 272.42 155.364C272.951 155.893 273.607 156.223 274.388 156.356ZM285.926 159.177C284.979 159.016 284.183 158.619 283.536 157.985C282.889 157.352 282.438 156.532 282.183 155.527C281.93 154.511 281.914 153.352 282.135 152.05C282.356 150.749 282.754 149.666 283.327 148.802C283.902 147.926 284.599 147.296 285.419 146.912C286.239 146.528 287.122 146.417 288.069 146.578C289.027 146.741 289.824 147.138 290.459 147.769C291.106 148.403 291.556 149.228 291.809 150.245C292.064 151.25 292.081 152.403 291.859 153.704C291.638 155.006 291.24 156.094 290.665 156.97C290.092 157.834 289.395 158.458 288.575 158.842C287.767 159.228 286.884 159.34 285.926 159.177ZM286.068 158.343C286.86 158.478 287.588 158.382 288.252 158.057C288.918 157.72 289.486 157.171 289.956 156.412C290.427 155.652 290.759 154.698 290.954 153.55C291.152 152.391 291.153 151.381 290.959 150.52C290.766 149.648 290.41 148.948 289.891 148.421C289.374 147.883 288.72 147.547 287.927 147.412C287.146 147.279 286.417 147.38 285.739 147.715C285.075 148.04 284.508 148.583 284.038 149.343C283.57 150.091 283.237 151.045 283.04 152.204C282.845 153.352 282.843 154.362 283.036 155.234C283.228 156.107 283.583 156.812 284.1 157.351C284.631 157.879 285.287 158.21 286.068 158.343ZM304.664 161.835L306.031 153.796L301.205 152.975L300.706 155.264C300.572 155.911 300.419 156.554 300.25 157.195C300.082 157.823 299.887 158.399 299.664 158.921C299.443 159.431 299.186 159.832 298.893 160.123C298.612 160.416 298.285 160.549 297.913 160.522L297.059 160.176C297.433 160.264 297.764 160.18 298.051 159.925C298.34 159.657 298.593 159.274 298.812 158.776C299.031 158.278 299.225 157.708 299.395 157.068C299.578 156.417 299.746 155.752 299.899 155.072L300.542 152.041L307.054 153.149L305.551 161.986L304.664 161.835ZM296.125 163.194L296.65 160.106L307.102 161.884L306.577 164.972L305.743 164.83L306.135 162.523L297.369 161.032L296.977 163.339L296.125 163.194ZM313.269 163.81C312.382 163.659 311.623 163.323 310.994 162.802C310.376 162.283 309.92 161.633 309.627 160.853C309.346 160.075 309.282 159.23 309.437 158.319C309.594 157.397 309.933 156.62 310.454 155.991C310.989 155.352 311.634 154.889 312.388 154.604C313.154 154.32 313.981 154.254 314.869 154.405C315.756 154.556 316.514 154.892 317.144 155.412C317.773 155.933 318.229 156.583 318.51 157.361C318.794 158.128 318.857 158.972 318.7 159.895C318.545 160.806 318.206 161.582 317.683 162.223C317.16 162.865 316.516 163.327 315.749 163.611C314.983 163.894 314.156 163.961 313.269 163.81ZM313.405 163.011C314.114 163.132 314.78 163.081 315.403 162.858C316.027 162.623 316.549 162.237 316.969 161.7C317.389 161.163 317.664 160.51 317.795 159.741C317.928 158.96 317.884 158.253 317.663 157.619C317.444 156.973 317.078 156.442 316.565 156.026C316.053 155.598 315.443 155.324 314.733 155.203C314.023 155.082 313.356 155.139 312.732 155.374C312.121 155.599 311.6 155.979 311.168 156.514C310.75 157.039 310.475 157.692 310.342 158.473C310.211 159.242 310.255 159.95 310.474 160.595C310.705 161.243 311.07 161.78 311.57 162.206C312.083 162.622 312.695 162.89 313.405 163.011ZM324.171 165.591L324.279 164.952L330.419 160.629C331.001 160.216 331.447 159.848 331.757 159.523C332.07 159.187 332.295 158.866 332.432 158.561C332.581 158.258 332.682 157.952 332.734 157.645C332.867 156.864 332.706 156.203 332.25 155.663C331.796 155.111 331.054 154.748 330.025 154.573C329.244 154.44 328.538 154.441 327.906 154.577C327.286 154.715 326.722 154.991 326.214 155.403L325.672 154.727C326.237 154.263 326.906 153.945 327.678 153.772C328.462 153.601 329.315 153.594 330.238 153.751C331.054 153.89 331.735 154.145 332.28 154.518C332.839 154.881 333.236 155.338 333.471 155.889C333.72 156.431 333.787 157.038 333.672 157.713C333.604 158.115 333.477 158.501 333.293 158.871C333.122 159.232 332.852 159.6 332.484 159.976C332.128 160.353 331.631 160.768 330.994 161.219L325.225 165.296L324.984 164.889L332.845 166.227L332.706 167.043L324.171 165.591ZM334.169 167.292L334.278 166.653L340.418 162.329C341 161.917 341.446 161.549 341.756 161.224C342.069 160.888 342.294 160.567 342.431 160.262C342.58 159.958 342.681 159.653 342.733 159.345C342.866 158.565 342.705 157.904 342.249 157.364C341.795 156.812 341.053 156.449 340.024 156.274C339.243 156.141 338.537 156.142 337.905 156.278C337.285 156.416 336.721 156.692 336.213 157.104L335.671 156.428C336.236 155.964 336.905 155.646 337.677 155.473C338.461 155.302 339.314 155.295 340.237 155.452C341.053 155.59 341.734 155.846 342.279 156.219C342.838 156.582 343.235 157.039 343.47 157.59C343.719 158.131 343.786 158.739 343.671 159.414C343.603 159.816 343.476 160.202 343.291 160.572C343.121 160.933 342.851 161.301 342.483 161.676C342.127 162.054 341.63 162.469 340.993 162.92L335.224 166.996L334.983 166.59L342.844 167.927L342.705 168.744L334.169 167.292ZM345.377 169.271C345.176 169.237 345.01 169.136 344.88 168.968C344.765 168.79 344.725 168.594 344.761 168.381C344.797 168.168 344.899 168.003 345.065 167.885C345.243 167.769 345.432 167.729 345.633 167.763C345.834 167.797 345.994 167.897 346.112 168.063C346.241 168.231 346.288 168.422 346.252 168.635C346.215 168.848 346.107 169.018 345.927 169.146C345.761 169.264 345.578 169.305 345.377 169.271ZM352.799 170.552C351.853 170.391 351.056 169.994 350.409 169.36C349.762 168.727 349.311 167.908 349.056 166.903C348.803 165.886 348.787 164.727 349.008 163.425C349.23 162.124 349.627 161.041 350.2 160.177C350.775 159.301 351.473 158.671 352.293 158.287C353.113 157.903 353.996 157.792 354.942 157.953C355.9 158.116 356.697 158.513 357.332 159.145C357.979 159.778 358.429 160.603 358.682 161.62C358.937 162.625 358.954 163.778 358.733 165.08C358.511 166.381 358.113 167.469 357.538 168.345C356.965 169.21 356.269 169.834 355.449 170.218C354.641 170.604 353.757 170.715 352.799 170.552ZM352.941 169.718C353.734 169.853 354.462 169.758 355.126 169.432C355.792 169.095 356.36 168.547 356.83 167.787C357.3 167.027 357.633 166.073 357.828 164.926C358.025 163.766 358.026 162.756 357.832 161.895C357.64 161.023 357.284 160.323 356.765 159.797C356.248 159.258 355.593 158.922 354.8 158.787C354.02 158.654 353.29 158.755 352.612 159.09C351.949 159.416 351.382 159.958 350.911 160.718C350.443 161.466 350.111 162.42 349.913 163.579C349.718 164.727 349.717 165.737 349.909 166.61C350.102 167.482 350.456 168.188 350.973 168.726C351.504 169.255 352.16 169.585 352.941 169.718ZM364.479 172.539C363.533 172.378 362.736 171.981 362.089 171.347C361.442 170.714 360.991 169.894 360.736 168.889C360.483 167.873 360.467 166.713 360.688 165.412C360.91 164.111 361.307 163.028 361.88 162.164C362.455 161.288 363.152 160.658 363.972 160.274C364.792 159.89 365.676 159.779 366.622 159.94C367.58 160.103 368.377 160.5 369.012 161.131C369.659 161.765 370.109 162.59 370.362 163.607C370.617 164.612 370.634 165.765 370.413 167.066C370.191 168.368 369.793 169.456 369.218 170.332C368.645 171.196 367.949 171.82 367.129 172.204C366.32 172.59 365.437 172.702 364.479 172.539ZM364.621 171.705C365.413 171.84 366.142 171.744 366.806 171.419C367.472 171.082 368.04 170.533 368.51 169.774C368.98 169.014 369.312 168.06 369.508 166.912C369.705 165.753 369.706 164.743 369.512 163.882C369.319 163.01 368.964 162.31 368.445 161.783C367.928 161.245 367.273 160.909 366.48 160.774C365.699 160.641 364.97 160.742 364.292 161.077C363.628 161.402 363.061 161.945 362.591 162.705C362.123 163.453 361.791 164.407 361.593 165.566C361.398 166.714 361.397 167.724 361.589 168.596C361.782 169.469 362.136 170.174 362.653 170.713C363.184 171.241 363.84 171.572 364.621 171.705Z" fill="#FFFEFD"/>
<circle cx="46.1822" cy="25.8989" r="6" transform="rotate(9.05029 46.1822 25.8989)" fill="#FFFEFD"/>
<circle cx="585.73" cy="111.949" r="6" transform="rotate(9.05029 585.73 111.949)" fill="#FFFEFD"/>
<rect width="591.715" height="157.691" transform="matrix(-0.974014 0.226487 0.226487 0.974014 576.449 181.598)" fill="#FFD17C"/>
<path d="M199.922 370.982C197.226 371.606 194.624 371.747 192.116 371.404C189.64 371.054 187.373 370.279 185.316 369.079C183.291 367.871 181.56 366.305 180.121 364.38C178.716 362.447 177.72 360.214 177.133 357.681C176.546 355.148 176.459 352.705 176.872 350.351C177.318 347.99 178.2 345.818 179.52 343.835C180.841 341.853 182.536 340.16 184.606 338.757C186.676 337.354 189.042 336.344 191.705 335.727C194.401 335.103 196.97 334.97 199.414 335.327C201.89 335.678 204.14 336.457 206.165 337.664C208.222 338.864 209.97 340.427 211.408 342.352C212.839 344.245 213.851 346.474 214.445 349.039C215.032 351.572 215.106 354.036 214.669 356.43C214.223 358.791 213.34 360.963 212.02 362.945C210.725 364.887 209.043 366.56 206.972 367.964C204.935 369.359 202.585 370.365 199.922 370.982ZM198.316 364.271C199.842 363.918 201.179 363.335 202.325 362.522C203.503 361.701 204.467 360.691 205.216 359.491C205.964 358.292 206.444 356.966 206.655 355.514C206.899 354.055 206.833 352.513 206.457 350.89C206.081 349.266 205.462 347.852 204.602 346.649C203.774 345.438 202.76 344.458 201.56 343.709C200.393 342.953 199.1 342.466 197.68 342.247C196.261 342.028 194.788 342.096 193.262 342.449C191.736 342.803 190.383 343.39 189.205 344.21C188.059 345.023 187.111 346.029 186.363 347.229C185.614 348.429 185.118 349.758 184.874 351.218C184.663 352.67 184.745 354.207 185.121 355.831C185.49 357.422 186.092 358.84 186.927 360.083C187.788 361.287 188.802 362.266 189.969 363.023C191.169 363.771 192.479 364.255 193.898 364.474C195.317 364.692 196.79 364.625 198.316 364.271ZM231.352 363.087L224.527 333.617L226.747 335.002L214.082 337.935L212.593 331.505L242.16 324.657L243.649 331.087L230.985 334.02L232.321 331.812L239.146 361.282L231.352 363.087ZM277.078 352.497L262.657 338.541L268.147 333.214L286.041 350.421L277.078 352.497ZM254.915 357.63L247.018 323.532L254.86 321.716L262.757 355.813L254.915 357.63ZM257.286 342.607L255.763 336.031L267.649 333.279L269.172 339.855L257.286 342.607ZM269.825 337.137L262.364 337.941L269.473 318.331L277.803 316.402L269.825 337.137ZM289.737 349.565L281.84 315.467L296.6 312.049C299.652 311.342 302.399 311.236 304.84 311.731C307.274 312.194 309.306 313.212 310.937 314.785C312.567 316.357 313.679 318.426 314.273 320.992C314.86 323.525 314.767 325.856 313.994 327.985C313.221 330.114 311.847 331.938 309.872 333.456C307.889 334.942 305.372 336.038 302.319 336.745L291.944 339.148L294.628 334.78L297.629 347.737L289.737 349.565ZM294.831 335.657L290.455 332.718L300.392 330.417C302.827 329.853 304.526 328.912 305.486 327.595C306.447 326.277 306.713 324.693 306.285 322.842C305.848 320.958 304.909 319.636 303.467 318.875C302.025 318.115 300.086 318.016 297.65 318.58L287.713 320.882L290.352 316.319L294.831 335.657ZM335.721 314.793C339.845 313.837 343.242 314.026 345.911 315.358C348.573 316.657 350.329 319.142 351.179 322.812C352.081 326.708 351.516 329.953 349.481 332.546C347.48 335.131 344.287 336.931 339.903 337.946L324.51 341.511L316.613 307.414L324.456 305.597L327.05 316.801L335.721 314.793ZM338.111 332.202C340.124 331.736 341.599 330.864 342.535 329.587C343.471 328.309 343.717 326.713 343.273 324.797C342.837 322.913 341.94 321.701 340.583 321.16C339.251 320.579 337.562 320.525 335.516 320.999L328.404 322.646L330.999 333.849L338.111 332.202ZM358.267 333.693L350.37 299.595L358.212 297.779L366.109 331.877L358.267 333.693ZM381.956 328.206L375.13 298.737L377.35 300.121L364.685 303.055L363.196 296.625L392.764 289.777L394.253 296.207L381.588 299.14L382.924 296.931L389.749 326.401L381.956 328.206ZM421.593 319.642C418.898 320.266 416.296 320.407 413.787 320.064C411.311 319.714 409.044 318.939 406.987 317.739C404.962 316.531 403.231 314.965 401.793 313.039C400.387 311.107 399.391 308.874 398.804 306.341C398.218 303.808 398.131 301.365 398.544 299.011C398.989 296.649 399.872 294.478 401.192 292.495C402.512 290.513 404.207 288.82 406.277 287.417C408.347 286.014 410.714 285.004 413.377 284.387C416.072 283.763 418.641 283.629 421.085 283.987C423.561 284.338 425.812 285.117 427.837 286.324C429.894 287.524 431.641 289.087 433.08 291.012C434.51 292.905 435.523 295.134 436.117 297.699C436.703 300.232 436.778 302.696 436.34 305.089C435.895 307.451 435.012 309.623 433.692 311.605C432.397 313.547 430.714 315.22 428.644 316.623C426.606 318.019 424.256 319.025 421.593 319.642ZM419.988 312.931C421.514 312.578 422.85 311.995 423.996 311.182C425.175 310.361 426.138 309.351 426.887 308.151C427.636 306.951 428.115 305.626 428.327 304.174C428.57 302.715 428.504 301.173 428.128 299.549C427.752 297.926 427.134 296.512 426.273 295.309C425.445 294.098 424.432 293.118 423.232 292.369C422.064 291.613 420.771 291.126 419.352 290.907C417.932 290.688 416.46 290.755 414.933 291.109C413.407 291.462 412.055 292.049 410.876 292.87C409.73 293.683 408.783 294.689 408.034 295.889C407.285 297.089 406.789 298.418 406.546 299.878C406.334 301.329 406.417 302.867 406.793 304.491C407.161 306.082 407.763 307.499 408.599 308.743C409.459 309.947 410.473 310.926 411.641 311.682C412.84 312.431 414.15 312.915 415.569 313.133C416.989 313.352 418.461 313.285 419.988 312.931Z" fill="#4F6234"/>
<circle cx="6" cy="6" r="6" transform="matrix(-0.974014 0.226487 0.226487 0.974014 564.488 201.549)" fill="#FFFEFD"/>
<circle cx="6" cy="6" r="6" transform="matrix(-0.974014 0.226487 0.226487 0.974014 32.3431 325.398)" fill="#FFFEFD"/>
</svg>
