<svg width="306" height="237" viewBox="0 0 306 237" fill="none" xmlns="http://www.w3.org/2000/svg">
<path d="M53.8904 15.5214L43.6919 234.612L81.6177 236.104L72.694 15.5214L63.1329 0L58.3523 8.35768L53.8904 15.5214Z" fill="#4F6234"/>
<path d="M2.57905 222.374H0.0294189V237H305.029V135.514H295.787L284.314 137.006L264.554 142.081L260.73 146.856V152.528L256.268 157.602L256.905 160.587L259.773 162.079V182.675L254.037 183.272V189.242L238.42 185.958L225.035 187.451V179.69L215.792 163.273L204.638 160.587H197.307L192.527 162.079L189.977 167.452L176.91 171.034V169.84L160.338 167.452V165.661L138.984 172.228V174.317L124.961 178.496V185.362H110.939L96.2781 189.54V188.346L87.3544 191.033V194.018H82.8925H58.0336V199.987L38.2739 200.584L29.3502 204.763L24.5696 208.047V215.807H21.3826V219.091H13.7337V222.374H9.90925V221.18L5.7661 222.374V225.359H2.57905V222.374Z" fill="#4F6234"/>
<ellipse cx="238.42" cy="44.7732" rx="21.0345" ry="19.7002" fill="#4F6234"/>
</svg>
