<svg width="674" height="388" viewBox="0 0 674 388" fill="none" xmlns="http://www.w3.org/2000/svg">
<path d="M3.84 347L2.92662 346.593L2.29945 348H3.84V347ZM153.6 11V9.99998H152.951L152.687 10.5929L153.6 11ZM230.4 11L231.313 10.5918L231.048 9.99998H230.4V11ZM380.64 347V348H382.183L381.553 346.592L380.64 347ZM299.04 347L298.116 347.383L298.372 348H299.04V347ZM176.16 50.36V49.36H174.663L175.236 50.7427L176.16 50.36ZM206.88 50.36L207.803 50.744L208.379 49.36H206.88V50.36ZM83.52 347V348H84.1872L84.4433 347.384L83.52 347ZM78.72 275L77.776 274.67L77.3111 276H78.72V275ZM99.36 215.96V214.96H98.6503L98.416 215.63L99.36 215.96ZM272.16 215.96L273.102 215.623L272.864 214.96H272.16V215.96ZM293.28 275V276H294.7L294.222 274.663L293.28 275ZM4.75338 347.407L154.513 11.4071L152.687 10.5929L2.92662 346.593L4.75338 347.407ZM153.6 12H230.4V9.99998H153.6V12ZM229.487 11.4082L379.727 347.408L381.553 346.592L231.313 10.5918L229.487 11.4082ZM380.64 346H299.04V348H380.64V346ZM299.964 346.617L177.084 49.9773L175.236 50.7427L298.116 347.383L299.964 346.617ZM176.16 51.36H206.88V49.36H176.16V51.36ZM205.957 49.976L82.5967 346.616L84.4433 347.384L207.803 50.744L205.957 49.976ZM83.52 346H3.84V348H83.52V346ZM79.664 275.33L100.304 216.29L98.416 215.63L77.776 274.67L79.664 275.33ZM99.36 216.96H272.16V214.96H99.36V216.96ZM271.218 216.297L292.338 275.337L294.222 274.663L273.102 215.623L271.218 216.297ZM293.28 274H78.72V276H293.28V274ZM573.997 347H572.997V348H573.997V347ZM573.997 296.6H574.997V296.392L574.915 296.201L573.997 296.6ZM569.198 285.56H568.198V285.768L568.28 285.959L569.198 285.56ZM554.318 157.88L553.635 158.611L553.641 158.617L553.647 158.622L554.318 157.88ZM468.878 151.16L469.18 152.113L469.187 152.111L469.194 152.109L468.878 151.16ZM435.277 168.44L434.388 168.897L434.945 169.98L435.899 169.223L435.277 168.44ZM408.397 116.12L407.822 115.302L407.111 115.803L407.508 116.577L408.397 116.12ZM459.277 93.08L459.013 92.1156L459.277 93.08ZM611.438 112.76L612.086 111.999L611.438 112.76ZM644.078 347V348H645.078V347H644.078ZM443.438 340.76L442.998 341.658L443.006 341.662L443.015 341.666L443.438 340.76ZM410.318 312.44L409.479 312.984L410.318 312.44ZM409.837 232.28L409.005 231.725L409 231.733L408.995 231.742L409.837 232.28ZM445.837 205.4L446.203 206.331L446.21 206.328L446.218 206.325L445.837 205.4ZM578.318 195.32H579.318V194.32H578.318V195.32ZM578.318 239V240H579.318V239H578.318ZM481.358 247.64L480.707 246.881L480.698 246.889L480.689 246.897L481.358 247.64ZM482.798 292.28L482.181 293.068L482.2 293.082L482.219 293.096L482.798 292.28ZM547.598 291.8L548.1 292.665L548.11 292.659L548.12 292.653L547.598 291.8ZM569.198 265.4L570.146 265.084L569.27 262.455L568.266 265.038L569.198 265.4ZM580.718 299.96L581.668 300.271L581.771 299.957L581.666 299.644L580.718 299.96ZM550.958 337.88L550.443 337.022L550.958 337.88ZM574.997 347V296.6H572.997V347H574.997ZM574.915 296.201L570.115 285.161L568.28 285.959L573.08 296.999L574.915 296.201ZM570.198 285.56V195.32H568.198V285.56H570.198ZM570.198 195.32C570.198 179.098 565.159 166.325 554.988 157.138L553.647 158.622C563.316 167.355 568.198 179.542 568.198 195.32H570.198ZM555 157.149C545.137 147.944 529.959 143.44 509.677 143.44V145.44C529.716 145.44 544.298 149.896 553.635 158.611L555 157.149ZM509.677 143.44C495.807 143.44 482.1 145.698 468.561 150.211L469.194 152.109C482.535 147.662 496.028 145.44 509.677 145.44V143.44ZM468.575 150.207C455.358 154.398 444.045 160.21 434.656 167.656L435.899 169.223C445.07 161.95 456.157 156.242 469.18 152.113L468.575 150.207ZM436.167 167.983L409.287 115.663L407.508 116.577L434.388 168.897L436.167 167.983ZM408.973 116.937C422.943 107.096 439.792 99.4596 459.542 94.0444L459.013 92.1156C439.083 97.5804 422.012 105.304 407.822 115.302L408.973 116.937ZM459.542 94.0444C479.296 88.6279 499.367 85.92 519.758 85.92V83.92C499.188 83.92 478.939 86.6521 459.013 92.1156L459.542 94.0444ZM519.758 85.92C558.969 85.92 589.268 95.1647 610.789 113.521L612.086 111.999C590.087 93.2353 559.266 83.92 519.758 83.92V85.92ZM610.789 113.521C632.251 131.827 643.078 160.457 643.078 199.64H645.078C645.078 160.103 634.144 130.813 612.086 111.999L610.789 113.521ZM643.078 199.64V347H645.078V199.64H643.078ZM644.078 346H573.997V348H644.078V346ZM495.277 349.84C475.226 349.84 458.097 346.498 443.86 339.854L443.015 341.666C457.578 348.462 475.009 351.84 495.277 351.84V349.84ZM443.877 339.862C429.617 332.89 418.725 323.564 411.156 311.896L409.479 312.984C417.27 324.996 428.458 334.55 442.998 341.658L443.877 339.862ZM411.156 311.896C403.586 300.225 399.798 287.136 399.798 272.6H397.798C397.798 287.504 401.689 300.975 409.479 312.984L411.156 311.896ZM399.798 272.6C399.798 257.406 403.435 244.158 410.68 232.818L408.995 231.742C401.52 243.442 397.798 257.074 397.798 272.6H399.798ZM410.67 232.835C418.209 221.525 430.022 212.676 446.203 206.331L445.472 204.469C429.013 210.924 416.826 219.995 409.005 231.725L410.67 232.835ZM446.218 206.325C462.374 199.672 483.51 196.32 509.677 196.32V194.32C483.365 194.32 461.941 197.688 445.457 204.475L446.218 206.325ZM509.677 196.32H578.318V194.32H509.677V196.32ZM577.318 195.32V239H579.318V195.32H577.318ZM578.318 238H517.838V240H578.318V238ZM517.838 238C500.2 238 487.717 240.872 480.707 246.881L482.008 248.399C488.438 242.888 500.275 240 517.838 240V238ZM480.689 246.897C474.077 252.847 470.758 260.318 470.758 269.24H472.758C472.758 260.882 475.838 253.953 482.026 248.383L480.689 246.897ZM470.758 269.24C470.758 279.138 474.571 287.112 482.181 293.068L483.414 291.492C476.304 285.928 472.758 278.542 472.758 269.24H470.758ZM482.219 293.096C490.123 298.695 500.75 301.44 513.997 301.44V299.44C501.005 299.44 490.832 296.745 483.376 291.464L482.219 293.096ZM513.997 301.44C526.638 301.44 538.014 298.521 548.1 292.665L547.095 290.935C537.341 296.599 526.317 299.44 513.997 299.44V301.44ZM548.12 292.653C558.239 286.451 565.576 277.473 570.13 265.762L568.266 265.038C563.859 276.367 556.797 284.989 547.075 290.947L548.12 292.653ZM568.249 265.716L579.769 300.276L581.666 299.644L570.146 265.084L568.249 265.716ZM579.767 299.649C574.398 316.071 564.627 328.512 550.443 337.022L551.472 338.737C566.088 329.968 576.157 317.129 581.668 300.271L579.767 299.649ZM550.443 337.022C536.244 345.542 517.878 349.84 495.277 349.84V351.84C518.117 351.84 536.871 347.498 551.472 338.737L550.443 337.022Z" fill="#4F6234"/>
<path fill-rule="evenodd" clip-rule="evenodd" d="M466.583 152.622C453.849 156.759 442.948 162.423 433.88 169.615L407 117.295C419.849 108.242 435.097 101.054 452.743 95.7324C462.809 106.164 469 120.359 469 136C469 141.777 468.155 147.357 466.583 152.622Z" fill="#4F6234"/>
<circle cx="411" cy="136.447" r="57.5" stroke="#4F6234"/>
<path fill-rule="evenodd" clip-rule="evenodd" d="M573.459 315.451V347.54H598.153C600.001 341.874 601 335.824 601 329.54C601 308.65 589.956 290.34 573.389 280.129C571.858 279.185 570.28 278.311 568.659 277.51C567.133 276.756 565.569 276.067 563.971 275.447C559.683 282.427 554.046 288.058 547.059 292.34C537.139 298.1 525.939 300.98 513.459 300.98C506.137 300.98 499.663 300.133 494.035 298.439C488.314 307.427 485 318.096 485 329.54C485 337.233 486.498 344.576 489.218 351.294C491.033 351.351 492.874 351.38 494.739 351.38C517.459 351.38 536.019 347.06 550.419 338.42C560.141 332.587 567.821 324.93 573.459 315.451Z" fill="#4F6234"/>
<circle cx="543" cy="329.447" r="57.5" stroke="#4F6234"/>
<path fill-rule="evenodd" clip-rule="evenodd" d="M48.0149 247.129L78.5733 178.569C88.8507 172.154 100.992 168.447 114 168.447C128.283 168.447 141.522 172.916 152.395 180.533L137.476 216.407H178.256C180.042 222.443 181 228.833 181 235.447C181 250.441 176.075 264.284 167.755 275.447H112.924L102.131 301.399C74.5796 296.474 52.864 274.707 48.0149 247.129Z" fill="#4F6234"/>
<circle cx="114" cy="235" r="66.5" stroke="#4F6234"/>
</svg>
