<svg width="367" height="137" viewBox="0 0 367 137" fill="none" xmlns="http://www.w3.org/2000/svg">
<path d="M38.5098 0.682816C34.7948 1.64934 32.2275 4.00523 31.0193 7.59948C30.4756 9.26068 30.385 10.197 30.385 14.788C30.4152 23.9095 31.1703 25.6311 39.718 36.5347C42.3155 39.8269 44.2788 42.6661 44.9433 44.0252C45.9098 46.0791 46.0004 46.502 46.1514 49.7942C46.3024 53.8113 45.9098 56.1672 44.913 57.1035C43.9767 57.9794 41.6812 57.8888 40.8355 56.9827C39.7482 55.8349 39.567 54.5362 39.567 47.9215V41.6693L34.674 41.7298L29.7507 41.8204L29.6601 48.1632C29.5695 55.8953 29.9018 58.9459 31.1401 61.5132C32.9523 65.2887 36.0029 67.0103 41.4094 67.252C50.1987 67.705 54.7293 64.594 56.2999 57.0129C56.8737 54.3247 56.9644 47.5591 56.4509 44.8105C55.6052 39.9779 54.3366 37.6824 48.1449 29.7389C42.678 22.7316 41.8021 21.3724 41.0772 19.0467C40.3221 16.6908 40.2617 12.2811 40.9261 10.7105C41.7719 8.6264 44.6714 8.53579 45.6681 10.5594C46.1212 11.4354 46.2118 12.4925 46.2118 16.9627V22.3389H51.0444H55.877V16.0565C55.877 7.59948 55.3636 5.21338 53.0077 2.88769C51.2256 1.10567 49.1114 0.501587 44.2486 0.41098C41.5302 0.350571 39.4764 0.441185 38.5098 0.682816Z" fill="#FFFEFD"/>
<path d="M0 33.8162V66.7383H4.98363H9.96725V52.2405V37.7426H13.4407H16.9141V52.2405V66.7383H21.8977H26.8814V33.8162V0.89402H21.8977H16.9141V14.0327V27.1713H13.4407H9.96725V14.0327V0.89402H4.98363H0V33.8162Z" fill="#FFFEFD"/>
<path d="M59.5619 33.7255L59.6525 66.5873L71.2205 66.6779L82.7584 66.7383V61.7547V56.771H76.2646H69.7708V47.2568V37.7426L74.694 37.6822L79.587 37.5916L79.6776 32.6684L79.738 27.7754H74.7544H69.7708V19.1673V10.5592L76.0531 10.4988L82.3053 10.4082L82.3959 5.63602L82.4865 0.89402H70.9789H59.5015L59.5619 33.7255Z" fill="#FFFEFD"/>
<path d="M100.277 1.34708C100.277 1.58871 98.5247 16.2375 96.3501 33.8766C94.2056 51.5156 92.4236 66.1342 92.4236 66.3456C92.4236 66.6477 93.3901 66.7383 96.8031 66.7383C101.092 66.7383 101.183 66.7383 101.303 66.0436C101.394 65.6811 101.666 63.2044 101.938 60.5465C102.632 53.5694 102.059 54.3547 106.317 54.3547C109.579 54.3547 109.942 54.4151 109.942 54.8682C109.942 55.1702 110.214 57.798 110.546 60.6975C110.878 63.5971 111.15 66.1644 111.15 66.3456C111.15 66.6477 112.328 66.7383 116.013 66.7383H120.876L120.694 65.5905C120.362 63.4763 112.358 1.76993 112.358 1.34708C112.358 0.95443 111.422 0.89402 106.317 0.89402C101.152 0.89402 100.277 0.95443 100.277 1.34708ZM107.525 32.6986C108.19 38.7998 108.734 43.9344 108.734 44.0854C108.734 44.2667 107.616 44.3875 106.166 44.3875C104.747 44.3875 103.599 44.3271 103.599 44.2969C103.599 44.2063 105.411 26.9901 106.045 21.0097C106.136 20.2547 106.378 22.1575 107.525 32.6986Z" fill="#FFFEFD"/>
<path d="M122.325 33.8162V66.7383H127.309H132.293V52.0894V37.4406H134.709C137.306 37.4406 138.152 37.8635 138.484 39.3132C138.575 39.7059 138.666 45.5654 138.726 52.3915C138.786 61.7849 138.907 65.0167 139.209 65.7416L139.602 66.7383H144.555C147.425 66.7383 149.509 66.6175 149.509 66.4664C149.509 66.3154 149.328 65.802 149.146 65.3187C148.844 64.7146 148.723 60.6371 148.603 50.1262L148.452 35.7794L147.727 34.2994C147.243 33.3329 146.579 32.5778 145.703 32.0039L144.404 31.1884L145.643 30.1917C146.368 29.5876 147.183 28.5305 147.666 27.5036L148.452 25.8121V16.751C148.452 6.90458 148.361 6.3609 146.73 4.06542C144.737 1.22626 143.075 0.89402 131.477 0.89402H122.325V33.8162ZM137.729 10.7103C138.484 11.4653 138.484 11.4956 138.575 18.2612C138.666 24.1509 138.605 25.1477 138.152 26.0236C137.367 27.5338 136.884 27.7452 134.497 27.7754H132.293V18.9257C132.293 14.0327 132.383 9.95516 132.534 9.83434C132.655 9.68332 133.712 9.68332 134.86 9.77393C136.551 9.92495 137.125 10.1062 137.729 10.7103Z" fill="#FFFEFD"/>
<path d="M150.475 5.63602L150.566 10.4082L154.734 10.4988L158.872 10.5894V38.6488V66.7383H163.856H168.839V38.6488V10.5894L173.007 10.4988L177.145 10.4082L177.236 5.63602L177.326 0.89402H163.856H150.385L150.475 5.63602Z" fill="#FFFEFD"/>
<path d="M193.485 1.5585C193.395 1.95116 191.613 16.3886 189.529 33.6651C187.445 50.9417 185.663 65.4395 185.572 65.8926L185.391 66.7383H189.952C194.09 66.7383 194.512 66.6779 194.512 66.1946C194.512 65.9228 194.784 63.2346 195.116 60.2747C195.449 57.2845 195.721 54.7474 195.721 54.5964C195.721 54.3849 202.939 54.2037 203 54.4151C203 54.4755 203.302 57.2241 203.664 60.5465L204.329 66.5873L209.101 66.6779C213.662 66.7383 213.843 66.7383 213.843 66.1644C213.843 65.5603 205.839 3.76338 205.537 1.86054L205.356 0.89402H199.496C193.637 0.89402 193.606 0.89402 193.485 1.5585ZM200.674 32.91L201.943 44.3875H199.345H196.747L197.261 39.4643C197.533 36.7761 198.076 31.5509 198.469 27.866C198.862 24.1509 199.224 21.2212 199.285 21.2816C199.375 21.3722 200.01 26.5974 200.674 32.91Z" fill="#FFFEFD"/>
<path d="M215.655 33.8162V66.7686L220.125 66.6779L224.565 66.5873L224.716 48.2536L224.867 29.9199L229.519 48.3442L234.17 66.7384H238.217H242.234V33.8162V0.894096H237.704H233.173L233.113 18.2311L233.022 35.5378L228.824 18.2311L224.595 0.894096H220.125H215.655V33.8162Z" fill="#FFFEFD"/>
<path d="M245.919 33.7262L246.01 66.5879H255.071C262.984 66.5879 264.344 66.4973 265.703 66.0442C269.116 64.8663 271.109 62.45 271.985 58.4329C272.408 56.5904 272.438 53.1774 272.378 32.6086C272.287 10.8921 272.227 8.77784 271.744 7.32805C270.928 4.88155 269.539 3.31095 267.183 2.1028L265.099 1.04566L255.464 0.955055L245.859 0.864441L245.919 33.7262ZM260.689 10.2578C262.169 11.0733 262.169 11.1941 262.169 33.4241C262.169 52.6035 262.139 54.2949 261.625 55.2615C260.961 56.6206 260.024 57.0737 257.88 57.0737H256.128V33.3335V9.56313L258.091 9.74435C259.179 9.86517 260.326 10.0766 260.689 10.2578Z" fill="#FFFEFD"/>
<path d="M64.6965 69.7886C59.7129 70.6645 56.6925 73.9567 55.8468 79.4236C55.3636 82.5044 55.6656 88.5754 56.4509 91.5958C57.4174 95.2504 59.1088 98.0896 64.3341 104.795C67.2639 108.51 69.65 111.893 70.3145 113.222L71.432 115.487V120.018C71.432 123.793 71.3414 124.76 70.8883 125.545C69.8614 127.448 66.6598 127.448 65.6329 125.545C65.1798 124.729 65.0892 123.551 64.9986 117.692L64.908 110.836L60.015 110.896L55.1219 110.987V118.689C55.1522 128.595 55.5448 130.438 58.2329 133.277C60.4378 135.603 63.2166 136.509 68.1096 136.509C73.3348 136.509 76.4458 135.421 78.6809 132.794C81.3992 129.622 82.3054 125.817 82.0637 118.538C81.8221 110.534 81.0368 108.691 73.5463 98.9655C67.8679 91.5958 67.0222 90.3272 66.3276 87.9109C65.6631 85.6154 65.6933 81.115 66.388 79.7257C67.3243 77.853 70.103 77.853 71.0393 79.7559C71.4924 80.6318 71.583 81.6587 71.583 86.3101V91.8374L76.3552 91.7468L81.0972 91.6562L81.1878 85.404C81.2784 78.0645 80.916 75.5877 79.4058 73.3829C77.5634 70.6947 75.2075 69.7584 69.9218 69.6074C67.9284 69.547 65.5725 69.6074 64.6965 69.7886Z" fill="#FFFEFD"/>
<path d="M107.948 69.7288C104.505 70.3027 101.606 72.3867 100.156 75.3467C98.4946 78.7597 98.4644 79.1222 98.4644 103.829C98.4644 129.381 98.4644 129.26 100.548 132.492C102.421 135.392 104.566 136.57 108.13 136.63C110.032 136.66 110.667 136.509 112.116 135.815C114.019 134.878 116.164 132.704 117.13 130.74L117.734 129.502L118.036 130.559C118.218 131.163 118.58 132.613 118.882 133.761L119.426 135.905H122.235H125.044V115.971V96.0363H118.097H111.15V101.02V106.004H113.415H115.681V114.672C115.681 122.555 115.62 123.492 115.107 124.639C114.412 126.149 113.747 126.542 111.935 126.542C110.425 126.542 109.549 125.938 109.036 124.549C108.854 124.096 108.734 115.427 108.734 102.651C108.734 79.9981 108.703 80.2397 110.214 79.4242C111.331 78.8202 113.113 79.0618 113.898 79.9075C114.593 80.6626 114.623 80.874 114.714 85.7972L114.805 90.9017H119.818H124.832L124.651 85.2234C124.56 82.1124 124.319 78.8202 124.138 77.914C123.262 73.9875 121.359 71.541 118.127 70.3329C116.254 69.6382 110.636 69.306 107.948 69.7288Z" fill="#FFFEFD"/>
<path d="M176.753 69.789C171.829 70.6045 168.779 73.9572 167.903 79.424C167.42 82.5048 167.722 88.5758 168.507 91.5962C169.473 95.2508 171.165 98.1202 176.39 104.795C181.706 111.591 182.793 113.403 183.337 116.182C183.85 118.78 183.609 124.277 182.944 125.545C181.917 127.448 178.716 127.448 177.689 125.545C177.236 124.73 177.145 123.552 177.055 117.692L176.964 110.836L172.071 110.896L167.178 110.987V118.991C167.178 125.817 167.269 127.267 167.722 128.807C168.9 132.734 171.286 135.029 175.333 136.086C177.387 136.66 183.065 136.63 185.27 136.056C189.891 134.848 192.73 131.526 193.757 126.119C194.271 123.371 194.361 116.605 193.878 113.977C193.032 109.084 191.854 107 185.119 98.3014C179.924 91.6264 179.078 90.3276 178.384 87.9113C177.719 85.6158 177.749 81.1155 178.444 79.7261C179.38 77.8535 182.159 77.8535 183.095 79.7563C183.548 80.6322 183.639 81.6591 183.639 86.3105V91.8378L188.411 91.7472L193.153 91.6566V84.5587C193.153 78.6992 193.063 77.1588 192.64 75.7996C191.643 72.5678 188.925 70.3931 185.119 69.7588C182.854 69.3964 179.018 69.4266 176.753 69.789Z" fill="#FFFEFD"/>
<path d="M205.748 69.7582C201.55 70.5133 198.288 73.8055 197.261 78.2454C197.05 79.0911 196.929 88.2429 196.929 102.771C196.929 128.444 196.929 128.505 198.832 131.676C200.04 133.669 202.365 135.421 204.782 136.116C207.047 136.78 213.088 136.78 215.353 136.116C218.766 135.119 221.092 132.733 222.36 128.958C222.964 127.145 223.025 126.3 223.146 117.088L223.236 107.211H218.404H213.541V115.094C213.541 119.896 213.42 123.461 213.209 124.306C212.755 126.028 211.759 126.843 210.098 126.843C208.557 126.843 207.651 126.118 207.228 124.518C206.775 122.947 206.775 82.7156 207.198 81.1752C207.621 79.7556 208.497 79.1213 210.128 79.1213C211.729 79.1213 212.876 80.0577 213.239 81.6887C213.39 82.3531 213.541 85.585 213.541 88.847V94.8273H218.404H223.266L223.146 86.4307C223.025 78.6381 222.964 77.9434 222.36 76.3426C221.031 73.0202 219.068 71.0871 216.169 70.2112C214.266 69.6374 207.983 69.3655 205.748 69.7582Z" fill="#FFFEFD"/>
<path d="M266.307 69.7894C264.193 70.0914 261.263 71.6016 260.055 72.991C258.695 74.5314 257.638 76.8269 257.155 79.3338C256.491 82.8374 256.521 123.492 257.216 126.784C258.424 132.704 261.837 135.845 267.726 136.51C270.626 136.842 274.492 136.54 276.606 135.785C279.445 134.788 281.499 132.643 282.768 129.412C283.855 126.633 283.946 124.277 283.855 101.473L283.765 79.2734L283.07 77.3706C281.832 73.9575 280.231 72.0245 277.543 70.7257C275.217 69.6082 270.384 69.1853 266.307 69.7894ZM272.499 79.8171C272.982 80.2701 273.405 81.1158 273.616 82.1125C274.069 84.2872 274.069 121.68 273.616 123.854C273.163 125.999 272.257 126.844 270.505 126.844C268.633 126.844 267.455 125.817 267.032 123.794C266.82 122.797 266.699 115.578 266.699 102.712C266.699 81.5991 266.76 80.6628 268.3 79.5754C269.327 78.8505 271.593 78.9714 272.499 79.8171Z" fill="#FFFEFD"/>
<path d="M296.964 69.7587C294.789 70.091 291.708 71.6616 290.56 73.0207C289.232 74.6215 288.205 76.8566 287.691 79.2729C287.027 82.3537 287.027 123.552 287.691 126.632C288.96 132.703 292.282 135.845 298.111 136.509C307.535 137.596 312.7 134.214 314.119 126.119C314.301 125.001 314.421 116.212 314.421 102.711C314.421 79.5145 314.361 78.6386 312.851 75.5276C311.915 73.5946 310.193 71.8126 308.32 70.8763C305.813 69.6077 301.132 69.1546 296.964 69.7587ZM303.004 79.8166C303.488 80.2696 303.911 81.1153 304.122 82.1121C304.575 84.2867 304.575 121.679 304.122 123.854C303.669 125.998 302.763 126.844 301.011 126.844C299.138 126.844 297.96 125.817 297.538 123.793C297.326 122.797 297.205 115.578 297.205 102.711C297.205 81.5986 297.266 80.6623 298.806 79.575C299.833 78.8501 302.098 78.9709 303.004 79.8166Z" fill="#FFFEFD"/>
<path d="M350.243 69.7881C346.951 70.5734 343.206 73.5938 341.635 76.7652C338.373 83.259 340.91 91.2932 347.283 94.6157C354.774 98.5724 364.016 94.8271 366.402 86.9137C367.792 82.4133 366.704 77.3391 363.714 73.9563C360.452 70.3016 355.106 68.6404 350.243 69.7881ZM353.686 71.0265C353.686 71.2379 353.777 71.7212 353.868 72.0836C353.988 72.5065 353.928 72.7783 353.717 72.7783C353.535 72.7783 353.384 72.4461 353.384 72.0232C353.384 70.9661 352.901 71.0869 352.69 72.1742C352.569 72.6575 352.388 73.0804 352.237 73.0804C351.874 73.0804 352.176 71.1775 352.599 70.9057C353.112 70.5432 353.686 70.6338 353.686 71.0265ZM356.223 71.6306C356.314 72.0232 356.405 72.5669 356.405 72.8689C356.405 73.3824 356.374 73.3824 355.921 72.9293C355.559 72.5669 355.348 72.5367 355.015 72.8085C354.502 73.2314 354.472 72.9595 354.925 72.1138C355.197 71.6004 355.317 71.5702 355.559 71.9024C355.77 72.2044 355.77 72.144 355.65 71.6306C355.559 71.2681 355.589 70.9661 355.74 70.9661C355.891 70.9661 356.103 71.2681 356.223 71.6306ZM350.787 71.4494C351.451 71.691 351.391 72.9897 350.726 73.3522C349.609 73.9563 348.612 72.5367 349.518 71.6306C349.941 71.2077 350.122 71.2077 350.787 71.4494ZM348.703 73.7146C349.216 73.9261 349.186 73.9563 348.491 73.9563C347.857 73.9865 347.706 74.1073 347.827 74.4999C347.948 74.8624 347.797 74.7718 347.374 74.2885C347.041 73.8657 346.77 73.322 346.77 73.0804C346.77 72.7783 346.83 72.7481 346.951 72.9897C347.193 73.624 347.646 73.4428 347.676 72.6877C347.706 72.0232 347.706 72.0232 347.917 72.7481C348.008 73.1408 348.37 73.5938 348.703 73.7146ZM359.123 73.0804C359.123 73.2314 358.912 73.3824 358.67 73.3824C358.428 73.3824 358.217 73.2314 358.217 73.0804C358.217 72.8991 358.428 72.7783 358.67 72.7783C358.912 72.7783 359.123 72.8991 359.123 73.0804ZM361.992 74.3187C362.264 75.1644 361.509 75.9195 360.694 75.6779C360.059 75.4665 359.516 74.5905 360.029 74.5905C360.21 74.5905 360.331 74.7114 360.331 74.8624C360.331 75.0134 360.543 75.2248 360.814 75.3154C361.147 75.4363 361.267 75.3758 361.147 75.0738C361.026 74.7718 361.116 74.6812 361.419 74.802C361.962 75.0134 361.962 74.7416 361.358 74.1677C360.965 73.7448 360.965 73.6844 361.358 73.6844C361.6 73.6844 361.902 73.9865 361.992 74.3187ZM346.377 74.6812L347.041 75.3758L346.196 76.4028C345.35 77.3995 345.35 77.3995 344.535 76.8558C344.082 76.584 343.719 76.2215 343.719 76.0705C343.719 75.9195 344.051 76.0101 344.474 76.282C345.531 76.9766 345.803 76.584 344.927 75.6477C344.535 75.2248 344.353 74.8926 344.535 74.8926C344.716 74.8926 345.018 75.104 345.229 75.3456C345.622 75.7987 346.437 75.9799 346.437 75.5873C346.437 75.4665 346.135 75.0738 345.773 74.6812C345.41 74.2885 345.259 73.9865 345.441 73.9865C345.592 73.9865 346.015 74.2885 346.377 74.6812ZM363.08 75.9195C362.808 76.2518 362.868 76.3726 363.412 76.5538L364.107 76.7954L363.442 76.9162C363.05 76.9766 362.747 77.2485 362.747 77.4599C362.747 77.7015 362.596 77.9734 362.415 78.0942C362.143 78.2452 362.113 78.064 362.264 77.4599C362.445 76.7954 362.385 76.6746 362.023 76.7954C361.207 77.1277 361.509 76.433 362.385 75.9799C363.412 75.406 363.503 75.406 363.08 75.9195ZM356.072 77.1881C357.311 78.215 357.401 80.0574 356.254 81.2354L355.468 82.0509L356.254 82.5643C357.371 83.2892 357.915 84.7994 357.915 87.1251V89.0884H354.139H350.364V82.7456V76.4028H352.75C354.894 76.4028 355.257 76.4934 356.072 77.1881ZM364.862 78.5472C365.134 79.0003 365.103 79.2721 364.832 79.6044C364.288 80.2387 363.11 80.148 362.898 79.4231C362.476 78.0942 364.227 77.3391 364.862 78.5472ZM343.598 79.0305C343.296 79.3325 343.024 78.8795 343.296 78.4868C343.477 78.1546 343.538 78.1546 343.659 78.4868C343.719 78.6983 343.689 78.9399 343.598 79.0305ZM365.466 80.9333C365.466 81.0844 365.285 81.2354 365.043 81.2354C364.439 81.2354 364.801 82.3831 365.436 82.5341C365.707 82.5945 365.405 82.6852 364.801 82.7758C364.167 82.8664 363.654 82.806 363.654 82.6852C363.654 82.5643 363.805 82.4435 363.956 82.4435C364.499 82.4435 364.288 81.2354 363.744 81.2052C363.442 81.175 363.623 81.0542 364.107 80.9333C365.405 80.6011 365.466 80.6011 365.466 80.9333ZM343.417 81.5374C343.055 81.7488 343.055 81.8999 343.357 82.2019C343.87 82.7154 343.81 83.1986 343.296 82.7758C343.055 82.5945 342.753 82.4435 342.632 82.4737C341.937 82.5945 341.605 82.3831 341.605 81.8395C341.605 81.3562 341.816 81.2354 342.753 81.2354C343.568 81.2354 343.749 81.326 343.417 81.5374ZM343.568 83.9537C343.447 84.3162 343.538 84.7994 343.749 85.0713C344.112 85.4941 344.051 85.5243 343.115 85.3129C341.575 84.9806 341.454 84.7088 342.571 84.0141C343.81 83.1986 343.81 83.1986 343.568 83.9537ZM365.103 83.9235C365.345 84.0443 365.466 84.4974 365.405 84.89C365.345 85.4639 365.134 85.6149 364.409 85.6149C363.412 85.6149 363.05 84.8598 363.654 84.1047C364.076 83.5913 364.529 83.5309 365.103 83.9235ZM344.867 87.2761C345.501 88.5447 345.471 88.6051 344.202 89.0582C343.206 89.4508 343.175 88.9977 344.202 88.5447C344.625 88.3333 344.867 88.0312 344.776 87.8802C344.655 87.6688 344.384 87.699 343.991 87.9104C343.659 88.0614 343.236 88.152 343.024 88.0916C342.813 88.0312 343.024 87.7896 343.477 87.5782C344.474 87.0949 344.263 86.5512 343.145 86.7929C342.39 86.9741 342.39 86.9741 342.934 86.521C343.84 85.8264 344.202 85.9774 344.867 87.2761ZM364.862 87.3365C364.862 87.4574 364.529 87.5782 364.107 87.5782C363.442 87.5782 363.382 87.6386 363.714 88.1822C364.258 89.028 363.865 89.179 362.717 88.6353C361.751 88.2125 361.721 88.1822 362.536 88.3031C363.291 88.3937 363.321 88.3635 362.898 87.8802C362.234 87.1251 362.355 86.8835 363.291 87.0949C364.016 87.2761 364.046 87.2459 363.593 86.8835C362.717 86.1888 362.989 85.9774 363.956 86.5814C364.469 86.8533 364.862 87.2157 364.862 87.3365ZM363.05 90.3871C363.05 90.5683 362.747 90.4475 362.385 90.1153L361.751 89.5414L361.932 90.5079C362.053 91.0516 362.023 91.5047 361.902 91.5047C361.57 91.4745 360.331 90.3871 360.331 90.1153C360.331 89.9945 360.482 90.0247 360.694 90.2361C361.267 90.81 361.63 90.659 361.419 89.8737C361.328 89.5112 361.328 89.0884 361.449 88.9675C361.69 88.7561 363.05 89.9643 363.05 90.3871ZM346.739 90.1455C346.739 90.5986 345.954 91.5047 345.531 91.5047C345.199 91.5047 344.323 90.6288 344.323 90.2663C344.323 90.1153 344.474 89.9945 344.625 89.9945C344.806 89.9945 344.927 90.2059 344.927 90.4475C344.927 90.6892 345.199 90.9006 345.531 90.9006C345.924 90.9006 346.135 90.6892 346.135 90.2965C346.135 89.9643 346.015 89.6924 345.833 89.6924C345.682 89.6924 345.531 89.5414 345.531 89.3904C345.531 89.179 345.713 89.179 346.135 89.3904C346.468 89.5716 346.739 89.9039 346.739 90.1455ZM347.344 91.8369C346.981 92.3202 346.619 92.6826 346.528 92.592C346.317 92.4108 347.344 90.9006 347.706 90.9006C347.857 90.9006 347.706 91.3234 347.344 91.8369ZM360.633 92.4712C360.633 92.6524 360.452 92.6222 360.18 92.4108C359.787 92.1087 359.727 92.1389 359.727 92.6826C359.727 93.0149 359.606 93.3169 359.455 93.3169C359.304 93.3169 359.244 93.0451 359.334 92.7128C359.455 92.2598 359.334 92.1087 358.851 92.1087C358.519 92.1087 358.217 91.9577 358.217 91.7765C358.217 91.5651 358.519 91.5047 358.972 91.6255C359.576 91.7765 359.667 91.7161 359.546 91.2932C359.425 90.9006 359.546 90.9308 359.999 91.4745C360.361 91.8671 360.633 92.3202 360.633 92.4712ZM349.307 91.8067C349.428 91.9879 349.277 92.5014 348.975 92.9544C348.491 93.7095 348.431 93.7095 348.219 93.1659C347.797 92.0785 347.917 91.5047 348.521 91.5047C348.854 91.5047 349.216 91.6557 349.307 91.8067ZM357.915 92.894C358.277 93.8304 358.277 93.921 357.945 93.921C357.794 93.921 357.613 93.6793 357.522 93.3773C357.432 92.9846 357.311 93.0753 357.039 93.7397C356.646 94.7063 356.254 94.5552 355.952 93.2263C355.68 92.2296 356.012 92.1389 356.374 93.0753C356.646 93.7699 356.646 93.7699 356.858 92.9242C357.13 91.8973 357.552 91.8671 357.915 92.894ZM351.572 92.7732C351.572 92.9846 351.481 93.4679 351.391 93.8606C351.119 94.8573 349.911 94.6459 349.911 93.6189C349.911 93.1961 349.941 92.7732 350.001 92.6222C350.152 92.2598 351.572 92.3806 351.572 92.7732ZM353.898 94.1022C353.626 94.374 353.052 93.921 353.263 93.5585C353.384 93.3773 353.566 93.3773 353.777 93.5887C353.958 93.7699 354.019 93.9814 353.898 94.1022Z" fill="#FFFEFD"/>
<path d="M349.79 71.9937C349.367 72.5072 349.579 73.0811 350.213 73.0811C350.877 73.0811 351.089 72.477 350.606 71.9937C350.213 71.6011 350.122 71.6011 349.79 71.9937Z" fill="#FFFEFD"/>
<path d="M352.176 82.5949C352.176 87.2765 352.237 88.1826 352.629 88.1826C352.962 88.1826 353.082 87.6994 353.143 86.1288C353.233 84.1655 353.264 84.1051 354.079 84.0145L354.895 83.9239V86.0381C354.895 87.9712 354.955 88.1826 355.499 88.1826C356.042 88.1826 356.103 87.9712 356.103 86.3704C356.103 84.0447 355.499 82.7761 354.26 82.5345C353.082 82.2929 352.871 81.9002 353.777 81.568C354.502 81.2962 355.499 80.1786 355.499 79.6651C355.499 79.5141 354.925 79.4235 354.23 79.4235C352.72 79.4235 352.992 78.9101 354.593 78.759L355.65 78.6684L354.834 77.8227C354.29 77.279 353.686 77.0072 353.082 77.0072H352.176V82.5949Z" fill="#FFFEFD"/>
<path d="M363.563 78.397C363.11 78.8501 363.352 79.7562 363.895 79.6656C364.167 79.6051 364.409 79.3031 364.409 79.0011C364.409 78.397 363.925 78.0648 363.563 78.397Z" fill="#FFFEFD"/>
<path d="M342.058 81.8405C342.149 81.9916 342.3 82.1426 342.39 82.1426C342.451 82.1426 342.511 81.9916 342.511 81.8405C342.511 81.6593 342.36 81.5385 342.179 81.5385C342.028 81.5385 341.967 81.6593 342.058 81.8405Z" fill="#FFFEFD"/>
<path d="M342.662 84.5583C342.571 84.7093 342.632 84.8604 342.783 84.8604C342.964 84.8604 343.115 84.7093 343.115 84.5583C343.115 84.3771 343.055 84.2563 342.994 84.2563C342.904 84.2563 342.753 84.3771 342.662 84.5583Z" fill="#FFFEFD"/>
<path d="M363.925 84.4379C363.654 84.7701 363.654 84.9816 363.895 85.2232C364.318 85.646 365.164 85.3138 365.164 84.7399C365.164 84.1358 364.348 83.9244 363.925 84.4379Z" fill="#FFFEFD"/>
<path d="M348.25 92.1101C348.25 92.2611 348.401 92.4121 348.552 92.4121C348.733 92.4121 348.854 92.2611 348.854 92.1101C348.854 91.9288 348.733 91.808 348.552 91.808C348.401 91.808 348.25 91.9288 348.25 92.1101Z" fill="#FFFEFD"/>
<path d="M350.515 93.0154C350.636 93.1966 350.847 93.257 350.998 93.1664C351.421 92.8945 351.33 92.7133 350.787 92.7133C350.545 92.7133 350.424 92.8643 350.515 93.0154Z" fill="#FFFEFD"/>
<path d="M350.213 93.9216C350.334 94.1028 350.545 94.1632 350.696 94.0726C351.119 93.8008 351.028 93.6196 350.485 93.6196C350.243 93.6196 350.122 93.7706 350.213 93.9216Z" fill="#FFFEFD"/>
<path d="M0 103.013V135.965L9.30277 135.844C16.8839 135.723 18.817 135.633 19.8439 135.24C22.9247 134.032 24.7369 132.038 25.8544 128.656C26.3679 127.115 26.4283 125.242 26.5189 104.19C26.6397 80.5107 26.5491 78.2756 25.3712 75.6177C24.6463 73.9263 22.9851 72.1442 21.3843 71.3589C19.3304 70.332 16.7027 70.0602 8.09461 70.0602H0V103.013ZM15.0415 79.7254C15.3737 80.0576 15.8268 80.8429 15.9778 81.447C16.4611 83.1082 16.4309 122.313 15.9476 123.853C15.4341 125.665 14.7697 126.058 12.2023 126.179L9.96725 126.3V102.71V79.1213H12.1721C13.9542 79.1213 14.4978 79.2421 15.0415 79.7254Z" fill="#FFFEFD"/>
<path d="M30.2038 102.983V135.905H41.8323H53.4607V130.922V125.938H46.8159H40.171V116.424V106.91H45.1547H50.1383V101.926V96.9424H45.1547H40.171V88.3343V79.7262H46.5138H52.8566V74.8936V70.061H41.5302H30.2038V102.983Z" fill="#FFFEFD"/>
<path d="M84.8727 102.983V135.905L89.9469 135.845L94.9909 135.754V102.983V70.212L89.9469 70.1214L84.8727 70.061V102.983Z" fill="#FFFEFD"/>
<path d="M128.668 102.983V135.905H133.048H137.427L137.457 117.239C137.457 105.973 137.578 98.8452 137.729 99.2077C137.88 99.5399 139.934 107.423 142.26 116.726C144.616 126.029 146.67 134.153 146.821 134.758L147.123 135.905H151.17H155.247V102.983V70.061H150.717H146.186L146.156 87.4886C146.156 97.0934 146.066 104.765 145.975 104.554C145.884 104.342 143.981 96.5497 141.686 87.1866L137.578 70.212L133.108 70.1214L128.668 70.0308V102.983Z" fill="#FFFEFD"/>
<path d="M226.528 102.983V135.905H231.512H236.496V121.407V106.91H239.818H243.14V121.407V135.905H248.124H253.108V102.983V70.061H248.124H243.14V83.1997V96.3383H239.818H236.496V83.1997V70.061H231.512H226.528V102.983Z" fill="#FFFEFD"/>
<path d="M318.046 102.983V135.905H329.07H340.095V130.771V125.636H334.054H328.013V97.8485V70.061H323.03H318.046V102.983Z" fill="#FFFEFD"/>
</svg>
