<svg width="509" height="497" viewBox="0 0 509 497" fill="none" xmlns="http://www.w3.org/2000/svg">
<rect x="63.9151" width="368.759" height="496.042" fill="#FFD17C"/>
<path d="M245.177 238L232.122 215.932L242.659 209.702L259.955 238H245.177ZM215.62 238V191.61H228.676V238H215.62ZM224.898 220.239V209.636H241.731V220.239H224.898ZM243.918 216.197L231.79 214.871L246.039 191.61H259.823L243.918 216.197ZM267.381 238.795C266.497 238.795 265.547 238.729 264.531 238.596C263.559 238.464 262.521 238.265 261.417 238L262.146 227.264C262.764 227.397 263.361 227.463 263.935 227.463C265.746 227.463 267.116 226.756 268.044 225.342C268.971 223.884 269.612 221.852 269.965 219.245C270.363 216.639 270.606 213.59 270.694 210.1L271.357 191.61H308.734V238H295.811V199.099L298.661 202.015H279.906L282.557 198.967L282.226 209.57C282.093 214.076 281.784 218.141 281.298 221.764C280.812 225.342 280.039 228.413 278.978 230.975C277.918 233.494 276.438 235.438 274.538 236.807C272.683 238.133 270.297 238.795 267.381 238.795ZM314.018 238L334.496 191.61H347.418L367.962 238H354.311L338.273 198.039H343.442L327.405 238H314.018ZM325.218 228.987L328.598 219.312H351.262L354.642 228.987H325.218ZM395.23 238.928C391.563 238.928 388.161 238.353 385.024 237.205C381.931 236.012 379.236 234.333 376.939 232.168C374.686 230.003 372.919 227.463 371.637 224.547C370.356 221.587 369.715 218.34 369.715 214.805C369.715 211.271 370.356 208.046 371.637 205.13C372.919 202.17 374.686 199.607 376.939 197.442C379.236 195.277 381.931 193.621 385.024 192.472C388.161 191.279 391.563 190.683 395.23 190.683C399.515 190.683 403.337 191.434 406.695 192.936C410.096 194.438 412.924 196.603 415.177 199.43L406.827 206.985C405.325 205.218 403.668 203.871 401.857 202.943C400.09 202.015 398.101 201.551 395.892 201.551C393.993 201.551 392.247 201.86 390.657 202.479C389.066 203.097 387.697 204.003 386.548 205.196C385.444 206.345 384.56 207.736 383.897 209.371C383.279 211.006 382.97 212.817 382.97 214.805C382.97 216.793 383.279 218.605 383.897 220.239C384.56 221.874 385.444 223.288 386.548 224.481C387.697 225.629 389.066 226.513 390.657 227.132C392.247 227.75 393.993 228.059 395.892 228.059C398.101 228.059 400.09 227.595 401.857 226.668C403.668 225.74 405.325 224.392 406.827 222.625L415.177 230.18C412.924 232.963 410.096 235.128 406.695 236.675C403.337 238.177 399.515 238.928 395.23 238.928ZM238.484 308.928C234.817 308.928 231.415 308.353 228.278 307.205C225.185 306.012 222.49 304.333 220.193 302.168C217.94 300.003 216.173 297.463 214.891 294.547C213.61 291.587 212.97 288.34 212.97 284.805C212.97 281.271 213.61 278.046 214.891 275.13C216.173 272.17 217.94 269.607 220.193 267.442C222.49 265.277 225.185 263.621 228.278 262.472C231.415 261.279 234.817 260.683 238.484 260.683C242.769 260.683 246.591 261.434 249.949 262.936C253.351 264.438 256.178 266.603 258.431 269.43L250.081 276.985C248.579 275.218 246.922 273.871 245.111 272.943C243.344 272.015 241.356 271.551 239.146 271.551C237.247 271.551 235.502 271.86 233.911 272.479C232.321 273.097 230.951 274.003 229.802 275.196C228.698 276.345 227.814 277.736 227.151 279.371C226.533 281.006 226.224 282.817 226.224 284.805C226.224 286.793 226.533 288.605 227.151 290.239C227.814 291.874 228.698 293.288 229.802 294.481C230.951 295.629 232.321 296.513 233.911 297.132C235.502 297.75 237.247 298.059 239.146 298.059C241.356 298.059 243.344 297.595 245.111 296.668C246.922 295.74 248.579 294.392 250.081 292.625L258.431 300.18C256.178 302.963 253.351 305.128 249.949 306.675C246.591 308.177 242.769 308.928 238.484 308.928ZM264.359 308V261.61H277.282V288.848L296.434 261.61H308.76V308H295.837V280.829L276.752 308H264.359ZM348.013 308L334.958 285.932L345.495 279.702L362.792 308H348.013ZM318.457 308V261.61H331.512V308H318.457ZM327.734 290.239V279.636H344.567V290.239H327.734ZM346.754 286.197L334.627 284.871L348.875 261.61H362.659L346.754 286.197ZM367.001 308V261.61H379.924V288.848L399.076 261.61H411.402V308H398.48V280.829L379.394 308H367.001Z" fill="#4F6234"/>
<path d="M113.177 393L100.122 370.932L110.659 364.702L127.956 393H113.177ZM83.6204 393V346.61H96.6757V393H83.6204ZM92.8983 375.239V364.636H109.731V375.239H92.8983ZM111.918 371.197L99.7904 369.871L114.039 346.61H127.823L111.918 371.197ZM132.165 393V346.61H145.088V373.848L164.24 346.61H176.566V393H163.643V365.829L144.557 393H132.165ZM217.542 346.61H230.664V393H217.542V346.61ZM199.649 393H186.527V346.61H199.649V393ZM218.47 374.908H198.721V364.04H218.47V374.908ZM263.428 393.928C259.717 393.928 256.293 393.331 253.157 392.138C250.02 390.946 247.281 389.267 244.939 387.102C242.642 384.893 240.852 382.33 239.571 379.414C238.29 376.499 237.649 373.295 237.649 369.805C237.649 366.315 238.29 363.112 239.571 360.196C240.852 357.28 242.642 354.74 244.939 352.575C247.281 350.366 250.02 348.665 253.157 347.472C256.293 346.279 259.717 345.683 263.428 345.683C267.184 345.683 270.608 346.279 273.7 347.472C276.837 348.665 279.554 350.366 281.852 352.575C284.149 354.74 285.938 357.28 287.22 360.196C288.545 363.112 289.208 366.315 289.208 369.805C289.208 373.295 288.545 376.521 287.22 379.481C285.938 382.397 284.149 384.937 281.852 387.102C279.554 389.267 276.837 390.946 273.7 392.138C270.608 393.331 267.184 393.928 263.428 393.928ZM263.428 383.059C265.196 383.059 266.83 382.75 268.333 382.132C269.879 381.513 271.204 380.629 272.309 379.481C273.457 378.288 274.341 376.874 274.96 375.239C275.622 373.605 275.954 371.793 275.954 369.805C275.954 367.773 275.622 365.962 274.96 364.371C274.341 362.736 273.457 361.345 272.309 360.196C271.204 359.003 269.879 358.097 268.333 357.479C266.83 356.86 265.196 356.551 263.428 356.551C261.661 356.551 260.004 356.86 258.458 357.479C256.956 358.097 255.631 359.003 254.482 360.196C253.377 361.345 252.494 362.736 251.831 364.371C251.213 365.962 250.903 367.773 250.903 369.805C250.903 371.793 251.213 373.605 251.831 375.239C252.494 376.874 253.377 378.288 254.482 379.481C255.631 380.629 256.956 381.513 258.458 382.132C260.004 382.75 261.661 383.059 263.428 383.059Z" fill="#4F6234"/>
<path d="M94.0511 474.907L91.5311 471.267L92.3571 470.777L95.2411 474.907H94.0511ZM89.8791 471.631V470.777H92.2031V471.631H89.8791ZM92.4551 471.337L91.5031 471.197L93.9531 467.557H95.0311L92.4551 471.337ZM85.3431 474.907H84.1531L87.0371 470.777L87.8491 471.267L85.3431 474.907ZM90.1871 474.907H89.1931V467.557H90.1871V474.907ZM89.5011 471.631H87.1911V470.777H89.5011V471.631ZM86.9531 471.337L84.3631 467.557H85.4411L87.8771 471.197L86.9531 471.337ZM101.936 474.431V468.425H98.3935L98.3095 470.063C98.2909 470.557 98.2582 471.043 98.2115 471.519C98.1742 471.995 98.1042 472.433 98.0015 472.835C97.9082 473.227 97.7729 473.549 97.5955 473.801C97.4182 474.043 97.1895 474.183 96.9095 474.221L95.9155 474.039C96.2049 474.048 96.4429 473.945 96.6295 473.731C96.8162 473.507 96.9609 473.203 97.0635 472.821C97.1662 472.438 97.2409 472.004 97.2875 471.519C97.3342 471.024 97.3715 470.52 97.3995 470.007L97.4975 467.557H102.93V474.431H101.936ZM95.6075 476.685V474.039H104.078V476.685H103.14V474.907H96.5455V476.685H95.6075ZM109.165 474.977C108.399 474.977 107.727 474.818 107.149 474.501C106.57 474.174 106.117 473.731 105.791 473.171C105.464 472.601 105.301 471.953 105.301 471.225C105.301 470.497 105.455 469.853 105.763 469.293C106.08 468.733 106.509 468.294 107.051 467.977C107.601 467.65 108.217 467.487 108.899 467.487C109.589 467.487 110.201 467.645 110.733 467.963C111.274 468.271 111.699 468.709 112.007 469.279C112.315 469.839 112.469 470.487 112.469 471.225C112.469 471.271 112.464 471.323 112.455 471.379C112.455 471.425 112.455 471.477 112.455 471.533H106.057V470.791H111.923L111.531 471.085C111.531 470.553 111.414 470.081 111.181 469.671C110.957 469.251 110.649 468.924 110.257 468.691C109.865 468.457 109.412 468.341 108.899 468.341C108.395 468.341 107.942 468.457 107.541 468.691C107.139 468.924 106.827 469.251 106.603 469.671C106.379 470.091 106.267 470.571 106.267 471.113V471.267C106.267 471.827 106.388 472.321 106.631 472.751C106.883 473.171 107.228 473.502 107.667 473.745C108.115 473.978 108.623 474.095 109.193 474.095C109.641 474.095 110.056 474.015 110.439 473.857C110.831 473.698 111.167 473.455 111.447 473.129L112.007 473.773C111.68 474.165 111.269 474.463 110.775 474.669C110.289 474.874 109.753 474.977 109.165 474.977ZM114.669 474.907V467.557H115.677L119.009 473.199H118.589L121.977 467.557H122.901V474.907H121.991V468.691L122.173 468.775L119.009 474.011H118.561L115.369 468.719L115.579 468.677V474.907H114.669ZM129.394 474.907V467.557H132.642C133.472 467.557 134.126 467.715 134.602 468.033C135.087 468.35 135.33 468.817 135.33 469.433C135.33 470.03 135.101 470.492 134.644 470.819C134.186 471.136 133.584 471.295 132.838 471.295L133.034 471.001C133.911 471.001 134.555 471.164 134.966 471.491C135.376 471.817 135.582 472.289 135.582 472.905C135.582 473.539 135.348 474.034 134.882 474.389C134.424 474.734 133.71 474.907 132.74 474.907H129.394ZM130.36 474.123H132.698C133.323 474.123 133.794 474.025 134.112 473.829C134.438 473.623 134.602 473.297 134.602 472.849C134.602 472.401 134.457 472.074 134.168 471.869C133.878 471.663 133.421 471.561 132.796 471.561H130.36V474.123ZM130.36 470.819H132.572C133.141 470.819 133.575 470.711 133.874 470.497C134.182 470.282 134.336 469.969 134.336 469.559C134.336 469.148 134.182 468.84 133.874 468.635C133.575 468.429 133.141 468.327 132.572 468.327H130.36V470.819ZM142.475 474.907V473.283L142.433 473.017V470.301C142.433 469.675 142.256 469.195 141.901 468.859C141.556 468.523 141.038 468.355 140.347 468.355C139.871 468.355 139.418 468.434 138.989 468.593C138.56 468.751 138.196 468.961 137.897 469.223L137.449 468.481C137.822 468.163 138.27 467.921 138.793 467.753C139.316 467.575 139.866 467.487 140.445 467.487C141.397 467.487 142.13 467.725 142.643 468.201C143.166 468.667 143.427 469.381 143.427 470.343V474.907H142.475ZM139.941 474.977C139.39 474.977 138.91 474.888 138.499 474.711C138.098 474.524 137.79 474.272 137.575 473.955C137.36 473.628 137.253 473.255 137.253 472.835C137.253 472.452 137.342 472.107 137.519 471.799C137.706 471.481 138.004 471.229 138.415 471.043C138.835 470.847 139.395 470.749 140.095 470.749H142.629V471.491H140.123C139.414 471.491 138.919 471.617 138.639 471.869C138.368 472.121 138.233 472.433 138.233 472.807C138.233 473.227 138.396 473.563 138.723 473.815C139.05 474.067 139.507 474.193 140.095 474.193C140.655 474.193 141.136 474.067 141.537 473.815C141.948 473.553 142.246 473.18 142.433 472.695L142.657 473.381C142.47 473.866 142.144 474.253 141.677 474.543C141.22 474.832 140.641 474.977 139.941 474.977ZM149.153 474.977C148.425 474.977 147.772 474.818 147.193 474.501C146.624 474.174 146.176 473.731 145.849 473.171C145.523 472.601 145.359 471.953 145.359 471.225C145.359 470.487 145.523 469.839 145.849 469.279C146.176 468.719 146.624 468.28 147.193 467.963C147.772 467.645 148.425 467.487 149.153 467.487C149.779 467.487 150.343 467.608 150.847 467.851C151.351 468.093 151.748 468.457 152.037 468.943L151.295 469.447C151.043 469.073 150.731 468.798 150.357 468.621C149.984 468.443 149.578 468.355 149.139 468.355C148.617 468.355 148.145 468.476 147.725 468.719C147.305 468.952 146.974 469.283 146.731 469.713C146.489 470.142 146.367 470.646 146.367 471.225C146.367 471.803 146.489 472.307 146.731 472.737C146.974 473.166 147.305 473.502 147.725 473.745C148.145 473.978 148.617 474.095 149.139 474.095C149.578 474.095 149.984 474.006 150.357 473.829C150.731 473.651 151.043 473.381 151.295 473.017L152.037 473.521C151.748 473.997 151.351 474.361 150.847 474.613C150.343 474.855 149.779 474.977 149.153 474.977ZM157.626 474.907V467.557H158.62V470.805H163.254V467.557H164.248V474.907H163.254V471.659H158.62V474.907H157.626ZM171.637 474.907V473.283L171.595 473.017V470.301C171.595 469.675 171.418 469.195 171.063 468.859C170.718 468.523 170.2 468.355 169.509 468.355C169.033 468.355 168.581 468.434 168.151 468.593C167.722 468.751 167.358 468.961 167.059 469.223L166.611 468.481C166.985 468.163 167.433 467.921 167.955 467.753C168.478 467.575 169.029 467.487 169.607 467.487C170.559 467.487 171.292 467.725 171.805 468.201C172.328 468.667 172.589 469.381 172.589 470.343V474.907H171.637ZM169.103 474.977C168.553 474.977 168.072 474.888 167.661 474.711C167.26 474.524 166.952 474.272 166.737 473.955C166.523 473.628 166.415 473.255 166.415 472.835C166.415 472.452 166.504 472.107 166.681 471.799C166.868 471.481 167.167 471.229 167.577 471.043C167.997 470.847 168.557 470.749 169.257 470.749H171.791V471.491H169.285C168.576 471.491 168.081 471.617 167.801 471.869C167.531 472.121 167.395 472.433 167.395 472.807C167.395 473.227 167.559 473.563 167.885 473.815C168.212 474.067 168.669 474.193 169.257 474.193C169.817 474.193 170.298 474.067 170.699 473.815C171.11 473.553 171.409 473.18 171.595 472.695L171.819 473.381C171.633 473.866 171.306 474.253 170.839 474.543C170.382 474.832 169.803 474.977 169.103 474.977ZM181.139 474.991C180.43 474.991 179.758 474.879 179.123 474.655C178.498 474.421 177.994 474.113 177.611 473.731L178.101 472.933C178.419 473.259 178.843 473.53 179.375 473.745C179.917 473.959 180.505 474.067 181.139 474.067C181.951 474.067 182.572 473.889 183.001 473.535C183.44 473.18 183.659 472.704 183.659 472.107C183.659 471.509 183.445 471.033 183.015 470.679C182.595 470.324 181.928 470.147 181.013 470.147H180.313V469.405L183.337 465.611L183.477 466.003H178.017V465.107H184.317V465.821L181.293 469.615L180.803 469.293H181.181C182.357 469.293 183.235 469.554 183.813 470.077C184.401 470.599 184.695 471.271 184.695 472.093C184.695 472.643 184.565 473.138 184.303 473.577C184.042 474.015 183.645 474.361 183.113 474.613C182.591 474.865 181.933 474.991 181.139 474.991ZM185.948 472.331V471.603L191.142 465.107H192.262L187.11 471.603L186.564 471.435H194.446V472.331H185.948ZM191.478 474.907V472.331L191.506 471.435V469.167H192.486V474.907H191.478ZM199.848 477.693C199.502 477.693 199.171 477.637 198.854 477.525C198.546 477.413 198.28 477.245 198.056 477.021L198.518 476.279C198.704 476.456 198.905 476.591 199.12 476.685C199.344 476.787 199.591 476.839 199.862 476.839C200.188 476.839 200.468 476.745 200.702 476.559C200.944 476.381 201.173 476.064 201.388 475.607L201.864 474.529L201.976 474.375L205 467.557H205.98L202.298 475.789C202.092 476.265 201.864 476.643 201.612 476.923C201.369 477.203 201.103 477.399 200.814 477.511C200.524 477.632 200.202 477.693 199.848 477.693ZM201.808 475.117L198.42 467.557H199.456L202.452 474.305L201.808 475.117ZM205.87 474.893L205.94 474.039C206.005 474.048 206.066 474.062 206.122 474.081C206.187 474.09 206.243 474.095 206.29 474.095C206.589 474.095 206.827 473.983 207.004 473.759C207.191 473.535 207.331 473.236 207.424 472.863C207.517 472.489 207.583 472.069 207.62 471.603C207.657 471.127 207.69 470.651 207.718 470.175L207.844 467.557H213.234V474.907H212.24V468.131L212.492 468.425H208.488L208.726 468.117L208.614 470.245C208.586 470.879 208.535 471.486 208.46 472.065C208.395 472.643 208.287 473.152 208.138 473.591C207.998 474.029 207.802 474.375 207.55 474.627C207.298 474.869 206.976 474.991 206.584 474.991C206.472 474.991 206.355 474.981 206.234 474.963C206.122 474.944 206.001 474.921 205.87 474.893ZM216.06 474.907V467.557H217.054V473.395L221.968 467.557H222.85V474.907H221.856V469.055L216.956 474.907H216.06ZM225.698 474.907V467.557H226.692V474.039H231.186V467.557H232.18V474.907H225.698ZM232.432 476.685V474.823L232.684 474.907H231.186V474.039H233.37V476.685H232.432ZM238.419 474.977C237.653 474.977 236.981 474.818 236.403 474.501C235.824 474.174 235.371 473.731 235.045 473.171C234.718 472.601 234.555 471.953 234.555 471.225C234.555 470.497 234.709 469.853 235.017 469.293C235.334 468.733 235.763 468.294 236.305 467.977C236.855 467.65 237.471 467.487 238.153 467.487C238.843 467.487 239.455 467.645 239.987 467.963C240.528 468.271 240.953 468.709 241.261 469.279C241.569 469.839 241.723 470.487 241.723 471.225C241.723 471.271 241.718 471.323 241.709 471.379C241.709 471.425 241.709 471.477 241.709 471.533H235.311V470.791H241.177L240.785 471.085C240.785 470.553 240.668 470.081 240.435 469.671C240.211 469.251 239.903 468.924 239.511 468.691C239.119 468.457 238.666 468.341 238.153 468.341C237.649 468.341 237.196 468.457 236.795 468.691C236.393 468.924 236.081 469.251 235.857 469.671C235.633 470.091 235.521 470.571 235.521 471.113V471.267C235.521 471.827 235.642 472.321 235.885 472.751C236.137 473.171 236.482 473.502 236.921 473.745C237.369 473.978 237.877 474.095 238.447 474.095C238.895 474.095 239.31 474.015 239.693 473.857C240.085 473.698 240.421 473.455 240.701 473.129L241.261 473.773C240.934 474.165 240.523 474.463 240.029 474.669C239.543 474.874 239.007 474.977 238.419 474.977ZM247.587 474.907V467.557H250.835C251.666 467.557 252.319 467.715 252.795 468.033C253.28 468.35 253.523 468.817 253.523 469.433C253.523 470.03 253.294 470.492 252.837 470.819C252.38 471.136 251.778 471.295 251.031 471.295L251.227 471.001C252.104 471.001 252.748 471.164 253.159 471.491C253.57 471.817 253.775 472.289 253.775 472.905C253.775 473.539 253.542 474.034 253.075 474.389C252.618 474.734 251.904 474.907 250.933 474.907H247.587ZM248.553 474.123H250.891C251.516 474.123 251.988 474.025 252.305 473.829C252.632 473.623 252.795 473.297 252.795 472.849C252.795 472.401 252.65 472.074 252.361 471.869C252.072 471.663 251.614 471.561 250.989 471.561H248.553V474.123ZM248.553 470.819H250.765C251.334 470.819 251.768 470.711 252.067 470.497C252.375 470.282 252.529 469.969 252.529 469.559C252.529 469.148 252.375 468.84 252.067 468.635C251.768 468.429 251.334 468.327 250.765 468.327H248.553V470.819ZM260.791 474.907V465.527L261.239 466.003H258.481V465.107H261.799V474.907H260.791ZM267.865 474.991C267.081 474.991 266.404 474.879 265.835 474.655C265.275 474.431 264.841 474.109 264.533 473.689C264.234 473.259 264.085 472.755 264.085 472.177C264.085 471.617 264.23 471.141 264.519 470.749C264.818 470.347 265.247 470.039 265.807 469.825C266.376 469.61 267.062 469.503 267.865 469.503C268.658 469.503 269.34 469.61 269.909 469.825C270.478 470.039 270.912 470.347 271.211 470.749C271.519 471.141 271.673 471.617 271.673 472.177C271.673 472.755 271.519 473.259 271.211 473.689C270.903 474.109 270.464 474.431 269.895 474.655C269.326 474.879 268.649 474.991 267.865 474.991ZM267.865 474.137C268.733 474.137 269.41 473.959 269.895 473.605C270.39 473.25 270.637 472.769 270.637 472.163C270.637 471.556 270.39 471.08 269.895 470.735C269.41 470.38 268.733 470.203 267.865 470.203C266.997 470.203 266.32 470.38 265.835 470.735C265.35 471.08 265.107 471.556 265.107 472.163C265.107 472.769 265.35 473.25 265.835 473.605C266.32 473.959 266.997 474.137 267.865 474.137ZM267.865 470.077C267.137 470.077 266.516 469.979 266.003 469.783C265.499 469.587 265.112 469.307 264.841 468.943C264.57 468.569 264.435 468.126 264.435 467.613C264.435 467.071 264.575 466.609 264.855 466.227C265.144 465.835 265.546 465.536 266.059 465.331C266.572 465.125 267.174 465.023 267.865 465.023C268.556 465.023 269.158 465.125 269.671 465.331C270.194 465.536 270.6 465.835 270.889 466.227C271.178 466.609 271.323 467.071 271.323 467.613C271.323 468.126 271.188 468.569 270.917 468.943C270.646 469.307 270.25 469.587 269.727 469.783C269.214 469.979 268.593 470.077 267.865 470.077ZM267.865 469.405C268.63 469.405 269.228 469.246 269.657 468.929C270.086 468.611 270.301 468.187 270.301 467.655C270.301 467.095 270.077 466.661 269.629 466.353C269.19 466.035 268.602 465.877 267.865 465.877C267.128 465.877 266.54 466.035 266.101 466.353C265.662 466.661 265.443 467.09 265.443 467.641C265.443 468.182 265.653 468.611 266.073 468.929C266.502 469.246 267.1 469.405 267.865 469.405ZM273.962 474.977C273.756 474.977 273.579 474.902 273.43 474.753C273.29 474.603 273.22 474.421 273.22 474.207C273.22 473.983 273.29 473.801 273.43 473.661C273.579 473.521 273.756 473.451 273.962 473.451C274.167 473.451 274.34 473.521 274.48 473.661C274.629 473.801 274.704 473.983 274.704 474.207C274.704 474.421 274.629 474.603 274.48 474.753C274.34 474.902 274.167 474.977 273.962 474.977ZM279.928 474.991C279.172 474.991 278.5 474.795 277.912 474.403C277.324 474.001 276.862 473.432 276.526 472.695C276.19 471.948 276.022 471.052 276.022 470.007C276.022 468.961 276.19 468.07 276.526 467.333C276.862 466.586 277.324 466.017 277.912 465.625C278.5 465.223 279.172 465.023 279.928 465.023C280.684 465.023 281.356 465.223 281.944 465.625C282.532 466.017 282.994 466.586 283.33 467.333C283.675 468.07 283.848 468.961 283.848 470.007C283.848 471.052 283.675 471.948 283.33 472.695C282.994 473.432 282.532 474.001 281.944 474.403C281.356 474.795 280.684 474.991 279.928 474.991ZM279.928 474.067C280.507 474.067 281.011 473.913 281.44 473.605C281.869 473.287 282.205 472.83 282.448 472.233C282.691 471.626 282.812 470.884 282.812 470.007C282.812 469.129 282.691 468.392 282.448 467.795C282.205 467.188 281.869 466.731 281.44 466.423C281.011 466.105 280.507 465.947 279.928 465.947C279.368 465.947 278.869 466.105 278.43 466.423C277.991 466.731 277.651 467.188 277.408 467.795C277.165 468.392 277.044 469.129 277.044 470.007C277.044 470.884 277.165 471.626 277.408 472.233C277.651 472.83 277.991 473.287 278.43 473.605C278.869 473.913 279.368 474.067 279.928 474.067ZM289.198 474.991C288.442 474.991 287.77 474.795 287.182 474.403C286.594 474.001 286.132 473.432 285.796 472.695C285.46 471.948 285.292 471.052 285.292 470.007C285.292 468.961 285.46 468.07 285.796 467.333C286.132 466.586 286.594 466.017 287.182 465.625C287.77 465.223 288.442 465.023 289.198 465.023C289.954 465.023 290.626 465.223 291.214 465.625C291.802 466.017 292.264 466.586 292.6 467.333C292.945 468.07 293.118 468.961 293.118 470.007C293.118 471.052 292.945 471.948 292.6 472.695C292.264 473.432 291.802 474.001 291.214 474.403C290.626 474.795 289.954 474.991 289.198 474.991ZM289.198 474.067C289.776 474.067 290.28 473.913 290.71 473.605C291.139 473.287 291.475 472.83 291.718 472.233C291.96 471.626 292.082 470.884 292.082 470.007C292.082 469.129 291.96 468.392 291.718 467.795C291.475 467.188 291.139 466.731 290.71 466.423C290.28 466.105 289.776 465.947 289.198 465.947C288.638 465.947 288.138 466.105 287.7 466.423C287.261 466.731 286.92 467.188 286.678 467.795C286.435 468.392 286.314 469.129 286.314 470.007C286.314 470.884 286.435 471.626 286.678 472.233C286.92 472.83 287.261 473.287 287.7 473.605C288.138 473.913 288.638 474.067 289.198 474.067Z" fill="#4F6234"/>
<path opacity="0.5" d="M265.327 111V105.216L265.543 105.444H262.939V104.7H268.567V105.444H265.963L266.179 105.216V111H265.327ZM272.098 111.06C271.49 111.06 270.942 110.924 270.454 110.652C269.974 110.372 269.594 109.992 269.314 109.512C269.034 109.024 268.894 108.468 268.894 107.844C268.894 107.212 269.034 106.656 269.314 106.176C269.594 105.696 269.974 105.32 270.454 105.048C270.934 104.776 271.482 104.64 272.098 104.64C272.722 104.64 273.274 104.776 273.754 105.048C274.242 105.32 274.622 105.696 274.894 106.176C275.174 106.656 275.314 107.212 275.314 107.844C275.314 108.468 275.174 109.024 274.894 109.512C274.622 109.992 274.242 110.372 273.754 110.652C273.266 110.924 272.714 111.06 272.098 111.06ZM272.098 110.304C272.554 110.304 272.958 110.204 273.31 110.004C273.662 109.796 273.938 109.508 274.138 109.14C274.346 108.764 274.45 108.332 274.45 107.844C274.45 107.348 274.346 106.916 274.138 106.548C273.938 106.18 273.662 105.896 273.31 105.696C272.958 105.488 272.558 105.384 272.11 105.384C271.662 105.384 271.262 105.488 270.91 105.696C270.558 105.896 270.278 106.18 270.07 106.548C269.862 106.916 269.758 107.348 269.758 107.844C269.758 108.332 269.862 108.764 270.07 109.14C270.278 109.508 270.558 109.796 270.91 110.004C271.262 110.204 271.658 110.304 272.098 110.304ZM277.135 111V104.7H282.799V111H281.947V105.216L282.163 105.444H277.771L277.987 105.216V111H277.135ZM287.813 111.06C287.205 111.06 286.657 110.924 286.169 110.652C285.689 110.372 285.309 109.992 285.029 109.512C284.749 109.024 284.609 108.468 284.609 107.844C284.609 107.212 284.749 106.656 285.029 106.176C285.309 105.696 285.689 105.32 286.169 105.048C286.649 104.776 287.197 104.64 287.813 104.64C288.437 104.64 288.989 104.776 289.469 105.048C289.957 105.32 290.337 105.696 290.609 106.176C290.889 106.656 291.029 107.212 291.029 107.844C291.029 108.468 290.889 109.024 290.609 109.512C290.337 109.992 289.957 110.372 289.469 110.652C288.981 110.924 288.429 111.06 287.813 111.06ZM287.813 110.304C288.269 110.304 288.673 110.204 289.025 110.004C289.377 109.796 289.653 109.508 289.853 109.14C290.061 108.764 290.165 108.332 290.165 107.844C290.165 107.348 290.061 106.916 289.853 106.548C289.653 106.18 289.377 105.896 289.025 105.696C288.673 105.488 288.273 105.384 287.825 105.384C287.377 105.384 286.977 105.488 286.625 105.696C286.273 105.896 285.993 106.18 285.785 106.548C285.577 106.916 285.473 107.348 285.473 107.844C285.473 108.332 285.577 108.764 285.785 109.14C285.993 109.508 286.273 109.796 286.625 110.004C286.977 110.204 287.373 110.304 287.813 110.304ZM292.85 111V104.7H295.634C296.346 104.7 296.906 104.836 297.314 105.108C297.73 105.38 297.938 105.78 297.938 106.308C297.938 106.82 297.742 107.216 297.35 107.496C296.958 107.768 296.442 107.904 295.802 107.904L295.97 107.652C296.722 107.652 297.274 107.792 297.626 108.072C297.978 108.352 298.154 108.756 298.154 109.284C298.154 109.828 297.954 110.252 297.554 110.556C297.162 110.852 296.55 111 295.718 111H292.85ZM293.678 110.328H295.682C296.218 110.328 296.622 110.244 296.894 110.076C297.174 109.9 297.314 109.62 297.314 109.236C297.314 108.852 297.19 108.572 296.942 108.396C296.694 108.22 296.302 108.132 295.766 108.132H293.678V110.328ZM293.678 107.496H295.574C296.062 107.496 296.434 107.404 296.69 107.22C296.954 107.036 297.086 106.768 297.086 106.416C297.086 106.064 296.954 105.8 296.69 105.624C296.434 105.448 296.062 105.36 295.574 105.36H293.678V107.496ZM306.295 111V104.7H307.147V111H306.295ZM302.803 106.92C303.595 106.928 304.199 107.104 304.615 107.448C305.031 107.792 305.239 108.288 305.239 108.936C305.239 109.608 305.015 110.124 304.567 110.484C304.119 110.844 303.479 111.02 302.647 111.012L300.151 111V104.7H301.003V106.896L302.803 106.92ZM302.587 110.364C303.179 110.372 303.623 110.256 303.919 110.016C304.223 109.768 304.375 109.408 304.375 108.936C304.375 108.464 304.227 108.12 303.931 107.904C303.635 107.68 303.187 107.564 302.587 107.556L301.003 107.532V110.34L302.587 110.364ZM312.272 111.06C311.616 111.06 311.04 110.924 310.544 110.652C310.048 110.372 309.66 109.992 309.38 109.512C309.1 109.024 308.96 108.468 308.96 107.844C308.96 107.22 309.092 106.668 309.356 106.188C309.628 105.708 309.996 105.332 310.46 105.06C310.932 104.78 311.46 104.64 312.044 104.64C312.636 104.64 313.16 104.776 313.616 105.048C314.08 105.312 314.444 105.688 314.708 106.176C314.972 106.656 315.104 107.212 315.104 107.844C315.104 107.884 315.1 107.928 315.092 107.976C315.092 108.016 315.092 108.06 315.092 108.108H309.608V107.472H314.636L314.3 107.724C314.3 107.268 314.2 106.864 314 106.512C313.808 106.152 313.544 105.872 313.208 105.672C312.872 105.472 312.484 105.372 312.044 105.372C311.612 105.372 311.224 105.472 310.88 105.672C310.536 105.872 310.268 106.152 310.076 106.512C309.884 106.872 309.788 107.284 309.788 107.748V107.88C309.788 108.36 309.892 108.784 310.1 109.152C310.316 109.512 310.612 109.796 310.988 110.004C311.372 110.204 311.808 110.304 312.296 110.304C312.68 110.304 313.036 110.236 313.364 110.1C313.7 109.964 313.988 109.756 314.228 109.476L314.708 110.028C314.428 110.364 314.076 110.62 313.652 110.796C313.236 110.972 312.776 111.06 312.272 111.06ZM323.671 111.072C323.671 111.072 323.655 111.072 323.623 111.072C323.591 111.072 323.559 111.072 323.527 111.072C323.503 111.072 323.483 111.072 323.467 111.072C322.219 111.064 321.247 110.78 320.551 110.22C319.855 109.66 319.507 108.864 319.507 107.832C319.507 106.816 319.855 106.032 320.551 105.48C321.255 104.92 322.243 104.636 323.515 104.628C323.523 104.628 323.539 104.628 323.563 104.628C323.595 104.628 323.623 104.628 323.647 104.628C323.671 104.628 323.687 104.628 323.695 104.628C324.975 104.636 325.971 104.92 326.683 105.48C327.395 106.032 327.751 106.816 327.751 107.832C327.751 108.872 327.391 109.672 326.671 110.232C325.959 110.792 324.959 111.072 323.671 111.072ZM323.659 110.328C324.371 110.328 324.967 110.232 325.447 110.04C325.927 109.84 326.291 109.556 326.539 109.188C326.787 108.82 326.911 108.368 326.911 107.832C326.911 107.312 326.787 106.872 326.539 106.512C326.291 106.144 325.927 105.864 325.447 105.672C324.967 105.48 324.371 105.384 323.659 105.384C323.651 105.384 323.627 105.384 323.587 105.384C323.555 105.384 323.535 105.384 323.527 105.384C322.831 105.384 322.247 105.484 321.775 105.684C321.303 105.876 320.947 106.152 320.707 106.512C320.467 106.872 320.347 107.312 320.347 107.832C320.347 108.36 320.467 108.808 320.707 109.176C320.955 109.544 321.315 109.828 321.787 110.028C322.259 110.22 322.839 110.32 323.527 110.328C323.543 110.328 323.567 110.328 323.599 110.328C323.631 110.328 323.651 110.328 323.659 110.328ZM323.203 113.328V102.096H324.031V113.328H323.203ZM329.553 111V104.7H330.405V109.704L334.617 104.7H335.373V111H334.521V105.984L330.321 111H329.553ZM336.663 110.988L336.723 110.256C336.779 110.264 336.831 110.276 336.879 110.292C336.935 110.3 336.983 110.304 337.023 110.304C337.279 110.304 337.483 110.208 337.635 110.016C337.795 109.824 337.915 109.568 337.995 109.248C338.075 108.928 338.131 108.568 338.163 108.168C338.195 107.76 338.223 107.352 338.247 106.944L338.355 104.7H342.975V111H342.123V105.192L342.339 105.444H338.907L339.111 105.18L339.015 107.004C338.991 107.548 338.947 108.068 338.883 108.564C338.827 109.06 338.735 109.496 338.607 109.872C338.487 110.248 338.319 110.544 338.103 110.76C337.887 110.968 337.611 111.072 337.275 111.072C337.179 111.072 337.079 111.064 336.975 111.048C336.879 111.032 336.775 111.012 336.663 110.988ZM348.109 106.92C348.901 106.928 349.501 107.104 349.909 107.448C350.325 107.792 350.533 108.288 350.533 108.936C350.533 109.608 350.309 110.124 349.861 110.484C349.421 110.844 348.781 111.02 347.941 111.012L345.397 111V104.7H346.249V106.896L348.109 106.92ZM347.893 110.364C348.477 110.372 348.917 110.256 349.213 110.016C349.517 109.768 349.669 109.408 349.669 108.936C349.669 108.464 349.521 108.12 349.225 107.904C348.929 107.68 348.485 107.564 347.893 107.556L346.249 107.532V110.34L347.893 110.364ZM352.158 111V104.7H353.022L355.878 109.536H355.518L358.422 104.7H359.214V111H358.434V105.672L358.59 105.744L355.878 110.232H355.494L352.758 105.696L352.938 105.66V111H352.158ZM367.783 111V104.7H368.635V111H367.783ZM364.291 106.92C365.083 106.928 365.687 107.104 366.103 107.448C366.519 107.792 366.727 108.288 366.727 108.936C366.727 109.608 366.503 110.124 366.055 110.484C365.607 110.844 364.967 111.02 364.135 111.012L361.639 111V104.7H362.491V106.896L364.291 106.92ZM364.075 110.364C364.667 110.372 365.111 110.256 365.407 110.016C365.711 109.768 365.863 109.408 365.863 108.936C365.863 108.464 365.715 108.12 365.419 107.904C365.123 107.68 364.675 107.564 364.075 107.556L362.491 107.532V110.34L364.075 110.364ZM264.127 127V120.7H266.911C267.623 120.7 268.183 120.836 268.591 121.108C269.007 121.38 269.215 121.78 269.215 122.308C269.215 122.82 269.019 123.216 268.627 123.496C268.235 123.768 267.719 123.904 267.079 123.904L267.247 123.652C267.999 123.652 268.551 123.792 268.903 124.072C269.255 124.352 269.431 124.756 269.431 125.284C269.431 125.828 269.231 126.252 268.831 126.556C268.439 126.852 267.827 127 266.995 127H264.127ZM264.955 126.328H266.959C267.495 126.328 267.899 126.244 268.171 126.076C268.451 125.9 268.591 125.62 268.591 125.236C268.591 124.852 268.467 124.572 268.219 124.396C267.971 124.22 267.579 124.132 267.043 124.132H264.955V126.328ZM264.955 123.496H266.851C267.339 123.496 267.711 123.404 267.967 123.22C268.231 123.036 268.363 122.768 268.363 122.416C268.363 122.064 268.231 121.8 267.967 121.624C267.711 121.448 267.339 121.36 266.851 121.36H264.955V123.496ZM274.068 127.06C273.444 127.06 272.884 126.924 272.388 126.652C271.9 126.372 271.516 125.992 271.236 125.512C270.956 125.024 270.816 124.468 270.816 123.844C270.816 123.212 270.956 122.656 271.236 122.176C271.516 121.696 271.9 121.32 272.388 121.048C272.884 120.776 273.444 120.64 274.068 120.64C274.604 120.64 275.088 120.744 275.52 120.952C275.952 121.16 276.292 121.472 276.54 121.888L275.904 122.32C275.688 122 275.42 121.764 275.1 121.612C274.78 121.46 274.432 121.384 274.056 121.384C273.608 121.384 273.204 121.488 272.844 121.696C272.484 121.896 272.2 122.18 271.992 122.548C271.784 122.916 271.68 123.348 271.68 123.844C271.68 124.34 271.784 124.772 271.992 125.14C272.2 125.508 272.484 125.796 272.844 126.004C273.204 126.204 273.608 126.304 274.056 126.304C274.432 126.304 274.78 126.228 275.1 126.076C275.42 125.924 275.688 125.692 275.904 125.38L276.54 125.812C276.292 126.22 275.952 126.532 275.52 126.748C275.088 126.956 274.604 127.06 274.068 127.06ZM280.784 127.06C280.128 127.06 279.552 126.924 279.056 126.652C278.56 126.372 278.172 125.992 277.892 125.512C277.612 125.024 277.472 124.468 277.472 123.844C277.472 123.22 277.604 122.668 277.868 122.188C278.14 121.708 278.508 121.332 278.972 121.06C279.444 120.78 279.972 120.64 280.556 120.64C281.148 120.64 281.672 120.776 282.128 121.048C282.592 121.312 282.956 121.688 283.22 122.176C283.484 122.656 283.616 123.212 283.616 123.844C283.616 123.884 283.612 123.928 283.604 123.976C283.604 124.016 283.604 124.06 283.604 124.108H278.12V123.472H283.148L282.812 123.724C282.812 123.268 282.712 122.864 282.512 122.512C282.32 122.152 282.056 121.872 281.72 121.672C281.384 121.472 280.996 121.372 280.556 121.372C280.124 121.372 279.736 121.472 279.392 121.672C279.048 121.872 278.78 122.152 278.588 122.512C278.396 122.872 278.3 123.284 278.3 123.748V123.88C278.3 124.36 278.404 124.784 278.612 125.152C278.828 125.512 279.124 125.796 279.5 126.004C279.884 126.204 280.32 126.304 280.808 126.304C281.192 126.304 281.548 126.236 281.876 126.1C282.212 125.964 282.5 125.756 282.74 125.476L283.22 126.028C282.94 126.364 282.588 126.62 282.164 126.796C281.748 126.972 281.288 127.06 280.784 127.06ZM284.294 127L286.958 123.544L286.946 123.964L284.414 120.7H285.374L287.45 123.4L287.09 123.388L289.166 120.7H290.102L287.546 124L287.558 123.544L290.246 127H289.274L287.078 124.12L287.414 124.168L285.254 127H284.294ZM294.783 127V120.7H297.567C298.279 120.7 298.839 120.836 299.247 121.108C299.663 121.38 299.871 121.78 299.871 122.308C299.871 122.82 299.675 123.216 299.283 123.496C298.891 123.768 298.375 123.904 297.735 123.904L297.903 123.652C298.655 123.652 299.207 123.792 299.559 124.072C299.911 124.352 300.087 124.756 300.087 125.284C300.087 125.828 299.887 126.252 299.487 126.556C299.095 126.852 298.483 127 297.651 127H294.783ZM295.611 126.328H297.615C298.151 126.328 298.555 126.244 298.827 126.076C299.107 125.9 299.247 125.62 299.247 125.236C299.247 124.852 299.123 124.572 298.875 124.396C298.627 124.22 298.235 124.132 297.699 124.132H295.611V126.328ZM295.611 123.496H297.507C297.995 123.496 298.367 123.404 298.623 123.22C298.887 123.036 299.019 122.768 299.019 122.416C299.019 122.064 298.887 121.8 298.623 121.624C298.367 121.448 297.995 121.36 297.507 121.36H295.611V123.496ZM305.336 127.06C304.792 127.06 304.3 126.936 303.86 126.688C303.42 126.432 303.068 126.068 302.804 125.596C302.548 125.116 302.42 124.532 302.42 123.844C302.42 123.156 302.548 122.576 302.804 122.104C303.06 121.624 303.408 121.26 303.848 121.012C304.288 120.764 304.784 120.64 305.336 120.64C305.936 120.64 306.472 120.776 306.944 121.048C307.424 121.312 307.8 121.688 308.072 122.176C308.344 122.656 308.48 123.212 308.48 123.844C308.48 124.484 308.344 125.044 308.072 125.524C307.8 126.004 307.424 126.38 306.944 126.652C306.472 126.924 305.936 127.06 305.336 127.06ZM302.084 129.328V120.7H302.9V122.596L302.816 123.856L302.936 125.128V129.328H302.084ZM305.276 126.304C305.724 126.304 306.124 126.204 306.476 126.004C306.828 125.796 307.108 125.508 307.316 125.14C307.524 124.764 307.628 124.332 307.628 123.844C307.628 123.356 307.524 122.928 307.316 122.56C307.108 122.192 306.828 121.904 306.476 121.696C306.124 121.488 305.724 121.384 305.276 121.384C304.828 121.384 304.424 121.488 304.064 121.696C303.712 121.904 303.432 122.192 303.224 122.56C303.024 122.928 302.924 123.356 302.924 123.844C302.924 124.332 303.024 124.764 303.224 125.14C303.432 125.508 303.712 125.796 304.064 126.004C304.424 126.204 304.828 126.304 305.276 126.304ZM313.011 127.06C312.355 127.06 311.779 126.924 311.283 126.652C310.787 126.372 310.399 125.992 310.119 125.512C309.839 125.024 309.699 124.468 309.699 123.844C309.699 123.22 309.831 122.668 310.095 122.188C310.367 121.708 310.735 121.332 311.199 121.06C311.671 120.78 312.199 120.64 312.783 120.64C313.375 120.64 313.899 120.776 314.355 121.048C314.819 121.312 315.183 121.688 315.447 122.176C315.711 122.656 315.843 123.212 315.843 123.844C315.843 123.884 315.839 123.928 315.831 123.976C315.831 124.016 315.831 124.06 315.831 124.108H310.347V123.472H315.375L315.039 123.724C315.039 123.268 314.939 122.864 314.739 122.512C314.547 122.152 314.283 121.872 313.947 121.672C313.611 121.472 313.223 121.372 312.783 121.372C312.351 121.372 311.963 121.472 311.619 121.672C311.275 121.872 311.007 122.152 310.815 122.512C310.623 122.872 310.527 123.284 310.527 123.748V123.88C310.527 124.36 310.631 124.784 310.839 125.152C311.055 125.512 311.351 125.796 311.727 126.004C312.111 126.204 312.547 126.304 313.035 126.304C313.419 126.304 313.775 126.236 314.103 126.1C314.439 125.964 314.727 125.756 314.967 125.476L315.447 126.028C315.167 126.364 314.815 126.62 314.391 126.796C313.975 126.972 313.515 127.06 313.011 127.06ZM317.729 127V120.7H318.593L321.449 125.536H321.089L323.993 120.7H324.785V127H324.005V121.672L324.161 121.744L321.449 126.232H321.065L318.329 121.696L318.509 121.66V127H317.729ZM329.909 127.06C329.253 127.06 328.677 126.924 328.181 126.652C327.685 126.372 327.297 125.992 327.017 125.512C326.737 125.024 326.597 124.468 326.597 123.844C326.597 123.22 326.729 122.668 326.993 122.188C327.265 121.708 327.633 121.332 328.097 121.06C328.569 120.78 329.097 120.64 329.681 120.64C330.273 120.64 330.797 120.776 331.253 121.048C331.717 121.312 332.081 121.688 332.345 122.176C332.609 122.656 332.741 123.212 332.741 123.844C332.741 123.884 332.737 123.928 332.729 123.976C332.729 124.016 332.729 124.06 332.729 124.108H327.245V123.472H332.273L331.937 123.724C331.937 123.268 331.837 122.864 331.637 122.512C331.445 122.152 331.181 121.872 330.845 121.672C330.509 121.472 330.121 121.372 329.681 121.372C329.249 121.372 328.861 121.472 328.517 121.672C328.173 121.872 327.905 122.152 327.713 122.512C327.521 122.872 327.425 123.284 327.425 123.748V123.88C327.425 124.36 327.529 124.784 327.737 125.152C327.953 125.512 328.249 125.796 328.625 126.004C329.009 126.204 329.445 126.304 329.933 126.304C330.317 126.304 330.673 126.236 331.001 126.1C331.337 125.964 331.625 125.756 331.865 125.476L332.345 126.028C332.065 126.364 331.713 126.62 331.289 126.796C330.873 126.972 330.413 127.06 329.909 127.06ZM334.627 127V120.7H335.479V123.484H339.451V120.7H340.303V127H339.451V124.216H335.479V127H334.627ZM345.865 127V120.7H346.717V125.704L350.929 120.7H351.685V127H350.833V121.984L346.633 127H345.865ZM357.268 127V120.7H358.132L360.988 125.536H360.628L363.532 120.7H364.324V127H363.544V121.672L363.7 121.744L360.988 126.232H360.604L357.868 121.696L358.048 121.66V127H357.268ZM366.748 127V120.7H367.6V123.484H371.572V120.7H372.424V127H371.572V124.216H367.6V127H366.748ZM377.438 127.06C376.83 127.06 376.282 126.924 375.794 126.652C375.314 126.372 374.934 125.992 374.654 125.512C374.374 125.024 374.234 124.468 374.234 123.844C374.234 123.212 374.374 122.656 374.654 122.176C374.934 121.696 375.314 121.32 375.794 121.048C376.274 120.776 376.822 120.64 377.438 120.64C378.062 120.64 378.614 120.776 379.094 121.048C379.582 121.32 379.962 121.696 380.234 122.176C380.514 122.656 380.654 123.212 380.654 123.844C380.654 124.468 380.514 125.024 380.234 125.512C379.962 125.992 379.582 126.372 379.094 126.652C378.606 126.924 378.054 127.06 377.438 127.06ZM377.438 126.304C377.894 126.304 378.298 126.204 378.65 126.004C379.002 125.796 379.278 125.508 379.478 125.14C379.686 124.764 379.79 124.332 379.79 123.844C379.79 123.348 379.686 122.916 379.478 122.548C379.278 122.18 379.002 121.896 378.65 121.696C378.298 121.488 377.898 121.384 377.45 121.384C377.002 121.384 376.602 121.488 376.25 121.696C375.898 121.896 375.618 122.18 375.41 122.548C375.202 122.916 375.098 123.348 375.098 123.844C375.098 124.332 375.202 124.764 375.41 125.14C375.618 125.508 375.898 125.796 376.25 126.004C376.602 126.204 376.998 126.304 377.438 126.304ZM382.475 127V120.7H386.939V121.444H383.111L383.327 121.228V127H382.475ZM390.469 127.06C389.861 127.06 389.313 126.924 388.825 126.652C388.345 126.372 387.965 125.992 387.685 125.512C387.405 125.024 387.265 124.468 387.265 123.844C387.265 123.212 387.405 122.656 387.685 122.176C387.965 121.696 388.345 121.32 388.825 121.048C389.305 120.776 389.853 120.64 390.469 120.64C391.093 120.64 391.645 120.776 392.125 121.048C392.613 121.32 392.993 121.696 393.265 122.176C393.545 122.656 393.685 123.212 393.685 123.844C393.685 124.468 393.545 125.024 393.265 125.512C392.993 125.992 392.613 126.372 392.125 126.652C391.637 126.924 391.085 127.06 390.469 127.06ZM390.469 126.304C390.925 126.304 391.329 126.204 391.681 126.004C392.033 125.796 392.309 125.508 392.509 125.14C392.717 124.764 392.821 124.332 392.821 123.844C392.821 123.348 392.717 122.916 392.509 122.548C392.309 122.18 392.033 121.896 391.681 121.696C391.329 121.488 390.929 121.384 390.481 121.384C390.033 121.384 389.633 121.488 389.281 121.696C388.929 121.896 388.649 122.18 388.441 122.548C388.233 122.916 388.129 123.348 388.129 123.844C388.129 124.332 388.233 124.764 388.441 125.14C388.649 125.508 388.929 125.796 389.281 126.004C389.633 126.204 390.029 126.304 390.469 126.304ZM268.747 143L266.155 139.88L266.863 139.46L269.755 143H268.747ZM264.127 143V136.7H264.979V143H264.127ZM264.715 140.192V139.46H266.743V140.192H264.715ZM266.935 139.94L266.143 139.82L268.651 136.7H269.575L266.935 139.94ZM269.948 142.988L270.008 142.256C270.064 142.264 270.116 142.276 270.164 142.292C270.22 142.3 270.268 142.304 270.308 142.304C270.564 142.304 270.768 142.208 270.92 142.016C271.08 141.824 271.2 141.568 271.28 141.248C271.36 140.928 271.416 140.568 271.448 140.168C271.48 139.76 271.508 139.352 271.532 138.944L271.64 136.7H276.26V143H275.408V137.192L275.624 137.444H272.192L272.396 137.18L272.3 139.004C272.276 139.548 272.232 140.068 272.168 140.564C272.112 141.06 272.02 141.496 271.892 141.872C271.772 142.248 271.604 142.544 271.388 142.76C271.172 142.968 270.896 143.072 270.56 143.072C270.464 143.072 270.364 143.064 270.26 143.048C270.164 143.032 270.06 143.012 269.948 142.988ZM282.594 143V141.608L282.558 141.38V139.052C282.558 138.516 282.406 138.104 282.102 137.816C281.806 137.528 281.362 137.384 280.77 137.384C280.362 137.384 279.974 137.452 279.606 137.588C279.238 137.724 278.926 137.904 278.67 138.128L278.286 137.492C278.606 137.22 278.99 137.012 279.438 136.868C279.886 136.716 280.358 136.64 280.854 136.64C281.67 136.64 282.298 136.844 282.738 137.252C283.186 137.652 283.41 138.264 283.41 139.088V143H282.594ZM280.422 143.06C279.95 143.06 279.538 142.984 279.186 142.832C278.842 142.672 278.578 142.456 278.394 142.184C278.21 141.904 278.118 141.584 278.118 141.224C278.118 140.896 278.194 140.6 278.346 140.336C278.506 140.064 278.762 139.848 279.114 139.688C279.474 139.52 279.954 139.436 280.554 139.436H282.726V140.072H280.578C279.97 140.072 279.546 140.18 279.306 140.396C279.074 140.612 278.958 140.88 278.958 141.2C278.958 141.56 279.098 141.848 279.378 142.064C279.658 142.28 280.05 142.388 280.554 142.388C281.034 142.388 281.446 142.28 281.79 142.064C282.142 141.84 282.398 141.52 282.558 141.104L282.75 141.692C282.59 142.108 282.31 142.44 281.91 142.688C281.518 142.936 281.022 143.06 280.422 143.06ZM288.318 143.06C287.694 143.06 287.134 142.924 286.638 142.652C286.15 142.372 285.766 141.992 285.486 141.512C285.206 141.024 285.066 140.468 285.066 139.844C285.066 139.212 285.206 138.656 285.486 138.176C285.766 137.696 286.15 137.32 286.638 137.048C287.134 136.776 287.694 136.64 288.318 136.64C288.854 136.64 289.338 136.744 289.77 136.952C290.202 137.16 290.542 137.472 290.79 137.888L290.154 138.32C289.938 138 289.67 137.764 289.35 137.612C289.03 137.46 288.682 137.384 288.306 137.384C287.858 137.384 287.454 137.488 287.094 137.696C286.734 137.896 286.45 138.18 286.242 138.548C286.034 138.916 285.93 139.348 285.93 139.844C285.93 140.34 286.034 140.772 286.242 141.14C286.45 141.508 286.734 141.796 287.094 142.004C287.454 142.204 287.858 142.304 288.306 142.304C288.682 142.304 289.03 142.228 289.35 142.076C289.67 141.924 289.938 141.692 290.154 141.38L290.79 141.812C290.542 142.22 290.202 142.532 289.77 142.748C289.338 142.956 288.854 143.06 288.318 143.06ZM294.974 143.06C294.35 143.06 293.79 142.924 293.294 142.652C292.806 142.372 292.422 141.992 292.142 141.512C291.862 141.024 291.722 140.468 291.722 139.844C291.722 139.212 291.862 138.656 292.142 138.176C292.422 137.696 292.806 137.32 293.294 137.048C293.79 136.776 294.35 136.64 294.974 136.64C295.51 136.64 295.994 136.744 296.426 136.952C296.858 137.16 297.198 137.472 297.446 137.888L296.81 138.32C296.594 138 296.326 137.764 296.006 137.612C295.686 137.46 295.338 137.384 294.962 137.384C294.514 137.384 294.11 137.488 293.75 137.696C293.39 137.896 293.106 138.18 292.898 138.548C292.69 138.916 292.586 139.348 292.586 139.844C292.586 140.34 292.69 140.772 292.898 141.14C293.106 141.508 293.39 141.796 293.75 142.004C294.11 142.204 294.514 142.304 294.962 142.304C295.338 142.304 295.686 142.228 296.006 142.076C296.326 141.924 296.594 141.692 296.81 141.38L297.446 141.812C297.198 142.22 296.858 142.532 296.426 142.748C295.994 142.956 295.51 143.06 294.974 143.06ZM299.096 143V136.7H299.948V139.484H303.92V136.7H304.772V143H303.92V140.216H299.948V143H299.096ZM309.786 143.06C309.178 143.06 308.63 142.924 308.142 142.652C307.662 142.372 307.282 141.992 307.002 141.512C306.722 141.024 306.582 140.468 306.582 139.844C306.582 139.212 306.722 138.656 307.002 138.176C307.282 137.696 307.662 137.32 308.142 137.048C308.622 136.776 309.17 136.64 309.786 136.64C310.41 136.64 310.962 136.776 311.442 137.048C311.93 137.32 312.31 137.696 312.582 138.176C312.862 138.656 313.002 139.212 313.002 139.844C313.002 140.468 312.862 141.024 312.582 141.512C312.31 141.992 311.93 142.372 311.442 142.652C310.954 142.924 310.402 143.06 309.786 143.06ZM309.786 142.304C310.242 142.304 310.646 142.204 310.998 142.004C311.35 141.796 311.626 141.508 311.826 141.14C312.034 140.764 312.138 140.332 312.138 139.844C312.138 139.348 312.034 138.916 311.826 138.548C311.626 138.18 311.35 137.896 310.998 137.696C310.646 137.488 310.246 137.384 309.798 137.384C309.35 137.384 308.95 137.488 308.598 137.696C308.246 137.896 307.966 138.18 307.758 138.548C307.55 138.916 307.446 139.348 307.446 139.844C307.446 140.332 307.55 140.764 307.758 141.14C307.966 141.508 308.246 141.796 308.598 142.004C308.95 142.204 309.346 142.304 309.786 142.304ZM314.822 143V136.7H319.286V137.444H315.458L315.674 137.228V143H314.822ZM322.817 143.06C322.209 143.06 321.661 142.924 321.173 142.652C320.693 142.372 320.313 141.992 320.033 141.512C319.753 141.024 319.613 140.468 319.613 139.844C319.613 139.212 319.753 138.656 320.033 138.176C320.313 137.696 320.693 137.32 321.173 137.048C321.653 136.776 322.201 136.64 322.817 136.64C323.441 136.64 323.993 136.776 324.473 137.048C324.961 137.32 325.341 137.696 325.613 138.176C325.893 138.656 326.033 139.212 326.033 139.844C326.033 140.468 325.893 141.024 325.613 141.512C325.341 141.992 324.961 142.372 324.473 142.652C323.985 142.924 323.433 143.06 322.817 143.06ZM322.817 142.304C323.273 142.304 323.677 142.204 324.029 142.004C324.381 141.796 324.657 141.508 324.857 141.14C325.065 140.764 325.169 140.332 325.169 139.844C325.169 139.348 325.065 138.916 324.857 138.548C324.657 138.18 324.381 137.896 324.029 137.696C323.677 137.488 323.277 137.384 322.829 137.384C322.381 137.384 321.981 137.488 321.629 137.696C321.277 137.896 320.997 138.18 320.789 138.548C320.581 138.916 320.477 139.348 320.477 139.844C320.477 140.332 320.581 140.764 320.789 141.14C320.997 141.508 321.277 141.796 321.629 142.004C321.981 142.204 322.377 142.304 322.817 142.304ZM334.534 143.072C334.534 143.072 334.518 143.072 334.486 143.072C334.454 143.072 334.422 143.072 334.39 143.072C334.366 143.072 334.346 143.072 334.33 143.072C333.082 143.064 332.11 142.78 331.414 142.22C330.718 141.66 330.37 140.864 330.37 139.832C330.37 138.816 330.718 138.032 331.414 137.48C332.118 136.92 333.106 136.636 334.378 136.628C334.386 136.628 334.402 136.628 334.426 136.628C334.458 136.628 334.486 136.628 334.51 136.628C334.534 136.628 334.55 136.628 334.558 136.628C335.838 136.636 336.834 136.92 337.546 137.48C338.258 138.032 338.614 138.816 338.614 139.832C338.614 140.872 338.254 141.672 337.534 142.232C336.822 142.792 335.822 143.072 334.534 143.072ZM334.522 142.328C335.234 142.328 335.83 142.232 336.31 142.04C336.79 141.84 337.154 141.556 337.402 141.188C337.65 140.82 337.774 140.368 337.774 139.832C337.774 139.312 337.65 138.872 337.402 138.512C337.154 138.144 336.79 137.864 336.31 137.672C335.83 137.48 335.234 137.384 334.522 137.384C334.514 137.384 334.49 137.384 334.45 137.384C334.418 137.384 334.398 137.384 334.39 137.384C333.694 137.384 333.11 137.484 332.638 137.684C332.166 137.876 331.81 138.152 331.57 138.512C331.33 138.872 331.21 139.312 331.21 139.832C331.21 140.36 331.33 140.808 331.57 141.176C331.818 141.544 332.178 141.828 332.65 142.028C333.122 142.22 333.702 142.32 334.39 142.328C334.406 142.328 334.43 142.328 334.462 142.328C334.494 142.328 334.514 142.328 334.522 142.328ZM334.066 145.328V134.096H334.894V145.328H334.066ZM340.416 143V136.7H341.268V141.704L345.48 136.7H346.236V143H345.384V137.984L341.184 143H340.416ZM352.998 142.592V137.444H349.962L349.89 138.848C349.874 139.272 349.846 139.688 349.806 140.096C349.774 140.504 349.714 140.88 349.626 141.224C349.546 141.56 349.43 141.836 349.278 142.052C349.126 142.26 348.93 142.38 348.69 142.412L347.838 142.256C348.086 142.264 348.29 142.176 348.45 141.992C348.61 141.8 348.734 141.54 348.822 141.212C348.91 140.884 348.974 140.512 349.014 140.096C349.054 139.672 349.086 139.24 349.11 138.8L349.194 136.7H353.85V142.592H352.998ZM347.574 144.524V142.256H354.834V144.524H354.03V143H348.378V144.524H347.574ZM359.326 143.072C358.814 143.072 358.358 142.988 357.958 142.82C357.566 142.652 357.23 142.396 356.95 142.052C356.67 141.708 356.458 141.284 356.314 140.78C356.17 140.268 356.098 139.676 356.098 139.004C356.098 138.404 356.154 137.88 356.266 137.432C356.378 136.976 356.534 136.584 356.734 136.256C356.934 135.928 357.166 135.652 357.43 135.428C357.702 135.196 357.994 135.012 358.306 134.876C358.626 134.732 358.954 134.624 359.29 134.552L362.122 133.892L362.266 134.684L359.602 135.284C359.434 135.324 359.23 135.38 358.99 135.452C358.758 135.524 358.518 135.632 358.27 135.776C358.03 135.92 357.806 136.12 357.598 136.376C357.39 136.632 357.222 136.964 357.094 137.372C356.974 137.772 356.914 138.272 356.914 138.872C356.914 139 356.918 139.104 356.926 139.184C356.934 139.256 356.942 139.336 356.95 139.424C356.966 139.504 356.978 139.624 356.986 139.784L356.614 139.472C356.702 138.984 356.882 138.56 357.154 138.2C357.426 137.832 357.766 137.548 358.174 137.348C358.59 137.14 359.05 137.036 359.554 137.036C360.138 137.036 360.658 137.164 361.114 137.42C361.57 137.668 361.926 138.016 362.182 138.464C362.446 138.912 362.578 139.432 362.578 140.024C362.578 140.608 362.442 141.132 362.17 141.596C361.906 142.06 361.53 142.424 361.042 142.688C360.554 142.944 359.982 143.072 359.326 143.072ZM359.422 142.364C359.87 142.364 360.266 142.264 360.61 142.064C360.954 141.856 361.222 141.576 361.414 141.224C361.614 140.872 361.714 140.476 361.714 140.036C361.714 139.604 361.614 139.22 361.414 138.884C361.222 138.548 360.954 138.284 360.61 138.092C360.266 137.892 359.866 137.792 359.41 137.792C358.962 137.792 358.566 137.888 358.222 138.08C357.878 138.264 357.606 138.524 357.406 138.86C357.214 139.196 357.118 139.584 357.118 140.024C357.118 140.464 357.214 140.86 357.406 141.212C357.606 141.564 357.878 141.844 358.222 142.052C358.574 142.26 358.974 142.364 359.422 142.364ZM367.104 143.06C366.448 143.06 365.872 142.924 365.376 142.652C364.88 142.372 364.492 141.992 364.212 141.512C363.932 141.024 363.792 140.468 363.792 139.844C363.792 139.22 363.924 138.668 364.188 138.188C364.46 137.708 364.828 137.332 365.292 137.06C365.764 136.78 366.292 136.64 366.876 136.64C367.468 136.64 367.992 136.776 368.448 137.048C368.912 137.312 369.276 137.688 369.54 138.176C369.804 138.656 369.936 139.212 369.936 139.844C369.936 139.884 369.932 139.928 369.924 139.976C369.924 140.016 369.924 140.06 369.924 140.108H364.44V139.472H369.468L369.132 139.724C369.132 139.268 369.032 138.864 368.832 138.512C368.64 138.152 368.376 137.872 368.04 137.672C367.704 137.472 367.316 137.372 366.876 137.372C366.444 137.372 366.056 137.472 365.712 137.672C365.368 137.872 365.1 138.152 364.908 138.512C364.716 138.872 364.62 139.284 364.62 139.748V139.88C364.62 140.36 364.724 140.784 364.932 141.152C365.148 141.512 365.444 141.796 365.82 142.004C366.204 142.204 366.64 142.304 367.128 142.304C367.512 142.304 367.868 142.236 368.196 142.1C368.532 141.964 368.82 141.756 369.06 141.476L369.54 142.028C369.26 142.364 368.908 142.62 368.484 142.796C368.068 142.972 367.608 143.06 367.104 143.06ZM376.442 143L373.85 139.88L374.558 139.46L377.45 143H376.442ZM371.822 143V136.7H372.674V143H371.822ZM372.41 140.192V139.46H374.438V140.192H372.41ZM374.63 139.94L373.838 139.82L376.346 136.7H377.27L374.63 139.94ZM382.59 143V141.608L382.554 141.38V139.052C382.554 138.516 382.402 138.104 382.098 137.816C381.802 137.528 381.358 137.384 380.766 137.384C380.358 137.384 379.97 137.452 379.602 137.588C379.234 137.724 378.922 137.904 378.666 138.128L378.282 137.492C378.602 137.22 378.986 137.012 379.434 136.868C379.882 136.716 380.354 136.64 380.85 136.64C381.666 136.64 382.294 136.844 382.734 137.252C383.182 137.652 383.406 138.264 383.406 139.088V143H382.59ZM380.418 143.06C379.946 143.06 379.534 142.984 379.182 142.832C378.838 142.672 378.574 142.456 378.39 142.184C378.206 141.904 378.114 141.584 378.114 141.224C378.114 140.896 378.19 140.6 378.342 140.336C378.502 140.064 378.758 139.848 379.11 139.688C379.47 139.52 379.95 139.436 380.55 139.436H382.722V140.072H380.574C379.966 140.072 379.542 140.18 379.302 140.396C379.07 140.612 378.954 140.88 378.954 141.2C378.954 141.56 379.094 141.848 379.374 142.064C379.654 142.28 380.046 142.388 380.55 142.388C381.03 142.388 381.442 142.28 381.786 142.064C382.138 141.84 382.394 141.52 382.554 141.104L382.746 141.692C382.586 142.108 382.306 142.44 381.906 142.688C381.514 142.936 381.018 143.06 380.418 143.06Z" fill="#4F6234"/>
<path d="M109.543 56.1023C107.513 66.1976 87.8895 104.136 85.6985 128.165C82.5904 162.252 83.0165 186.324 100.052 217.162C113.199 240.964 135.818 258.468 162.762 260.151C177.619 261.079 196.775 254.257 211.52 238.19C227.374 220.915 235.311 192.964 214.117 187.381C198.383 183.237 185.951 196.98 177.474 212.274C165.028 234.727 163.174 264.289 170.308 288.99C172.73 297.377 184.597 320.13 193.424 329.719C222.708 361.531 249.214 375.76 299.483 376.724C314.051 377.004 326.891 368.23 320.839 358.672C314.325 348.385 294.863 354.832 288.889 365.609C281.671 378.633 282.538 394.38 295.82 409.659C310.011 425.985 331.968 439.755 350.548 444.506C369.128 449.258 373.22 450.191 394.015 446.041C406.703 443.509 419.536 438.025 419.536 438.025" stroke="#FFFEFD" stroke-width="2.08591"/>
<path d="M83.8854 78V31.6105H94.6876L113.84 63.1553H108.141L126.895 31.6105H137.697L137.83 78H125.702L125.636 49.9675H127.69L113.707 73.4273H107.875L93.4947 49.9675H95.9467V78H83.8854ZM143.058 78L163.536 31.6105H176.458L197.002 78H183.351L167.313 38.0387H172.482L156.445 78H143.058ZM154.258 68.9872L157.638 59.3116H180.302L183.682 68.9872H154.258ZM202.319 78V31.6105H223.525C227.767 31.6105 231.411 32.2953 234.46 33.6648C237.553 35.0344 239.938 37.0226 241.617 39.6292C243.296 42.1917 244.135 45.2401 244.135 48.7746C244.135 52.2648 243.296 55.2912 241.617 57.8537C239.938 60.4161 237.553 62.4043 234.46 63.818C231.411 65.1876 227.767 65.8724 223.525 65.8724H209.608L215.44 60.1732V78H202.319ZM215.44 61.5648L209.608 55.5342H222.73C225.469 55.5342 227.501 54.9378 228.827 53.7449C230.196 52.552 230.881 50.8952 230.881 48.7746C230.881 46.6097 230.196 44.9309 228.827 43.738C227.501 42.5451 225.469 41.9487 222.73 41.9487H209.608L215.44 35.9181V61.5648ZM243.111 78L263.589 31.6105H276.512L297.056 78H283.404L267.366 38.0387H272.536L256.498 78H243.111ZM254.311 68.9872L257.691 59.3116H280.355L283.735 68.9872H254.311ZM109.4 145.217C103.214 145.217 97.979 144.421 93.6935 142.831C89.4522 141.24 86.227 138.921 84.018 135.872C81.8531 132.78 80.7707 129.047 80.7707 124.673C80.7707 120.255 81.8531 116.521 84.018 113.473C86.227 110.38 89.4743 108.039 93.7598 106.448C98.0453 104.858 103.281 104.062 109.466 104.062C109.554 104.062 109.841 104.062 110.327 104.062C110.858 104.062 111.388 104.062 111.918 104.062C112.448 104.062 112.735 104.062 112.78 104.062C118.921 104.062 124.068 104.88 128.221 106.514C132.418 108.105 135.599 110.447 137.764 113.539C139.928 116.588 141.011 120.299 141.011 124.673C141.011 129.002 139.951 132.714 137.83 135.806C135.753 138.855 132.661 141.196 128.552 142.831C124.443 144.421 119.384 145.217 113.376 145.217C113.288 145.217 112.934 145.217 112.316 145.217C111.697 145.217 111.101 145.217 110.526 145.217C109.952 145.217 109.576 145.217 109.4 145.217ZM110.593 135.143C110.725 135.143 110.924 135.143 111.189 135.143C111.498 135.143 111.719 135.143 111.852 135.143C115.651 135.143 118.766 134.768 121.196 134.017C123.626 133.266 125.415 132.117 126.564 130.571C127.713 129.024 128.287 127.036 128.287 124.606C128.287 122.132 127.69 120.144 126.498 118.642C125.305 117.14 123.515 116.035 121.13 115.328C118.744 114.577 115.695 114.202 111.984 114.202C111.852 114.202 111.631 114.202 111.322 114.202C111.056 114.202 110.813 114.202 110.593 114.202C106.616 114.202 103.369 114.555 100.851 115.262C98.3325 115.969 96.4769 117.096 95.284 118.642C94.0911 120.144 93.4947 122.154 93.4947 124.673C93.4947 127.147 94.1353 129.157 95.4166 130.703C96.742 132.25 98.6638 133.376 101.182 134.083C103.745 134.79 106.881 135.143 110.593 135.143ZM104.893 150.187V99.4235H116.888V150.187H104.893ZM170.624 148.928C166.912 148.928 163.488 148.331 160.352 147.138C157.215 145.946 154.476 144.267 152.134 142.102C149.837 139.893 148.047 137.33 146.766 134.414C145.485 131.499 144.844 128.295 144.844 124.805C144.844 121.315 145.485 118.112 146.766 115.196C148.047 112.28 149.837 109.74 152.134 107.575C154.476 105.366 157.215 103.665 160.352 102.472C163.488 101.279 166.912 100.683 170.624 100.683C174.379 100.683 177.803 101.279 180.895 102.472C184.032 103.665 186.749 105.366 189.047 107.575C191.344 109.74 193.133 112.28 194.415 115.196C195.74 118.112 196.403 121.315 196.403 124.805C196.403 128.295 195.74 131.521 194.415 134.481C193.133 137.397 191.344 139.937 189.047 142.102C186.749 144.267 184.032 145.946 180.895 147.138C177.803 148.331 174.379 148.928 170.624 148.928ZM170.624 138.059C172.391 138.059 174.025 137.75 175.528 137.132C177.074 136.513 178.399 135.629 179.504 134.481C180.653 133.288 181.536 131.874 182.155 130.239C182.817 128.605 183.149 126.793 183.149 124.805C183.149 122.773 182.817 120.962 182.155 119.371C181.536 117.736 180.653 116.345 179.504 115.196C178.399 114.003 177.074 113.097 175.528 112.479C174.025 111.86 172.391 111.551 170.624 111.551C168.856 111.551 167.2 111.86 165.653 112.479C164.151 113.097 162.826 114.003 161.677 115.196C160.572 116.345 159.689 117.736 159.026 119.371C158.408 120.962 158.098 122.773 158.098 124.805C158.098 126.793 158.408 128.605 159.026 130.239C159.689 131.874 160.572 133.288 161.677 134.481C162.826 135.629 164.151 136.513 165.653 137.132C167.2 137.75 168.856 138.059 170.624 138.059ZM234.433 101.61H247.555V148H234.433V101.61ZM216.54 148H203.419V101.61H216.54V148ZM235.361 129.908H215.613V119.04H235.361V129.908Z" fill="#4F6234"/>
</svg>
