<svg width="265" height="532" viewBox="0 0 265 532" fill="none" xmlns="http://www.w3.org/2000/svg">
<rect x="252.315" y="85.1211" width="5.56796" height="66.8155" fill="#FFD17C"/>
<rect x="0.810471" y="0.209961" width="252.312" height="531.601" rx="13.9199" fill="#4F6234"/>
<rect x="11.9189" y="11.3188" width="230.096" height="504.624" rx="13.9199" fill="#FFD17C"/>
<circle cx="129.458" cy="22.788" r="4.87196" fill="#FFD17C"/>
<path opacity="0.5" d="M53.7277 153.145L52.6754 152.221L52.1345 152.838L52.4076 153.611L53.7277 153.145ZM69.4579 135.218L70.3538 134.143L69.3054 133.27L68.4056 134.295L69.4579 135.218ZM78.6495 142.873L79.7363 143.756L80.608 142.682L79.5454 141.797L78.6495 142.873ZM58.753 167.375L57.4329 167.841L58.2648 170.197L59.8398 168.257L58.753 167.375ZM63.0359 129.527L62.5697 128.207L61.2496 128.673L61.7158 129.993L63.0359 129.527ZM72.6509 126.132L73.971 125.665L73.5048 124.345L72.1847 124.812L72.6509 126.132ZM77.7305 140.516L78.1967 141.836L79.5168 141.37L79.0506 140.05L77.7305 140.516ZM68.1155 143.911L66.7954 144.377L67.2616 145.697L68.5817 145.231L68.1155 143.911ZM73.0075 146.25L71.6447 146.57L71.8494 147.441L72.7252 147.621L73.0075 146.25ZM70.2451 134.508L70.4959 133.13L68.3928 132.748L68.8823 134.828L70.2451 134.508ZM95.3008 139.069L96.6209 138.603L96.3505 137.837L95.5515 137.692L95.3008 139.069ZM99.7828 151.761L99.5006 153.132L101.928 153.632L101.103 151.295L99.7828 151.761ZM39.2766 112.223L37.9565 112.689L38.2296 113.463L39.0376 113.603L39.2766 112.223ZM34.2785 98.07L34.5671 96.7001L32.1286 96.1864L32.9584 98.5362L34.2785 98.07ZM65.122 104.567L66.4948 104.842L66.7667 103.483L65.4106 103.197L65.122 104.567ZM62.7756 116.296L62.5366 117.676L63.8808 117.909L64.1484 116.571L62.7756 116.296ZM48.5938 138.607L47.2737 139.073L47.7398 140.393L49.06 139.927L48.5938 138.607ZM44.4106 126.761L43.9444 125.441L42.6243 125.907L43.0905 127.227L44.4106 126.761ZM85.7935 112.147L87.1136 111.681L86.6474 110.361L85.3273 110.827L85.7935 112.147ZM89.9767 123.993L90.4429 125.313L91.763 124.847L91.2968 123.527L89.9767 123.993ZM61.3518 124.758L60.0317 125.224L60.4979 126.544L61.818 126.078L61.3518 124.758ZM56.2993 110.451L55.8331 109.131L54.513 109.597L54.9792 110.917L56.2993 110.451ZM65.9143 107.056L67.2344 106.589L66.7683 105.269L65.4481 105.735L65.9143 107.056ZM70.9668 121.363L71.433 122.683L72.7531 122.217L72.2869 120.896L70.9668 121.363ZM58.6107 105.482L57.53 104.592L56.9611 105.283L57.3493 106.089L58.6107 105.482ZM75.9874 84.379L77.3075 83.9128L76.4822 81.5757L74.9067 83.4891L75.9874 84.379ZM80.4694 97.0708L81.527 97.9882L82.0608 97.3728L81.7895 96.6046L80.4694 97.0708ZM63.8073 116.278L62.5459 116.885L63.4695 118.804L64.8649 117.195L63.8073 116.278ZM54.78 154.068L70.5102 136.142L68.4056 134.295L52.6754 152.221L54.78 154.068ZM68.562 136.294L77.7536 143.949L79.5454 141.797L70.3538 134.143L68.562 136.294ZM77.5627 141.991L57.6662 166.492L59.8398 168.257L79.7363 143.756L77.5627 141.991ZM60.0731 166.909L55.0478 152.679L52.4076 153.611L57.4329 167.841L60.0731 166.909ZM63.5021 130.847L73.1171 127.452L72.1847 124.812L62.5697 128.207L63.5021 130.847ZM71.3308 126.598L76.4104 140.982L79.0506 140.05L73.971 125.665L71.3308 126.598ZM77.2643 139.196L67.6493 142.591L68.5817 145.231L78.1967 141.836L77.2643 139.196ZM69.4356 143.445L64.356 129.061L61.7158 129.993L66.7954 144.377L69.4356 143.445ZM74.3702 145.929L71.6079 134.187L68.8823 134.828L71.6447 146.57L74.3702 145.929ZM69.9944 135.885L95.0501 140.446L95.5515 137.692L70.4959 133.13L69.9944 135.885ZM93.9807 139.535L98.4627 152.227L101.103 151.295L96.6209 138.603L93.9807 139.535ZM100.065 150.39L73.2897 144.878L72.7252 147.621L99.5006 153.132L100.065 150.39ZM40.5967 111.757L35.5986 97.6038L32.9584 98.5362L37.9565 112.689L40.5967 111.757ZM33.99 99.4399L64.8334 105.937L65.4106 103.197L34.5671 96.7001L33.99 99.4399ZM63.7492 104.292L61.4028 116.021L64.1484 116.571L66.4948 104.842L63.7492 104.292ZM63.0147 114.917L39.5157 110.844L39.0376 113.603L62.5366 117.676L63.0147 114.917ZM49.9139 138.141L45.7307 126.295L43.0905 127.227L47.2737 139.073L49.9139 138.141ZM44.8767 128.081L86.2597 113.467L85.3273 110.827L43.9444 125.441L44.8767 128.081ZM84.4734 112.613L88.6566 124.459L91.2968 123.527L87.1136 111.681L84.4734 112.613ZM89.5105 122.673L48.1276 137.287L49.06 139.927L90.4429 125.313L89.5105 122.673ZM62.6719 124.292L57.6194 109.985L54.9792 110.917L60.0317 125.224L62.6719 124.292ZM56.7655 111.771L66.3805 108.376L65.4481 105.735L55.8331 109.131L56.7655 111.771ZM64.5942 107.522L69.6467 121.829L72.2869 120.896L67.2344 106.589L64.5942 107.522ZM70.5006 120.043L60.8856 123.438L61.818 126.078L71.433 122.683L70.5006 120.043ZM59.6915 106.372L77.0682 85.2689L74.9067 83.4891L57.53 104.592L59.6915 106.372ZM74.6673 84.8452L79.1493 97.537L81.7895 96.6046L77.3075 83.9128L74.6673 84.8452ZM79.4119 96.1534L62.7498 115.36L64.8649 117.195L81.527 97.9882L79.4119 96.1534ZM65.0688 115.671L59.8722 104.875L57.3493 106.089L62.5459 116.885L65.0688 115.671ZM76.3905 200.171L75.9243 198.851L74.6042 199.317L75.0704 200.637L76.3905 200.171ZM102.543 190.935L103.009 192.255L104.33 191.789L103.863 190.469L102.543 190.935ZM97.7625 177.397L99.0826 176.931L98.6363 175.667L97.3541 176.058L97.7625 177.397ZM92.3735 179.041L92.7779 180.381L92.7819 180.38L92.3735 179.041ZM85.9303 180.884L86.2938 182.236L86.2938 182.236L85.9303 180.884ZM80.143 181.889L80.0516 180.492L80.0365 180.493L80.0215 180.495L80.143 181.889ZM75.4143 181.483L74.9851 182.816L74.9999 182.82L75.0149 182.825L75.4143 181.483ZM72.0156 178.963L70.6428 179.238L70.7028 179.538L70.8823 179.785L72.0156 178.963ZM69.5246 166.52L70.8447 166.054L68.1519 166.795L69.5246 166.52ZM72.109 169.673L71.4693 170.919L71.4871 170.928L71.5052 170.936L72.109 169.673ZM76.6386 170.496L76.677 171.896L76.6898 171.895L76.6386 170.496ZM82.5843 169.694L82.8832 171.062L82.8873 171.061L82.5843 169.694ZM89.3896 167.896L89.7967 169.236L89.8058 169.233L89.3896 167.896ZM103.887 163.382L105.207 162.916L104.758 161.645L103.471 162.046L103.887 163.382ZM116.627 199.458L117.093 200.778L118.413 200.312L117.947 198.992L116.627 199.458ZM80.628 212.17L79.3079 212.637L79.7741 213.957L81.0942 213.491L80.628 212.17ZM50.2672 171.763L49.801 170.443L48.4809 170.909L48.9471 172.229L50.2672 171.763ZM69.0357 165.135L70.3558 164.669L69.8896 163.349L68.5695 163.815L69.0357 165.135ZM87.181 216.518L87.6472 217.838L88.9673 217.372L88.5011 216.052L87.181 216.518ZM68.4125 223.146L67.0924 223.612L67.5586 224.932L68.8787 224.466L68.4125 223.146ZM64.4738 211.992L64.0076 210.672L62.6875 211.138L63.1537 212.459L64.4738 211.992ZM73.3965 208.841L73.8627 210.161L75.1828 209.695L74.7166 208.375L73.3965 208.841ZM63.1287 179.766L64.4488 179.299L63.9826 177.979L62.6625 178.446L63.1287 179.766ZM54.2059 182.917L52.8858 183.383L53.352 184.703L54.6721 184.237L54.2059 182.917ZM76.8567 201.491L103.009 192.255L102.077 189.615L75.9243 198.851L76.8567 201.491ZM103.863 190.469L99.0826 176.931L96.4424 177.864L101.223 191.402L103.863 190.469ZM97.3541 176.058L91.9651 177.702L92.7819 180.38L98.1709 178.737L97.3541 176.058ZM91.9692 177.701C89.7401 178.373 87.606 178.983 85.5667 179.532L86.2938 182.236C88.363 181.679 90.5244 181.061 92.7779 180.381L91.9692 177.701ZM85.5667 179.532C83.5863 180.064 81.7491 180.381 80.0516 180.492L80.2344 183.286C82.1447 183.161 84.1657 182.808 86.2938 182.236L85.5667 179.532ZM80.0215 180.495C78.4319 180.633 77.0358 180.505 75.8137 180.141L75.0149 182.825C76.6286 183.305 78.385 183.448 80.2645 183.284L80.0215 180.495ZM75.8435 180.15C74.7792 179.808 73.8859 179.157 73.1489 178.141L70.8823 179.785C71.9437 181.248 73.3161 182.278 74.9851 182.816L75.8435 180.15ZM73.3884 178.688L70.8974 166.245L68.1519 166.795L70.6428 179.238L73.3884 178.688ZM68.2045 166.986C68.8269 168.748 69.8998 170.113 71.4693 170.919L72.7486 168.428C71.9227 168.004 71.2727 167.265 70.8447 166.054L68.2045 166.986ZM71.5052 170.936C73.0025 171.652 74.7446 171.949 76.677 171.896L76.6002 169.097C74.9911 169.141 73.7135 168.889 72.7128 168.41L71.5052 170.936ZM76.6898 171.895C78.6099 171.825 80.6757 171.544 82.8832 171.062L82.2855 168.326C80.2094 168.78 78.3115 169.034 76.5874 169.097L76.6898 171.895ZM82.8873 171.061C85.1183 170.566 87.4216 169.958 89.7967 169.236L88.9825 166.557C86.67 167.26 84.4364 167.85 82.2814 168.327L82.8873 171.061ZM89.8058 169.233L104.303 164.719L103.471 162.046L88.9734 166.56L89.8058 169.233ZM102.567 163.849L115.306 199.924L117.947 198.992L105.207 162.916L102.567 163.849ZM116.16 198.138L80.1619 210.85L81.0942 213.491L117.093 200.778L116.16 198.138ZM81.9481 211.704L77.7106 199.705L75.0704 200.637L79.3079 212.637L81.9481 211.704ZM50.7334 173.083L69.5019 166.455L68.5695 163.815L49.801 170.443L50.7334 173.083ZM67.7156 165.601L85.8609 216.984L88.5011 216.052L70.3558 164.669L67.7156 165.601ZM86.7148 215.198L67.9463 221.826L68.8787 224.466L87.6472 217.838L86.7148 215.198ZM69.7326 222.68L65.7939 211.526L63.1537 212.459L67.0924 223.612L69.7326 222.68ZM64.94 213.312L73.8627 210.161L72.9303 207.521L64.0076 210.672L64.94 213.312ZM74.7166 208.375L64.4488 179.299L61.8086 180.232L72.0764 209.308L74.7166 208.375ZM62.6625 178.446L53.7398 181.597L54.6721 184.237L63.5948 181.086L62.6625 178.446ZM55.526 182.45L51.5873 171.297L48.9471 172.229L52.8858 183.383L55.526 182.45ZM84.8992 234.555L83.5132 234.357L83.5121 234.365L84.8992 234.555ZM89.5309 223.662L88.4499 222.772L88.4436 222.78L89.5309 223.662ZM111.503 215.816L111.785 214.445L111.779 214.444L111.503 215.816ZM121.839 221.077L120.898 222.113L120.904 222.119L120.91 222.124L121.839 221.077ZM129.843 243.253L128.46 243.036L128.458 243.049L128.456 243.062L129.843 243.253ZM125.202 253.629L124.132 252.727L124.125 252.735L125.202 253.629ZM113.104 261.016L113.448 262.373L113.459 262.37L113.104 261.016ZM111.434 261.433L110.114 261.899L110.536 263.094L111.767 262.793L111.434 261.433ZM99.5635 227.819L99.0974 226.499L97.7772 226.965L98.2434 228.285L99.5635 227.819ZM106.563 225.347L107.883 224.881L107.417 223.561L106.097 224.027L106.563 225.347ZM116.206 252.653L115.194 253.62L117.526 252.187L116.206 252.653ZM112.5 248.772L112.034 247.452L109.992 248.173L111.487 249.738L112.5 248.772ZM120.069 240.562L118.697 240.283L118.693 240.3L118.69 240.317L120.069 240.562ZM116.238 229.716L115.32 230.773L115.325 230.777L115.331 230.782L116.238 229.716ZM111.193 227.432L110.967 228.814L110.976 228.815L110.985 228.817L111.193 227.432ZM97.7091 232.367L96.6582 231.442L96.6419 231.46L96.6262 231.479L97.7091 232.367ZM95.2802 237.983L93.893 237.793L93.8898 237.817L93.8874 237.84L95.2802 237.983ZM99.2915 250.322L100.349 249.404L100.344 249.398L100.339 249.393L99.2915 250.322ZM103.921 253.877L105.159 254.532L105.828 253.267L104.549 252.626L103.921 253.877ZM99.253 262.706L98.7302 264.005L99.9008 264.476L100.491 263.361L99.253 262.706ZM91.727 257.319L90.6688 258.235L90.6758 258.243L90.683 258.251L91.727 257.319ZM144.162 230.15L143.526 231.397L143.526 231.397L144.162 230.15ZM146.824 237.688L145.546 237.117L145.539 237.133L145.533 237.148L146.824 237.688ZM139.132 240.405L139.798 239.173L139.783 239.165L139.768 239.158L139.132 240.405ZM130.956 217.252L129.678 216.681L129.671 216.696L129.664 216.712L130.956 217.252ZM138.648 214.535L139.314 213.304L139.299 213.296L139.284 213.288L138.648 214.535ZM141.337 222.151L140.059 221.579L140.059 221.579L141.337 222.151ZM133.645 224.867L134.281 223.62L134.281 223.62L133.645 224.867ZM87.8507 247.527C86.2464 242.984 85.7428 238.73 86.2864 234.744L83.5121 234.365C82.8988 238.862 83.4828 243.567 85.2105 248.46L87.8507 247.527ZM86.2853 234.752C86.8487 230.794 88.298 227.405 90.6182 224.544L88.4436 222.78C85.7814 226.062 84.1429 229.934 83.5132 234.357L86.2853 234.752ZM90.6119 224.552C92.9784 221.676 96.0806 219.546 99.9644 218.175L99.032 215.535C94.7111 217.06 91.1683 219.469 88.4499 222.772L90.6119 224.552ZM99.9644 218.175C103.91 216.782 107.654 216.47 111.227 217.189L111.779 214.444C107.653 213.614 103.394 213.994 99.032 215.535L99.9644 218.175ZM111.22 217.187C114.893 217.944 118.111 219.582 120.898 222.113L122.78 220.041C119.623 217.173 115.951 215.304 111.785 214.445L111.22 217.187ZM120.91 222.124C123.738 224.632 125.867 227.868 127.281 231.873L129.921 230.94C128.366 226.535 125.986 222.884 122.768 220.03L120.91 222.124ZM127.281 231.873C128.642 235.728 129.023 239.442 128.46 243.036L131.226 243.469C131.868 239.371 131.421 235.187 129.921 230.94L127.281 231.873ZM128.456 243.062C127.959 246.675 126.524 249.888 124.132 252.727L126.273 254.531C129.001 251.294 130.66 247.589 131.23 243.443L128.456 243.062ZM124.125 252.735C121.808 255.524 118.552 257.694 114.28 259.203L115.212 261.843C119.863 260.2 123.578 257.775 126.279 254.524L124.125 252.735ZM114.28 259.203C113.865 259.349 113.356 259.503 112.749 259.662L113.459 262.37C114.118 262.198 114.704 262.022 115.212 261.843L114.28 259.203ZM112.759 259.659C112.18 259.806 111.628 259.944 111.102 260.073L111.767 262.793C112.302 262.662 112.863 262.522 113.448 262.373L112.759 259.659ZM112.754 260.967L100.884 227.353L98.2434 228.285L110.114 261.899L112.754 260.967ZM100.03 229.139L107.029 226.667L106.097 224.027L99.0974 226.499L100.03 229.139ZM105.243 225.813L114.886 253.12L117.526 252.187L107.883 224.881L105.243 225.813ZM117.219 251.687L113.512 247.805L111.487 249.738L115.194 253.62L117.219 251.687ZM112.966 250.092C115.3 249.268 117.231 248.053 118.697 246.414L116.61 244.548C115.512 245.775 114.007 246.755 112.034 247.452L112.966 250.092ZM118.697 246.414C120.147 244.793 121.072 242.916 121.447 240.807L118.69 240.317C118.408 241.9 117.723 243.303 116.61 244.548L118.697 246.414ZM121.44 240.841C121.878 238.694 121.668 236.478 120.872 234.222L118.232 235.155C118.884 237.002 119.019 238.701 118.697 240.283L121.44 240.841ZM120.872 234.222C120.075 231.966 118.84 230.092 117.146 228.65L115.331 230.782C116.606 231.868 117.58 233.309 118.232 235.155L120.872 234.222ZM117.157 228.66C115.531 227.245 113.598 226.377 111.4 226.047L110.985 228.817C112.685 229.071 114.116 229.726 115.32 230.773L117.157 228.66ZM111.419 226.05C109.244 225.695 106.952 225.974 104.573 226.814L105.505 229.455C107.536 228.737 109.347 228.549 110.967 228.814L111.419 226.05ZM104.573 226.814L102.727 227.466L103.659 230.107L105.505 229.455L104.573 226.814ZM102.727 227.466C100.275 228.332 98.2352 229.65 96.6582 231.442L98.76 233.292C99.9819 231.903 101.598 230.834 103.659 230.107L102.727 227.466ZM96.6262 231.479C95.1288 233.307 94.2165 235.422 93.893 237.793L96.6673 238.172C96.9223 236.302 97.6293 234.673 98.792 233.254L96.6262 231.479ZM93.8874 237.84C93.6427 240.238 94.0101 242.755 94.9342 245.372L97.5744 244.439C96.7601 242.133 96.478 240.035 96.6729 238.125L93.8874 237.84ZM94.9342 245.372C95.7588 247.707 96.8526 249.681 98.244 251.25L100.339 249.393C99.2382 248.151 98.3072 246.514 97.5744 244.439L94.9342 245.372ZM98.2342 251.239C99.6252 252.842 101.317 254.138 103.294 255.129L104.549 252.626C102.881 251.79 101.486 250.715 100.349 249.404L98.2342 251.239ZM102.684 253.223L98.0154 262.052L100.491 263.361L105.159 254.532L102.684 253.223ZM99.7758 261.408C97.1675 260.358 94.8332 258.694 92.771 256.386L90.683 258.251C93.0079 260.854 95.6909 262.782 98.7302 264.005L99.7758 261.408ZM92.7852 256.402C90.7793 254.086 89.1265 251.14 87.8507 247.527L85.2105 248.46C86.5787 252.334 88.3902 255.604 90.6688 258.235L92.7852 256.402ZM137.66 236.686C137.247 235.518 137.291 234.462 137.748 233.438L135.192 232.295C134.425 234.011 134.382 235.812 135.02 237.618L137.66 236.686ZM137.748 233.438C138.184 232.463 138.962 231.741 140.239 231.29L139.307 228.65C137.405 229.322 135.981 230.53 135.192 232.295L137.748 233.438ZM140.239 231.29C141.516 230.839 142.576 230.913 143.526 231.397L144.798 228.903C143.076 228.025 141.209 227.978 139.307 228.65L140.239 231.29ZM143.526 231.397C144.525 231.907 145.222 232.701 145.635 233.869L148.275 232.937C147.637 231.131 146.472 229.757 144.798 228.903L143.526 231.397ZM145.635 233.869C146.047 235.037 146.004 236.093 145.546 237.117L148.102 238.26C148.869 236.544 148.913 234.743 148.275 232.937L145.635 233.869ZM145.533 237.148C145.107 238.167 144.339 238.898 143.083 239.342L144.015 241.982C145.938 241.303 147.354 240.051 148.116 238.228L145.533 237.148ZM143.083 239.342C141.826 239.785 140.77 239.699 139.798 239.173L138.466 241.636C140.204 242.576 142.092 242.661 144.015 241.982L143.083 239.342ZM139.768 239.158C138.769 238.648 138.072 237.853 137.66 236.686L135.02 237.618C135.658 239.424 136.822 240.798 138.496 241.652L139.768 239.158ZM132.173 221.148C131.76 219.979 131.791 218.884 132.248 217.792L129.664 216.712C128.933 218.461 128.895 220.274 129.533 222.08L132.173 221.148ZM132.234 217.823C132.67 216.849 133.448 216.126 134.725 215.675L133.793 213.035C131.89 213.707 130.467 214.915 129.678 216.681L132.234 217.823ZM134.725 215.675C136.002 215.224 137.061 215.298 138.012 215.783L139.284 213.288C137.562 212.41 135.695 212.363 133.793 213.035L134.725 215.675ZM137.982 215.767C139.023 216.33 139.735 217.163 140.148 218.331L142.788 217.399C142.15 215.593 140.982 214.206 139.314 213.304L137.982 215.767ZM140.148 218.331C140.56 219.499 140.517 220.555 140.059 221.579L142.615 222.722C143.382 221.006 143.426 219.206 142.788 217.399L140.148 218.331ZM140.059 221.579C139.624 222.554 138.845 223.276 137.568 223.727L138.501 226.367C140.403 225.695 141.827 224.487 142.615 222.722L140.059 221.579ZM137.568 223.727C136.291 224.178 135.232 224.104 134.281 223.62L133.009 226.114C134.732 226.992 136.598 227.039 138.501 226.367L137.568 223.727ZM134.281 223.62C133.282 223.11 132.585 222.316 132.173 221.148L129.533 222.08C130.171 223.886 131.335 225.261 133.009 226.114L134.281 223.62ZM97.4567 276.973L96.9905 275.653L95.6704 276.119L96.1366 277.439L97.4567 276.973ZM138.84 262.359L140.16 261.893L139.694 260.573L138.373 261.039L138.84 262.359ZM143.267 274.897L144.313 275.828L144.863 275.21L144.587 274.431L143.267 274.897ZM120.475 300.508L119.155 300.974L119.944 303.21L121.521 301.439L120.475 300.508ZM118.709 295.508L118.978 294.134L116.573 293.664L117.389 295.975L118.709 295.508ZM152.91 302.204L154.231 301.738L153.964 300.984L153.179 300.83L152.91 302.204ZM156.876 313.434L157.347 314.752L158.661 314.283L158.196 312.968L156.876 313.434ZM115.548 328.202L114.228 328.668L114.696 329.993L116.019 329.52L115.548 328.202ZM111.718 317.356L111.251 316.036L109.931 316.502L110.398 317.822L111.718 317.356ZM140.793 307.088L142.15 307.433L142.794 304.897L140.327 305.768L140.793 307.088ZM140.215 309.369L139.938 310.742L141.244 311.004L141.572 309.713L140.215 309.369ZM111.344 303.56L110.024 304.026L110.289 304.775L111.068 304.932L111.344 303.56ZM109.551 298.483L108.486 297.574L107.963 298.188L108.231 298.949L109.551 298.483ZM129.19 275.456L130.364 274.693L129.342 273.121L128.125 274.548L129.19 275.456ZM130.516 277.497L130.983 278.817L132.659 278.225L131.69 276.734L130.516 277.497ZM101.287 287.819L99.9667 288.285L100.433 289.605L101.753 289.139L101.287 287.819ZM97.9229 278.293L139.306 263.679L138.373 261.039L96.9905 275.653L97.9229 278.293ZM137.52 262.825L141.947 275.363L144.587 274.431L140.16 261.893L137.52 262.825ZM142.222 273.966L119.429 299.577L121.521 301.439L144.313 275.828L142.222 273.966ZM121.795 300.042L120.029 295.042L117.389 295.975L119.155 300.974L121.795 300.042ZM118.44 296.882L152.641 303.578L153.179 300.83L118.978 294.134L118.44 296.882ZM151.59 302.67L155.556 313.9L158.196 312.968L154.231 301.738L151.59 302.67ZM156.405 312.116L115.077 326.884L116.019 329.52L157.347 314.752L156.405 312.116ZM116.868 327.736L113.038 316.89L110.398 317.822L114.228 328.668L116.868 327.736ZM112.184 318.676L141.26 308.409L140.327 305.768L111.251 316.036L112.184 318.676ZM139.436 306.744L138.858 309.025L141.572 309.713L142.15 307.433L139.436 306.744ZM140.491 307.997L111.62 302.187L111.068 304.932L139.938 310.742L140.491 307.997ZM112.664 303.093L110.871 298.017L108.231 298.949L110.024 304.026L112.664 303.093ZM110.617 299.391L130.255 276.365L128.125 274.548L108.486 297.574L110.617 299.391ZM128.016 276.219L129.343 278.26L131.69 276.734L130.364 274.693L128.016 276.219ZM130.05 276.177L100.821 286.499L101.753 289.139L130.983 278.817L130.05 276.177ZM102.607 287.353L98.7768 276.507L96.1366 277.439L99.9667 288.285L102.607 287.353ZM127.3 361.48L126.833 360.16L125.513 360.626L125.979 361.946L127.3 361.48ZM168.683 346.866L170.003 346.4L169.536 345.08L168.216 345.546L168.683 346.866ZM177.598 381.177L176.237 380.85L176.235 380.858L176.233 380.867L177.598 381.177ZM161.834 387.004L161.019 388.142L161.023 388.145L161.834 387.004ZM155.158 377.163L155.268 375.768L153.121 375.598L153.838 377.629L155.158 377.163ZM158.362 377.416L159.682 376.95L159.379 376.092L158.472 376.02L158.362 377.416ZM159.559 389.624L158.223 389.205L158.219 389.218L159.559 389.624ZM142.731 395.134L143.501 393.965L143.501 393.965L142.731 395.134ZM139.338 369.6L138.871 368.28L137.551 368.746L138.017 370.066L139.338 369.6ZM145.711 384.219L144.872 385.34L144.877 385.344L144.883 385.348L145.711 384.219ZM152.688 381.929L151.353 381.509L151.346 381.531L151.34 381.553L152.688 381.929ZM148.491 366.368L149.811 365.902L149.345 364.582L148.025 365.048L148.491 366.368ZM155.568 363.869L155.101 362.549L153.781 363.015L154.248 364.335L155.568 363.869ZM161.584 377.23L162.387 376.083L162.374 376.074L162.36 376.065L161.584 377.23ZM168.199 374.894L166.85 374.519L166.846 374.534L166.842 374.55L168.199 374.894ZM164.413 360.745L165.734 360.279L165.267 358.959L163.947 359.425L164.413 360.745ZM127.766 362.8L169.149 348.186L168.216 345.546L126.833 360.16L127.766 362.8ZM167.362 347.332L174.832 368.485L177.473 367.553L170.003 346.4L167.362 347.332ZM174.832 368.485C176.613 373.526 177.015 377.618 176.237 380.85L178.959 381.505C179.912 377.55 179.351 372.871 177.473 367.553L174.832 368.485ZM176.233 380.867C175.523 383.985 173.755 385.981 170.835 387.012L171.767 389.653C175.616 388.293 178.046 385.519 178.963 381.488L176.233 380.867ZM170.835 387.012C167.88 388.056 165.201 387.68 162.646 385.863L161.023 388.145C164.321 390.49 167.953 391 171.767 389.653L170.835 387.012ZM162.65 385.866C160.096 384.036 158.01 381.035 156.478 376.697L153.838 377.629C155.493 382.317 157.858 385.876 161.019 388.142L162.65 385.866ZM155.048 378.559L158.252 378.812L158.472 376.02L155.268 375.768L155.048 378.559ZM157.042 377.882C158.774 382.788 159.068 386.513 158.223 389.205L160.895 390.043C162.003 386.509 161.499 382.095 159.682 376.95L157.042 377.882ZM158.219 389.218C157.408 391.895 155.53 393.801 152.347 394.925L153.279 397.566C157.173 396.191 159.792 393.683 160.899 390.03L158.219 389.218ZM152.347 394.925C149.096 396.073 146.196 395.738 143.501 393.965L141.962 396.304C145.428 398.584 149.248 398.989 153.279 397.566L152.347 394.925ZM143.501 393.965C140.793 392.183 138.384 388.662 136.416 383.09L133.775 384.022C135.828 389.834 138.509 394.032 141.962 396.304L143.501 393.965ZM136.416 383.09L128.62 361.014L125.979 361.946L133.775 384.022L136.416 383.09ZM138.017 370.066L141.576 380.143L144.216 379.211L140.658 369.134L138.017 370.066ZM141.576 380.143C142.389 382.445 143.445 384.27 144.872 385.34L146.551 383.099C145.781 382.522 144.96 381.318 144.216 379.211L141.576 380.143ZM144.883 385.348C146.476 386.517 148.326 386.684 150.236 386.009L149.304 383.369C148.138 383.781 147.282 383.635 146.539 383.091L144.883 385.348ZM150.236 386.009C152.127 385.342 153.526 384.141 154.037 382.304L151.34 381.553C151.139 382.275 150.593 382.914 149.304 383.369L150.236 386.009ZM154.024 382.348C154.567 380.618 154.265 378.515 153.451 376.209L150.811 377.141C151.554 379.245 151.624 380.644 151.353 381.509L154.024 382.348ZM153.451 376.209L149.811 365.902L147.171 366.834L150.811 377.141L153.451 376.209ZM148.025 365.048L138.871 368.28L139.804 370.92L148.957 367.688L148.025 365.048ZM154.248 364.335L157.453 373.412L160.093 372.479L156.888 363.403L154.248 364.335ZM157.453 373.412C158.237 375.632 159.308 377.396 160.807 378.395L162.36 376.065C161.597 375.556 160.794 374.464 160.093 372.479L157.453 373.412ZM160.78 378.377C162.336 379.466 164.108 379.64 165.928 378.997L164.996 376.357C163.944 376.729 163.131 376.604 162.387 376.083L160.78 378.377ZM165.928 378.997C167.78 378.343 169.084 377.096 169.556 375.238L166.842 374.55C166.638 375.353 166.118 375.961 164.996 376.357L165.928 378.997ZM169.548 375.269C170.017 373.582 169.718 371.563 168.939 369.355L166.299 370.288C167.004 372.285 167.092 373.648 166.85 374.519L169.548 375.269ZM168.939 369.355L165.734 360.279L163.093 361.211L166.299 370.288L168.939 369.355ZM163.947 359.425L155.101 362.549L156.034 365.189L164.88 362.065L163.947 359.425ZM152.944 434.098L152.478 432.778L151.158 433.244L151.624 434.564L152.944 434.098ZM161.021 431.246L161.487 432.566L161.761 432.469L161.974 432.271L161.021 431.246ZM162.518 429.852L162.052 428.532L161.777 428.629L161.564 428.827L162.518 429.852ZM182.137 420.242L180.854 419.682L180.849 419.692L180.845 419.703L182.137 420.242ZM178.379 406.17L177.261 407.013L177.267 407.021L177.274 407.029L178.379 406.17ZM173.708 401.763L172.69 400.802L171.519 402.042L172.963 402.949L173.708 401.763ZM180.571 394.495L181.382 393.353L180.389 392.648L179.553 393.534L180.571 394.495ZM187.143 401.345L188.292 400.546L188.292 400.546L187.143 401.345ZM192.6 426.842L193.907 427.344L193.907 427.344L192.6 426.842ZM156.91 445.328L155.59 445.794L156.056 447.115L157.376 446.648L156.91 445.328ZM146.555 412.823L145.165 412.662L145.163 412.674L145.162 412.687L146.555 412.823ZM149.219 405.912L148.11 405.059L148.11 405.059L149.219 405.912ZM162.038 401.299L162.382 399.942L162.369 399.939L162.356 399.936L162.038 401.299ZM168.383 405.547L167.324 406.463L167.332 406.472L167.34 406.481L168.383 405.547ZM177.495 426.207L177.961 427.527L179.281 427.06L178.815 425.74L177.495 426.207ZM170.495 428.678L169.175 429.145L169.642 430.465L170.962 429.999L170.495 428.678ZM163.624 413.63L164.323 412.416L164.308 412.408L164.293 412.4L163.624 413.63ZM156.552 416.387L155.225 415.94L155.214 415.972L155.205 416.004L156.552 416.387ZM160.296 426.744L159.388 427.81L159.401 427.82L159.414 427.831L160.296 426.744ZM165.749 428.711L166.608 429.816L169.67 427.434L165.793 427.312L165.749 428.711ZM160.862 432.513L160.895 433.912L161.357 433.902L161.722 433.618L160.862 432.513ZM153.102 429.89L153.994 428.811L153.994 428.811L153.102 429.89ZM153.41 435.418L161.487 432.566L160.554 429.926L152.478 432.778L153.41 435.418ZM161.974 432.271L163.472 430.877L161.564 428.827L160.067 430.221L161.974 432.271ZM162.984 431.172L177.445 426.065L176.513 423.425L162.052 428.532L162.984 431.172ZM177.445 426.065C180.303 425.056 182.372 423.315 183.429 420.781L180.845 419.703C180.153 421.362 178.784 422.623 176.513 423.425L177.445 426.065ZM183.42 420.802C184.514 418.295 184.282 415.253 183.084 411.861L180.444 412.794C181.528 415.863 181.545 418.098 180.854 419.682L183.42 420.802ZM183.084 411.861C182.254 409.51 181.052 407.325 179.483 405.31L177.274 407.029C178.662 408.814 179.717 410.735 180.444 412.794L183.084 411.861ZM179.496 405.326C178.001 403.345 176.323 401.752 174.453 400.578L172.963 402.949C174.503 403.916 175.938 405.26 177.261 407.013L179.496 405.326ZM174.726 402.724L181.589 395.456L179.553 393.534L172.69 400.802L174.726 402.724ZM179.76 395.636C181.992 397.221 184.073 399.38 185.993 402.143L188.292 400.546C186.223 397.567 183.923 395.158 181.382 393.353L179.76 395.636ZM185.993 402.143C187.916 404.912 189.436 407.877 190.553 411.041L193.193 410.108C191.992 406.708 190.358 403.52 188.292 400.546L185.993 402.143ZM190.553 411.041C192.711 417.152 192.878 422.213 191.293 426.34L193.907 427.344C195.807 422.396 195.49 416.612 193.193 410.108L190.553 411.041ZM191.293 426.34C189.746 430.366 186.131 433.524 180.058 435.669L180.991 438.309C187.532 435.999 191.967 432.393 193.907 427.344L191.293 426.34ZM180.058 435.669L156.444 444.008L157.376 446.648L180.991 438.309L180.058 435.669ZM158.23 444.862L154.264 433.632L151.624 434.564L155.59 445.794L158.23 444.862ZM149.194 421.234C148.103 418.146 147.711 415.396 147.949 412.958L145.162 412.687C144.876 415.625 145.362 418.793 146.554 422.167L149.194 421.234ZM147.946 412.984C148.234 410.495 149.041 408.44 150.329 406.766L148.11 405.059C146.472 407.187 145.503 409.738 145.165 412.662L147.946 412.984ZM150.329 406.766C151.619 405.089 153.303 403.879 155.418 403.132L154.486 400.492C151.883 401.411 149.745 402.934 148.11 405.059L150.329 406.766ZM155.418 403.132C157.66 402.34 159.749 402.203 161.72 402.663L162.356 399.936C159.802 399.34 157.167 399.545 154.486 400.492L155.418 403.132ZM161.694 402.656C163.631 403.148 165.512 404.369 167.324 406.463L169.441 404.631C167.355 402.219 165.006 400.608 162.382 399.942L161.694 402.656ZM167.34 406.481C169.174 408.53 170.84 411.564 172.291 415.673L174.931 414.741C173.412 410.44 171.593 407.034 169.426 404.613L167.34 406.481ZM172.291 415.673L176.175 426.673L178.815 425.74L174.931 414.741L172.291 415.673ZM177.029 424.886L170.029 427.358L170.962 429.999L177.961 427.527L177.029 424.886ZM171.816 428.212L168.393 418.52L165.753 419.453L169.175 429.145L171.816 428.212ZM168.393 418.52C167.379 415.65 166.091 413.435 164.323 412.416L162.925 414.843C163.764 415.326 164.774 416.682 165.753 419.453L168.393 418.52ZM164.293 412.4C162.658 411.51 160.91 411.373 159.153 411.993L160.085 414.634C161.097 414.276 162.019 414.35 162.954 414.859L164.293 412.4ZM159.153 411.993C157.221 412.675 155.873 414.014 155.225 415.94L157.879 416.833C158.244 415.748 158.94 415.038 160.085 414.634L159.153 411.993ZM155.205 416.004C154.663 417.912 154.888 420.043 155.69 422.314L158.33 421.382C157.647 419.448 157.566 417.938 157.898 416.769L155.205 416.004ZM155.69 422.314C156.471 424.526 157.699 426.372 159.388 427.81L161.203 425.678C159.923 424.588 158.961 423.17 158.33 421.382L155.69 422.314ZM159.414 427.831C161.203 429.282 163.32 430.035 165.705 430.11L165.793 427.312C163.979 427.255 162.46 426.697 161.178 425.656L159.414 427.831ZM164.889 427.606L160.003 431.408L161.722 433.618L166.608 429.816L164.889 427.606ZM160.83 431.113C158.176 431.176 155.922 430.405 153.994 428.811L152.209 430.969C154.68 433.012 157.6 433.99 160.895 433.912L160.83 431.113ZM153.994 428.811C152.047 427.201 150.424 424.717 149.194 421.234L146.554 422.167C147.895 425.965 149.757 428.941 152.209 430.969L153.994 428.811ZM165.411 462.788L164.027 462.582L164.025 462.59L164.024 462.598L165.411 462.788ZM170.12 451.868L169.039 450.978L169.034 450.985L169.029 450.991L170.12 451.868ZM192.119 444.099L192.418 442.731L192.411 442.73L192.119 444.099ZM202.564 449.668L201.603 450.686L201.609 450.692L201.615 450.697L202.564 449.668ZM210.794 472.974L209.417 472.724L209.415 472.732L209.414 472.741L210.794 472.974ZM205.552 482.871L204.609 483.907L205.578 484.789L206.522 483.88L205.552 482.871ZM197.265 475.33L196.218 474.4L195.3 475.434L196.323 476.365L197.265 475.33ZM200.133 469.732L198.757 469.472L198.755 469.482L198.754 469.491L200.133 469.732ZM196.33 458.963L195.408 460.017L195.408 460.017L196.33 458.963ZM191.022 456.425L191.276 455.049L191.26 455.046L191.245 455.043L191.022 456.425ZM178.714 460.772L177.673 459.836L177.662 459.848L177.652 459.86L178.714 460.772ZM176.177 466.08L177.556 466.321L177.556 466.321L176.177 466.08ZM179.903 476.876L178.97 477.919L178.975 477.924L178.981 477.929L179.903 476.876ZM185.727 479.404L187.109 479.627L187.333 478.238L185.942 478.021L185.727 479.404ZM183.937 490.504L183.807 491.898L185.111 492.02L185.319 490.727L183.937 490.504ZM173.642 486.094L172.714 487.143L172.721 487.149L172.727 487.154L173.642 486.094ZM168.25 475.195C166.738 470.914 166.269 466.849 166.798 462.977L164.024 462.598C163.427 466.968 163.97 471.485 165.609 476.127L168.25 475.195ZM166.796 462.993C167.376 459.09 168.849 455.684 171.211 452.745L169.029 450.991C166.342 454.333 164.676 458.207 164.027 462.582L166.796 462.993ZM171.201 452.758C173.567 449.882 176.67 447.752 180.553 446.381L179.621 443.741C175.3 445.266 171.757 447.675 169.039 450.978L171.201 452.758ZM180.553 446.381C184.492 444.99 188.24 444.702 191.827 445.468L192.411 442.73C188.263 441.844 183.99 442.198 179.621 443.741L180.553 446.381ZM191.821 445.467C195.501 446.27 198.756 448.001 201.603 450.686L203.524 448.649C200.319 445.627 196.611 443.646 192.418 442.731L191.821 445.467ZM201.615 450.697C204.504 453.358 206.714 456.804 208.223 461.078L210.863 460.146C209.222 455.498 206.779 451.647 203.512 448.638L201.615 450.697ZM208.223 461.078C209.695 465.247 210.072 469.12 209.417 472.724L212.172 473.225C212.927 469.064 212.47 464.695 210.863 460.146L208.223 461.078ZM209.414 472.741C208.81 476.308 207.207 479.336 204.581 481.863L206.522 483.88C209.578 480.94 211.47 477.37 212.175 473.208L209.414 472.741ZM206.494 481.836L198.207 474.294L196.323 476.365L204.609 483.907L206.494 481.836ZM198.312 476.26C200.021 474.336 201.116 472.239 201.512 469.973L198.754 469.491C198.463 471.158 197.646 472.793 196.218 474.4L198.312 476.26ZM201.509 469.992C201.918 467.825 201.74 465.668 200.99 463.546L198.35 464.478C198.941 466.151 199.071 467.807 198.757 469.472L201.509 469.992ZM200.99 463.546C200.193 461.289 198.951 459.397 197.252 457.91L195.408 460.017C196.714 461.159 197.699 462.633 198.35 464.478L200.99 463.546ZM197.252 457.91C195.553 456.422 193.55 455.47 191.276 455.049L190.767 457.802C192.565 458.135 194.102 458.874 195.408 460.017L197.252 457.91ZM191.245 455.043C188.944 454.672 186.49 454.984 183.913 455.894L184.845 458.534C187.089 457.742 189.063 457.528 190.799 457.808L191.245 455.043ZM183.913 455.894C181.336 456.804 179.23 458.103 177.673 459.836L179.756 461.707C180.931 460.399 182.602 459.326 184.845 458.534L183.913 455.894ZM177.652 459.86C176.146 461.616 175.186 463.615 174.798 465.839L177.556 466.321C177.855 464.611 178.586 463.071 179.777 461.683L177.652 459.86ZM174.798 465.839C174.409 468.064 174.631 470.316 175.428 472.573L178.068 471.641C177.417 469.796 177.257 468.03 177.556 466.321L174.798 465.839ZM175.428 472.573C176.173 474.682 177.353 476.473 178.97 477.919L180.836 475.832C179.587 474.715 178.664 473.327 178.068 471.641L175.428 472.573ZM178.981 477.929C180.721 479.452 182.924 480.385 185.512 480.788L185.942 478.021C183.77 477.683 182.09 476.93 180.825 475.822L178.981 477.929ZM184.345 479.181L182.555 490.282L185.319 490.727L187.109 479.627L184.345 479.181ZM184.067 489.11C180.485 488.777 177.326 487.426 174.557 485.035L172.727 487.154C175.931 489.92 179.636 491.51 183.807 491.898L184.067 489.11ZM174.57 485.046C171.842 482.633 169.724 479.37 168.25 475.195L165.609 476.127C167.214 480.67 169.571 484.362 172.714 487.143L174.57 485.046Z" fill="#FFFEFD"/>
<path d="M42.1354 65.4088L48.7434 65.4088L48.7434 85.0088L42.1354 85.0088L42.1354 65.4088ZM36.0314 85.0088L29.4234 85.0088L29.4234 65.4088L36.0314 65.4088L36.0314 85.0088ZM42.5834 77.7848L35.5834 77.7848L35.5834 72.3528L42.5834 72.3528L42.5834 77.7848ZM62.1961 85.4568C60.6094 85.4568 59.1348 85.2048 57.7721 84.7008C56.4281 84.1968 55.2614 83.4875 54.2721 82.5728C53.2828 81.6395 52.5081 80.5475 51.9481 79.2968C51.4068 78.0461 51.1361 76.6835 51.1361 75.2088C51.1361 73.7155 51.4068 72.3528 51.9481 71.1208C52.5081 69.8701 53.2828 68.7875 54.2721 67.8728C55.2614 66.9395 56.4281 66.2208 57.7721 65.7168C59.1348 65.2128 60.6094 64.9608 62.1961 64.9608C63.8014 64.9608 65.2761 65.2128 66.6201 65.7168C67.9641 66.2208 69.1308 66.9395 70.1201 67.8728C71.1094 68.7875 71.8748 69.8701 72.4161 71.1208C72.9761 72.3528 73.2561 73.7155 73.2561 75.2088C73.2561 76.6835 72.9761 78.0461 72.4161 79.2968C71.8748 80.5475 71.1094 81.6395 70.1201 82.5728C69.1308 83.4875 67.9641 84.1968 66.6201 84.7008C65.2761 85.2048 63.8014 85.4568 62.1961 85.4568ZM62.1961 80.1088C62.8121 80.1088 63.3814 79.9968 63.9041 79.7728C64.4454 79.5488 64.9121 79.2315 65.3041 78.8208C65.7148 78.3915 66.0321 77.8781 66.2561 77.2808C66.4801 76.6648 66.5921 75.9741 66.5921 75.2088C66.5921 74.4435 66.4801 73.7621 66.2561 73.1648C66.0321 72.5488 65.7148 72.0355 65.3041 71.6248C64.9121 71.1955 64.4454 70.8688 63.9041 70.6448C63.3814 70.4208 62.8121 70.3088 62.1961 70.3088C61.5801 70.3088 61.0014 70.4208 60.4601 70.6448C59.9374 70.8688 59.4708 71.1955 59.0601 71.6248C58.6681 72.0355 58.3601 72.5488 58.1361 73.1648C57.9121 73.7621 57.8001 74.4435 57.8001 75.2088C57.8001 75.9741 57.9121 76.6648 58.1361 77.2808C58.3601 77.8781 58.6681 78.3915 59.0601 78.8208C59.4708 79.2315 59.9374 79.5488 60.4601 79.7728C61.0014 79.9968 61.5801 80.1088 62.1961 80.1088ZM75.6343 85.0088L75.6343 65.4088L85.5743 65.4088C88.001 65.4088 89.877 65.8568 91.2023 66.7528C92.5463 67.6488 93.2183 68.9088 93.2183 70.5328C93.2183 72.1195 92.6023 73.3795 91.3703 74.3128C90.1383 75.2275 88.477 75.6848 86.3863 75.6848L86.9463 74.1728C89.1677 74.1728 90.913 74.6115 92.1823 75.4888C93.4517 76.3661 94.0863 77.6448 94.0863 79.3248C94.0863 81.0608 93.3957 82.4421 92.0143 83.4688C90.633 84.4955 88.6637 85.0088 86.1063 85.0088L75.6343 85.0088ZM82.1303 80.3888L85.7983 80.3888C86.3397 80.3888 86.741 80.2581 87.0023 79.9968C87.2823 79.7168 87.4223 79.3248 87.4223 78.8208C87.4223 78.3168 87.2823 77.9435 87.0023 77.7008C86.741 77.4395 86.3397 77.3088 85.7983 77.3088L82.1303 77.3088L82.1303 80.3888ZM82.1303 72.9408L84.9303 72.9408C85.4903 72.9408 85.901 72.8195 86.1623 72.5768C86.4237 72.3341 86.5543 71.9795 86.5543 71.5128C86.5543 71.0275 86.4237 70.6635 86.1623 70.4208C85.901 70.1595 85.4903 70.0288 84.9303 70.0288L82.1303 70.0288L82.1303 72.9408ZM106.999 71.4288C109.388 71.4288 111.255 71.9701 112.599 73.0528C113.962 74.1168 114.643 75.7315 114.643 77.8968C114.643 80.2301 113.878 82.0035 112.347 83.2168C110.816 84.4115 108.754 85.0088 106.159 85.0088L96.4429 85.0088L96.4429 65.4088L102.939 65.4088L102.939 71.4288L106.999 71.4288ZM105.711 80.3888C106.364 80.3888 106.906 80.1835 107.335 79.7728C107.783 79.3435 108.007 78.7555 108.007 78.0088C108.007 77.2621 107.783 76.7488 107.335 76.4688C106.906 76.1888 106.364 76.0488 105.711 76.0488L102.939 76.0488L102.939 80.3888L105.711 80.3888ZM116.435 85.0088L116.435 65.4088L122.931 65.4088L122.931 85.0088L116.435 85.0088ZM126.412 85.0088L126.412 65.4088L132.908 65.4088L132.908 75.6008L139.656 65.4088L145.872 65.4088L145.872 85.0088L139.376 85.0088L139.376 74.8448L132.656 85.0088L126.412 85.0088ZM136.128 64.2888C133.906 64.2888 132.329 63.8781 131.396 63.0568C130.481 62.2168 130.024 61.0221 130.024 59.4728L134.42 59.4728C134.42 60.0888 134.541 60.5461 134.784 60.8448C135.045 61.1248 135.493 61.2648 136.128 61.2648C136.781 61.2648 137.238 61.1248 137.5 60.8448C137.761 60.5461 137.892 60.0888 137.892 59.4728L142.288 59.4728C142.288 61.0221 141.812 62.2168 140.86 63.0568C139.926 63.8781 138.349 64.2888 136.128 64.2888ZM41.4634 120.009L36.5914 110.825L41.8554 107.745L48.9114 120.009L41.4634 120.009ZM29.2554 120.009L29.2554 100.409L35.8634 100.409L35.8634 120.009L29.2554 120.009ZM33.9594 112.925L33.9594 107.717L41.3794 107.717L41.3794 112.925L33.9594 112.925ZM42.4994 110.909L36.4234 110.293L42.0514 100.409L48.9394 100.409L42.4994 110.909ZM50.2593 120.009L50.2593 100.409L56.7553 100.409L56.7553 110.601L63.5033 100.409L69.7193 100.409L69.7193 120.009L63.2233 120.009L63.2233 109.845L56.5033 120.009L50.2593 120.009ZM85.9127 100.409L92.5207 100.409L92.5207 120.009L85.9127 120.009L85.9127 100.409ZM79.8087 120.009L73.2007 120.009L73.2007 100.409L79.8087 100.409L79.8087 120.009ZM86.3607 112.785L79.3607 112.785L79.3607 107.353L86.3607 107.353L86.3607 112.785ZM105.973 120.457C104.387 120.457 102.912 120.205 101.549 119.701C100.205 119.197 99.0388 118.487 98.0494 117.573C97.0601 116.639 96.2854 115.547 95.7254 114.297C95.1841 113.046 94.9134 111.683 94.9134 110.209C94.9134 108.715 95.1841 107.353 95.7254 106.121C96.2854 104.87 97.0601 103.787 98.0494 102.873C99.0388 101.939 100.205 101.221 101.549 100.717C102.912 100.213 104.387 99.9608 105.973 99.9608C107.579 99.9608 109.053 100.213 110.397 100.717C111.741 101.221 112.908 101.939 113.897 102.873C114.887 103.787 115.652 104.87 116.193 106.121C116.753 107.353 117.033 108.715 117.033 110.209C117.033 111.683 116.753 113.046 116.193 114.297C115.652 115.547 114.887 116.639 113.897 117.573C112.908 118.487 111.741 119.197 110.397 119.701C109.053 120.205 107.579 120.457 105.973 120.457ZM105.973 115.109C106.589 115.109 107.159 114.997 107.681 114.773C108.223 114.549 108.689 114.231 109.081 113.821C109.492 113.391 109.809 112.878 110.033 112.281C110.257 111.665 110.369 110.974 110.369 110.209C110.369 109.443 110.257 108.762 110.033 108.165C109.809 107.549 109.492 107.035 109.081 106.625C108.689 106.195 108.223 105.869 107.681 105.645C107.159 105.421 106.589 105.309 105.973 105.309C105.357 105.309 104.779 105.421 104.237 105.645C103.715 105.869 103.248 106.195 102.837 106.625C102.445 107.035 102.137 107.549 101.913 108.165C101.689 108.762 101.577 109.443 101.577 110.209C101.577 110.974 101.689 111.665 101.913 112.281C102.137 112.878 102.445 113.391 102.837 113.821C103.248 114.231 103.715 114.549 104.237 114.773C104.779 114.997 105.357 115.109 105.973 115.109ZM118.936 114.297L118.936 109.537L127.336 109.537L127.336 114.297L118.936 114.297ZM40.6794 153.889C37.9727 153.889 35.6954 153.553 33.8474 152.881C32.0181 152.209 30.6367 151.219 29.7034 149.913C28.7701 148.606 28.3034 147.01 28.3034 145.125C28.3034 143.239 28.7701 141.653 29.7034 140.365C30.6367 139.058 32.0274 138.069 33.8754 137.397C35.7234 136.725 38.0007 136.389 40.7074 136.389C40.7447 136.389 40.8941 136.389 41.1554 136.389C41.4167 136.389 41.6781 136.389 41.9394 136.389C42.2007 136.389 42.3407 136.389 42.3594 136.389C45.0287 136.389 47.2594 136.734 49.0514 137.425C50.8621 138.097 52.2247 139.086 53.1394 140.393C54.0541 141.681 54.5114 143.258 54.5114 145.125C54.5114 146.973 54.0634 148.55 53.1674 149.857C52.2901 151.163 50.9741 152.162 49.2194 152.853C47.4647 153.543 45.2901 153.889 42.6954 153.889C42.6394 153.889 42.4527 153.889 42.1354 153.889C41.8367 153.889 41.5381 153.889 41.2394 153.889C40.9407 153.889 40.7541 153.889 40.6794 153.889ZM41.2674 148.849C41.3234 148.849 41.4261 148.849 41.5754 148.849C41.7247 148.849 41.8274 148.849 41.8834 148.849C43.3954 148.849 44.6087 148.727 45.5234 148.485C46.4381 148.223 47.1007 147.822 47.5114 147.281C47.9221 146.721 48.1274 145.993 48.1274 145.097C48.1274 144.201 47.9127 143.491 47.4834 142.969C47.0541 142.427 46.3821 142.035 45.4674 141.793C44.5714 141.55 43.4047 141.429 41.9674 141.429C41.8927 141.429 41.7807 141.429 41.6314 141.429C41.4821 141.429 41.3607 141.429 41.2674 141.429C39.6621 141.429 38.3741 141.55 37.4034 141.793C36.4514 142.017 35.7607 142.399 35.3314 142.941C34.9021 143.482 34.6874 144.21 34.6874 145.125C34.6874 146.039 34.9301 146.777 35.4154 147.337C35.9007 147.878 36.6287 148.27 37.5994 148.513C38.5887 148.737 39.8114 148.849 41.2674 148.849ZM38.3834 156.017L38.3834 134.429L44.4314 134.429L44.4314 156.017L38.3834 156.017ZM62.9245 142.689L71.6605 142.689L71.6605 147.449L62.9245 147.449L62.9245 142.689ZM63.3725 150.025L73.1725 150.025L73.1725 155.009L56.8765 155.009L56.8765 135.409L72.8085 135.409L72.8085 140.393L63.3725 140.393L63.3725 150.025ZM85.7091 155.457C84.1411 155.457 82.6851 155.214 81.3411 154.729C80.0158 154.225 78.8584 153.515 77.8691 152.601C76.8984 151.686 76.1424 150.603 75.6011 149.353C75.0598 148.102 74.7891 146.721 74.7891 145.209C74.7891 143.697 75.0598 142.315 75.6011 141.065C76.1424 139.814 76.8984 138.731 77.8691 137.817C78.8584 136.902 80.0158 136.202 81.3411 135.717C82.6851 135.213 84.1411 134.961 85.7091 134.961C87.6318 134.961 89.3304 135.297 90.8051 135.969C92.2984 136.641 93.5304 137.611 94.5011 138.881L90.3291 142.605C89.7504 141.877 89.1064 141.317 88.3971 140.925C87.7064 140.514 86.9224 140.309 86.0451 140.309C85.3544 140.309 84.7291 140.421 84.1691 140.645C83.6091 140.869 83.1238 141.195 82.7131 141.625C82.3211 142.054 82.0131 142.577 81.7891 143.193C81.5651 143.79 81.4531 144.462 81.4531 145.209C81.4531 145.955 81.5651 146.637 81.7891 147.253C82.0131 147.85 82.3211 148.363 82.7131 148.793C83.1238 149.222 83.6091 149.549 84.1691 149.773C84.7291 149.997 85.3544 150.109 86.0451 150.109C86.9224 150.109 87.7064 149.913 88.3971 149.521C89.1064 149.11 89.7504 148.541 90.3291 147.813L94.5011 151.537C93.5304 152.787 92.2984 153.758 90.8051 154.449C89.3304 155.121 87.6318 155.457 85.7091 155.457ZM100.813 155.009L100.813 139.105L102.241 140.533L95.0729 140.533L95.0729 135.409L113.049 135.409L113.049 140.533L105.881 140.533L107.309 139.105L107.309 155.009L100.813 155.009ZM115.228 155.009L115.228 135.409L121.724 135.409L121.724 145.601L128.472 135.409L134.688 135.409L134.688 155.009L128.192 155.009L128.192 144.845L121.472 155.009L115.228 155.009ZM138.169 155.009L138.169 135.409L148.109 135.409C150.536 135.409 152.412 135.857 153.737 136.753C155.081 137.649 155.753 138.909 155.753 140.533C155.753 142.119 155.137 143.379 153.905 144.313C152.673 145.227 151.012 145.685 148.921 145.685L149.481 144.173C151.703 144.173 153.448 144.611 154.717 145.489C155.987 146.366 156.621 147.645 156.621 149.325C156.621 151.061 155.931 152.442 154.549 153.469C153.168 154.495 151.199 155.009 148.641 155.009L138.169 155.009ZM144.665 150.389L148.333 150.389C148.875 150.389 149.276 150.258 149.537 149.997C149.817 149.717 149.957 149.325 149.957 148.821C149.957 148.317 149.817 147.943 149.537 147.701C149.276 147.439 148.875 147.309 148.333 147.309L144.665 147.309L144.665 150.389ZM144.665 142.941L147.465 142.941C148.025 142.941 148.436 142.819 148.697 142.577C148.959 142.334 149.089 141.979 149.089 141.513C149.089 141.027 148.959 140.663 148.697 140.421C148.436 140.159 148.025 140.029 147.465 140.029L144.665 140.029L144.665 142.941ZM157.326 155.009L165.894 135.409L172.39 135.409L180.958 155.009L174.126 155.009L167.798 138.545L170.374 138.545L164.046 155.009L157.326 155.009ZM162.422 151.593L164.102 146.833L173.118 146.833L174.798 151.593L162.422 151.593ZM184.497 155.373C184.086 155.373 183.647 155.345 183.181 155.289C182.714 155.233 182.219 155.139 181.697 155.009L182.033 149.717C182.294 149.773 182.537 149.801 182.761 149.801C183.489 149.801 184.03 149.502 184.385 148.905C184.739 148.307 184.982 147.505 185.113 146.497C185.243 145.47 185.327 144.322 185.365 143.053L185.617 135.409L202.165 135.409L202.165 155.009L195.669 155.009L195.669 139.133L197.097 140.533L189.957 140.533L191.245 139.049L191.133 142.801C191.077 144.686 190.946 146.403 190.741 147.953C190.554 149.483 190.227 150.809 189.761 151.929C189.294 153.03 188.631 153.879 187.773 154.477C186.933 155.074 185.841 155.373 184.497 155.373ZM216.183 141.429C218.572 141.429 220.439 141.97 221.783 143.053C223.145 144.117 223.827 145.731 223.827 147.897C223.827 150.23 223.061 152.003 221.531 153.217C220 154.411 217.937 155.009 215.343 155.009L205.627 155.009L205.627 135.409L212.123 135.409L212.123 141.429L216.183 141.429ZM214.895 150.389C215.548 150.389 216.089 150.183 216.519 149.773C216.967 149.343 217.191 148.755 217.191 148.009C217.191 147.262 216.967 146.749 216.519 146.469C216.089 146.189 215.548 146.049 214.895 146.049L212.123 146.049L212.123 150.389L214.895 150.389Z" fill="#4F6234"/>
<path d="M36.3459 465.722L36.3459 452.522L37.2059 453.462L33.1859 453.462L33.1859 451.722L38.3259 451.722L38.3259 465.722L36.3459 465.722ZM41.1882 462.282L41.1882 460.882L48.3482 451.722L50.5082 451.722L43.4082 460.882L42.3882 460.562L53.5682 460.562L53.5682 462.282L41.1882 462.282ZM48.9682 465.722L48.9682 462.282L49.0282 460.562L49.0282 457.522L50.9082 457.522L50.9082 465.722L48.9682 465.722ZM67.3582 465.882C67.3449 465.882 67.2982 465.882 67.2182 465.882C67.1516 465.882 67.0849 465.882 67.0182 465.882C66.9516 465.882 66.9116 465.882 66.8982 465.882C64.7249 465.855 63.0382 465.375 61.8382 464.442C60.6382 463.495 60.0382 462.148 60.0382 460.402C60.0382 458.668 60.6382 457.342 61.8382 456.422C63.0516 455.488 64.7582 455.015 66.9582 455.002C66.9849 455.002 67.0249 455.002 67.0782 455.002C67.1449 455.002 67.2049 455.002 67.2582 455.002C67.3249 455.002 67.3649 455.002 67.3782 455.002C69.6049 455.002 71.3316 455.468 72.5582 456.402C73.7982 457.335 74.4182 458.668 74.4182 460.402C74.4182 462.162 73.7982 463.515 72.5582 464.462C71.3182 465.408 69.5849 465.882 67.3582 465.882ZM67.3182 464.202C68.4782 464.202 69.4382 464.055 70.1982 463.762C70.9716 463.468 71.5516 463.042 71.9382 462.482C72.3249 461.922 72.5182 461.228 72.5182 460.402C72.5182 459.588 72.3249 458.908 71.9382 458.362C71.5516 457.815 70.9716 457.402 70.1982 457.122C69.4382 456.842 68.4782 456.702 67.3182 456.702C67.2916 456.702 67.2382 456.702 67.1582 456.702C67.0782 456.702 67.0316 456.702 67.0182 456.702C65.8849 456.702 64.9382 456.848 64.1782 457.142C63.4316 457.422 62.8716 457.835 62.4982 458.382C62.1249 458.928 61.9382 459.602 61.9382 460.402C61.9382 461.215 62.1249 461.902 62.4982 462.462C62.8849 463.022 63.4516 463.448 64.1982 463.742C64.9582 464.035 65.8982 464.188 67.0182 464.202C67.0449 464.202 67.0916 464.202 67.1582 464.202C67.2382 464.202 67.2916 464.202 67.3182 464.202ZM66.2782 469.602L66.2782 450.882L68.1582 450.882L68.1582 469.602L66.2782 469.602ZM81.852 465.842C80.7186 465.842 79.7186 465.608 78.852 465.142C77.9986 464.675 77.332 464.035 76.852 463.222C76.3853 462.408 76.152 461.475 76.152 460.422C76.152 459.368 76.3786 458.435 76.832 457.622C77.2986 456.808 77.932 456.175 78.732 455.722C79.5453 455.255 80.4586 455.022 81.472 455.022C82.4986 455.022 83.4053 455.248 84.192 455.702C84.9786 456.155 85.592 456.795 86.032 457.622C86.4853 458.435 86.712 459.388 86.712 460.482C86.712 460.562 86.7053 460.655 86.692 460.762C86.692 460.868 86.6853 460.968 86.672 461.062L77.652 461.062L77.652 459.682L85.672 459.682L84.892 460.162C84.9053 459.482 84.7653 458.875 84.472 458.342C84.1786 457.808 83.772 457.395 83.252 457.102C82.7453 456.795 82.152 456.642 81.472 456.642C80.8053 456.642 80.212 456.795 79.692 457.102C79.172 457.395 78.7653 457.815 78.472 458.362C78.1786 458.895 78.032 459.508 78.032 460.202L78.032 460.522C78.032 461.228 78.192 461.862 78.512 462.422C78.8453 462.968 79.3053 463.395 79.892 463.702C80.4786 464.008 81.152 464.162 81.912 464.162C82.5386 464.162 83.1053 464.055 83.612 463.842C84.132 463.628 84.5853 463.308 84.972 462.882L86.032 464.122C85.552 464.682 84.952 465.108 84.232 465.402C83.5253 465.695 82.732 465.842 81.852 465.842ZM89.6906 465.722L89.6906 455.122L94.6106 455.122C95.8506 455.122 96.8239 455.362 97.5306 455.842C98.2506 456.308 98.6106 456.975 98.6106 457.842C98.6106 458.708 98.2706 459.382 97.5906 459.862C96.9239 460.328 96.0372 460.562 94.9306 460.562L95.2306 460.042C96.4972 460.042 97.4372 460.275 98.0506 460.742C98.6639 461.208 98.9706 461.895 98.9706 462.802C98.9706 463.722 98.6239 464.442 97.9306 464.962C97.2506 465.468 96.2039 465.722 94.7906 465.722L89.6906 465.722ZM91.5706 464.242L94.6506 464.242C95.4506 464.242 96.0506 464.122 96.4506 463.882C96.8506 463.628 97.0506 463.228 97.0506 462.682C97.0506 462.122 96.8639 461.715 96.4906 461.462C96.1306 461.195 95.5572 461.062 94.7706 461.062L91.5706 461.062L91.5706 464.242ZM91.5706 459.682L94.4506 459.682C95.1839 459.682 95.7372 459.548 96.1106 459.282C96.4972 459.002 96.6906 458.615 96.6906 458.122C96.6906 457.615 96.4972 457.235 96.1106 456.982C95.7372 456.728 95.1839 456.602 94.4506 456.602L91.5706 456.602L91.5706 459.682ZM107.596 465.842C106.716 465.842 105.909 465.642 105.176 465.242C104.456 464.828 103.876 464.222 103.436 463.422C103.009 462.622 102.796 461.622 102.796 460.422C102.796 459.222 103.002 458.222 103.416 457.422C103.842 456.622 104.416 456.022 105.136 455.622C105.869 455.222 106.689 455.022 107.596 455.022C108.636 455.022 109.556 455.248 110.356 455.702C111.156 456.155 111.789 456.788 112.256 457.602C112.722 458.402 112.956 459.342 112.956 460.422C112.956 461.502 112.722 462.448 112.256 463.262C111.789 464.075 111.156 464.708 110.356 465.162C109.556 465.615 108.636 465.842 107.596 465.842ZM101.976 469.602L101.976 455.122L103.816 455.122L103.816 457.982L103.696 460.442L103.896 462.902L103.896 469.602L101.976 469.602ZM107.436 464.162C108.116 464.162 108.722 464.008 109.256 463.702C109.802 463.395 110.229 462.962 110.536 462.402C110.856 461.828 111.016 461.168 111.016 460.422C111.016 459.662 110.856 459.008 110.536 458.462C110.229 457.902 109.802 457.468 109.256 457.162C108.722 456.855 108.116 456.702 107.436 456.702C106.769 456.702 106.162 456.855 105.616 457.162C105.082 457.468 104.656 457.902 104.336 458.462C104.029 459.008 103.876 459.662 103.876 460.422C103.876 461.168 104.029 461.828 104.336 462.402C104.656 462.962 105.082 463.395 105.616 463.702C106.162 464.008 106.769 464.162 107.436 464.162ZM122.148 465.722L122.148 463.482L122.048 463.062L122.048 459.242C122.048 458.428 121.808 457.802 121.328 457.362C120.861 456.908 120.154 456.682 119.208 456.682C118.581 456.682 117.968 456.788 117.368 457.002C116.768 457.202 116.261 457.475 115.848 457.822L115.048 456.382C115.594 455.942 116.248 455.608 117.008 455.382C117.781 455.142 118.588 455.022 119.428 455.022C120.881 455.022 122.001 455.375 122.788 456.082C123.574 456.788 123.968 457.868 123.968 459.322L123.968 465.722L122.148 465.722ZM118.668 465.842C117.881 465.842 117.188 465.708 116.588 465.442C116.001 465.175 115.548 464.808 115.228 464.342C114.908 463.862 114.748 463.322 114.748 462.722C114.748 462.148 114.881 461.628 115.148 461.162C115.428 460.695 115.874 460.322 116.488 460.042C117.114 459.762 117.954 459.622 119.008 459.622L122.368 459.622L122.368 461.002L119.088 461.002C118.128 461.002 117.481 461.162 117.148 461.482C116.814 461.802 116.648 462.188 116.648 462.642C116.648 463.162 116.854 463.582 117.268 463.902C117.681 464.208 118.254 464.362 118.988 464.362C119.708 464.362 120.334 464.202 120.868 463.882C121.414 463.562 121.808 463.095 122.048 462.482L122.428 463.802C122.174 464.428 121.728 464.928 121.088 465.302C120.448 465.662 119.641 465.842 118.668 465.842ZM125.665 465.702L125.785 464.082C125.878 464.095 125.965 464.108 126.045 464.122C126.125 464.135 126.198 464.142 126.265 464.142C126.692 464.142 127.025 463.995 127.265 463.702C127.518 463.408 127.705 463.022 127.825 462.542C127.945 462.048 128.032 461.495 128.085 460.882C128.138 460.268 128.178 459.655 128.205 459.042L128.385 455.122L136.525 455.122L136.525 465.722L134.605 465.722L134.605 456.242L135.065 456.802L129.625 456.802L130.065 456.222L129.925 459.162C129.885 460.095 129.812 460.968 129.705 461.782C129.598 462.595 129.432 463.308 129.205 463.922C128.992 464.535 128.692 465.015 128.305 465.362C127.932 465.708 127.445 465.882 126.845 465.882C126.672 465.882 126.485 465.862 126.285 465.822C126.098 465.795 125.892 465.755 125.665 465.702ZM147.017 465.722L147.017 462.002L147.317 462.362L143.937 462.362C142.524 462.362 141.417 462.062 140.617 461.462C139.831 460.862 139.437 459.988 139.437 458.842C139.437 457.615 139.857 456.688 140.697 456.062C141.551 455.435 142.684 455.122 144.097 455.122L148.737 455.122L148.737 465.722L147.017 465.722ZM139.337 465.722L142.217 461.662L144.197 461.662L141.397 465.722L139.337 465.722ZM147.017 461.402L147.017 456.262L147.317 456.802L144.157 456.802C143.277 456.802 142.597 456.968 142.117 457.302C141.637 457.622 141.397 458.155 141.397 458.902C141.397 460.288 142.291 460.982 144.077 460.982L147.317 460.982L147.017 461.402ZM34.8859 491.722L34.8859 481.122L39.8059 481.122C41.0459 481.122 42.0192 481.362 42.7259 481.842C43.4459 482.308 43.8059 482.975 43.8059 483.842C43.8059 484.708 43.4659 485.382 42.7859 485.862C42.1192 486.328 41.2325 486.562 40.1259 486.562L40.4259 486.042C41.6925 486.042 42.6325 486.275 43.2459 486.742C43.8592 487.208 44.1659 487.895 44.1659 488.802C44.1659 489.722 43.8192 490.442 43.1259 490.962C42.4459 491.468 41.3992 491.722 39.9859 491.722L34.8859 491.722ZM36.7659 490.242L39.8459 490.242C40.6459 490.242 41.2459 490.122 41.6459 489.882C42.0459 489.628 42.2459 489.228 42.2459 488.682C42.2459 488.122 42.0592 487.715 41.6859 487.462C41.3259 487.195 40.7525 487.062 39.9659 487.062L36.7659 487.062L36.7659 490.242ZM36.7659 485.682L39.6459 485.682C40.3792 485.682 40.9325 485.548 41.3059 485.282C41.6925 485.002 41.8859 484.615 41.8859 484.122C41.8859 483.615 41.6925 483.235 41.3059 482.982C40.9325 482.728 40.3792 482.602 39.6459 482.602L36.7659 482.602L36.7659 485.682ZM51.4221 491.722L51.4221 490.362L57.1221 484.862C57.6288 484.382 58.0021 483.962 58.2421 483.602C58.4955 483.228 58.6621 482.888 58.7421 482.582C58.8355 482.262 58.8821 481.955 58.8821 481.662C58.8821 480.942 58.6288 480.375 58.1221 479.962C57.6155 479.548 56.8755 479.342 55.9021 479.342C55.1555 479.342 54.4821 479.468 53.8821 479.722C53.2821 479.962 52.7621 480.342 52.3221 480.862L50.9621 479.682C51.4955 479.002 52.2088 478.482 53.1021 478.122C54.0088 477.748 55.0021 477.562 56.0821 477.562C57.0555 477.562 57.9021 477.722 58.6221 478.042C59.3421 478.348 59.8955 478.795 60.2821 479.382C60.6821 479.968 60.8821 480.662 60.8821 481.462C60.8821 481.915 60.8221 482.362 60.7021 482.802C60.5821 483.242 60.3555 483.708 60.0221 484.202C59.6888 484.695 59.2088 485.248 58.5821 485.862L53.5021 490.762L53.0221 489.982L61.4821 489.982L61.4821 491.722L51.4221 491.722ZM68.827 491.882C67.7336 491.882 66.7536 491.602 65.887 491.042C65.0336 490.482 64.3536 489.668 63.847 488.602C63.3536 487.535 63.107 486.242 63.107 484.722C63.107 483.202 63.3536 481.908 63.847 480.842C64.3536 479.775 65.0336 478.962 65.887 478.402C66.7536 477.842 67.7336 477.562 68.827 477.562C69.907 477.562 70.8803 477.842 71.747 478.402C72.6136 478.962 73.2936 479.775 73.787 480.842C74.2803 481.908 74.527 483.202 74.527 484.722C74.527 486.242 74.2803 487.535 73.787 488.602C73.2936 489.668 72.6136 490.482 71.747 491.042C70.8803 491.602 69.907 491.882 68.827 491.882ZM68.827 490.102C69.5603 490.102 70.2003 489.902 70.747 489.502C71.307 489.102 71.7403 488.502 72.047 487.702C72.367 486.902 72.527 485.908 72.527 484.722C72.527 483.535 72.367 482.542 72.047 481.742C71.7403 480.942 71.307 480.342 70.747 479.942C70.2003 479.542 69.5603 479.342 68.827 479.342C68.0936 479.342 67.447 479.542 66.887 479.942C66.327 480.342 65.887 480.942 65.567 481.742C65.2603 482.542 65.107 483.535 65.107 484.722C65.107 485.908 65.2603 486.902 65.567 487.702C65.887 488.502 66.327 489.102 66.887 489.502C67.447 489.902 68.0936 490.102 68.827 490.102ZM77.5324 491.842C77.1591 491.842 76.8391 491.715 76.5724 491.462C76.3058 491.195 76.1724 490.862 76.1724 490.462C76.1724 490.062 76.3058 489.735 76.5724 489.482C76.8391 489.228 77.1591 489.102 77.5324 489.102C77.8924 489.102 78.1991 489.228 78.4524 489.482C78.7191 489.735 78.8524 490.062 78.8524 490.462C78.8524 490.862 78.7191 491.195 78.4524 491.462C78.1991 491.715 77.8924 491.842 77.5324 491.842ZM86.2293 491.882C85.136 491.882 84.156 491.602 83.2893 491.042C82.436 490.482 81.756 489.668 81.2493 488.602C80.756 487.535 80.5093 486.242 80.5093 484.722C80.5093 483.202 80.756 481.908 81.2493 480.842C81.756 479.775 82.436 478.962 83.2893 478.402C84.156 477.842 85.136 477.562 86.2293 477.562C87.3093 477.562 88.2826 477.842 89.1493 478.402C90.016 478.962 90.696 479.775 91.1893 480.842C91.6826 481.908 91.9293 483.202 91.9293 484.722C91.9293 486.242 91.6826 487.535 91.1893 488.602C90.696 489.668 90.016 490.482 89.1493 491.042C88.2826 491.602 87.3093 491.882 86.2293 491.882ZM86.2293 490.102C86.9626 490.102 87.6026 489.902 88.1493 489.502C88.7093 489.102 89.1426 488.502 89.4493 487.702C89.7693 486.902 89.9293 485.908 89.9293 484.722C89.9293 483.535 89.7693 482.542 89.4493 481.742C89.1426 480.942 88.7093 480.342 88.1493 479.942C87.6026 479.542 86.9626 479.342 86.2293 479.342C85.496 479.342 84.8493 479.542 84.2893 479.942C83.7293 480.342 83.2893 480.942 82.9693 481.742C82.6626 482.542 82.5093 483.535 82.5093 484.722C82.5093 485.908 82.6626 486.902 82.9693 487.702C83.2893 488.502 83.7293 489.102 84.2893 489.502C84.8493 489.902 85.496 490.102 86.2293 490.102ZM99.5692 491.882C98.4758 491.882 97.4958 491.602 96.6292 491.042C95.7758 490.482 95.0958 489.668 94.5892 488.602C94.0958 487.535 93.8492 486.242 93.8492 484.722C93.8492 483.202 94.0958 481.908 94.5892 480.842C95.0958 479.775 95.7758 478.962 96.6292 478.402C97.4958 477.842 98.4758 477.562 99.5692 477.562C100.649 477.562 101.622 477.842 102.489 478.402C103.356 478.962 104.036 479.775 104.529 480.842C105.022 481.908 105.269 483.202 105.269 484.722C105.269 486.242 105.022 487.535 104.529 488.602C104.036 489.668 103.356 490.482 102.489 491.042C101.622 491.602 100.649 491.882 99.5692 491.882ZM99.5692 490.102C100.302 490.102 100.942 489.902 101.489 489.502C102.049 489.102 102.482 488.502 102.789 487.702C103.109 486.902 103.269 485.908 103.269 484.722C103.269 483.535 103.109 482.542 102.789 481.742C102.482 480.942 102.049 480.342 101.489 479.942C100.942 479.542 100.302 479.342 99.5692 479.342C98.8358 479.342 98.1892 479.542 97.6292 479.942C97.0692 480.342 96.6292 480.942 96.3092 481.742C96.0025 482.542 95.8492 483.535 95.8492 484.722C95.8492 485.908 96.0025 486.902 96.3092 487.702C96.6292 488.502 97.0692 489.102 97.6292 489.502C98.1892 489.902 98.8358 490.102 99.5692 490.102Z" fill="#4F6234"/>
<path d="M28.9728 246.849L28.9796 239.961L29.1754 240.172L26.1234 240.169L26.124 239.539L32.536 239.545L32.5354 240.175L29.4834 240.172L29.6796 239.962L29.6728 246.85L28.9728 246.849ZM36.7097 246.913C35.9724 246.912 35.3192 246.753 34.7502 246.435C34.1905 246.117 33.7476 245.678 33.4215 245.118C33.1047 244.558 32.9467 243.918 32.9474 243.199C32.9481 242.471 33.0981 241.832 33.3973 241.282C33.7059 240.722 34.1263 240.284 34.6586 239.967C35.1909 239.65 35.7884 239.492 36.4511 239.493C37.1137 239.494 37.7062 239.648 38.2286 239.957C38.7603 240.265 39.1752 240.7 39.4733 241.26C39.7808 241.811 39.9341 242.45 39.9334 243.178C39.9334 243.206 39.9287 243.239 39.9193 243.276C39.9193 243.304 39.9193 243.337 39.9192 243.374L33.4652 243.368L33.4658 242.822L39.5418 242.828L39.2615 243.094C39.2714 242.524 39.1506 242.016 38.899 241.567C38.6568 241.11 38.3258 240.755 37.9061 240.502C37.4863 240.241 37.0011 240.109 36.4505 240.109C35.9091 240.108 35.4237 240.239 34.9941 240.499C34.5738 240.751 34.2421 241.105 33.999 241.562C33.7559 242.01 33.6341 242.523 33.6335 243.102L33.6334 243.228C33.6328 243.825 33.7629 244.358 34.0238 244.824C34.294 245.282 34.6623 245.642 35.1287 245.904C35.5952 246.156 36.127 246.283 36.7244 246.283C37.191 246.284 37.6251 246.2 38.0266 246.032C38.4374 245.865 38.783 245.609 39.0634 245.263L39.4689 245.726C39.1512 246.118 38.7496 246.416 38.264 246.621C37.7878 246.816 37.2697 246.914 36.7097 246.913ZM42.217 246.863L42.2243 239.555L48.6083 239.561L48.601 246.869L47.901 246.868L47.9078 239.98L48.1036 240.19L42.7276 240.185L42.9238 239.975L42.917 246.863L42.217 246.863ZM50.1813 246.842L50.2519 246.241C50.3079 246.25 50.3639 246.264 50.4199 246.283C50.4852 246.292 50.5412 246.297 50.5879 246.297C50.9052 246.297 51.1573 246.181 51.3442 245.948C51.5311 245.705 51.6714 245.383 51.7652 244.982C51.8682 244.581 51.9387 244.128 51.9765 243.624C52.0237 243.12 52.0615 242.607 52.09 242.084L52.2185 239.564L57.3425 239.57L57.3353 246.877L56.6353 246.877L56.6421 239.975L56.8379 240.199L52.6659 240.195L52.8481 239.957L52.734 242.141C52.696 242.776 52.6441 243.382 52.5782 243.961C52.5123 244.539 52.4137 245.053 52.2826 245.501C52.1515 245.948 51.9645 246.303 51.7216 246.564C51.4787 246.816 51.1659 246.941 50.7832 246.941C50.6899 246.941 50.5919 246.932 50.4892 246.913C50.3959 246.894 50.2933 246.871 50.1813 246.842ZM64.9236 246.885L64.9253 245.219L64.8975 244.967L64.9002 242.223C64.9009 241.542 64.7147 241.023 64.3417 240.668C63.9781 240.313 63.4416 240.136 62.7323 240.135C62.2283 240.134 61.7569 240.223 61.318 240.399C60.8885 240.567 60.5196 240.786 60.2114 241.056L59.8619 240.552C60.2262 240.226 60.6651 239.974 61.1786 239.797C61.6921 239.611 62.2289 239.518 62.7889 239.519C63.6942 239.52 64.3893 239.749 64.8742 240.207C65.3591 240.665 65.6011 241.346 65.6002 242.252L65.5956 246.886L64.9236 246.885ZM62.2916 246.938C61.7502 246.938 61.279 246.853 60.8778 246.685C60.486 246.507 60.1829 246.26 59.9685 245.942C59.7635 245.625 59.6612 245.26 59.6616 244.85C59.662 244.476 59.7463 244.141 59.9146 243.842C60.0922 243.534 60.3818 243.287 60.7833 243.101C61.1849 242.905 61.7216 242.808 62.3936 242.808L65.0816 242.811L65.0811 243.357L62.4071 243.355C61.6511 243.354 61.119 243.493 60.8107 243.773C60.5117 244.053 60.3621 244.402 60.3616 244.822C60.3612 245.289 60.5381 245.663 60.8925 245.943C61.2469 246.223 61.7461 246.364 62.3901 246.364C63.0061 246.365 63.5243 246.226 63.9445 245.946C64.3741 245.666 64.6919 245.261 64.8977 244.729L65.0933 245.205C64.8967 245.737 64.5603 246.161 64.084 246.478C63.617 246.786 63.0196 246.939 62.2916 246.938ZM73.1857 246.893L73.1883 244.205L73.3422 244.373L70.7522 244.371C69.8375 244.37 69.1237 244.173 68.6108 243.781C68.1071 243.379 67.8557 242.791 67.8565 242.016C67.8573 241.195 68.1332 240.583 68.6843 240.183C69.2354 239.782 69.9636 239.582 70.8689 239.583L73.8369 239.586L73.8297 246.894L73.1857 246.893ZM67.8097 246.888L69.8425 244.076L70.5845 244.077L68.5797 246.889L67.8097 246.888ZM73.1885 244.009L73.1925 239.991L73.3463 240.201L70.9103 240.199C70.1636 240.198 69.5848 240.342 69.1739 240.631C68.7629 240.92 68.5571 241.391 68.5565 242.045C68.5553 243.239 69.3107 243.837 70.8227 243.839L73.3427 243.841L73.1885 244.009ZM85.0076 246.905L85.0092 245.239L84.9815 244.987L84.9842 242.243C84.9849 241.561 84.7987 241.043 84.4257 240.688C84.0621 240.333 83.5256 240.155 82.8162 240.155C82.3122 240.154 81.8408 240.242 81.402 240.419C80.9725 240.587 80.6036 240.806 80.2953 241.076L79.9458 240.572C80.3102 240.246 80.7491 239.994 81.2626 239.817C81.7761 239.631 82.3129 239.538 82.8729 239.539C83.7782 239.54 84.4733 239.769 84.9582 240.227C85.4431 240.685 85.6851 241.366 85.6842 242.272L85.6796 246.906L85.0076 246.905ZM82.3755 246.958C81.8342 246.958 81.3629 246.873 80.9618 246.705C80.57 246.527 80.2669 246.279 80.0525 245.962C79.8475 245.644 79.7452 245.28 79.7456 244.87C79.746 244.496 79.8303 244.16 79.9986 243.862C80.1762 243.554 80.4658 243.307 80.8673 243.121C81.2688 242.925 81.8056 242.828 82.4776 242.828L85.1656 242.831L85.1651 243.377L82.4911 243.374C81.7351 243.374 81.2029 243.513 80.8947 243.793C80.5957 244.072 80.446 244.422 80.4456 244.842C80.4452 245.309 80.6221 245.683 80.9765 245.963C81.3309 246.243 81.8301 246.384 82.4741 246.384C83.0901 246.385 83.6082 246.245 84.0285 245.966C84.4581 245.686 84.7759 245.281 84.9817 244.749L85.1772 245.225C84.9807 245.757 84.6443 246.181 84.168 246.498C83.701 246.806 83.1035 246.959 82.3755 246.958ZM89.8537 246.91L89.8605 240.022L90.0563 240.232L87.0043 240.229L87.0049 239.599L93.4169 239.605L93.4163 240.235L90.3643 240.232L90.5605 240.022L90.5537 246.91L89.8537 246.91ZM94.9084 246.915L94.9156 239.607L95.6016 239.607L99.0539 245.393L98.7459 245.392L102.224 239.614L102.868 239.614L102.86 246.922L102.216 246.922L102.223 240.454L102.363 240.51L99.0393 245.981L98.7173 245.98L95.3908 240.461L95.5588 240.433L95.5524 246.915L94.9084 246.915ZM108.799 246.984C108.099 246.984 107.474 246.824 106.923 246.506C106.382 246.189 105.949 245.75 105.623 245.189C105.306 244.629 105.148 243.989 105.149 243.271C105.149 242.543 105.309 241.904 105.626 241.353C105.954 240.794 106.388 240.355 106.93 240.038C107.481 239.722 108.106 239.564 108.806 239.564C109.506 239.565 110.131 239.724 110.682 240.042C111.232 240.36 111.666 240.799 111.982 241.359C112.299 241.91 112.457 242.55 112.457 243.278C112.456 243.997 112.297 244.636 111.979 245.195C111.661 245.755 111.226 246.193 110.675 246.51C110.124 246.827 109.499 246.985 108.799 246.984ZM108.799 246.354C109.359 246.355 109.864 246.229 110.312 245.978C110.76 245.717 111.11 245.353 111.363 244.887C111.615 244.42 111.742 243.884 111.743 243.277C111.743 242.661 111.618 242.124 111.366 241.667C111.115 241.2 110.765 240.84 110.317 240.588C109.869 240.326 109.366 240.195 108.806 240.194C108.246 240.194 107.741 240.324 107.293 240.585C106.854 240.836 106.504 241.195 106.242 241.662C105.99 242.119 105.863 242.655 105.863 243.271C105.862 243.878 105.987 244.415 106.239 244.882C106.5 245.349 106.849 245.713 107.288 245.975C107.736 246.227 108.239 246.354 108.799 246.354ZM117.687 246.993C116.977 246.992 116.343 246.833 115.783 246.515C115.233 246.197 114.794 245.758 114.468 245.198C114.152 244.638 113.994 243.998 113.994 243.279C113.995 242.551 114.154 241.908 114.472 241.348C114.799 240.788 115.238 240.355 115.789 240.047C116.35 239.73 116.985 239.572 117.694 239.573C118.282 239.574 118.814 239.686 119.29 239.911C119.775 240.135 120.166 240.472 120.465 240.92L119.946 241.297C119.685 240.924 119.359 240.648 118.967 240.47C118.575 240.293 118.151 240.204 117.693 240.203C117.124 240.203 116.61 240.333 116.153 240.594C115.705 240.845 115.35 241.204 115.088 241.671C114.835 242.128 114.709 242.664 114.708 243.28C114.708 243.896 114.833 244.438 115.085 244.905C115.346 245.362 115.7 245.722 116.148 245.984C116.605 246.236 117.118 246.363 117.687 246.363C118.145 246.364 118.569 246.275 118.961 246.098C119.354 245.921 119.681 245.646 119.942 245.273L120.46 245.652C120.161 246.1 119.768 246.435 119.283 246.659C118.807 246.882 118.275 246.994 117.687 246.993ZM126.294 247.016C126.294 247.016 126.28 247.016 126.252 247.016C126.224 247.016 126.201 247.016 126.182 247.016C126.164 247.015 126.145 247.015 126.126 247.015C124.708 247.005 123.602 246.672 122.809 246.018C122.026 245.364 121.635 244.449 121.636 243.273C121.637 242.106 122.035 241.201 122.829 240.558C123.632 239.906 124.752 239.58 126.19 239.582C126.199 239.582 126.213 239.582 126.232 239.582C126.25 239.582 126.269 239.582 126.288 239.582C126.306 239.582 126.32 239.582 126.33 239.582C127.767 239.583 128.887 239.911 129.689 240.565C130.491 241.21 130.891 242.115 130.89 243.282C130.889 244.467 130.482 245.386 129.669 246.039C128.866 246.691 127.741 247.017 126.294 247.016ZM126.295 246.386C127.135 246.386 127.845 246.266 128.423 246.024C129.002 245.782 129.441 245.432 129.74 244.975C130.049 244.509 130.204 243.944 130.204 243.281C130.205 242.628 130.051 242.073 129.744 241.615C129.446 241.157 129.007 240.812 128.429 240.578C127.85 240.334 127.141 240.212 126.301 240.212C126.283 240.212 126.259 240.212 126.231 240.212C126.213 240.212 126.194 240.212 126.175 240.212C125.354 240.211 124.654 240.331 124.075 240.573C123.505 240.816 123.071 241.165 122.772 241.622C122.482 242.079 122.337 242.63 122.336 243.274C122.336 243.927 122.484 244.487 122.783 244.954C123.081 245.412 123.514 245.762 124.083 246.005C124.662 246.249 125.362 246.375 126.183 246.386C126.192 246.386 126.206 246.386 126.225 246.386C126.253 246.386 126.276 246.386 126.295 246.386ZM125.914 249.661L125.927 236.557L126.613 236.558L126.6 249.662L125.914 249.661ZM136.173 247.011C135.435 247.011 134.782 246.851 134.213 246.533C133.653 246.216 133.21 245.776 132.884 245.216C132.568 244.656 132.41 244.016 132.41 243.298C132.411 242.57 132.561 241.93 132.86 241.38C133.169 240.82 133.589 240.382 134.121 240.065C134.654 239.749 135.251 239.59 135.914 239.591C136.577 239.592 137.169 239.746 137.691 240.055C138.223 240.363 138.638 240.798 138.936 241.358C139.244 241.909 139.397 242.549 139.396 243.277C139.396 243.305 139.392 243.337 139.382 243.375C139.382 243.403 139.382 243.435 139.382 243.473L132.928 243.466L132.929 242.92L139.005 242.926L138.724 243.192C138.734 242.623 138.613 242.114 138.362 241.666C138.12 241.208 137.789 240.853 137.369 240.601C136.949 240.339 136.464 240.208 135.913 240.207C135.372 240.207 134.887 240.337 134.457 240.598C134.037 240.849 133.705 241.204 133.462 241.661C133.219 242.108 133.097 242.622 133.096 243.2L133.096 243.326C133.096 243.924 133.226 244.456 133.487 244.923C133.757 245.38 134.125 245.74 134.592 246.002C135.058 246.254 135.59 246.381 136.187 246.381C136.654 246.382 137.088 246.298 137.489 246.131C137.9 245.963 138.246 245.707 138.526 245.362L138.932 245.824C138.614 246.216 138.212 246.514 137.727 246.719C137.251 246.914 136.733 247.012 136.173 247.011ZM145.362 247.02C144.718 247.02 144.135 246.87 143.612 246.571C143.099 246.272 142.689 245.846 142.382 245.296C142.083 244.735 141.935 244.072 141.935 243.307C141.936 242.542 142.086 241.884 142.385 241.334C142.694 240.774 143.105 240.345 143.619 240.047C144.142 239.749 144.725 239.6 145.369 239.6C146.06 239.601 146.676 239.76 147.217 240.078C147.767 240.387 148.196 240.821 148.503 241.382C148.82 241.942 148.978 242.586 148.977 243.314C148.977 244.042 148.817 244.686 148.5 245.246C148.191 245.805 147.761 246.243 147.21 246.56C146.669 246.868 146.052 247.021 145.362 247.02ZM141.691 249.677L141.701 239.653L142.373 239.654L142.371 242.048L142.257 243.321L142.396 244.596L142.391 249.678L141.691 249.677ZM145.32 246.39C145.88 246.391 146.385 246.265 146.833 246.014C147.281 245.753 147.631 245.389 147.884 244.923C148.146 244.457 148.277 243.92 148.277 243.313C148.278 242.697 148.148 242.161 147.887 241.703C147.636 241.236 147.286 240.876 146.838 240.624C146.39 240.362 145.887 240.231 145.327 240.23C144.767 240.23 144.262 240.36 143.814 240.621C143.375 240.872 143.025 241.231 142.763 241.698C142.511 242.155 142.384 242.692 142.383 243.308C142.383 243.914 142.508 244.451 142.76 244.918C143.021 245.385 143.37 245.749 143.809 246.011C144.257 246.263 144.76 246.39 145.32 246.39ZM155.787 246.975L155.788 245.309L155.761 245.057L155.763 242.313C155.764 241.631 155.578 241.113 155.205 240.758C154.841 240.403 154.305 240.225 153.596 240.225C153.092 240.224 152.62 240.312 152.181 240.489C151.752 240.657 151.383 240.876 151.075 241.146L150.725 240.642C151.089 240.315 151.528 240.064 152.042 239.887C152.555 239.701 153.092 239.608 153.652 239.609C154.557 239.61 155.253 239.839 155.737 240.297C156.222 240.755 156.464 241.436 156.463 242.341L156.459 246.975L155.787 246.975ZM153.155 247.028C152.613 247.028 152.142 246.943 151.741 246.775C151.349 246.597 151.046 246.349 150.832 246.032C150.627 245.714 150.524 245.35 150.525 244.94C150.525 244.566 150.61 244.23 150.778 243.932C150.955 243.624 151.245 243.377 151.647 243.191C152.048 242.995 152.585 242.898 153.257 242.898L155.945 242.901L155.944 243.447L153.27 243.444C152.514 243.444 151.982 243.583 151.674 243.863C151.375 244.142 151.225 244.492 151.225 244.912C151.224 245.379 151.401 245.752 151.756 246.033C152.11 246.313 152.609 246.454 153.253 246.454C153.869 246.455 154.387 246.315 154.808 246.036C155.237 245.756 155.555 245.351 155.761 244.819L155.956 245.295C155.76 245.827 155.424 246.251 154.947 246.568C154.48 246.875 153.883 247.029 153.155 247.028Z" fill="#4F6234"/>
<path d="M26.7229 268.518L26.7229 261.21L27.4089 261.21L30.8669 266.992L30.5589 266.992L34.0309 261.21L34.6749 261.21L34.6749 268.518L34.0309 268.518L34.0309 262.05L34.1709 262.106L30.8529 267.58L30.5309 267.58L27.1989 262.064L27.3669 262.036L27.3669 268.518L26.7229 268.518ZM37.7014 268.518L37.7014 261.21L38.4014 261.21L38.4014 264.542L43.3574 264.542L43.3574 261.21L44.0574 261.21L44.0574 268.518L43.3574 268.518L43.3574 265.158L38.4014 265.158L38.4014 268.518L37.7014 268.518ZM49.9923 268.574C49.2923 268.574 48.667 268.415 48.1163 268.098C47.575 267.78 47.141 267.342 46.8143 266.782C46.497 266.222 46.3383 265.582 46.3383 264.864C46.3383 264.136 46.497 263.496 46.8143 262.946C47.141 262.386 47.575 261.947 48.1163 261.63C48.667 261.312 49.2923 261.154 49.9923 261.154C50.6923 261.154 51.3177 261.312 51.8683 261.63C52.419 261.947 52.853 262.386 53.1703 262.946C53.4877 263.496 53.6463 264.136 53.6463 264.864C53.6463 265.582 53.4877 266.222 53.1703 266.782C52.853 267.342 52.419 267.78 51.8683 268.098C51.3177 268.415 50.6923 268.574 49.9923 268.574ZM49.9923 267.944C50.5523 267.944 51.0563 267.818 51.5043 267.566C51.9523 267.304 52.3023 266.94 52.5543 266.474C52.8063 266.007 52.9323 265.47 52.9323 264.864C52.9323 264.248 52.8063 263.711 52.5543 263.254C52.3023 262.787 51.9523 262.428 51.5043 262.176C51.0563 261.914 50.5523 261.784 49.9923 261.784C49.4323 261.784 48.9283 261.914 48.4803 262.176C48.0417 262.428 47.6917 262.787 47.4303 263.254C47.1783 263.711 47.0523 264.248 47.0523 264.864C47.0523 265.47 47.1783 266.007 47.4303 266.474C47.6917 266.94 48.0417 267.304 48.4803 267.566C48.9283 267.818 49.4323 267.944 49.9923 267.944ZM55.926 268.518L55.926 261.21L60.924 261.21L60.924 261.84L56.43 261.84L56.626 261.644L56.626 268.518L55.926 268.518ZM64.9904 268.574C64.2904 268.574 63.665 268.415 63.1144 268.098C62.573 267.78 62.139 267.342 61.8124 266.782C61.495 266.222 61.3364 265.582 61.3364 264.864C61.3364 264.136 61.495 263.496 61.8124 262.946C62.139 262.386 62.573 261.947 63.1144 261.63C63.665 261.312 64.2904 261.154 64.9904 261.154C65.6904 261.154 66.3157 261.312 66.8664 261.63C67.417 261.947 67.851 262.386 68.1684 262.946C68.4857 263.496 68.6444 264.136 68.6444 264.864C68.6444 265.582 68.4857 266.222 68.1684 266.782C67.851 267.342 67.417 267.78 66.8664 268.098C66.3157 268.415 65.6904 268.574 64.9904 268.574ZM64.9904 267.944C65.5504 267.944 66.0544 267.818 66.5024 267.566C66.9504 267.304 67.3004 266.94 67.5524 266.474C67.8044 266.007 67.9304 265.47 67.9304 264.864C67.9304 264.248 67.8044 263.711 67.5524 263.254C67.3004 262.787 66.9504 262.428 66.5024 262.176C66.0544 261.914 65.5504 261.784 64.9904 261.784C64.4304 261.784 63.9264 261.914 63.4784 262.176C63.0397 262.428 62.6897 262.787 62.4284 263.254C62.1764 263.711 62.0504 264.248 62.0504 264.864C62.0504 265.47 62.1764 266.007 62.4284 266.474C62.6897 266.94 63.0397 267.304 63.4784 267.566C63.9264 267.818 64.4304 267.944 64.9904 267.944ZM70.4168 265.074L70.4168 264.444L74.0148 264.444L74.0148 265.074L70.4168 265.074ZM76.3928 268.518L76.3928 261.21L77.0788 261.21L80.5368 266.992L80.2288 266.992L83.7008 261.21L84.3448 261.21L84.3448 268.518L83.7008 268.518L83.7008 262.05L83.8408 262.106L80.5228 267.58L80.2008 267.58L76.8688 262.064L77.0368 262.036L77.0368 268.518L76.3928 268.518ZM87.3713 268.518L87.3713 261.21L88.0713 261.21L88.0713 264.542L93.0273 264.542L93.0273 261.21L93.7273 261.21L93.7273 268.518L93.0273 268.518L93.0273 265.158L88.0713 265.158L88.0713 268.518L87.3713 268.518ZM99.6622 268.574C98.9622 268.574 98.3369 268.415 97.7862 268.098C97.2449 267.78 96.8109 267.342 96.4842 266.782C96.1669 266.222 96.0082 265.582 96.0082 264.864C96.0082 264.136 96.1669 263.496 96.4842 262.946C96.8109 262.386 97.2449 261.947 97.7862 261.63C98.3369 261.312 98.9622 261.154 99.6622 261.154C100.362 261.154 100.988 261.312 101.538 261.63C102.089 261.947 102.523 262.386 102.84 262.946C103.158 263.496 103.316 264.136 103.316 264.864C103.316 265.582 103.158 266.222 102.84 266.782C102.523 267.342 102.089 267.78 101.538 268.098C100.988 268.415 100.362 268.574 99.6622 268.574ZM99.6622 267.944C100.222 267.944 100.726 267.818 101.174 267.566C101.622 267.304 101.972 266.94 102.224 266.474C102.476 266.007 102.602 265.47 102.602 264.864C102.602 264.248 102.476 263.711 102.224 263.254C101.972 262.787 101.622 262.428 101.174 262.176C100.726 261.914 100.222 261.784 99.6622 261.784C99.1022 261.784 98.5982 261.914 98.1502 262.176C97.7116 262.428 97.3616 262.787 97.1002 263.254C96.8482 263.711 96.7222 264.248 96.7222 264.864C96.7222 265.47 96.8482 266.007 97.1002 266.474C97.3616 266.94 97.7116 267.304 98.1502 267.566C98.5982 267.818 99.1022 267.944 99.6622 267.944ZM105.596 268.518L105.596 261.21L110.594 261.21L110.594 261.84L106.1 261.84L106.296 261.644L106.296 268.518L105.596 268.518ZM114.66 268.574C113.96 268.574 113.335 268.415 112.784 268.098C112.243 267.78 111.809 267.342 111.482 266.782C111.165 266.222 111.006 265.582 111.006 264.864C111.006 264.136 111.165 263.496 111.482 262.946C111.809 262.386 112.243 261.947 112.784 261.63C113.335 261.312 113.96 261.154 114.66 261.154C115.36 261.154 115.986 261.312 116.536 261.63C117.087 261.947 117.521 262.386 117.838 262.946C118.156 263.496 118.314 264.136 118.314 264.864C118.314 265.582 118.156 266.222 117.838 266.782C117.521 267.342 117.087 267.78 116.536 268.098C115.986 268.415 115.36 268.574 114.66 268.574ZM114.66 267.944C115.22 267.944 115.724 267.818 116.172 267.566C116.62 267.304 116.97 266.94 117.222 266.474C117.474 266.007 117.6 265.47 117.6 264.864C117.6 264.248 117.474 263.711 117.222 263.254C116.97 262.787 116.62 262.428 116.172 262.176C115.724 261.914 115.22 261.784 114.66 261.784C114.1 261.784 113.596 261.914 113.148 262.176C112.71 262.428 112.36 262.787 112.098 263.254C111.846 263.711 111.72 264.248 111.72 264.864C111.72 265.47 111.846 266.007 112.098 266.474C112.36 266.94 112.71 267.304 113.148 267.566C113.596 267.818 114.1 267.944 114.66 267.944ZM129.58 268.518L126.444 264.864L127.032 264.528L130.42 268.518L129.58 268.518ZM124.19 268.518L124.19 261.21L124.89 261.21L124.89 268.518L124.19 268.518ZM124.666 265.13L124.666 264.528L126.962 264.528L126.962 265.13L124.666 265.13ZM127.074 264.934L126.43 264.822L129.426 261.21L130.196 261.21L127.074 264.934ZM132.147 268.518L132.147 261.21L132.847 261.21L132.847 267.44L138.055 261.21L138.671 261.21L138.671 268.518L137.971 268.518L137.971 262.288L132.763 268.518L132.147 268.518ZM141.69 268.518L141.69 261.21L142.39 261.21L142.39 264.542L147.346 264.542L147.346 261.21L148.046 261.21L148.046 268.518L147.346 268.518L147.346 265.158L142.39 265.158L142.39 268.518L141.69 268.518ZM153.981 268.574C153.281 268.574 152.655 268.415 152.105 268.098C151.563 267.78 151.129 267.342 150.803 266.782C150.485 266.222 150.327 265.582 150.327 264.864C150.327 264.136 150.485 263.496 150.803 262.946C151.129 262.386 151.563 261.947 152.105 261.63C152.655 261.312 153.281 261.154 153.981 261.154C154.681 261.154 155.306 261.312 155.857 261.63C156.407 261.947 156.841 262.386 157.159 262.946C157.476 263.496 157.635 264.136 157.635 264.864C157.635 265.582 157.476 266.222 157.159 266.782C156.841 267.342 156.407 267.78 155.857 268.098C155.306 268.415 154.681 268.574 153.981 268.574ZM153.981 267.944C154.541 267.944 155.045 267.818 155.493 267.566C155.941 267.304 156.291 266.94 156.543 266.474C156.795 266.007 156.921 265.47 156.921 264.864C156.921 264.248 156.795 263.711 156.543 263.254C156.291 262.787 155.941 262.428 155.493 262.176C155.045 261.914 154.541 261.784 153.981 261.784C153.421 261.784 152.917 261.914 152.469 262.176C152.03 262.428 151.68 262.787 151.419 263.254C151.167 263.711 151.041 264.248 151.041 264.864C151.041 265.47 151.167 266.007 151.419 266.474C151.68 266.94 152.03 267.304 152.469 267.566C152.917 267.818 153.421 267.944 153.981 267.944Z" fill="#4F6234"/>
<path d="M30.6248 225.735C29.9248 225.735 29.2994 225.576 28.7488 225.259C28.2074 224.941 27.7734 224.503 27.4468 223.943C27.1294 223.383 26.9708 222.743 26.9708 222.025C26.9708 221.297 27.1294 220.657 27.4468 220.107C27.7734 219.547 28.2074 219.108 28.7488 218.791C29.2994 218.473 29.9248 218.315 30.6248 218.315C31.3248 218.315 31.9501 218.473 32.5008 218.791C33.0514 219.108 33.4854 219.547 33.8028 220.107C34.1201 220.657 34.2788 221.297 34.2788 222.025C34.2788 222.743 34.1201 223.383 33.8028 223.943C33.4854 224.503 33.0514 224.941 32.5008 225.259C31.9501 225.576 31.3248 225.735 30.6248 225.735ZM30.6248 225.105C31.1848 225.105 31.6888 224.979 32.1368 224.727C32.5848 224.465 32.9348 224.101 33.1868 223.635C33.4388 223.168 33.5648 222.631 33.5648 222.025C33.5648 221.409 33.4388 220.872 33.1868 220.415C32.9348 219.948 32.5848 219.589 32.1368 219.337C31.6888 219.075 31.1848 218.945 30.6248 218.945C30.0648 218.945 29.5608 219.075 29.1128 219.337C28.6741 219.589 28.3241 219.948 28.0628 220.415C27.8108 220.872 27.6848 221.409 27.6848 222.025C27.6848 222.631 27.8108 223.168 28.0628 223.635C28.3241 224.101 28.6741 224.465 29.1128 224.727C29.5608 224.979 30.0648 225.105 30.6248 225.105ZM36.5585 225.679L36.5585 218.371L41.5565 218.371L41.5565 219.001L37.0625 219.001L37.2585 218.805L37.2585 225.679L36.5585 225.679ZM46.7346 225.735C46.0906 225.735 45.5073 225.585 44.9846 225.287C44.4713 224.988 44.0606 224.563 43.7526 224.013C43.454 223.453 43.3046 222.79 43.3046 222.025C43.3046 221.259 43.454 220.601 43.7526 220.051C44.0606 219.491 44.4713 219.061 44.9846 218.763C45.5073 218.464 46.0906 218.315 46.7346 218.315C47.4253 218.315 48.0413 218.473 48.5826 218.791C49.1333 219.099 49.5626 219.533 49.8706 220.093C50.188 220.653 50.3466 221.297 50.3466 222.025C50.3466 222.753 50.188 223.397 49.8706 223.957C49.5626 224.517 49.1333 224.955 48.5826 225.273C48.0413 225.581 47.4253 225.735 46.7346 225.735ZM43.0666 228.395L43.0666 218.371L43.7386 218.371L43.7386 220.765L43.6266 222.039L43.7666 223.313L43.7666 228.395L43.0666 228.395ZM46.6926 225.105C47.2526 225.105 47.7566 224.979 48.2046 224.727C48.6526 224.465 49.0026 224.101 49.2546 223.635C49.516 223.168 49.6466 222.631 49.6466 222.025C49.6466 221.409 49.516 220.872 49.2546 220.415C49.0026 219.948 48.6526 219.589 48.2046 219.337C47.7566 219.075 47.2526 218.945 46.6926 218.945C46.1326 218.945 45.6286 219.075 45.1806 219.337C44.742 219.589 44.392 219.948 44.1306 220.415C43.8786 220.872 43.7526 221.409 43.7526 222.025C43.7526 222.631 43.8786 223.168 44.1306 223.635C44.392 224.101 44.742 224.465 45.1806 224.727C45.6286 224.979 46.1326 225.105 46.6926 225.105ZM55.5349 225.735C54.8349 225.735 54.2096 225.576 53.6589 225.259C53.1176 224.941 52.6836 224.503 52.3569 223.943C52.0396 223.383 51.8809 222.743 51.8809 222.025C51.8809 221.297 52.0396 220.657 52.3569 220.107C52.6836 219.547 53.1176 219.108 53.6589 218.791C54.2096 218.473 54.8349 218.315 55.5349 218.315C56.2349 218.315 56.8603 218.473 57.4109 218.791C57.9616 219.108 58.3956 219.547 58.7129 220.107C59.0303 220.657 59.1889 221.297 59.1889 222.025C59.1889 222.743 59.0303 223.383 58.7129 223.943C58.3956 224.503 57.9616 224.941 57.4109 225.259C56.8603 225.576 56.2349 225.735 55.5349 225.735ZM55.5349 225.105C56.0949 225.105 56.5989 224.979 57.0469 224.727C57.4949 224.465 57.8449 224.101 58.0969 223.635C58.3489 223.168 58.4749 222.631 58.4749 222.025C58.4749 221.409 58.3489 220.872 58.0969 220.415C57.8449 219.948 57.4949 219.589 57.0469 219.337C56.5989 219.075 56.0949 218.945 55.5349 218.945C54.9749 218.945 54.4709 219.075 54.0229 219.337C53.5843 219.589 53.2343 219.948 52.9729 220.415C52.7209 220.872 52.5949 221.409 52.5949 222.025C52.5949 222.631 52.7209 223.168 52.9729 223.635C53.2343 224.101 53.5843 224.465 54.0229 224.727C54.4709 224.979 54.9749 225.105 55.5349 225.105ZM61.4686 225.679L61.4686 218.371L62.1546 218.371L65.6126 224.153L65.3046 224.153L68.7766 218.371L69.4206 218.371L69.4206 225.679L68.7766 225.679L68.7766 219.211L68.9166 219.267L65.5986 224.741L65.2766 224.741L61.9446 219.225L62.1126 219.197L62.1126 225.679L61.4686 225.679ZM72.4471 225.679L72.4471 218.371L73.1471 218.371L73.1471 221.703L78.1031 221.703L78.1031 218.371L78.8031 218.371L78.8031 225.679L78.1031 225.679L78.1031 222.319L73.1471 222.319L73.1471 225.679L72.4471 225.679ZM84.7381 225.735C84.0381 225.735 83.4127 225.576 82.8621 225.259C82.3207 224.941 81.8867 224.503 81.5601 223.943C81.2427 223.383 81.0841 222.743 81.0841 222.025C81.0841 221.297 81.2427 220.657 81.5601 220.107C81.8867 219.547 82.3207 219.108 82.8621 218.791C83.4127 218.473 84.0381 218.315 84.7381 218.315C85.4381 218.315 86.0634 218.473 86.6141 218.791C87.1647 219.108 87.5987 219.547 87.9161 220.107C88.2334 220.657 88.3921 221.297 88.3921 222.025C88.3921 222.743 88.2334 223.383 87.9161 223.943C87.5987 224.503 87.1647 224.941 86.6141 225.259C86.0634 225.576 85.4381 225.735 84.7381 225.735ZM84.7381 225.105C85.2981 225.105 85.8021 224.979 86.2501 224.727C86.6981 224.465 87.0481 224.101 87.3001 223.635C87.5521 223.168 87.6781 222.631 87.6781 222.025C87.6781 221.409 87.5521 220.872 87.3001 220.415C87.0481 219.948 86.6981 219.589 86.2501 219.337C85.8021 219.075 85.2981 218.945 84.7381 218.945C84.1781 218.945 83.6741 219.075 83.2261 219.337C82.7874 219.589 82.4374 219.948 82.1761 220.415C81.9241 220.872 81.7981 221.409 81.7981 222.025C81.7981 222.631 81.9241 223.168 82.1761 223.635C82.4374 224.101 82.7874 224.465 83.2261 224.727C83.6741 224.979 84.1781 225.105 84.7381 225.105ZM93.6958 225.735C92.9584 225.735 92.3051 225.576 91.7358 225.259C91.1758 224.941 90.7324 224.503 90.4058 223.943C90.0884 223.383 89.9298 222.743 89.9298 222.025C89.9298 221.297 90.0791 220.657 90.3778 220.107C90.6858 219.547 91.1058 219.108 91.6378 218.791C92.1698 218.473 92.7671 218.315 93.4298 218.315C94.0924 218.315 94.6851 218.469 95.2078 218.777C95.7398 219.085 96.1551 219.519 96.4538 220.079C96.7618 220.629 96.9158 221.269 96.9158 221.997C96.9158 222.025 96.9111 222.057 96.9018 222.095C96.9018 222.123 96.9018 222.155 96.9018 222.193L90.4478 222.193L90.4478 221.647L96.5238 221.647L96.2438 221.913C96.2531 221.343 96.1318 220.835 95.8798 220.387C95.6371 219.929 95.3058 219.575 94.8858 219.323C94.4658 219.061 93.9804 218.931 93.4298 218.931C92.8884 218.931 92.4031 219.061 91.9738 219.323C91.5538 219.575 91.2224 219.929 90.9798 220.387C90.7371 220.835 90.6158 221.348 90.6158 221.927L90.6158 222.053C90.6158 222.65 90.7464 223.182 91.0078 223.649C91.2784 224.106 91.6471 224.465 92.1138 224.727C92.5804 224.979 93.1124 225.105 93.7098 225.105C94.1764 225.105 94.6104 225.021 95.0118 224.853C95.4224 224.685 95.7678 224.428 96.0478 224.083L96.4538 224.545C96.1364 224.937 95.7351 225.235 95.2498 225.441C94.7738 225.637 94.2558 225.735 93.6958 225.735ZM108.189 225.679L105.053 222.025L105.641 221.689L109.029 225.679L108.189 225.679ZM102.799 225.679L102.799 218.371L103.499 218.371L103.499 225.679L102.799 225.679ZM103.275 222.291L103.275 221.689L105.571 221.689L105.571 222.291L103.275 222.291ZM105.683 222.095L105.039 221.983L108.035 218.371L108.805 218.371L105.683 222.095ZM113.408 225.735C112.708 225.735 112.083 225.576 111.532 225.259C110.991 224.941 110.557 224.503 110.23 223.943C109.913 223.383 109.754 222.743 109.754 222.025C109.754 221.297 109.913 220.657 110.23 220.107C110.557 219.547 110.991 219.108 111.532 218.791C112.083 218.473 112.708 218.315 113.408 218.315C114.108 218.315 114.733 218.473 115.284 218.791C115.835 219.108 116.269 219.547 116.586 220.107C116.903 220.657 117.062 221.297 117.062 222.025C117.062 222.743 116.903 223.383 116.586 223.943C116.269 224.503 115.835 224.941 115.284 225.259C114.733 225.576 114.108 225.735 113.408 225.735ZM113.408 225.105C113.968 225.105 114.472 224.979 114.92 224.727C115.368 224.465 115.718 224.101 115.97 223.635C116.222 223.168 116.348 222.631 116.348 222.025C116.348 221.409 116.222 220.872 115.97 220.415C115.718 219.948 115.368 219.589 114.92 219.337C114.472 219.075 113.968 218.945 113.408 218.945C112.848 218.945 112.344 219.075 111.896 219.337C111.457 219.589 111.107 219.948 110.846 220.415C110.594 220.872 110.468 221.409 110.468 222.025C110.468 222.631 110.594 223.168 110.846 223.635C111.107 224.101 111.457 224.465 111.896 224.727C112.344 224.979 112.848 225.105 113.408 225.105ZM119.342 225.679L119.342 218.371L120.028 218.371L123.486 224.153L123.178 224.153L126.65 218.371L127.294 218.371L127.294 225.679L126.65 225.679L126.65 219.211L126.79 219.267L123.472 224.741L123.15 224.741L119.818 219.225L119.986 219.197L119.986 225.679L119.342 225.679ZM133.246 221.031C134.152 221.04 134.842 221.241 135.318 221.633C135.794 222.015 136.032 222.58 136.032 223.327C136.032 224.101 135.78 224.694 135.276 225.105C134.772 225.515 134.04 225.716 133.078 225.707L130.32 225.679L130.32 218.371L131.02 218.371L131.02 221.003L133.246 221.031ZM133.064 225.147C133.811 225.156 134.371 225.007 134.744 224.699C135.127 224.391 135.318 223.933 135.318 223.327C135.318 222.739 135.132 222.3 134.758 222.011C134.385 221.721 133.82 221.572 133.064 221.563L131.02 221.549L131.02 225.119L133.064 225.147ZM138.058 225.679L138.058 218.371L138.758 218.371L138.758 221.647L140.998 221.647L140.998 222.291L138.758 222.291L138.758 225.679L138.058 225.679ZM144.176 225.735C143.495 225.735 142.884 225.576 142.342 225.259C141.801 224.941 141.376 224.503 141.068 223.943C140.76 223.383 140.606 222.743 140.606 222.025C140.606 221.297 140.76 220.657 141.068 220.107C141.376 219.547 141.801 219.108 142.342 218.791C142.884 218.473 143.495 218.315 144.176 218.315C144.867 218.315 145.478 218.473 146.01 218.791C146.552 219.108 146.976 219.547 147.284 220.107C147.592 220.657 147.746 221.297 147.746 222.025C147.746 222.743 147.592 223.383 147.284 223.943C146.976 224.503 146.552 224.941 146.01 225.259C145.478 225.576 144.867 225.735 144.176 225.735ZM144.176 225.119C144.727 225.119 145.217 224.988 145.646 224.727C146.085 224.465 146.426 224.101 146.668 223.635C146.92 223.168 147.046 222.631 147.046 222.025C147.046 221.409 146.92 220.872 146.668 220.415C146.426 219.948 146.085 219.589 145.646 219.337C145.217 219.075 144.727 218.945 144.176 218.945C143.635 218.945 143.145 219.075 142.706 219.337C142.268 219.589 141.922 219.948 141.67 220.415C141.428 220.872 141.306 221.409 141.306 222.025C141.306 222.631 141.428 223.168 141.67 223.635C141.922 224.101 142.268 224.465 142.706 224.727C143.145 224.988 143.635 225.119 144.176 225.119ZM150.049 225.679L150.049 218.371L150.749 218.371L150.749 221.703L155.705 221.703L155.705 218.371L156.405 218.371L156.405 225.679L155.705 225.679L155.705 222.319L150.749 222.319L150.749 225.679L150.049 225.679ZM159.428 225.679L159.428 218.371L160.128 218.371L160.128 224.601L165.336 218.371L165.952 218.371L165.952 225.679L165.252 225.679L165.252 219.449L160.044 225.679L159.428 225.679ZM170.301 225.679L170.301 218.791L170.497 219.001L167.445 219.001L167.445 218.371L173.857 218.371L173.857 219.001L170.805 219.001L171.001 218.791L171.001 225.679L170.301 225.679ZM175.355 225.679L175.355 218.371L176.055 218.371L176.055 224.601L181.263 218.371L181.879 218.371L181.879 225.679L181.179 225.679L181.179 219.449L175.971 225.679L175.355 225.679Z" fill="#4F6234"/>
</svg>
