<svg width="294" height="414" viewBox="0 0 294 414" fill="none" xmlns="http://www.w3.org/2000/svg">
<path d="M5.58049 97.9295C-8.91884 111.704 9.56795 115.691 9.56795 115.691L261.133 106.992C261.133 106.992 266.265 113.804 270.558 112.429C276.72 109.529 278.181 101.549 279.257 98.6547C281.379 92.9476 274.908 88.5051 269.47 89.2301C265.064 89.8175 266.869 85.1579 262.946 83.0678C259.412 81.1851 252.706 86.4859 250.621 83.0678C248.536 79.6497 252.434 77.268 252.434 72.9182C252.434 70.2191 247.359 64.2185 241.921 63.1311C232.134 64.581 231.772 59.1437 226.697 59.1437C218.627 59.1437 216.166 63.1286 214.372 62.0436C212.579 60.9587 215.46 57.6938 211.835 54.0689C202.048 54.0689 203.498 49.3566 196.973 49.3566C191.019 49.3566 190.811 58.3208 188.273 57.6938C184.188 56.6841 183.935 53.289 180.299 51.1689C174.567 47.8265 168.954 52.4317 165.437 51.1689C161.919 49.9061 166.524 45.3692 163.987 42.1069C160.702 37.8829 153.966 33.2462 148.763 34.4944C142.205 36.0672 140.083 44.454 133.538 42.8313C126.638 41.1205 125.563 50.5587 115.776 42.8313C113.089 40.7096 109.113 45.3212 105.989 43.9188C102.271 42.2492 100.92 42.0133 96.927 42.8313C91.6572 43.9108 94.3353 49.1134 89.3149 47.1815C85.0851 45.5539 82.7901 38.5145 74.0904 39.5687C62.1283 41.0184 66.7492 47.9833 63.9408 51.1689C61.1324 54.3545 64.5624 58.1088 60.316 58.056C56.9994 58.0148 54.6333 52.547 51.6163 51.1689C46.8521 48.9926 47.0669 54.4312 41.8292 54.4312C34.5795 54.4312 30.153 56.4489 29.5047 63.1308C28.841 69.9713 39.8016 82.8524 34.942 77.9927C32.767 75.8178 28.8644 74.302 24.0674 73.6429C19.0187 72.9492 20.08 77.5266 11.7429 78.7177C3.40569 79.9089 5.58049 97.9295 5.58049 97.9295Z" fill="#FFD17C"/>
<path d="M186.461 28.7212C186.461 26.9604 188.318 23.797 189.533 23.4721C190.594 23.1884 193.36 22.4945 194.294 21.7226C195.902 20.393 193.973 20.6311 195.215 18.6606C196.284 16.9645 197.993 15.8652 199.208 17.3483C200.283 18.6606 199.908 21.7605 200.744 23.4721C201.951 25.942 201.359 30.6895 199.208 31.7831C198.045 32.3746 196.905 32.6579 196.905 34.4077C196.905 36.8847 193.219 38.5631 191.529 38.5631C189.96 38.5631 189.533 35.2825 187.69 33.5328C186.941 32.8221 186.461 29.8147 186.461 28.7212Z" fill="#FFD17C"/>
<path d="M217.671 4.47873C218.237 3.82531 221.05 4.20743 222.331 5.10552C223.448 5.88966 226.348 7.95103 227.5 8.44715C229.483 9.30157 227.541 7.77346 229.376 8.08326C230.956 8.34992 232.963 9.37451 233.662 10.9435C234.28 12.3317 232.92 13.1673 233.179 14.5034C233.553 16.4315 231.453 17.6968 229.021 16.3002C227.706 15.5448 226.511 14.6938 225.948 15.3431C225.152 16.2623 221.046 13.7955 219.411 12.3794C217.892 11.0635 218.534 9.48833 217.313 7.29416C216.817 6.40296 217.319 4.88453 217.671 4.47873Z" fill="#FFD17C"/>
<path d="M57.8761 392.692L12.9279 107.778C19.4526 92.5513 36.127 102.338 36.127 107.778C36.127 107.778 43.7392 96.9006 54.2513 107.778C54.2513 107.778 66.2133 95.4511 77.4504 107.778C77.4504 107.778 85.0626 100.163 97.0246 107.778C97.0246 107.778 109.712 100.163 118.774 107.778C118.774 107.778 129.648 100.888 139.073 107.778C139.073 107.778 148.86 100.888 158.647 107.778C158.647 107.778 169.159 98.7135 181.121 107.778C181.121 107.778 191.633 97.2636 203.595 107.778C203.595 107.778 212.295 97.6261 221.72 107.778C221.72 107.778 233.319 94.7262 244.919 107.778C244.919 107.778 254.706 95.4511 265.943 107.778L221.72 392.692H57.8761Z" fill="#4F6234"/>
<path d="M206.619 389.168C206.619 385.966 210.987 380.215 213.846 379.624C216.343 379.108 222.852 377.847 225.049 376.443C228.832 374.026 224.295 374.459 227.217 370.876C229.732 367.792 233.753 365.793 236.612 368.49C239.142 370.876 238.258 376.512 240.226 379.624C243.065 384.115 241.672 392.747 236.612 394.735C233.876 395.811 231.192 396.326 231.192 399.507C231.192 404.011 222.519 407.062 218.544 407.062C214.851 407.062 213.846 401.098 209.51 397.916C207.749 396.624 206.619 391.156 206.619 389.168Z" fill="#FFD17C"/>
<path d="M273.935 379.925C275.522 379.092 279.508 379.76 280.544 381.023C281.449 382.126 283.768 385.023 285.035 385.746C287.217 386.992 285.822 384.856 288.357 385.372C290.539 385.816 292.576 387.288 291.984 389.407C291.459 391.281 288.437 392.309 287.407 394.094C285.92 396.669 281.281 398.224 278.98 396.234C277.735 395.158 276.781 393.962 275.205 394.79C272.974 395.961 269.205 392.458 268.171 390.489C267.21 388.659 269.905 386.609 270.353 383.633C270.535 382.424 272.95 380.442 273.935 379.925Z" fill="#FFD17C"/>
<path d="M246.988 397.545C247.913 396.926 250.634 397.393 251.497 398.314C252.251 399.117 254.192 401.228 255.13 401.752C256.745 402.653 255.521 401.095 257.265 401.459C258.765 401.773 260.317 402.841 260.23 404.397C260.153 405.774 258.31 406.545 257.887 407.859C257.276 409.756 254.443 410.921 252.643 409.475C251.669 408.693 250.87 407.822 249.951 408.437C248.649 409.309 245.666 406.761 244.703 405.323C243.809 403.986 245.29 402.469 245.159 400.284C245.106 399.397 246.413 397.93 246.988 397.545Z" fill="#FFD17C"/>
<line opacity="0.4" x1="36.1508" y1="106.001" x2="66.8259" y2="392.594" stroke="#FFD17C" stroke-width="0.876431"/>
<line opacity="0.4" y1="-0.438216" x2="288.23" y2="-0.438216" transform="matrix(-0.106426 0.994321 0.994321 0.106426 246.059 106.048)" stroke="#FFD17C" stroke-width="0.876431"/>
<line opacity="0.4" x1="221.956" y1="106.079" x2="201.798" y2="392.672" stroke="#FFD17C" stroke-width="0.876431"/>
<line opacity="0.4" x1="202.675" y1="106.068" x2="189.528" y2="392.661" stroke="#FFD17C" stroke-width="0.876431"/>
<line opacity="0.4" x1="180.764" y1="106.057" x2="174.629" y2="392.65" stroke="#FFD17C" stroke-width="0.876431"/>
<line opacity="0.4" x1="157.967" y1="106.048" x2="157.977" y2="392.641" stroke="#FFD17C" stroke-width="0.876431"/>
<line opacity="0.4" x1="138.696" y1="106.045" x2="140.459" y2="392.638" stroke="#FFD17C" stroke-width="0.876431"/>
<line opacity="0.4" x1="118.538" y1="106.041" x2="122.92" y2="392.634" stroke="#FFD17C" stroke-width="0.876431"/>
<line opacity="0.4" x1="96.6269" y1="106.034" x2="105.391" y2="393.504" stroke="#FFD17C" stroke-width="0.876431"/>
<line opacity="0.4" x1="54.557" y1="105.137" x2="77.3442" y2="392.607" stroke="#FFD17C" stroke-width="0.876431"/>
<line opacity="0.4" x1="77.3452" y1="106.029" x2="89.6153" y2="392.622" stroke="#FFD17C" stroke-width="0.876431"/>
<path d="M66.8747 224.219C64.8389 224.219 63.0253 223.809 61.4341 222.99C59.8428 222.148 58.5909 220.989 57.6783 219.515C56.789 218.041 56.3444 216.368 56.3444 214.496C56.3444 212.6 56.789 210.927 57.6783 209.476C58.5909 208.002 59.8428 206.855 61.4341 206.036C63.0253 205.194 64.8389 204.773 66.8747 204.773C68.8638 204.773 70.5954 205.194 72.0697 206.036C73.5439 206.855 74.6321 208.037 75.3341 209.582L71.0869 211.863C70.5954 210.974 69.9753 210.319 69.2265 209.898C68.5011 209.476 67.7055 209.266 66.8396 209.266C65.9036 209.266 65.0612 209.476 64.3124 209.898C63.5635 210.319 62.9668 210.915 62.5222 211.688C62.101 212.46 61.8904 213.396 61.8904 214.496C61.8904 215.596 62.101 216.532 62.5222 217.304C62.9668 218.076 63.5635 218.673 64.3124 219.094C65.0612 219.515 65.9036 219.726 66.8396 219.726C67.7055 219.726 68.5011 219.527 69.2265 219.129C69.9753 218.708 70.5954 218.041 71.0869 217.128L75.3341 219.445C74.6321 220.966 73.5439 222.148 72.0697 222.99C70.5954 223.809 68.8638 224.219 66.8747 224.219ZM75.9662 223.903L76.247 219.41C76.3874 219.433 76.5278 219.457 76.6682 219.48C76.8086 219.48 76.9373 219.48 77.0543 219.48C77.7095 219.48 78.2244 219.293 78.5988 218.919C78.9732 218.544 79.254 218.041 79.4412 217.409C79.6284 216.754 79.7571 216.017 79.8273 215.198C79.9209 214.379 79.9911 213.525 80.0379 212.635L80.3187 205.054H96.4652V223.938H90.9894V208.213L92.218 209.547H83.9341L85.0925 208.143L84.8468 212.881C84.7766 214.566 84.6362 216.11 84.4255 217.514C84.2383 218.919 83.9224 220.135 83.4778 221.165C83.0332 222.171 82.4365 222.955 81.6877 223.517C80.9388 224.055 79.9794 224.324 78.8094 224.324C78.3882 224.324 77.9435 224.289 77.4755 224.219C77.0075 224.149 76.5044 224.043 75.9662 223.903ZM113.033 223.938V220.252L112.682 219.445V212.846C112.682 211.676 112.32 210.763 111.594 210.108C110.892 209.453 109.804 209.125 108.33 209.125C107.324 209.125 106.329 209.289 105.346 209.617C104.387 209.921 103.568 210.342 102.889 210.88L100.924 207.054C101.953 206.329 103.193 205.767 104.644 205.37C106.095 204.972 107.569 204.773 109.067 204.773C111.945 204.773 114.18 205.451 115.771 206.809C117.363 208.166 118.158 210.284 118.158 213.162V223.938H113.033ZM107.277 224.219C105.803 224.219 104.539 223.973 103.486 223.482C102.433 222.967 101.626 222.277 101.064 221.411C100.502 220.545 100.222 219.574 100.222 218.497C100.222 217.374 100.491 216.391 101.029 215.549C101.591 214.706 102.468 214.051 103.661 213.583C104.855 213.092 106.411 212.846 108.33 212.846H113.349V216.04H108.927C107.64 216.04 106.75 216.251 106.259 216.672C105.791 217.093 105.557 217.62 105.557 218.252C105.557 218.954 105.826 219.515 106.364 219.936C106.926 220.334 107.686 220.533 108.646 220.533C109.558 220.533 110.377 220.323 111.103 219.901C111.828 219.457 112.355 218.813 112.682 217.971L113.525 220.498C113.127 221.715 112.402 222.639 111.349 223.271C110.296 223.903 108.938 224.219 107.277 224.219ZM135.902 221.481V209.547H129.725L129.619 211.969C129.572 212.975 129.514 213.934 129.444 214.847C129.374 215.759 129.233 216.59 129.023 217.339C128.835 218.064 128.555 218.685 128.18 219.199C127.806 219.691 127.303 220.03 126.671 220.217L121.265 219.445C121.944 219.445 122.494 219.246 122.915 218.848C123.336 218.427 123.664 217.854 123.898 217.128C124.132 216.38 124.307 215.537 124.424 214.601C124.541 213.642 124.623 212.635 124.67 211.582L124.916 205.054H141.378V221.481H135.902ZM120.633 228.01V219.445H144.081V228.01H138.991V223.938H125.723V228.01H120.633ZM160.9 223.938L154.582 214.987L159.04 212.355L167.359 223.938H160.9ZM147.527 223.938V205.054H153.003V223.938H147.527ZM151.388 216.777V212.39H157.987V216.777H151.388ZM159.567 215.128L154.442 214.566L161.076 205.054H166.903L159.567 215.128ZM170.048 223.938V205.054H175.488V216.286L184.685 205.054H189.704V223.938H184.264V212.706L175.102 223.938H170.048ZM194.968 223.938V205.054H200.409V216.286L209.605 205.054H214.625V223.938H209.184V212.706L200.023 223.938H194.968ZM204.445 203.018C202.386 203.018 200.842 202.573 199.812 201.684C198.782 200.771 198.256 199.402 198.233 197.577H201.813C201.836 198.373 202.059 199.005 202.48 199.473C202.901 199.941 203.545 200.175 204.41 200.175C205.253 200.175 205.896 199.941 206.341 199.473C206.809 199.005 207.043 198.373 207.043 197.577H210.693C210.693 199.402 210.167 200.771 209.114 201.684C208.061 202.573 206.505 203.018 204.445 203.018ZM61.5224 262.938V244.054H80.3014V262.938H74.8257V247.318L76.0542 248.547H65.7345L66.963 247.318V262.938H61.5224ZM94.397 263.219C92.3845 263.219 90.5944 262.798 89.0265 261.955C87.4821 261.113 86.2535 259.966 85.3409 258.515C84.4517 257.041 84.0071 255.368 84.0071 253.496C84.0071 251.6 84.4517 249.927 85.3409 248.476C86.2535 247.002 87.4821 245.855 89.0265 245.036C90.5944 244.194 92.3845 243.773 94.397 243.773C96.386 243.773 98.1645 244.194 99.7323 245.036C101.3 245.855 102.529 246.99 103.418 248.441C104.307 249.892 104.752 251.577 104.752 253.496C104.752 255.368 104.307 257.041 103.418 258.515C102.529 259.966 101.3 261.113 99.7323 261.955C98.1645 262.798 96.386 263.219 94.397 263.219ZM94.397 258.726C95.3096 258.726 96.1286 258.515 96.8541 258.094C97.5795 257.673 98.1528 257.076 98.574 256.304C98.9952 255.508 99.2058 254.572 99.2058 253.496C99.2058 252.396 98.9952 251.46 98.574 250.688C98.1528 249.915 97.5795 249.319 96.8541 248.898C96.1286 248.476 95.3096 248.266 94.397 248.266C93.4844 248.266 92.6653 248.476 91.9399 248.898C91.2145 249.319 90.6295 249.915 90.1849 250.688C89.7636 251.46 89.553 252.396 89.553 253.496C89.553 254.572 89.7636 255.508 90.1849 256.304C90.6295 257.076 91.2145 257.673 91.9399 258.094C92.6653 258.515 93.4844 258.726 94.397 258.726ZM108.518 262.938V244.054H127.297V262.938H121.821V247.318L123.05 248.547H112.73L113.959 247.318V262.938H108.518ZM145.921 262.938L139.603 253.987L144.06 251.355L152.379 262.938H145.921ZM132.547 262.938V244.054H138.023V262.938H132.547ZM136.408 255.777V251.39H143.007V255.777H136.408ZM144.587 254.128L139.462 253.566L146.096 244.054H151.923L144.587 254.128ZM163.331 263.219C161.318 263.219 159.528 262.798 157.96 261.955C156.416 261.113 155.187 259.966 154.275 258.515C153.386 257.041 152.941 255.368 152.941 253.496C152.941 251.6 153.386 249.927 154.275 248.476C155.187 247.002 156.416 245.855 157.96 245.036C159.528 244.194 161.318 243.773 163.331 243.773C165.32 243.773 167.098 244.194 168.666 245.036C170.234 245.855 171.463 246.99 172.352 248.441C173.241 249.892 173.686 251.577 173.686 253.496C173.686 255.368 173.241 257.041 172.352 258.515C171.463 259.966 170.234 261.113 168.666 261.955C167.098 262.798 165.32 263.219 163.331 263.219ZM163.331 258.726C164.243 258.726 165.062 258.515 165.788 258.094C166.513 257.673 167.087 257.076 167.508 256.304C167.929 255.508 168.14 254.572 168.14 253.496C168.14 252.396 167.929 251.46 167.508 250.688C167.087 249.915 166.513 249.319 165.788 248.898C165.062 248.476 164.243 248.266 163.331 248.266C162.418 248.266 161.599 248.476 160.874 248.898C160.148 249.319 159.563 249.915 159.119 250.688C158.697 251.46 158.487 252.396 158.487 253.496C158.487 254.572 158.697 255.508 159.119 256.304C159.563 257.076 160.148 257.673 160.874 258.094C161.599 258.515 162.418 258.726 163.331 258.726ZM188.579 263.219C186.988 263.219 185.595 262.868 184.402 262.166C183.208 261.464 182.272 260.399 181.594 258.972C180.939 257.521 180.611 255.695 180.611 253.496C180.611 251.273 180.927 249.447 181.559 248.02C182.191 246.593 183.103 245.528 184.297 244.826C185.49 244.124 186.917 243.773 188.579 243.773C190.357 243.773 191.949 244.182 193.353 245.001C194.78 245.797 195.903 246.92 196.722 248.371C197.565 249.822 197.986 251.53 197.986 253.496C197.986 255.485 197.565 257.205 196.722 258.656C195.903 260.106 194.78 261.23 193.353 262.025C191.949 262.821 190.357 263.219 188.579 263.219ZM177.417 269.748V244.054H182.647V247.915L182.542 253.531L182.893 259.112V269.748H177.417ZM187.631 258.726C188.544 258.726 189.351 258.515 190.053 258.094C190.779 257.673 191.352 257.076 191.773 256.304C192.218 255.508 192.44 254.572 192.44 253.496C192.44 252.396 192.218 251.46 191.773 250.688C191.352 249.915 190.779 249.319 190.053 248.898C189.351 248.476 188.544 248.266 187.631 248.266C186.719 248.266 185.9 248.476 185.174 248.898C184.449 249.319 183.875 249.915 183.454 250.688C183.033 251.46 182.822 252.396 182.822 253.496C182.822 254.572 183.033 255.508 183.454 256.304C183.875 257.076 184.449 257.673 185.174 258.094C185.9 258.515 186.719 258.726 187.631 258.726ZM201.824 262.938V244.054H207.264V251.425H215.478V244.054H220.954V262.938H215.478V255.883H207.264V262.938H201.824Z" fill="#FFFEFD"/>
</svg>
