<svg width="1260" height="252" viewBox="0 0 1260 252" fill="none" xmlns="http://www.w3.org/2000/svg">
<g filter="url(#filter0_f_232_4194)">
<circle cx="36.0293" cy="36" r="21" fill="#FFD17C"/>
</g>
<path d="M92.6133 56V25.648H103.197V36.904H114.117V25.648H124.757V56H114.117V45.36H103.197V56H92.6133ZM146.886 56.504C143.563 56.504 140.614 55.832 138.038 54.488C135.462 53.144 133.427 51.296 131.934 48.944C130.478 46.5547 129.75 43.8293 129.75 40.768C129.75 37.7067 130.478 35 131.934 32.648C133.427 30.296 135.462 28.4667 138.038 27.16C140.614 25.816 143.563 25.144 146.886 25.144C150.208 25.144 153.158 25.816 155.734 27.16C158.347 28.4667 160.382 30.296 161.838 32.648C163.294 35 164.022 37.7067 164.022 40.768C164.022 43.8293 163.294 46.5547 161.838 48.944C160.382 51.296 158.347 53.144 155.734 54.488C153.158 55.832 150.208 56.504 146.886 56.504ZM146.886 48.048C148.118 48.048 149.2 47.768 150.134 47.208C151.104 46.648 151.87 45.8267 152.43 44.744C152.99 43.624 153.27 42.2987 153.27 40.768C153.27 39.2373 152.99 37.9493 152.43 36.904C151.87 35.8213 151.104 35 150.134 34.44C149.2 33.88 148.118 33.6 146.886 33.6C145.691 33.6 144.608 33.88 143.638 34.44C142.704 35 141.939 35.8213 141.342 36.904C140.782 37.9493 140.502 39.2373 140.502 40.768C140.502 42.2987 140.782 43.624 141.342 44.744C141.939 45.8267 142.704 46.648 143.638 47.208C144.608 47.768 145.691 48.048 146.886 48.048ZM184.244 56.504C180.884 56.504 177.878 55.832 175.228 54.488C172.614 53.144 170.561 51.296 169.068 48.944C167.574 46.5547 166.828 43.8293 166.828 40.768C166.828 37.7067 167.574 35 169.068 32.648C170.561 30.296 172.614 28.4667 175.228 27.16C177.878 25.816 180.884 25.144 184.244 25.144C187.678 25.144 190.646 25.872 193.148 27.328C195.649 28.784 197.422 30.8373 198.468 33.488L190.236 37.688C189.526 36.2693 188.649 35.2427 187.604 34.608C186.558 33.936 185.42 33.6 184.188 33.6C182.956 33.6 181.836 33.88 180.828 34.44C179.82 35 179.017 35.8213 178.42 36.904C177.86 37.9493 177.58 39.2373 177.58 40.768C177.58 42.336 177.86 43.6613 178.42 44.744C179.017 45.8267 179.82 46.648 180.828 47.208C181.836 47.768 182.956 48.048 184.188 48.048C185.42 48.048 186.558 47.7307 187.604 47.096C188.649 46.424 189.526 45.3787 190.236 43.96L198.468 48.16C197.422 50.8107 195.649 52.864 193.148 54.32C190.646 55.776 187.678 56.504 184.244 56.504ZM209.803 56V31.752L212.099 34.104H200.003V25.648H230.131V34.104H218.035L220.387 31.752V56H209.803ZM252.23 56V50.344L251.502 48.944V38.528C251.502 36.848 250.979 35.56 249.934 34.664C248.926 33.7307 247.302 33.264 245.062 33.264C243.606 33.264 242.131 33.5067 240.638 33.992C239.145 34.44 237.875 35.0747 236.83 35.896L233.246 28.672C234.963 27.552 237.017 26.6933 239.406 26.096C241.833 25.4613 244.241 25.144 246.63 25.144C251.558 25.144 255.366 26.2827 258.054 28.56C260.779 30.8 262.142 34.328 262.142 39.144V56H252.23ZM243.27 56.504C240.843 56.504 238.79 56.0933 237.11 55.272C235.43 54.4507 234.142 53.3307 233.246 51.912C232.387 50.4933 231.958 48.9067 231.958 47.152C231.958 45.2853 232.425 43.68 233.358 42.336C234.329 40.9547 235.803 39.9093 237.782 39.2C239.761 38.4533 242.318 38.08 245.454 38.08H252.622V43.624H246.91C245.193 43.624 243.979 43.904 243.27 44.464C242.598 45.024 242.262 45.7707 242.262 46.704C242.262 47.6373 242.617 48.384 243.326 48.944C244.035 49.504 245.006 49.784 246.238 49.784C247.395 49.784 248.441 49.504 249.374 48.944C250.345 48.3467 251.054 47.4507 251.502 46.256L252.958 50.176C252.398 52.2667 251.297 53.8533 249.654 54.936C248.049 55.9813 245.921 56.504 243.27 56.504ZM265.463 56L265.911 47.32C266.172 47.3573 266.415 47.3947 266.639 47.432C266.863 47.432 267.068 47.432 267.255 47.432C268.188 47.432 268.916 47.208 269.439 46.76C269.999 46.2747 270.41 45.6213 270.671 44.8C270.97 43.9787 271.175 43.0267 271.287 41.944C271.436 40.824 271.53 39.6107 271.567 38.304L272.015 25.648H299.455V56H288.815V31.696L291.167 34.104H279.015L281.255 31.584L280.919 38.752C280.807 41.4773 280.564 43.96 280.191 46.2C279.855 48.4027 279.314 50.288 278.567 51.856C277.82 53.424 276.794 54.6373 275.487 55.496C274.218 56.3173 272.594 56.728 270.615 56.728C269.906 56.728 269.103 56.6533 268.207 56.504C267.348 56.392 266.434 56.224 265.463 56ZM324.413 35.056C328.445 35.0933 331.525 35.9893 333.653 37.744C335.781 39.4987 336.845 42 336.845 45.248C336.845 48.608 335.613 51.2587 333.149 53.2C330.723 55.104 327.363 56.0373 323.069 56H306.605V25.648H317.189V35.056H324.413ZM322.005 48.72C323.275 48.72 324.264 48.4213 324.973 47.824C325.683 47.2267 326.037 46.312 326.037 45.08C326.037 43.8107 325.683 42.9147 324.973 42.392C324.301 41.8693 323.312 41.5893 322.005 41.552H317.189V48.664L322.005 48.72ZM341.387 56V25.648H366.811V34.104H349.675L351.971 31.808V56H341.387ZM370.973 56V25.648H381.557V41.552L394.269 25.648H404.069V56H393.429V40.04L380.829 56H370.973ZM430.431 44.8C429.385 45.4347 428.172 45.9573 426.791 46.368C425.409 46.7413 423.804 46.928 421.975 46.928C417.756 46.928 414.564 45.9947 412.399 44.128C410.271 42.224 409.207 39.2 409.207 35.056V25.648H419.847V34.328C419.847 36.0453 420.239 37.2587 421.023 37.968C421.807 38.6773 422.945 39.032 424.439 39.032C425.596 39.032 426.66 38.9013 427.631 38.64C428.639 38.3413 429.553 37.9493 430.375 37.464L430.431 44.8ZM429.703 56V25.648H440.287V56H429.703ZM463.104 56.504C459.52 56.504 456.384 55.832 453.696 54.488C451.046 53.1067 448.974 51.24 447.48 48.888C446.024 46.4987 445.296 43.792 445.296 40.768C445.296 37.744 446.006 35.056 447.424 32.704C448.88 30.3147 450.878 28.4667 453.416 27.16C455.955 25.816 458.811 25.144 461.984 25.144C464.971 25.144 467.696 25.76 470.16 26.992C472.624 28.1867 474.584 29.96 476.04 32.312C477.496 34.664 478.224 37.52 478.224 40.88C478.224 41.2533 478.206 41.6827 478.168 42.168C478.131 42.6533 478.094 43.1013 478.056 43.512H454.032V37.912H472.4L468.368 39.48C468.406 38.0987 468.144 36.904 467.584 35.896C467.062 34.888 466.315 34.104 465.344 33.544C464.411 32.984 463.31 32.704 462.04 32.704C460.771 32.704 459.651 32.984 458.68 33.544C457.747 34.104 457.019 34.9067 456.496 35.952C455.974 36.96 455.712 38.1547 455.712 39.536V41.16C455.712 42.6533 456.011 43.9413 456.608 45.024C457.243 46.1067 458.139 46.9467 459.296 47.544C460.454 48.104 461.835 48.384 463.44 48.384C464.934 48.384 466.203 48.1787 467.248 47.768C468.331 47.32 469.395 46.648 470.44 45.752L476.04 51.576C474.584 53.1813 472.792 54.4133 470.664 55.272C468.536 56.0933 466.016 56.504 463.104 56.504ZM499.08 56.504C495.72 56.504 492.714 55.832 490.064 54.488C487.45 53.144 485.397 51.296 483.904 48.944C482.41 46.5547 481.664 43.8293 481.664 40.768C481.664 37.7067 482.41 35 483.904 32.648C485.397 30.296 487.45 28.4667 490.064 27.16C492.714 25.816 495.72 25.144 499.08 25.144C502.514 25.144 505.482 25.872 507.984 27.328C510.485 28.784 512.258 30.8373 513.304 33.488L505.072 37.688C504.362 36.2693 503.485 35.2427 502.44 34.608C501.394 33.936 500.256 33.6 499.024 33.6C497.792 33.6 496.672 33.88 495.664 34.44C494.656 35 493.853 35.8213 493.256 36.904C492.696 37.9493 492.416 39.2373 492.416 40.768C492.416 42.336 492.696 43.6613 493.256 44.744C493.853 45.8267 494.656 46.648 495.664 47.208C496.672 47.768 497.792 48.048 499.024 48.048C500.256 48.048 501.394 47.7307 502.44 47.096C503.485 46.424 504.362 45.3787 505.072 43.96L513.304 48.16C512.258 50.8107 510.485 52.864 507.984 54.32C505.482 55.776 502.514 56.504 499.08 56.504ZM539.034 56L529.794 41.832L538.362 36.792L551.578 56H539.034ZM517.754 56V25.648H528.394V56H517.754ZM525.258 45.192V36.848H536.234V45.192H525.258ZM539.426 42L529.458 40.992L539.65 25.648H550.906L539.426 42ZM555.105 56V25.648H565.689V41.552L578.401 25.648H588.201V56H577.561V40.04L564.961 56H555.105ZM595.355 56V25.648H605.939V41.552L618.651 25.648H628.451V56H617.811V40.04L605.211 56H595.355ZM611.147 22.736C607.563 22.736 604.913 21.9893 603.195 20.496C601.515 18.9653 600.657 16.632 600.619 13.496H607.507C607.545 14.728 607.825 15.6987 608.347 16.408C608.907 17.08 609.822 17.416 611.091 17.416C612.361 17.416 613.294 17.08 613.891 16.408C614.489 15.6987 614.787 14.728 614.787 13.496H621.787C621.787 16.632 620.91 18.9653 619.155 20.496C617.438 21.9893 614.769 22.736 611.147 22.736Z" fill="#4F6234"/>
<g filter="url(#filter1_f_232_4194)">
<circle cx="36.0293" cy="126" r="21" fill="#FFD17C"/>
</g>
<path d="M107.565 146.504C104.243 146.504 101.293 145.832 98.7173 144.488C96.1413 143.144 94.1066 141.296 92.6133 138.944C91.1573 136.555 90.4293 133.829 90.4293 130.768C90.4293 127.707 91.1573 125 92.6133 122.648C94.1066 120.296 96.1413 118.467 98.7173 117.16C101.293 115.816 104.243 115.144 107.565 115.144C110.888 115.144 113.837 115.816 116.413 117.16C119.027 118.467 121.061 120.296 122.517 122.648C123.973 125 124.701 127.707 124.701 130.768C124.701 133.829 123.973 136.555 122.517 138.944C121.061 141.296 119.027 143.144 116.413 144.488C113.837 145.832 110.888 146.504 107.565 146.504ZM107.565 138.048C108.797 138.048 109.88 137.768 110.813 137.208C111.784 136.648 112.549 135.827 113.109 134.744C113.669 133.624 113.949 132.299 113.949 130.768C113.949 129.237 113.669 127.949 113.109 126.904C112.549 125.821 111.784 125 110.813 124.44C109.88 123.88 108.797 123.6 107.565 123.6C106.371 123.6 105.288 123.88 104.317 124.44C103.384 125 102.619 125.821 102.021 126.904C101.461 127.949 101.181 129.237 101.181 130.768C101.181 132.299 101.461 133.624 102.021 134.744C102.619 135.827 103.384 136.648 104.317 137.208C105.288 137.768 106.371 138.048 107.565 138.048ZM135.374 146V121.752L137.67 124.104H125.574V115.648H155.702V124.104H143.606L145.958 121.752V146H135.374ZM181.104 146L171.864 131.832L180.432 126.792L193.648 146H181.104ZM159.824 146V115.648H170.464V146H159.824ZM167.328 135.192V126.848H178.304V135.192H167.328ZM181.496 132L171.528 130.992L181.72 115.648H192.976L181.496 132ZM216.272 146.504C213.696 146.504 211.493 145.944 209.664 144.824C207.834 143.667 206.434 141.949 205.464 139.672C204.53 137.357 204.064 134.408 204.064 130.824C204.064 127.203 204.512 124.253 205.408 121.976C206.304 119.661 207.648 117.944 209.44 116.824C211.269 115.704 213.546 115.144 216.272 115.144C219.034 115.144 221.536 115.797 223.776 117.104C226.053 118.373 227.845 120.184 229.152 122.536C230.496 124.851 231.168 127.613 231.168 130.824C231.168 134.035 230.496 136.816 229.152 139.168C227.845 141.52 226.053 143.331 223.776 144.6C221.536 145.869 219.034 146.504 216.272 146.504ZM197.176 156.864V115.648H207.312V120.8L207.256 130.824L207.816 140.904V156.864H197.176ZM214.032 138.048C215.226 138.048 216.29 137.768 217.224 137.208C218.194 136.648 218.96 135.827 219.52 134.744C220.117 133.661 220.416 132.355 220.416 130.824C220.416 129.293 220.117 127.987 219.52 126.904C218.96 125.821 218.194 125 217.224 124.44C216.29 123.88 215.226 123.6 214.032 123.6C212.837 123.6 211.754 123.88 210.784 124.44C209.85 125 209.085 125.821 208.488 126.904C207.928 127.987 207.648 129.293 207.648 130.824C207.648 132.355 207.928 133.661 208.488 134.744C209.085 135.827 209.85 136.648 210.784 137.208C211.754 137.768 212.837 138.048 214.032 138.048ZM268.253 146V115.648H278.837V146H268.253ZM253.637 125.056C257.669 125.093 260.675 125.989 262.653 127.744C264.669 129.499 265.677 132 265.677 135.248C265.677 138.608 264.52 141.259 262.205 143.2C259.891 145.104 256.587 146.037 252.293 146H236.277V115.648H246.861V125.056H253.637ZM251.229 138.72C252.499 138.72 253.488 138.421 254.197 137.824C254.907 137.227 255.261 136.312 255.261 135.08C255.261 133.811 254.907 132.915 254.197 132.392C253.525 131.869 252.536 131.589 251.229 131.552H246.861V138.664L251.229 138.72ZM292.819 146V121.752L295.115 124.104H283.019V115.648H313.147V124.104H301.051L303.403 121.752V146H292.819ZM349.246 146V115.648H359.83V146H349.246ZM334.63 125.056C338.662 125.093 341.667 125.989 343.646 127.744C345.662 129.499 346.67 132 346.67 135.248C346.67 138.608 345.512 141.259 343.198 143.2C340.883 145.104 337.579 146.037 333.286 146H317.27V115.648H327.854V125.056H334.63ZM332.222 138.72C333.491 138.72 334.48 138.421 335.19 137.824C335.899 137.227 336.254 136.312 336.254 135.08C336.254 133.811 335.899 132.915 335.19 132.392C334.518 131.869 333.528 131.589 332.222 131.552H327.854V138.664L332.222 138.72ZM367.035 146V115.648H377.619V131.552L390.331 115.648H400.131V146H389.491V130.04L376.891 146H367.035ZM382.827 112.736C379.243 112.736 376.593 111.989 374.875 110.496C373.195 108.965 372.337 106.632 372.299 103.496H379.187C379.225 104.728 379.505 105.699 380.027 106.408C380.587 107.08 381.502 107.416 382.771 107.416C384.041 107.416 384.974 107.08 385.571 106.408C386.169 105.699 386.467 104.728 386.467 103.496H393.467C393.467 106.632 392.59 108.965 390.835 110.496C389.118 111.989 386.449 112.736 382.827 112.736Z" fill="#4F6234"/>
<g filter="url(#filter2_f_232_4194)">
<circle cx="1000.03" cy="126" r="21" fill="#FFD17C"/>
</g>
<path d="M1093.52 146L1086.29 131.832L1094.86 126.792L1106.12 146H1093.52ZM1081.76 135.192V126.848H1092.68V135.192H1081.76ZM1095.98 132L1085.96 130.992L1094.19 115.648H1105.45L1095.98 132ZM1065.74 146H1053.14L1064.34 126.792L1072.91 131.832L1065.74 146ZM1084.89 146H1074.42V115.648H1084.89V146ZM1077.5 135.192H1066.58V126.848H1077.5V135.192ZM1063.28 132L1053.81 115.648H1065.07L1073.19 130.992L1063.28 132ZM1109.82 146V115.648H1120.41V131.552L1133.12 115.648H1142.92V146H1132.28V130.04L1119.68 146H1109.82ZM1150.07 146V115.648H1166.37C1170.29 115.648 1173.35 116.339 1175.55 117.72C1177.76 119.064 1178.86 121.005 1178.86 123.544C1178.86 125.971 1177.83 127.912 1175.78 129.368C1173.76 130.787 1171.04 131.496 1167.6 131.496L1168.55 129.256C1172.25 129.256 1175.03 129.947 1176.9 131.328C1178.8 132.672 1179.75 134.651 1179.75 137.264C1179.75 139.952 1178.71 142.08 1176.62 143.648C1174.56 145.216 1171.41 146 1167.15 146H1150.07ZM1159.59 139.112H1166.2C1167.51 139.112 1168.48 138.888 1169.11 138.44C1169.75 137.955 1170.07 137.245 1170.07 136.312C1170.07 135.341 1169.75 134.632 1169.11 134.184C1168.52 133.736 1167.58 133.512 1166.31 133.512H1159.59V139.112ZM1159.59 127.856H1165.42C1166.69 127.856 1167.62 127.632 1168.22 127.184C1168.82 126.699 1169.11 126.008 1169.11 125.112C1169.11 124.216 1168.82 123.563 1168.22 123.152C1167.62 122.704 1166.69 122.48 1165.42 122.48H1159.59V127.856ZM1200.08 146.504C1196.76 146.504 1193.81 145.832 1191.23 144.488C1188.66 143.144 1186.62 141.296 1185.13 138.944C1183.67 136.555 1182.94 133.829 1182.94 130.768C1182.94 127.707 1183.67 125 1185.13 122.648C1186.62 120.296 1188.66 118.467 1191.23 117.16C1193.81 115.816 1196.76 115.144 1200.08 115.144C1203.4 115.144 1206.35 115.816 1208.93 117.16C1211.54 118.467 1213.58 120.296 1215.03 122.648C1216.49 125 1217.22 127.707 1217.22 130.768C1217.22 133.829 1216.49 136.555 1215.03 138.944C1213.58 141.296 1211.54 143.144 1208.93 144.488C1206.35 145.832 1203.4 146.504 1200.08 146.504ZM1200.08 138.048C1201.31 138.048 1202.4 137.768 1203.33 137.208C1204.3 136.648 1205.06 135.827 1205.62 134.744C1206.18 133.624 1206.46 132.299 1206.46 130.768C1206.46 129.237 1206.18 127.949 1205.62 126.904C1205.06 125.821 1204.3 125 1203.33 124.44C1202.4 123.88 1201.31 123.6 1200.08 123.6C1198.89 123.6 1197.8 123.88 1196.83 124.44C1195.9 125 1195.13 125.821 1194.54 126.904C1193.98 127.949 1193.7 129.237 1193.7 130.768C1193.7 132.299 1193.98 133.624 1194.54 134.744C1195.13 135.827 1195.9 136.648 1196.83 137.208C1197.8 137.768 1198.89 138.048 1200.08 138.048ZM1222.21 146V115.648H1232.79V131.552L1245.5 115.648H1255.3V146H1244.66V130.04L1232.06 146H1222.21ZM1238 112.736C1234.42 112.736 1231.76 111.989 1230.05 110.496C1228.37 108.965 1227.51 106.632 1227.47 103.496H1234.36C1234.4 104.728 1234.68 105.699 1235.2 106.408C1235.76 107.08 1236.67 107.416 1237.94 107.416C1239.21 107.416 1240.15 107.08 1240.74 106.408C1241.34 105.699 1241.64 104.728 1241.64 103.496H1248.64C1248.64 106.632 1247.76 108.965 1246.01 110.496C1244.29 111.989 1241.62 112.736 1238 112.736Z" fill="#4F6234"/>
<g filter="url(#filter3_f_232_4194)">
<circle cx="787.029" cy="36" r="21" fill="#FFD17C"/>
</g>
<path d="M843.613 56V25.648H859.909C863.829 25.648 866.891 26.3387 869.093 27.72C871.296 29.064 872.397 31.0053 872.397 33.544C872.397 35.9707 871.371 37.912 869.317 39.368C867.301 40.7867 864.576 41.496 861.141 41.496L862.093 39.256C865.789 39.256 868.571 39.9467 870.437 41.328C872.341 42.672 873.293 44.6507 873.293 47.264C873.293 49.952 872.248 52.08 870.157 53.648C868.104 55.216 864.949 56 860.693 56H843.613ZM853.133 49.112H859.741C861.048 49.112 862.019 48.888 862.653 48.44C863.288 47.9547 863.605 47.2453 863.605 46.312C863.605 45.3413 863.288 44.632 862.653 44.184C862.056 43.736 861.123 43.512 859.853 43.512H853.133V49.112ZM853.133 37.856H858.957C860.227 37.856 861.16 37.632 861.757 37.184C862.355 36.6987 862.653 36.008 862.653 35.112C862.653 34.216 862.355 33.5627 861.757 33.152C861.16 32.704 860.227 32.48 858.957 32.48H853.133V37.856ZM896.644 56V50.344L895.916 48.944V38.528C895.916 36.848 895.393 35.56 894.348 34.664C893.34 33.7307 891.716 33.264 889.476 33.264C888.02 33.264 886.545 33.5067 885.052 33.992C883.559 34.44 882.289 35.0747 881.244 35.896L877.66 28.672C879.377 27.552 881.431 26.6933 883.82 26.096C886.247 25.4613 888.655 25.144 891.044 25.144C895.972 25.144 899.78 26.2827 902.468 28.56C905.193 30.8 906.556 34.328 906.556 39.144V56H896.644ZM887.684 56.504C885.257 56.504 883.204 56.0933 881.524 55.272C879.844 54.4507 878.556 53.3307 877.66 51.912C876.801 50.4933 876.372 48.9067 876.372 47.152C876.372 45.2853 876.839 43.68 877.772 42.336C878.743 40.9547 880.217 39.9093 882.196 39.2C884.175 38.4533 886.732 38.08 889.868 38.08H897.036V43.624H891.324C889.607 43.624 888.393 43.904 887.684 44.464C887.012 45.024 886.676 45.7707 886.676 46.704C886.676 47.6373 887.031 48.384 887.74 48.944C888.449 49.504 889.42 49.784 890.652 49.784C891.809 49.784 892.855 49.504 893.788 48.944C894.759 48.3467 895.468 47.4507 895.916 46.256L897.372 50.176C896.812 52.2667 895.711 53.8533 894.068 54.936C892.463 55.9813 890.335 56.504 887.684 56.504ZM932.053 56.504C929.477 56.504 927.274 55.944 925.445 54.824C923.616 53.6667 922.216 51.9493 921.245 49.672C920.312 47.3573 919.845 44.408 919.845 40.824C919.845 37.2027 920.293 34.2533 921.189 31.976C922.085 29.6613 923.429 27.944 925.221 26.824C927.05 25.704 929.328 25.144 932.053 25.144C934.816 25.144 937.317 25.7973 939.557 27.104C941.834 28.3733 943.626 30.184 944.933 32.536C946.277 34.8507 946.949 37.6133 946.949 40.824C946.949 44.0347 946.277 46.816 944.933 49.168C943.626 51.52 941.834 53.3307 939.557 54.6C937.317 55.8693 934.816 56.504 932.053 56.504ZM912.957 66.864V25.648H923.093V30.8L923.037 40.824L923.597 50.904V66.864H912.957ZM929.813 48.048C931.008 48.048 932.072 47.768 933.005 47.208C933.976 46.648 934.741 45.8267 935.301 44.744C935.898 43.6613 936.197 42.3547 936.197 40.824C936.197 39.2933 935.898 37.9867 935.301 36.904C934.741 35.8213 933.976 35 933.005 34.44C932.072 33.88 931.008 33.6 929.813 33.6C928.618 33.6 927.536 33.88 926.565 34.44C925.632 35 924.866 35.8213 924.269 36.904C923.709 37.9867 923.429 39.2933 923.429 40.824C923.429 42.3547 923.709 43.6613 924.269 44.744C924.866 45.8267 925.632 46.648 926.565 47.208C927.536 47.768 928.618 48.048 929.813 48.048ZM952.059 56V25.648H962.643V41.552L975.355 25.648H985.155V56H974.515V40.04L961.915 56H952.059ZM1010.28 56V50.344L1009.56 48.944V38.528C1009.56 36.848 1009.03 35.56 1007.99 34.664C1006.98 33.7307 1005.36 33.264 1003.12 33.264C1001.66 33.264 1000.19 33.5067 998.693 33.992C997.199 34.44 995.93 35.0747 994.885 35.896L991.301 28.672C993.018 27.552 995.071 26.6933 997.461 26.096C999.887 25.4613 1002.3 25.144 1004.68 25.144C1009.61 25.144 1013.42 26.2827 1016.11 28.56C1018.83 30.8 1020.2 34.328 1020.2 39.144V56H1010.28ZM1001.32 56.504C998.898 56.504 996.845 56.0933 995.165 55.272C993.485 54.4507 992.197 53.3307 991.301 51.912C990.442 50.4933 990.013 48.9067 990.013 47.152C990.013 45.2853 990.479 43.68 991.413 42.336C992.383 40.9547 993.858 39.9093 995.837 39.2C997.815 38.4533 1000.37 38.08 1003.51 38.08H1010.68V43.624H1004.96C1003.25 43.624 1002.03 43.904 1001.32 44.464C1000.65 45.024 1000.32 45.7707 1000.32 46.704C1000.32 47.6373 1000.67 48.384 1001.38 48.944C1002.09 49.504 1003.06 49.784 1004.29 49.784C1005.45 49.784 1006.5 49.504 1007.43 48.944C1008.4 48.3467 1009.11 47.4507 1009.56 46.256L1011.01 50.176C1010.45 52.2667 1009.35 53.8533 1007.71 54.936C1006.1 55.9813 1003.98 56.504 1001.32 56.504ZM1033.37 56V31.752L1035.67 34.104H1023.57V25.648H1053.7V34.104H1041.61L1043.96 31.752V56H1033.37ZM1057.82 56V25.648H1068.41V41.552L1081.12 25.648H1090.92V56H1080.28V40.04L1067.68 56H1057.82ZM1098.07 56V25.648H1114.37C1118.29 25.648 1121.35 26.3387 1123.55 27.72C1125.76 29.064 1126.86 31.0053 1126.86 33.544C1126.86 35.9707 1125.83 37.912 1123.78 39.368C1121.76 40.7867 1119.04 41.496 1115.6 41.496L1116.55 39.256C1120.25 39.256 1123.03 39.9467 1124.9 41.328C1126.8 42.672 1127.75 44.6507 1127.75 47.264C1127.75 49.952 1126.71 52.08 1124.62 53.648C1122.56 55.216 1119.41 56 1115.15 56H1098.07ZM1107.59 49.112H1114.2C1115.51 49.112 1116.48 48.888 1117.11 48.44C1117.75 47.9547 1118.07 47.2453 1118.07 46.312C1118.07 45.3413 1117.75 44.632 1117.11 44.184C1116.52 43.736 1115.58 43.512 1114.31 43.512H1107.59V49.112ZM1107.59 37.856H1113.42C1114.69 37.856 1115.62 37.632 1116.22 37.184C1116.82 36.6987 1117.11 36.008 1117.11 35.112C1117.11 34.216 1116.82 33.5627 1116.22 33.152C1115.62 32.704 1114.69 32.48 1113.42 32.48H1107.59V37.856ZM1133.13 56V25.648H1143.71V36.904H1154.63V25.648H1165.27V56H1154.63V45.36H1143.71V56H1133.13ZM1204.43 56V25.648H1215.01V56H1204.43ZM1189.81 35.056C1193.84 35.0933 1196.85 35.9893 1198.83 37.744C1200.84 39.4987 1201.85 42 1201.85 45.248C1201.85 48.608 1200.69 51.2587 1198.38 53.2C1196.06 55.104 1192.76 56.0373 1188.47 56H1172.45V25.648H1183.03V35.056H1189.81ZM1187.4 48.72C1188.67 48.72 1189.66 48.4213 1190.37 47.824C1191.08 47.2267 1191.43 46.312 1191.43 45.08C1191.43 43.8107 1191.08 42.9147 1190.37 42.392C1189.7 41.8693 1188.71 41.5893 1187.4 41.552H1183.03V48.664L1187.4 48.72ZM1222.21 56V25.648H1232.8V41.552L1245.51 25.648H1255.31V56H1244.67V40.04L1232.07 56H1222.21ZM1238.01 22.736C1234.42 22.736 1231.77 21.9893 1230.05 20.496C1228.37 18.9653 1227.52 16.632 1227.48 13.496H1234.37C1234.4 14.728 1234.68 15.6987 1235.21 16.408C1235.77 17.08 1236.68 17.416 1237.95 17.416C1239.22 17.416 1240.15 17.08 1240.75 16.408C1241.35 15.6987 1241.65 14.728 1241.65 13.496H1248.65C1248.65 16.632 1247.77 18.9653 1246.01 20.496C1244.3 21.9893 1241.63 22.736 1238.01 22.736Z" fill="#4F6234"/>
<g filter="url(#filter4_f_232_4194)">
<circle cx="538.029" cy="126" r="21" fill="#FFD17C"/>
</g>
<path d="M594.613 146V115.648H605.197V131.552L617.909 115.648H627.709V146H617.069V130.04L604.469 146H594.613ZM634.863 146V115.648H660.287V124.104H643.151L645.447 121.808V146H634.863ZM683.545 146.504C680.969 146.504 678.767 145.944 676.937 144.824C675.108 143.667 673.708 141.949 672.737 139.672C671.804 137.357 671.337 134.408 671.337 130.824C671.337 127.203 671.785 124.253 672.681 121.976C673.577 119.661 674.921 117.944 676.713 116.824C678.543 115.704 680.82 115.144 683.545 115.144C686.308 115.144 688.809 115.797 691.049 117.104C693.327 118.373 695.119 120.184 696.425 122.536C697.769 124.851 698.441 127.613 698.441 130.824C698.441 134.035 697.769 136.816 696.425 139.168C695.119 141.52 693.327 143.331 691.049 144.6C688.809 145.869 686.308 146.504 683.545 146.504ZM664.449 156.864V115.648H674.585V120.8L674.529 130.824L675.089 140.904V156.864H664.449ZM681.305 138.048C682.5 138.048 683.564 137.768 684.497 137.208C685.468 136.648 686.233 135.827 686.793 134.744C687.391 133.661 687.689 132.355 687.689 130.824C687.689 129.293 687.391 127.987 686.793 126.904C686.233 125.821 685.468 125 684.497 124.44C683.564 123.88 682.5 123.6 681.305 123.6C680.111 123.6 679.028 123.88 678.057 124.44C677.124 125 676.359 125.821 675.761 126.904C675.201 127.987 674.921 129.293 674.921 130.824C674.921 132.355 675.201 133.661 675.761 134.744C676.359 135.827 677.124 136.648 678.057 137.208C679.028 137.768 680.111 138.048 681.305 138.048ZM703.551 146V115.648H714.135V131.552L726.847 115.648H736.647V146H726.007V130.04L713.407 146H703.551ZM743.801 146V115.648H760.097C764.017 115.648 767.078 116.339 769.281 117.72C771.483 119.064 772.585 121.005 772.585 123.544C772.585 125.971 771.558 127.912 769.505 129.368C767.489 130.787 764.763 131.496 761.329 131.496L762.281 129.256C765.977 129.256 768.758 129.947 770.625 131.328C772.529 132.672 773.481 134.651 773.481 137.264C773.481 139.952 772.435 142.08 770.345 143.648C768.291 145.216 765.137 146 760.881 146H743.801ZM753.321 139.112H759.929C761.235 139.112 762.206 138.888 762.841 138.44C763.475 137.955 763.793 137.245 763.793 136.312C763.793 135.341 763.475 134.632 762.841 134.184C762.243 133.736 761.31 133.512 760.041 133.512H753.321V139.112ZM753.321 127.856H759.145C760.414 127.856 761.347 127.632 761.945 127.184C762.542 126.699 762.841 126.008 762.841 125.112C762.841 124.216 762.542 123.563 761.945 123.152C761.347 122.704 760.414 122.48 759.145 122.48H753.321V127.856ZM810.831 146V115.648H821.415V146H810.831ZM796.215 125.056C800.247 125.093 803.253 125.989 805.231 127.744C807.247 129.499 808.255 132 808.255 135.248C808.255 138.608 807.098 141.259 804.783 143.2C802.469 145.104 799.165 146.037 794.871 146H778.855V115.648H789.439V125.056H796.215ZM793.807 138.72C795.077 138.72 796.066 138.421 796.775 137.824C797.485 137.227 797.839 136.312 797.839 135.08C797.839 133.811 797.485 132.915 796.775 132.392C796.103 131.869 795.114 131.589 793.807 131.552H789.439V138.664L793.807 138.72ZM828.621 146V115.648H839.205V131.552L851.917 115.648H861.717V146H851.077V130.04L838.477 146H828.621ZM844.413 112.736C840.829 112.736 838.178 111.989 836.461 110.496C834.781 108.965 833.922 106.632 833.885 103.496H840.773C840.81 104.728 841.09 105.699 841.613 106.408C842.173 107.08 843.088 107.416 844.357 107.416C845.626 107.416 846.56 107.08 847.157 106.408C847.754 105.699 848.053 104.728 848.053 103.496H855.053C855.053 106.632 854.176 108.965 852.421 110.496C850.704 111.989 848.034 112.736 844.413 112.736Z" fill="#4F6234"/>
<g filter="url(#filter5_f_232_4194)">
<circle cx="817.029" cy="216" r="21" fill="#FFD17C"/>
</g>
<path d="M879.213 247.368C877.608 247.368 875.984 247.107 874.341 246.584C872.736 246.099 871.429 245.445 870.421 244.624L874.117 237.176C874.752 237.736 875.48 238.165 876.301 238.464C877.16 238.8 878 238.968 878.821 238.968C879.979 238.968 880.893 238.707 881.565 238.184C882.237 237.661 882.816 236.84 883.301 235.72L884.701 232.192L885.541 231.128L895.845 205.648H905.981L892.877 237.232C891.832 239.845 890.619 241.88 889.237 243.336C887.893 244.829 886.381 245.875 884.701 246.472C883.059 247.069 881.229 247.368 879.213 247.368ZM883.357 237.288L869.973 205.648H880.893L890.749 230.176L883.357 237.288ZM909.434 236V205.648H920.018V216.904H930.938V205.648H941.578V236H930.938V225.36H920.018V236H909.434ZM948.754 236V205.648H959.338V221.552L972.05 205.648H981.85V236H971.21V220.04L958.61 236H948.754ZM1010.28 236L1001.04 221.832L1009.61 216.792L1022.83 236H1010.28ZM989.004 236V205.648H999.644V236H989.004ZM996.508 225.192V216.848H1007.48V225.192H996.508ZM1010.68 222L1000.71 220.992L1010.9 205.648H1022.16L1010.68 222ZM1043.78 236V230.344L1043.06 228.944V218.528C1043.06 216.848 1042.53 215.56 1041.49 214.664C1040.48 213.731 1038.86 213.264 1036.62 213.264C1035.16 213.264 1033.69 213.507 1032.19 213.992C1030.7 214.44 1029.43 215.075 1028.38 215.896L1024.8 208.672C1026.52 207.552 1028.57 206.693 1030.96 206.096C1033.39 205.461 1035.8 205.144 1038.18 205.144C1043.11 205.144 1046.92 206.283 1049.61 208.56C1052.33 210.8 1053.7 214.328 1053.7 219.144V236H1043.78ZM1034.82 236.504C1032.4 236.504 1030.34 236.093 1028.66 235.272C1026.98 234.451 1025.7 233.331 1024.8 231.912C1023.94 230.493 1023.51 228.907 1023.51 227.152C1023.51 225.285 1023.98 223.68 1024.91 222.336C1025.88 220.955 1027.36 219.909 1029.34 219.2C1031.32 218.453 1033.87 218.08 1037.01 218.08H1044.18V223.624H1038.46C1036.75 223.624 1035.53 223.904 1034.82 224.464C1034.15 225.024 1033.82 225.771 1033.82 226.704C1033.82 227.637 1034.17 228.384 1034.88 228.944C1035.59 229.504 1036.56 229.784 1037.79 229.784C1038.95 229.784 1040 229.504 1040.93 228.944C1041.9 228.347 1042.61 227.451 1043.06 226.256L1044.51 230.176C1043.95 232.267 1042.85 233.853 1041.21 234.936C1039.6 235.981 1037.48 236.504 1034.82 236.504ZM1057.02 236L1057.47 227.32C1057.73 227.357 1057.97 227.395 1058.19 227.432C1058.42 227.432 1058.62 227.432 1058.81 227.432C1059.74 227.432 1060.47 227.208 1060.99 226.76C1061.55 226.275 1061.96 225.621 1062.23 224.8C1062.52 223.979 1062.73 223.027 1062.84 221.944C1062.99 220.824 1063.08 219.611 1063.12 218.304L1063.57 205.648H1091.01V236H1080.37V211.696L1082.72 214.104H1070.57L1072.81 211.584L1072.47 218.752C1072.36 221.477 1072.12 223.96 1071.75 226.2C1071.41 228.403 1070.87 230.288 1070.12 231.856C1069.38 233.424 1068.35 234.637 1067.04 235.496C1065.77 236.317 1064.15 236.728 1062.17 236.728C1061.46 236.728 1060.66 236.653 1059.76 236.504C1058.9 236.392 1057.99 236.224 1057.02 236ZM1115.97 215.056C1120 215.093 1123.08 215.989 1125.21 217.744C1127.34 219.499 1128.4 222 1128.4 225.248C1128.4 228.608 1127.17 231.259 1124.7 233.2C1122.28 235.104 1118.92 236.037 1114.62 236H1098.16V205.648H1108.74V215.056H1115.97ZM1113.56 228.72C1114.83 228.72 1115.82 228.421 1116.53 227.824C1117.24 227.227 1117.59 226.312 1117.59 225.08C1117.59 223.811 1117.24 222.915 1116.53 222.392C1115.86 221.869 1114.87 221.589 1113.56 221.552H1108.74V228.664L1113.56 228.72ZM1132.94 236V205.648H1143.53V216.904H1154.45V205.648H1165.09V236H1154.45V225.36H1143.53V236H1132.94ZM1204.24 236V205.648H1214.82V236H1204.24ZM1189.62 215.056C1193.65 215.093 1196.66 215.989 1198.64 217.744C1200.65 219.499 1201.66 222 1201.66 225.248C1201.66 228.608 1200.5 231.259 1198.19 233.2C1195.88 235.104 1192.57 236.037 1188.28 236H1172.26V205.648H1182.85V215.056H1189.62ZM1187.21 228.72C1188.48 228.72 1189.47 228.421 1190.18 227.824C1190.89 227.227 1191.25 226.312 1191.25 225.08C1191.25 223.811 1190.89 222.915 1190.18 222.392C1189.51 221.869 1188.52 221.589 1187.21 221.552H1182.85V228.664L1187.21 228.72ZM1222.03 236V205.648H1232.61V221.552L1245.32 205.648H1255.12V236H1244.48V220.04L1231.88 236H1222.03ZM1237.82 202.736C1234.24 202.736 1231.58 201.989 1229.87 200.496C1228.19 198.965 1227.33 196.632 1227.29 193.496H1234.18C1234.22 194.728 1234.5 195.699 1235.02 196.408C1235.58 197.08 1236.49 197.416 1237.76 197.416C1239.03 197.416 1239.97 197.08 1240.56 196.408C1241.16 195.699 1241.46 194.728 1241.46 193.496H1248.46C1248.46 196.632 1247.58 198.965 1245.83 200.496C1244.11 201.989 1241.44 202.736 1237.82 202.736Z" fill="#4F6234"/>
<g filter="url(#filter6_f_232_4194)">
<circle cx="36.0293" cy="216" r="21" fill="#FFD17C"/>
</g>
<path d="M92.6133 236V205.648H103.813L114.397 225.472H109.973L121.565 205.648H131.589L131.645 236H122.069V216.176L123.693 217.296L114.285 233.312H109.749L100.341 216.512L102.189 216.008V236H92.6133ZM138.824 236V205.648H149.408V221.552L162.12 205.648H171.92V236H161.28V220.04L148.68 236H138.824ZM179.074 236V205.648H189.658V216.904H200.578V205.648H211.218V236H200.578V225.36H189.658V236H179.074ZM218.395 236V205.648H228.979V221.552L241.691 205.648H251.491V236H240.851V220.04L228.251 236H218.395ZM258.645 236V205.648H269.845L280.429 225.472H276.005L287.597 205.648H297.621L297.677 236H288.101V216.176L289.725 217.296L280.317 233.312H275.781L266.373 216.512L268.221 216.008V236H258.645ZM322.831 236V230.344L322.103 228.944V218.528C322.103 216.848 321.581 215.56 320.535 214.664C319.527 213.731 317.903 213.264 315.663 213.264C314.207 213.264 312.733 213.507 311.239 213.992C309.746 214.44 308.477 215.075 307.431 215.896L303.847 208.672C305.565 207.552 307.618 206.693 310.007 206.096C312.434 205.461 314.842 205.144 317.231 205.144C322.159 205.144 325.967 206.283 328.655 208.56C331.381 210.8 332.743 214.328 332.743 219.144V236H322.831ZM313.871 236.504C311.445 236.504 309.391 236.093 307.711 235.272C306.031 234.451 304.743 233.331 303.847 231.912C302.989 230.493 302.559 228.907 302.559 227.152C302.559 225.285 303.026 223.68 303.959 222.336C304.93 220.955 306.405 219.909 308.383 219.2C310.362 218.453 312.919 218.08 316.055 218.08H323.223V223.624H317.511C315.794 223.624 314.581 223.904 313.871 224.464C313.199 225.024 312.863 225.771 312.863 226.704C312.863 227.637 313.218 228.384 313.927 228.944C314.637 229.504 315.607 229.784 316.839 229.784C317.997 229.784 319.042 229.504 319.975 228.944C320.946 228.347 321.655 227.451 322.103 226.256L323.559 230.176C322.999 232.267 321.898 233.853 320.255 234.936C318.65 235.981 316.522 236.504 313.871 236.504ZM336.065 236L336.513 227.32C336.774 227.357 337.017 227.395 337.241 227.432C337.465 227.432 337.67 227.432 337.857 227.432C338.79 227.432 339.518 227.208 340.041 226.76C340.601 226.275 341.011 225.621 341.273 224.8C341.571 223.979 341.777 223.027 341.889 221.944C342.038 220.824 342.131 219.611 342.169 218.304L342.617 205.648H370.057V236H359.417V211.696L361.769 214.104H349.617L351.857 211.584L351.521 218.752C351.409 221.477 351.166 223.96 350.793 226.2C350.457 228.403 349.915 230.288 349.169 231.856C348.422 233.424 347.395 234.637 346.089 235.496C344.819 236.317 343.195 236.728 341.217 236.728C340.507 236.728 339.705 236.653 338.809 236.504C337.95 236.392 337.035 236.224 336.065 236ZM377.207 236V205.648H387.791V221.552L400.503 205.648H410.303V236H399.663V220.04L387.063 236H377.207ZM432.689 236.504C429.329 236.504 426.324 235.832 423.673 234.488C421.06 233.144 419.006 231.296 417.513 228.944C416.02 226.555 415.273 223.829 415.273 220.768C415.273 217.707 416.02 215 417.513 212.648C419.006 210.296 421.06 208.467 423.673 207.16C426.324 205.816 429.329 205.144 432.689 205.144C436.124 205.144 439.092 205.872 441.593 207.328C444.094 208.784 445.868 210.837 446.913 213.488L438.681 217.688C437.972 216.269 437.094 215.243 436.049 214.608C435.004 213.936 433.865 213.6 432.633 213.6C431.401 213.6 430.281 213.88 429.273 214.44C428.265 215 427.462 215.821 426.865 216.904C426.305 217.949 426.025 219.237 426.025 220.768C426.025 222.336 426.305 223.661 426.865 224.744C427.462 225.827 428.265 226.648 429.273 227.208C430.281 227.768 431.401 228.048 432.633 228.048C433.865 228.048 435.004 227.731 436.049 227.096C437.094 226.424 437.972 225.379 438.681 223.96L446.913 228.16C445.868 230.811 444.094 232.864 441.593 234.32C439.092 235.776 436.124 236.504 432.689 236.504ZM458.249 236V211.752L460.545 214.104H448.449V205.648H478.577V214.104H466.481L468.833 211.752V236H458.249ZM482.699 236V205.648H493.283V221.552L505.995 205.648H515.795V236H505.155V220.04L492.555 236H482.699ZM542.157 224.8C541.112 225.435 539.899 225.957 538.517 226.368C537.136 226.741 535.531 226.928 533.701 226.928C529.483 226.928 526.291 225.995 524.125 224.128C521.997 222.224 520.933 219.2 520.933 215.056V205.648H531.573V214.328C531.573 216.045 531.965 217.259 532.749 217.968C533.533 218.677 534.672 219.032 536.165 219.032C537.323 219.032 538.387 218.901 539.357 218.64C540.365 218.341 541.28 217.949 542.101 217.464L542.157 224.8ZM541.429 236V205.648H552.013V236H541.429ZM559.207 236V205.648H569.791V216.904H580.711V205.648H591.351V236H580.711V225.36H569.791V236H559.207ZM630.503 236V205.648H641.087V236H630.503ZM615.887 215.056C619.919 215.093 622.925 215.989 624.903 217.744C626.919 219.499 627.927 222 627.927 225.248C627.927 228.608 626.77 231.259 624.455 233.2C622.141 235.104 618.837 236.037 614.543 236H598.527V205.648H609.111V215.056H615.887ZM613.479 228.72C614.749 228.72 615.738 228.421 616.447 227.824C617.157 227.227 617.511 226.312 617.511 225.08C617.511 223.811 617.157 222.915 616.447 222.392C615.775 221.869 614.786 221.589 613.479 221.552H609.111V228.664L613.479 228.72ZM648.293 236V205.648H658.877V221.552L671.589 205.648H681.389V236H670.749V220.04L658.149 236H648.293ZM664.085 202.736C660.501 202.736 657.85 201.989 656.133 200.496C654.453 198.965 653.594 196.632 653.557 193.496H660.445C660.482 194.728 660.762 195.699 661.285 196.408C661.845 197.08 662.76 197.416 664.029 197.416C665.298 197.416 666.232 197.08 666.829 196.408C667.426 195.699 667.725 194.728 667.725 193.496H674.725C674.725 196.632 673.848 198.965 672.093 200.496C670.376 201.989 667.706 202.736 664.085 202.736Z" fill="#4F6234"/>
<defs>
<filter id="filter0_f_232_4194" x="0.0292969" y="0" width="72" height="72" filterUnits="userSpaceOnUse" color-interpolation-filters="sRGB">
<feFlood flood-opacity="0" result="BackgroundImageFix"/>
<feBlend mode="normal" in="SourceGraphic" in2="BackgroundImageFix" result="shape"/>
<feGaussianBlur stdDeviation="7.5" result="effect1_foregroundBlur_232_4194"/>
</filter>
<filter id="filter1_f_232_4194" x="0.0292969" y="90" width="72" height="72" filterUnits="userSpaceOnUse" color-interpolation-filters="sRGB">
<feFlood flood-opacity="0" result="BackgroundImageFix"/>
<feBlend mode="normal" in="SourceGraphic" in2="BackgroundImageFix" result="shape"/>
<feGaussianBlur stdDeviation="7.5" result="effect1_foregroundBlur_232_4194"/>
</filter>
<filter id="filter2_f_232_4194" x="964.029" y="90" width="72" height="72" filterUnits="userSpaceOnUse" color-interpolation-filters="sRGB">
<feFlood flood-opacity="0" result="BackgroundImageFix"/>
<feBlend mode="normal" in="SourceGraphic" in2="BackgroundImageFix" result="shape"/>
<feGaussianBlur stdDeviation="7.5" result="effect1_foregroundBlur_232_4194"/>
</filter>
<filter id="filter3_f_232_4194" x="751.029" y="0" width="72" height="72" filterUnits="userSpaceOnUse" color-interpolation-filters="sRGB">
<feFlood flood-opacity="0" result="BackgroundImageFix"/>
<feBlend mode="normal" in="SourceGraphic" in2="BackgroundImageFix" result="shape"/>
<feGaussianBlur stdDeviation="7.5" result="effect1_foregroundBlur_232_4194"/>
</filter>
<filter id="filter4_f_232_4194" x="502.029" y="90" width="72" height="72" filterUnits="userSpaceOnUse" color-interpolation-filters="sRGB">
<feFlood flood-opacity="0" result="BackgroundImageFix"/>
<feBlend mode="normal" in="SourceGraphic" in2="BackgroundImageFix" result="shape"/>
<feGaussianBlur stdDeviation="7.5" result="effect1_foregroundBlur_232_4194"/>
</filter>
<filter id="filter5_f_232_4194" x="781.029" y="180" width="72" height="72" filterUnits="userSpaceOnUse" color-interpolation-filters="sRGB">
<feFlood flood-opacity="0" result="BackgroundImageFix"/>
<feBlend mode="normal" in="SourceGraphic" in2="BackgroundImageFix" result="shape"/>
<feGaussianBlur stdDeviation="7.5" result="effect1_foregroundBlur_232_4194"/>
</filter>
<filter id="filter6_f_232_4194" x="0.0292969" y="180" width="72" height="72" filterUnits="userSpaceOnUse" color-interpolation-filters="sRGB">
<feFlood flood-opacity="0" result="BackgroundImageFix"/>
<feBlend mode="normal" in="SourceGraphic" in2="BackgroundImageFix" result="shape"/>
<feGaussianBlur stdDeviation="7.5" result="effect1_foregroundBlur_232_4194"/>
</filter>
</defs>
</svg>
