<svg width="714" height="717" viewBox="0 0 714 717" fill="none" xmlns="http://www.w3.org/2000/svg">
<path d="M6.47412 245.483H700.127V669.999C700.127 695.538 679.423 716.242 653.883 716.242H52.7177C27.1781 716.242 6.47412 695.539 6.47412 669.999V245.483Z" fill="#FFD17C"/>
<rect x="4.62439" y="180.742" width="709.376" height="64.7409" fill="#4F6234"/>
<rect y="126.893" width="709.376" height="64.7409" transform="rotate(-10.2723 0 126.893)" fill="#4F6234"/>
<path d="M260.813 188.142L221.969 237.16H278.386L318.155 188.142H260.813Z" fill="#FFFEFD"/>
<path d="M261.725 138.068L214.241 97.362L269.621 86.5971L318.013 127.126L261.725 138.068Z" fill="#FFFEFD"/>
<path d="M645.56 188.142L606.715 237.16H663.132L702.902 188.142H645.56Z" fill="#FFFEFD"/>
<path d="M640.118 68.4377L592.634 27.7321L648.014 16.9672L696.406 57.4964L640.118 68.4377Z" fill="#FFFEFD"/>
<path d="M549.373 188.142L510.529 237.16H566.946L606.715 188.142H549.373Z" fill="#FFFEFD"/>
<path d="M545.519 85.8449L498.035 45.1393L553.416 34.3744L601.808 74.9036L545.519 85.8449Z" fill="#FFFEFD"/>
<path d="M453.187 188.142L414.342 237.16H470.759L510.529 188.142H453.187Z" fill="#FFFEFD"/>
<path d="M450.921 103.252L403.437 62.5465L458.818 51.7816L507.21 92.3108L450.921 103.252Z" fill="#FFFEFD"/>
<path d="M357 188.142L318.155 237.16H374.572L414.342 188.142H357Z" fill="#FFFEFD"/>
<path d="M356.323 120.66L308.839 79.9547L364.219 69.1898L412.611 109.719L356.323 120.66Z" fill="#FFFEFD"/>
<path d="M4.79042 155.823L4.56719 232.328C4.55195 237.553 8.86455 241.753 14.0871 241.6L161.237 237.283C166.343 237.133 170.361 232.873 170.211 227.767L169.703 210.46C169.629 207.933 168.524 205.547 166.646 203.857L78.2557 124.305C76.4878 122.714 74.1748 121.865 71.7974 121.935L13.0994 123.657C7.99372 123.807 3.97615 128.067 4.12593 133.173L4.79042 155.823Z" fill="#FFD17C"/>
<g opacity="0.9">
<path opacity="0.8" d="M41.8559 320.201V304.663H48.2486C49.6248 304.663 50.8013 304.885 51.7779 305.329C52.7694 305.773 53.5315 306.41 54.0642 307.238C54.5969 308.067 54.8633 309.051 54.8633 310.19C54.8633 311.33 54.5969 312.314 54.0642 313.143C53.5315 313.971 52.7694 314.608 51.7779 315.051C50.8013 315.495 49.6248 315.717 48.2486 315.717H43.4541L44.7415 314.363V320.201H41.8559ZM44.7415 314.674L43.4541 313.276H48.1154C49.3881 313.276 50.3425 313.009 50.9788 312.477C51.6299 311.929 51.9555 311.167 51.9555 310.19C51.9555 309.199 51.6299 308.437 50.9788 307.904C50.3425 307.371 49.3881 307.105 48.1154 307.105H43.4541L44.7415 305.684V314.674ZM57.7449 320.201V304.663H64.1376C65.5138 304.663 66.6902 304.885 67.6669 305.329C68.6584 305.773 69.4205 306.41 69.9532 307.238C70.4859 308.067 70.7523 309.051 70.7523 310.19C70.7523 311.33 70.4859 312.314 69.9532 313.143C69.4205 313.956 68.6584 314.585 67.6669 315.029C66.6902 315.458 65.5138 315.673 64.1376 315.673H59.3431L60.6305 314.363V320.201H57.7449ZM67.9111 320.201L63.9822 314.563H67.0676L71.0186 320.201H67.9111ZM60.6305 314.674L59.3431 313.298H64.0044C65.277 313.298 66.2315 313.024 66.8678 312.477C67.5189 311.929 67.8445 311.167 67.8445 310.19C67.8445 309.199 67.5189 308.437 66.8678 307.904C66.2315 307.371 65.277 307.105 64.0044 307.105H59.3431L60.6305 305.684V314.674ZM81.2613 320.423C80.0479 320.423 78.9306 320.223 77.9096 319.824C76.8885 319.424 76.0006 318.869 75.2459 318.159C74.4912 317.434 73.9067 316.59 73.4924 315.629C73.078 314.652 72.8709 313.586 72.8709 312.432C72.8709 311.278 73.078 310.22 73.4924 309.258C73.9067 308.281 74.4912 307.438 75.2459 306.728C76.0006 306.003 76.8885 305.44 77.9096 305.041C78.9306 304.641 80.0405 304.441 81.2391 304.441C82.4525 304.441 83.5624 304.641 84.5686 305.041C85.5897 305.44 86.4776 306.003 87.2323 306.728C87.9869 307.438 88.5715 308.281 88.9858 309.258C89.4002 310.22 89.6073 311.278 89.6073 312.432C89.6073 313.586 89.4002 314.652 88.9858 315.629C88.5715 316.605 87.9869 317.449 87.2323 318.159C86.4776 318.869 85.5897 319.424 84.5686 319.824C83.5624 320.223 82.4599 320.423 81.2613 320.423ZM81.2391 317.893C82.0234 317.893 82.7485 317.76 83.4144 317.493C84.0803 317.227 84.6574 316.849 85.1457 316.361C85.6341 315.858 86.0114 315.281 86.2778 314.63C86.5589 313.964 86.6995 313.231 86.6995 312.432C86.6995 311.633 86.5589 310.908 86.2778 310.257C86.0114 309.591 85.6341 309.014 85.1457 308.526C84.6574 308.022 84.0803 307.638 83.4144 307.371C82.7485 307.105 82.0234 306.972 81.2391 306.972C80.4548 306.972 79.7297 307.105 79.0638 307.371C78.4127 307.638 77.8356 308.022 77.3324 308.526C76.8441 309.014 76.4594 309.591 76.1782 310.257C75.9118 310.908 75.7787 311.633 75.7787 312.432C75.7787 313.217 75.9118 313.942 76.1782 314.608C76.4594 315.273 76.8441 315.858 77.3324 316.361C77.8208 316.849 78.3979 317.227 79.0638 317.493C79.7297 317.76 80.4548 317.893 81.2391 317.893ZM92.666 320.201V304.663H99.4582C101.145 304.663 102.625 304.989 103.898 305.64C105.17 306.291 106.162 307.194 106.872 308.348C107.582 309.502 107.937 310.864 107.937 312.432C107.937 313.986 107.582 315.347 106.872 316.516C106.162 317.671 105.17 318.573 103.898 319.225C102.625 319.876 101.145 320.201 99.4582 320.201H92.666ZM95.5516 317.76H99.3251C100.494 317.76 101.5 317.538 102.344 317.094C103.202 316.65 103.861 316.028 104.319 315.229C104.793 314.43 105.03 313.498 105.03 312.432C105.03 311.352 104.793 310.42 104.319 309.635C103.861 308.836 103.202 308.215 102.344 307.771C101.5 307.327 100.494 307.105 99.3251 307.105H95.5516V317.76ZM117.686 320.423C115.555 320.423 113.883 319.824 112.669 318.625C111.471 317.427 110.871 315.695 110.871 313.431V304.663H113.757V313.32C113.757 314.918 114.097 316.08 114.778 316.805C115.473 317.53 116.45 317.893 117.708 317.893C118.966 317.893 119.935 317.53 120.616 316.805C121.296 316.08 121.637 314.918 121.637 313.32V304.663H124.478V313.431C124.478 315.695 123.871 317.427 122.658 318.625C121.459 319.824 119.802 320.423 117.686 320.423ZM135.711 320.423C134.527 320.423 133.425 320.231 132.404 319.846C131.397 319.446 130.517 318.892 129.762 318.181C129.022 317.456 128.445 316.605 128.031 315.629C127.616 314.652 127.409 313.586 127.409 312.432C127.409 311.278 127.616 310.213 128.031 309.236C128.445 308.259 129.03 307.416 129.784 306.705C130.539 305.98 131.42 305.425 132.426 305.041C133.432 304.641 134.535 304.441 135.733 304.441C137.006 304.441 138.167 304.663 139.218 305.107C140.269 305.536 141.157 306.18 141.882 307.038L140.017 308.792C139.455 308.185 138.826 307.734 138.13 307.438C137.435 307.127 136.68 306.972 135.866 306.972C135.052 306.972 134.305 307.105 133.624 307.371C132.959 307.638 132.374 308.015 131.871 308.503C131.383 308.992 130.998 309.569 130.717 310.235C130.45 310.901 130.317 311.633 130.317 312.432C130.317 313.231 130.45 313.964 130.717 314.63C130.998 315.296 131.383 315.873 131.871 316.361C132.374 316.849 132.959 317.227 133.624 317.493C134.305 317.76 135.052 317.893 135.866 317.893C136.68 317.893 137.435 317.745 138.13 317.449C138.826 317.138 139.455 316.672 140.017 316.05L141.882 317.826C141.157 318.67 140.269 319.313 139.218 319.757C138.167 320.201 136.998 320.423 135.711 320.423ZM147.625 320.201V307.105H142.475V304.663H155.66V307.105H150.511V320.201H147.625ZM157.826 320.201V304.663H160.712V320.201H157.826ZM172.195 320.423C170.981 320.423 169.864 320.223 168.843 319.824C167.822 319.424 166.934 318.869 166.179 318.159C165.425 317.434 164.84 316.59 164.426 315.629C164.012 314.652 163.804 313.586 163.804 312.432C163.804 311.278 164.012 310.22 164.426 309.258C164.84 308.281 165.425 307.438 166.179 306.728C166.934 306.003 167.822 305.44 168.843 305.041C169.864 304.641 170.974 304.441 172.173 304.441C173.386 304.441 174.496 304.641 175.502 305.041C176.523 305.44 177.411 306.003 178.166 306.728C178.92 307.438 179.505 308.281 179.919 309.258C180.334 310.22 180.541 311.278 180.541 312.432C180.541 313.586 180.334 314.652 179.919 315.629C179.505 316.605 178.92 317.449 178.166 318.159C177.411 318.869 176.523 319.424 175.502 319.824C174.496 320.223 173.393 320.423 172.195 320.423ZM172.173 317.893C172.957 317.893 173.682 317.76 174.348 317.493C175.014 317.227 175.591 316.849 176.079 316.361C176.568 315.858 176.945 315.281 177.211 314.63C177.492 313.964 177.633 313.231 177.633 312.432C177.633 311.633 177.492 310.908 177.211 310.257C176.945 309.591 176.568 309.014 176.079 308.526C175.591 308.022 175.014 307.638 174.348 307.371C173.682 307.105 172.957 306.972 172.173 306.972C171.388 306.972 170.663 307.105 169.997 307.371C169.346 307.638 168.769 308.022 168.266 308.526C167.778 309.014 167.393 309.591 167.112 310.257C166.845 310.908 166.712 311.633 166.712 312.432C166.712 313.217 166.845 313.942 167.112 314.608C167.393 315.273 167.778 315.858 168.266 316.361C168.754 316.849 169.331 317.227 169.997 317.493C170.663 317.76 171.388 317.893 172.173 317.893ZM183.6 320.201V304.663H185.975L195.719 316.627H194.543V304.663H197.406V320.201H195.031L185.287 308.237H186.463V320.201H183.6Z" fill="#FFFEFD"/>
<path opacity="0.8" d="M41.8559 616.159V600.621H48.6482C50.3351 600.621 51.8149 600.947 53.0875 601.598C54.3602 602.249 55.3516 603.152 56.0619 604.306C56.7722 605.46 57.1274 606.822 57.1274 608.39C57.1274 609.944 56.7722 611.305 56.0619 612.474C55.3516 613.629 54.3602 614.531 53.0875 615.183C51.8149 615.834 50.3351 616.159 48.6482 616.159H41.8559ZM44.7415 613.718H48.515C49.684 613.718 50.6903 613.496 51.5338 613.052C52.392 612.608 53.0505 611.986 53.5093 611.187C53.9828 610.388 54.2196 609.456 54.2196 608.39C54.2196 607.31 53.9828 606.378 53.5093 605.593C53.0505 604.794 52.392 604.173 51.5338 603.729C50.6903 603.285 49.684 603.063 48.515 603.063H44.7415V613.718ZM60.1944 616.159V600.621H63.08V616.159H60.1944ZM67.2826 616.159V600.621H73.6753C75.0515 600.621 76.228 600.843 77.2046 601.287C78.1961 601.731 78.9582 602.368 79.4909 603.196C80.0236 604.025 80.29 605.009 80.29 606.148C80.29 607.288 80.0236 608.272 79.4909 609.101C78.9582 609.914 78.1961 610.543 77.2046 610.987C76.228 611.416 75.0515 611.631 73.6753 611.631H68.8808L70.1682 610.321V616.159H67.2826ZM77.4488 616.159L73.52 610.521H76.6053L80.5564 616.159H77.4488ZM70.1682 610.632L68.8808 609.256H73.5422C74.8148 609.256 75.7692 608.982 76.4055 608.435C77.0567 607.887 77.3822 607.125 77.3822 606.148C77.3822 605.157 77.0567 604.395 76.4055 603.862C75.7692 603.329 74.8148 603.063 73.5422 603.063H68.8808L70.1682 601.642V610.632ZM86.1821 607.081H93.9066V609.456H86.1821V607.081ZM86.404 613.74H95.1718V616.159H83.5184V600.621H94.861V603.041H86.404V613.74ZM105.58 616.381C104.397 616.381 103.294 616.189 102.273 615.804C101.267 615.404 100.386 614.85 99.6316 614.139C98.8917 613.414 98.3146 612.563 97.9003 611.587C97.4859 610.61 97.2788 609.545 97.2788 608.39C97.2788 607.236 97.4859 606.171 97.9003 605.194C98.3146 604.217 98.8991 603.374 99.6538 602.663C100.409 601.938 101.289 601.383 102.295 600.999C103.302 600.599 104.404 600.399 105.603 600.399C106.875 600.399 108.037 600.621 109.088 601.065C110.138 601.494 111.026 602.138 111.751 602.996L109.887 604.75C109.324 604.143 108.695 603.692 108 603.396C107.304 603.085 106.55 602.93 105.736 602.93C104.922 602.93 104.175 603.063 103.494 603.329C102.828 603.596 102.243 603.973 101.74 604.461C101.252 604.95 100.867 605.527 100.586 606.193C100.32 606.859 100.187 607.591 100.187 608.39C100.187 609.189 100.32 609.922 100.586 610.588C100.867 611.254 101.252 611.831 101.74 612.319C102.243 612.807 102.828 613.185 103.494 613.451C104.175 613.718 104.922 613.851 105.736 613.851C106.55 613.851 107.304 613.703 108 613.407C108.695 613.096 109.324 612.63 109.887 612.008L111.751 613.784C111.026 614.628 110.138 615.271 109.088 615.715C108.037 616.159 106.868 616.381 105.58 616.381ZM117.495 616.159V603.063H112.345V600.621H125.53V603.063H120.38V616.159H117.495ZM134.759 616.381C133.546 616.381 132.429 616.181 131.408 615.782C130.386 615.382 129.499 614.827 128.744 614.117C127.989 613.392 127.405 612.548 126.99 611.587C126.576 610.61 126.369 609.545 126.369 608.39C126.369 607.236 126.576 606.178 126.99 605.216C127.405 604.239 127.989 603.396 128.744 602.686C129.499 601.961 130.386 601.398 131.408 600.999C132.429 600.599 133.538 600.399 134.737 600.399C135.951 600.399 137.06 600.599 138.067 600.999C139.088 601.398 139.976 601.961 140.73 602.686C141.485 603.396 142.069 604.239 142.484 605.216C142.898 606.178 143.105 607.236 143.105 608.39C143.105 609.545 142.898 610.61 142.484 611.587C142.069 612.563 141.485 613.407 140.73 614.117C139.976 614.827 139.088 615.382 138.067 615.782C137.06 616.181 135.958 616.381 134.759 616.381ZM134.737 613.851C135.521 613.851 136.246 613.718 136.912 613.451C137.578 613.185 138.155 612.807 138.644 612.319C139.132 611.816 139.509 611.239 139.776 610.588C140.057 609.922 140.198 609.189 140.198 608.39C140.198 607.591 140.057 606.866 139.776 606.215C139.509 605.549 139.132 604.972 138.644 604.484C138.155 603.98 137.578 603.596 136.912 603.329C136.246 603.063 135.521 602.93 134.737 602.93C133.953 602.93 133.228 603.063 132.562 603.329C131.911 603.596 131.334 603.98 130.83 604.484C130.342 604.972 129.957 605.549 129.676 606.215C129.41 606.866 129.277 607.591 129.277 608.39C129.277 609.175 129.41 609.9 129.676 610.566C129.957 611.231 130.342 611.816 130.83 612.319C131.319 612.807 131.896 613.185 132.562 613.451C133.228 613.718 133.953 613.851 134.737 613.851ZM146.164 616.159V600.621H152.557C153.933 600.621 155.109 600.843 156.086 601.287C157.077 601.731 157.84 602.368 158.372 603.196C158.905 604.025 159.171 605.009 159.171 606.148C159.171 607.288 158.905 608.272 158.372 609.101C157.84 609.914 157.077 610.543 156.086 610.987C155.109 611.416 153.933 611.631 152.557 611.631H147.762L149.05 610.321V616.159H146.164ZM156.33 616.159L152.401 610.521H155.487L159.438 616.159H156.33ZM149.05 610.632L147.762 609.256H152.423C153.696 609.256 154.651 608.982 155.287 608.435C155.938 607.887 156.264 607.125 156.264 606.148C156.264 605.157 155.938 604.395 155.287 603.862C154.651 603.329 153.696 603.063 152.423 603.063H147.762L149.05 601.642V610.632Z" fill="#FFFEFD"/>
<path opacity="0.8" d="M365.353 616.381C364.17 616.381 363.067 616.189 362.046 615.804C361.04 615.404 360.159 614.85 359.405 614.139C358.665 613.414 358.088 612.563 357.673 611.587C357.259 610.61 357.052 609.545 357.052 608.39C357.052 607.236 357.259 606.171 357.673 605.194C358.088 604.217 358.672 603.374 359.427 602.663C360.182 601.938 361.062 601.383 362.068 600.999C363.075 600.599 364.177 600.399 365.376 600.399C366.648 600.399 367.81 600.621 368.861 601.065C369.911 601.494 370.799 602.138 371.524 602.996L369.66 604.75C369.097 604.143 368.468 603.692 367.773 603.396C367.077 603.085 366.323 602.93 365.509 602.93C364.695 602.93 363.948 603.063 363.267 603.329C362.601 603.596 362.017 603.973 361.513 604.461C361.025 604.95 360.64 605.527 360.359 606.193C360.093 606.859 359.96 607.591 359.96 608.39C359.96 609.189 360.093 609.922 360.359 610.588C360.64 611.254 361.025 611.831 361.513 612.319C362.017 612.807 362.601 613.185 363.267 613.451C363.948 613.718 364.695 613.851 365.509 613.851C366.323 613.851 367.077 613.703 367.773 613.407C368.468 613.096 369.097 612.63 369.66 612.008L371.524 613.784C370.799 614.628 369.911 615.271 368.861 615.715C367.81 616.159 366.641 616.381 365.353 616.381ZM371.766 616.159L378.759 600.621H381.6L388.614 616.159H385.595L379.58 602.153H380.734L374.741 616.159H371.766ZM374.985 612.563L375.762 610.299H384.152L384.929 612.563H374.985ZM390.59 616.159V600.621H392.965L399.757 611.964H398.514L405.196 600.621H407.571L407.593 616.159H404.863L404.84 604.905H405.417L399.735 614.383H398.448L392.676 604.905H393.342V616.159H390.59ZM414.453 607.081H422.178V609.456H414.453V607.081ZM414.675 613.74H423.443V616.159H411.79V600.621H423.132V603.041H414.675V613.74ZM426.66 616.159V600.621H433.053C434.429 600.621 435.605 600.843 436.582 601.287C437.573 601.731 438.335 602.368 438.868 603.196C439.401 604.025 439.667 605.009 439.667 606.148C439.667 607.288 439.401 608.272 438.868 609.101C438.335 609.914 437.573 610.543 436.582 610.987C435.605 611.416 434.429 611.631 433.053 611.631H428.258L429.546 610.321V616.159H426.66ZM436.826 616.159L432.897 610.521H435.983L439.934 616.159H436.826ZM429.546 610.632L428.258 609.256H432.919C434.192 609.256 435.147 608.982 435.783 608.435C436.434 607.887 436.76 607.125 436.76 606.148C436.76 605.157 436.434 604.395 435.783 603.862C435.147 603.329 434.192 603.063 432.919 603.063H428.258L429.546 601.642V610.632ZM440.698 616.159L447.69 600.621H450.531L457.546 616.159H454.527L448.512 602.153H449.666L443.673 616.159H440.698ZM443.917 612.563L444.694 610.299H453.084L453.861 612.563H443.917ZM459.522 616.159V600.621H461.897L468.689 611.964H467.446L474.127 600.621H476.502L476.525 616.159H473.794L473.772 604.905H474.349L468.667 614.383H467.379L461.608 604.905H462.274V616.159H459.522ZM478.524 616.159L485.516 600.621H488.357L495.371 616.159H492.353L486.337 602.153H487.492L481.498 616.159H478.524ZM481.743 612.563L482.519 610.299H490.91L491.687 612.563H481.743ZM497.347 616.159V600.621H499.723L509.467 612.585H508.291V600.621H511.154V616.159H508.779L499.034 604.195H500.211V616.159H497.347Z" fill="#FFFEFD"/>
<path opacity="0.8" d="M41.8559 662.403V646.865H48.6482C50.3351 646.865 51.8149 647.191 53.0875 647.842C54.3602 648.493 55.3516 649.396 56.0619 650.55C56.7722 651.704 57.1274 653.066 57.1274 654.634C57.1274 656.188 56.7722 657.55 56.0619 658.719C55.3516 659.873 54.3602 660.776 53.0875 661.427C51.8149 662.078 50.3351 662.403 48.6482 662.403H41.8559ZM44.7415 659.962H48.515C49.684 659.962 50.6903 659.74 51.5338 659.296C52.392 658.852 53.0505 658.23 53.5093 657.431C53.9828 656.632 54.2196 655.7 54.2196 654.634C54.2196 653.554 53.9828 652.622 53.5093 651.838C53.0505 651.039 52.392 650.417 51.5338 649.973C50.6903 649.529 49.684 649.307 48.515 649.307H44.7415V659.962ZM57.7801 662.403L64.7721 646.865H67.6133L74.6275 662.403H71.6088L65.5934 648.397H66.7476L60.7545 662.403H57.7801ZM60.9987 658.807L61.7755 656.543H70.166L70.9429 658.807H60.9987ZM78.9752 662.403V649.307H73.8255V646.865H87.0105V649.307H81.8608V662.403H78.9752ZM91.8397 653.325H99.5642V655.7H91.8397V653.325ZM92.0616 659.984H100.829V662.403H89.176V646.865H100.519V649.285H92.0616V659.984Z" fill="#FFFEFD"/>
<path opacity="0.8" d="M83.4751 473.729V458.192H89.8678C91.244 458.192 92.4204 458.414 93.3971 458.858C94.3885 459.302 95.1506 459.938 95.6833 460.767C96.2161 461.595 96.4824 462.579 96.4824 463.719C96.4824 464.858 96.2161 465.842 95.6833 466.671C95.1506 467.485 94.3885 468.114 93.3971 468.558C92.4204 468.987 91.244 469.201 89.8678 469.201H85.0732L86.3607 467.892V473.729H83.4751ZM93.6412 473.729L89.7124 468.091H92.7978L96.7488 473.729H93.6412ZM86.3607 468.202L85.0732 466.826H89.7346C91.0072 466.826 91.9617 466.552 92.598 466.005C93.2491 465.457 93.5746 464.695 93.5746 463.719C93.5746 462.727 93.2491 461.965 92.598 461.432C91.9617 460.9 91.0072 460.633 89.7346 460.633H85.0732L86.3607 459.213V468.202ZM106.991 473.951C105.778 473.951 104.661 473.752 103.64 473.352C102.619 472.953 101.731 472.398 100.976 471.687C100.221 470.962 99.6369 470.119 99.2225 469.157C98.8082 468.18 98.601 467.115 98.601 465.961C98.601 464.806 98.8082 463.748 99.2225 462.786C99.6369 461.81 100.221 460.966 100.976 460.256C101.731 459.531 102.619 458.969 103.64 458.569C104.661 458.169 105.771 457.97 106.969 457.97C108.183 457.97 109.293 458.169 110.299 458.569C111.32 458.969 112.208 459.531 112.962 460.256C113.717 460.966 114.302 461.81 114.716 462.786C115.13 463.748 115.337 464.806 115.337 465.961C115.337 467.115 115.13 468.18 114.716 469.157C114.302 470.134 113.717 470.977 112.962 471.687C112.208 472.398 111.32 472.953 110.299 473.352C109.293 473.752 108.19 473.951 106.991 473.951ZM106.969 471.421C107.754 471.421 108.479 471.288 109.145 471.021C109.81 470.755 110.388 470.378 110.876 469.889C111.364 469.386 111.742 468.809 112.008 468.158C112.289 467.492 112.43 466.76 112.43 465.961C112.43 465.161 112.289 464.436 112.008 463.785C111.742 463.119 111.364 462.542 110.876 462.054C110.388 461.551 109.81 461.166 109.145 460.9C108.479 460.633 107.754 460.5 106.969 460.5C106.185 460.5 105.46 460.633 104.794 460.9C104.143 461.166 103.566 461.551 103.063 462.054C102.574 462.542 102.19 463.119 101.908 463.785C101.642 464.436 101.509 465.161 101.509 465.961C101.509 466.745 101.642 467.47 101.908 468.136C102.19 468.802 102.574 469.386 103.063 469.889C103.551 470.378 104.128 470.755 104.794 471.021C105.46 471.288 106.185 471.421 106.969 471.421ZM118.396 473.729V458.192H121.282V471.288H129.406V473.729H118.396ZM131.684 473.729V458.192H134.57V471.288H142.694V473.729H131.684Z" fill="#FFFEFD"/>
<path opacity="0.8" d="M239.971 473.951C238.757 473.951 237.596 473.781 236.486 473.441C235.376 473.086 234.495 472.634 233.844 472.087L234.843 469.845C235.465 470.333 236.234 470.74 237.152 471.066C238.069 471.391 239.009 471.554 239.971 471.554C240.785 471.554 241.443 471.465 241.946 471.288C242.449 471.11 242.819 470.873 243.056 470.578C243.293 470.267 243.411 469.919 243.411 469.534C243.411 469.061 243.241 468.683 242.901 468.402C242.56 468.106 242.116 467.877 241.569 467.714C241.036 467.537 240.437 467.374 239.771 467.226C239.12 467.078 238.461 466.908 237.795 466.715C237.144 466.508 236.545 466.249 235.997 465.938C235.465 465.613 235.028 465.184 234.688 464.651C234.347 464.118 234.177 463.438 234.177 462.609C234.177 461.765 234.399 460.996 234.843 460.3C235.302 459.59 235.99 459.028 236.907 458.613C237.84 458.184 239.016 457.97 240.437 457.97C241.369 457.97 242.294 458.088 243.211 458.325C244.129 458.562 244.928 458.902 245.609 459.346L244.699 461.588C244.003 461.173 243.285 460.87 242.545 460.678C241.806 460.471 241.095 460.367 240.415 460.367C239.615 460.367 238.964 460.463 238.461 460.656C237.973 460.848 237.61 461.099 237.374 461.41C237.152 461.721 237.041 462.076 237.041 462.476C237.041 462.949 237.203 463.334 237.529 463.63C237.869 463.911 238.306 464.133 238.839 464.296C239.386 464.459 239.993 464.621 240.659 464.784C241.325 464.932 241.983 465.102 242.634 465.295C243.3 465.487 243.899 465.739 244.432 466.049C244.98 466.36 245.416 466.782 245.742 467.315C246.082 467.847 246.252 468.521 246.252 469.335C246.252 470.163 246.023 470.933 245.564 471.643C245.12 472.338 244.432 472.901 243.5 473.33C242.568 473.744 241.391 473.951 239.971 473.951ZM256.305 473.951C255.122 473.951 254.019 473.759 252.998 473.374C251.992 472.975 251.111 472.42 250.357 471.71C249.617 470.984 249.04 470.134 248.625 469.157C248.211 468.18 248.004 467.115 248.004 465.961C248.004 464.806 248.211 463.741 248.625 462.764C249.04 461.788 249.624 460.944 250.379 460.234C251.134 459.509 252.014 458.954 253.02 458.569C254.027 458.169 255.129 457.97 256.328 457.97C257.6 457.97 258.762 458.192 259.813 458.636C260.863 459.065 261.751 459.708 262.476 460.567L260.612 462.32C260.049 461.714 259.42 461.262 258.725 460.966C258.029 460.656 257.275 460.5 256.461 460.5C255.647 460.5 254.9 460.633 254.219 460.9C253.553 461.166 252.969 461.543 252.465 462.032C251.977 462.52 251.592 463.097 251.311 463.763C251.045 464.429 250.912 465.161 250.912 465.961C250.912 466.76 251.045 467.492 251.311 468.158C251.592 468.824 251.977 469.401 252.465 469.889C252.969 470.378 253.553 470.755 254.219 471.021C254.9 471.288 255.647 471.421 256.461 471.421C257.275 471.421 258.029 471.273 258.725 470.977C259.42 470.666 260.049 470.2 260.612 469.579L262.476 471.354C261.751 472.198 260.863 472.842 259.813 473.286C258.762 473.729 257.593 473.951 256.305 473.951ZM267.905 464.651H275.629V467.026H267.905V464.651ZM268.127 471.31H276.894V473.729H265.241V458.192H276.584V460.611H268.127V471.31ZM280.111 473.729V458.192H282.486L292.231 470.156H291.054V458.192H293.918V473.729H291.543L281.798 461.765H282.975V473.729H280.111ZM300.745 464.651H308.469V467.026H300.745V464.651ZM300.967 471.31H309.735V473.729H298.081V458.192H309.424V460.611H300.967V471.31Z" fill="#FFFEFD"/>
<path opacity="0.8" d="M416.621 473.951C415.407 473.951 414.246 473.781 413.136 473.441C412.026 473.086 411.146 472.634 410.494 472.087L411.493 469.845C412.115 470.333 412.884 470.74 413.802 471.066C414.719 471.391 415.659 471.554 416.621 471.554C417.435 471.554 418.093 471.465 418.596 471.288C419.099 471.11 419.469 470.873 419.706 470.578C419.943 470.267 420.061 469.919 420.061 469.534C420.061 469.061 419.891 468.683 419.551 468.402C419.21 468.106 418.766 467.877 418.219 467.714C417.686 467.537 417.087 467.374 416.421 467.226C415.77 467.078 415.111 466.908 414.445 466.715C413.794 466.508 413.195 466.249 412.648 465.938C412.115 465.613 411.678 465.184 411.338 464.651C410.998 464.118 410.827 463.438 410.827 462.609C410.827 461.765 411.049 460.996 411.493 460.3C411.952 459.59 412.64 459.028 413.558 458.613C414.49 458.184 415.666 457.97 417.087 457.97C418.019 457.97 418.944 458.088 419.862 458.325C420.779 458.562 421.578 458.902 422.259 459.346L421.349 461.588C420.653 461.173 419.935 460.87 419.196 460.678C418.456 460.471 417.745 460.367 417.065 460.367C416.266 460.367 415.615 460.463 415.111 460.656C414.623 460.848 414.26 461.099 414.024 461.41C413.802 461.721 413.691 462.076 413.691 462.476C413.691 462.949 413.854 463.334 414.179 463.63C414.519 463.911 414.956 464.133 415.489 464.296C416.036 464.459 416.643 464.621 417.309 464.784C417.975 464.932 418.633 465.102 419.284 465.295C419.95 465.487 420.55 465.739 421.082 466.049C421.63 466.36 422.066 466.782 422.392 467.315C422.732 467.847 422.902 468.521 422.902 469.335C422.902 470.163 422.673 470.933 422.214 471.643C421.77 472.338 421.082 472.901 420.15 473.33C419.218 473.744 418.041 473.951 416.621 473.951ZM436.685 458.192H439.57V473.729H436.685V458.192ZM428.649 473.729H425.764V458.192H428.649V473.729ZM436.907 467.07H428.405V464.607H436.907V467.07ZM451.014 473.951C449.801 473.951 448.684 473.752 447.663 473.352C446.642 472.953 445.754 472.398 444.999 471.687C444.244 470.962 443.66 470.119 443.245 469.157C442.831 468.18 442.624 467.115 442.624 465.961C442.624 464.806 442.831 463.748 443.245 462.786C443.66 461.81 444.244 460.966 444.999 460.256C445.754 459.531 446.642 458.969 447.663 458.569C448.684 458.169 449.793 457.97 450.992 457.97C452.206 457.97 453.315 458.169 454.322 458.569C455.343 458.969 456.231 459.531 456.985 460.256C457.74 460.966 458.325 461.81 458.739 462.786C459.153 463.748 459.36 464.806 459.36 465.961C459.36 467.115 459.153 468.18 458.739 469.157C458.325 470.134 457.74 470.977 456.985 471.687C456.231 472.398 455.343 472.953 454.322 473.352C453.315 473.752 452.213 473.951 451.014 473.951ZM450.992 471.421C451.776 471.421 452.502 471.288 453.167 471.021C453.833 470.755 454.41 470.378 454.899 469.889C455.387 469.386 455.764 468.809 456.031 468.158C456.312 467.492 456.453 466.76 456.453 465.961C456.453 465.161 456.312 464.436 456.031 463.785C455.764 463.119 455.387 462.542 454.899 462.054C454.41 461.551 453.833 461.166 453.167 460.9C452.502 460.633 451.776 460.5 450.992 460.5C450.208 460.5 449.483 460.633 448.817 460.9C448.166 461.166 447.589 461.551 447.085 462.054C446.597 462.542 446.212 463.119 445.931 463.785C445.665 464.436 445.532 465.161 445.532 465.961C445.532 466.745 445.665 467.47 445.931 468.136C446.212 468.802 446.597 469.386 447.085 469.889C447.574 470.378 448.151 470.755 448.817 471.021C449.483 471.288 450.208 471.421 450.992 471.421ZM465.354 473.729V460.633H460.205V458.192H473.389V460.633H468.24V473.729H465.354Z" fill="#FFFEFD"/>
<path opacity="0.8" d="M572.184 473.729V460.633H567.034V458.192H580.219V460.633H575.07V473.729H572.184ZM579.407 473.729L586.399 458.192H589.24L596.254 473.729H593.236L587.22 459.723H588.375L582.381 473.729H579.407ZM582.626 470.134L583.402 467.87H591.793L592.57 470.134H582.626ZM600.805 470.067L600.65 466.649L608.796 458.192H612.037L605.267 465.383L603.669 467.137L600.805 470.067ZM598.231 473.729V458.192H601.116V473.729H598.231ZM609.063 473.729L603.114 466.649L605.023 464.54L612.437 473.729H609.063ZM617.065 464.651H624.789V467.026H617.065V464.651ZM617.287 471.31H626.055V473.729H614.401V458.192H625.744V460.611H617.287V471.31Z" fill="#FFFEFD"/>
<line opacity="0.8" x1="39.7694" y1="332.883" x2="666.832" y2="332.883" stroke="#FFFEFD" stroke-width="0.92487"/>
<line opacity="0.8" x1="39.7694" y1="485.487" x2="666.832" y2="485.487" stroke="#FFFEFD" stroke-width="0.92487"/>
<line opacity="0.8" x1="39.7694" y1="628.842" x2="666.832" y2="628.842" stroke="#FFFEFD" stroke-width="0.92487"/>
<line opacity="0.8" x1="188.211" y1="333.346" x2="188.211" y2="485.949" stroke="#FFFEFD" stroke-width="0.92487"/>
<line opacity="0.8" x1="356.538" y1="333.346" x2="356.538" y2="485.949" stroke="#FFFEFD" stroke-width="0.92487"/>
<line opacity="0.8" x1="526.714" y1="333.346" x2="526.714" y2="485.949" stroke="#FFFEFD" stroke-width="0.92487"/>
</g>
<path d="M66.0827 528.806L54.327 494.509L86.5164 483.476L98.2721 517.772L88.6691 521.064L78.8112 492.304L81.7058 493.721L64.4108 499.649L65.7786 496.771L75.6366 525.531L66.0827 528.806ZM121.923 510.158C119.669 510.931 117.574 511.101 115.638 510.67C113.69 510.206 111.95 509.123 110.418 507.422C108.907 505.677 107.615 503.236 106.54 500.101C105.454 496.932 104.961 494.218 105.062 491.956C105.152 489.663 105.813 487.757 107.045 486.24C108.309 484.711 110.134 483.538 112.518 482.721C114.935 481.893 117.32 481.714 119.671 482.186C122.045 482.613 124.155 483.66 126.004 485.326C127.874 486.948 129.29 489.163 130.253 491.972C131.216 494.781 131.462 497.416 130.992 499.877C130.554 502.327 129.529 504.448 127.917 506.242C126.338 508.024 124.34 509.33 121.923 510.158ZM108.323 524.949L95.9624 488.889L104.83 485.849L106.375 490.357L109.333 499.143L112.845 507.794L117.632 521.758L108.323 524.949ZM117.427 503.432C118.472 503.073 119.319 502.509 119.968 501.739C120.649 500.958 121.073 500.01 121.238 498.895C121.436 497.769 121.305 496.536 120.846 495.197C120.387 493.858 119.734 492.804 118.887 492.036C118.072 491.257 117.156 490.768 116.139 490.569C115.155 490.359 114.14 490.433 113.094 490.791C112.049 491.149 111.186 491.719 110.505 492.5C109.856 493.27 109.433 494.218 109.235 495.344C109.07 496.459 109.216 497.687 109.676 499.026C110.135 500.365 110.771 501.424 111.586 502.204C112.433 502.972 113.349 503.461 114.334 503.671C115.351 503.87 116.382 503.79 117.427 503.432ZM139.275 503.718L130.172 477.163L139.432 473.989L144.202 487.903L150.554 470.176L159.128 467.237L168.23 493.792L158.921 496.983L154.135 483.02L147.898 500.762L139.275 503.718ZM171.354 492.722L178.062 472.519L179.68 477.878L162.545 466.066L173.03 462.472L182.803 469.58L178.951 471.119L182.633 459.181L192.481 455.805L186.078 475.301L184.332 470.206L201.926 482.242L191.295 485.887L181.009 478.243L185.114 477.438L181.447 489.262L171.354 492.722ZM217.53 477.387C214.623 478.383 211.841 478.68 209.185 478.276C206.528 477.873 204.193 476.866 202.182 475.256C200.191 473.603 198.737 471.437 197.819 468.758C196.901 466.08 196.726 463.493 197.295 460.999C197.896 458.493 199.127 456.283 200.989 454.367C202.84 452.419 205.219 450.946 208.126 449.95C211.033 448.953 213.815 448.657 216.471 449.06C219.15 449.42 221.478 450.41 223.458 452.031C225.437 453.652 226.885 455.802 227.803 458.48C228.722 461.159 228.902 463.761 228.345 466.288C227.776 468.783 226.55 471.01 224.667 472.969C222.816 474.918 220.437 476.39 217.53 477.387ZM214.994 469.989C216.072 469.619 216.935 469.049 217.584 468.28C218.265 467.499 218.689 466.55 218.854 465.435C219.008 464.287 218.856 463.044 218.397 461.705C217.937 460.366 217.306 459.323 216.503 458.576C215.688 457.797 214.772 457.308 213.755 457.109C212.771 456.899 211.739 456.978 210.662 457.348C209.616 457.706 208.753 458.276 208.072 459.057C207.423 459.827 207 460.775 206.802 461.901C206.625 462.984 206.767 464.195 207.226 465.534C207.685 466.873 208.327 467.948 209.153 468.76C210 469.529 210.916 470.018 211.901 470.228C212.918 470.426 213.949 470.347 214.994 469.989ZM253.287 460.093L248.114 445.003L241.01 447.438L241.785 450.019C242.157 451.316 242.489 452.552 242.783 453.729C243.099 454.862 243.282 455.93 243.334 456.935C243.387 457.939 243.28 458.851 243.014 459.673C242.736 460.461 242.24 461.142 241.524 461.716L231.991 463.615C232.873 463.313 233.508 462.821 233.895 462.141C234.304 461.417 234.515 460.542 234.528 459.515C234.541 458.489 234.412 457.365 234.139 456.144C233.888 454.88 233.566 453.567 233.172 452.205L230.341 442.828L254.887 434.414L262.596 456.902L253.287 460.093ZM235.543 476.852L231.109 463.917L265.112 452.262L269.545 465.197L260.922 468.153L259.041 462.665L242.334 468.392L244.215 473.879L235.543 476.852ZM271.665 458.338L262.563 431.783L271.823 428.609L276.592 442.524L282.944 424.797L291.518 421.858L300.621 448.413L291.312 451.604L286.525 437.64L280.288 455.382L271.665 458.338ZM312.808 444.236L305.536 423.021L308.25 424.39L297.668 428.018L295.132 420.619L321.491 411.584L324.027 418.983L313.444 422.61L314.796 419.847L322.068 441.062L312.808 444.236ZM346.968 433.019C343.832 434.094 340.887 434.447 338.132 434.077C335.399 433.663 333.026 432.652 331.014 431.042C329.024 429.388 327.575 427.238 326.668 424.592C325.762 421.947 325.576 419.382 326.112 416.899C326.669 414.372 327.863 412.156 329.692 410.252C331.51 408.314 333.807 406.87 336.583 405.918C339.196 405.023 341.766 404.744 344.291 405.083C346.805 405.39 349.051 406.353 351.031 407.974C353.01 409.595 354.503 411.876 355.511 414.816C355.623 415.142 355.735 415.523 355.848 415.959C355.961 416.395 356.063 416.798 356.153 417.169L335.135 424.373L333.455 419.474L349.525 413.965L346.468 416.546C346.086 415.327 345.499 414.36 344.707 413.646C343.948 412.921 343.059 412.459 342.042 412.26C341.058 412.05 340.01 412.135 338.9 412.516C337.789 412.896 336.893 413.477 336.212 414.258C335.563 415.028 335.167 415.949 335.023 417.02C334.868 418.059 334.998 419.182 335.412 420.391L335.899 421.812C336.347 423.118 336.994 424.155 337.842 424.924C338.722 425.68 339.757 426.147 340.949 426.322C342.13 426.465 343.422 426.296 344.827 425.814C346.133 425.367 347.182 424.806 347.974 424.133C348.786 423.417 349.516 422.51 350.162 421.412L356.808 424.828C356.015 426.67 354.817 428.285 353.213 429.674C351.597 431.031 349.516 432.146 346.968 433.019ZM379.223 421.47L370.121 394.915L379.381 391.741L384.15 405.656L390.502 387.929L399.076 384.99L408.179 411.545L398.87 414.736L394.084 400.773L387.846 418.515L379.223 421.47ZM442.747 400.463C440.592 401.202 438.477 401.58 436.402 401.597C434.36 401.604 432.424 401.173 430.593 400.304C428.795 399.423 427.134 398.04 425.611 396.153C424.121 394.254 422.85 391.77 421.798 388.7C421.092 386.642 420.622 384.686 420.388 382.832C420.154 380.978 420.15 379.209 420.376 377.525C420.624 375.798 421.129 374.183 421.891 372.681C422.686 371.167 423.739 369.766 425.049 368.477C426.36 367.189 427.96 366.001 429.851 364.915L441.897 358.049L445.841 365.402L435.392 371.338C434.751 371.704 434.056 372.124 433.307 372.6C432.59 373.065 431.923 373.622 431.306 374.271C430.678 374.888 430.149 375.635 429.72 376.512C429.323 377.378 429.114 378.417 429.091 379.63C429.09 380.798 429.358 382.166 429.896 383.734C430.053 384.191 430.198 384.561 430.331 384.844C430.486 385.083 430.641 385.377 430.797 385.725C430.942 386.04 431.132 386.541 431.367 387.227L427.947 385.716C428.261 384.075 428.794 382.597 429.547 381.28C430.333 379.952 431.355 378.781 432.613 377.765C433.871 376.75 435.382 375.94 437.146 375.336C439.726 374.451 442.121 374.196 444.33 374.571C446.528 374.912 448.419 375.797 450.003 377.225C451.609 378.609 452.793 380.412 453.554 382.633C454.45 385.246 454.569 387.724 453.912 390.066C453.243 392.375 451.945 394.445 450.017 396.274C448.11 398.059 445.687 399.455 442.747 400.463ZM440.574 393.324C441.652 392.954 442.505 392.406 443.132 391.68C443.792 390.943 444.21 390.088 444.388 389.115C444.565 388.141 444.48 387.148 444.133 386.136C443.775 385.091 443.238 384.271 442.523 383.676C441.809 383.082 440.97 382.712 440.008 382.567C439.079 382.411 438.075 382.518 436.997 382.888C435.919 383.257 435.028 383.8 434.325 384.515C433.654 385.22 433.213 386.01 433.002 386.885C432.791 387.761 432.859 388.704 433.206 389.717C433.553 390.73 434.101 391.582 434.849 392.275C435.597 392.967 436.464 393.418 437.448 393.628C438.454 393.795 439.496 393.693 440.574 393.324ZM469.54 401.627C468.135 402.108 466.636 402.367 465.042 402.402C463.492 402.459 462.153 402.279 461.025 401.863L462.025 394.238C462.748 394.538 463.514 394.695 464.322 394.71C465.174 394.747 465.959 394.642 466.678 394.395C467.69 394.048 468.412 393.545 468.843 392.887C469.275 392.228 469.535 391.336 469.623 390.21L469.79 386.704L470.206 385.521L471.58 360.138L480.448 357.099L478.455 388.661C478.324 391.261 477.873 393.405 477.101 395.093C476.373 396.803 475.363 398.171 474.073 399.197C472.815 400.212 471.304 401.022 469.54 401.627ZM470.143 391.565L448.944 367.897L458.498 364.622L474.477 383.126L470.143 391.565ZM507.445 372.975L502.273 357.885L495.169 360.32L495.944 362.901C496.315 364.198 496.648 365.434 496.942 366.611C497.257 367.744 497.441 368.812 497.493 369.817C497.545 370.821 497.438 371.733 497.172 372.555C496.895 373.343 496.399 374.024 495.683 374.598L486.15 376.497C487.032 376.195 487.666 375.703 488.054 375.023C488.463 374.299 488.674 373.424 488.687 372.397C488.7 371.371 488.57 370.247 488.298 369.026C488.047 367.762 487.725 366.449 487.331 365.087L484.5 355.71L509.046 347.296L516.754 369.784L507.445 372.975ZM489.702 389.734L485.268 376.799L519.27 365.144L523.704 378.079L515.081 381.035L513.2 375.547L496.493 381.274L498.374 386.761L489.702 389.734ZM539.644 366.976C536.509 368.05 533.563 368.403 530.809 368.033C528.075 367.62 525.703 366.608 523.691 364.998C521.7 363.344 520.252 361.194 519.345 358.549C518.438 355.903 518.253 353.338 518.788 350.855C519.346 348.328 520.539 346.112 522.368 344.208C524.186 342.271 526.483 340.826 529.26 339.875C531.873 338.979 534.442 338.701 536.967 339.04C539.481 339.346 541.728 340.31 543.707 341.931C545.686 343.552 547.18 345.832 548.187 348.772C548.299 349.098 548.412 349.48 548.524 349.916C548.637 350.351 548.739 350.754 548.83 351.125L527.811 358.33L526.132 353.43L542.202 347.922L539.144 350.503C538.763 349.283 538.176 348.316 537.384 347.602C536.624 346.877 535.736 346.415 534.718 346.216C533.734 346.006 532.686 346.091 531.576 346.472C530.465 346.853 529.569 347.434 528.888 348.215C528.24 348.984 527.843 349.905 527.699 350.976C527.545 352.015 527.674 353.139 528.088 354.347L528.575 355.768C529.023 357.074 529.671 358.112 530.518 358.88C531.398 359.637 532.434 360.103 533.626 360.278C534.806 360.421 536.099 360.252 537.503 359.771C538.81 359.323 539.859 358.763 540.65 358.09C541.463 357.373 542.192 356.466 542.838 355.369L549.484 358.785C548.692 360.626 547.493 362.241 545.889 363.631C544.273 364.987 542.192 366.102 539.644 366.976ZM557.641 360.314L548.539 333.759L558.338 330.4L573.543 344.57L569.672 345.897L573.869 325.077L582.639 322.071L591.79 348.609L583.412 351.48L577.467 334.136L579.224 334.629L575.796 351.463L571.827 352.823L558.558 340.946L560.024 339.951L566.019 357.442L557.641 360.314ZM84.3503 583.857L75.248 557.302L89.5054 552.415C92.935 551.239 95.8205 550.925 98.1619 551.473C100.492 551.989 102.038 553.357 102.799 555.578C103.527 557.701 103.211 559.707 101.851 561.597C100.513 563.443 98.341 564.881 95.336 565.911L95.4971 563.665C98.7307 562.557 101.371 562.327 103.419 562.976C105.488 563.581 106.914 565.026 107.698 567.313C108.504 569.665 108.227 571.84 106.868 573.839C105.542 575.826 103.017 577.458 99.2936 578.735L84.3503 583.857ZM90.6137 574.975L96.3951 572.994C97.5383 572.602 98.3203 572.115 98.7412 571.533C99.151 570.918 99.2159 570.202 98.936 569.385C98.6449 568.536 98.1545 568.011 97.4649 567.809C96.808 567.596 95.9242 567.68 94.8137 568.061L88.9343 570.076L90.6137 574.975ZM87.2382 565.128L92.3336 563.381C93.4441 563 94.1935 562.524 94.5818 561.953C94.9588 561.35 95.013 560.656 94.7443 559.872C94.4756 559.088 94.0184 558.606 93.3726 558.426C92.7157 558.213 91.8319 558.297 90.7214 558.677L85.6259 560.424L87.2382 565.128ZM115.02 573.344L105.917 546.789L115.716 543.43L130.921 557.6L127.051 558.927L131.248 538.107L140.018 535.101L149.169 561.639L140.791 564.511L134.846 547.167L136.602 547.659L133.174 564.493L129.206 565.853L115.937 553.977L117.402 552.981L123.398 570.472L115.02 573.344ZM169.27 555.241C166.135 556.316 163.189 556.669 160.435 556.299C157.701 555.885 155.329 554.874 153.317 553.264C151.326 551.61 149.878 549.46 148.971 546.814C148.064 544.169 147.879 541.604 148.414 539.121C148.972 536.594 150.165 534.378 151.994 532.474C153.812 530.536 156.109 529.092 158.886 528.14C161.499 527.245 164.068 526.966 166.593 527.305C169.107 527.612 171.354 528.575 173.333 530.196C175.312 531.818 176.806 534.098 177.813 537.038C177.925 537.364 178.038 537.745 178.151 538.181C178.263 538.617 178.365 539.02 178.456 539.391L157.437 546.595L155.758 541.696L171.828 536.187L168.77 538.768C168.389 537.549 167.802 536.582 167.01 535.868C166.25 535.143 165.362 534.681 164.345 534.482C163.36 534.272 162.313 534.357 161.202 534.738C160.091 535.119 159.196 535.699 158.514 536.48C157.866 537.25 157.469 538.171 157.326 539.242C157.171 540.281 157.3 541.404 157.714 542.613L158.201 544.034C158.649 545.34 159.297 546.378 160.144 547.146C161.024 547.903 162.06 548.369 163.252 548.544C164.432 548.687 165.725 548.518 167.129 548.036C168.436 547.589 169.485 547.028 170.276 546.356C171.089 545.639 171.818 544.732 172.464 543.634L179.11 547.051C178.318 548.892 177.119 550.507 175.515 551.896C173.9 553.253 171.818 554.368 169.27 555.241ZM200.745 544.453C197.805 545.46 194.974 545.774 192.252 545.393C189.563 545.001 187.212 544 185.2 542.39C183.177 540.747 181.707 538.587 180.789 535.908C179.871 533.23 179.712 530.638 180.313 528.132C180.914 525.627 182.162 523.41 184.057 521.484C185.973 519.513 188.401 518.024 191.34 517.016C194.345 515.986 197.16 515.733 199.785 516.256C202.411 516.78 204.578 518.045 206.287 520.05L200.345 526.194C199.299 525.165 198.223 524.53 197.118 524.288C196.002 524.014 194.905 524.061 193.827 524.431C192.749 524.8 191.853 525.381 191.14 526.173C190.426 526.966 189.97 527.925 189.772 529.051C189.595 530.134 189.737 531.345 190.196 532.684C190.666 534.056 191.308 535.131 192.123 535.911C192.97 536.679 193.919 537.156 194.969 537.344C196.018 537.532 197.082 537.441 198.16 537.071C199.238 536.702 200.139 536.083 200.863 535.214C201.576 534.313 202.03 533.135 202.226 531.681L210.687 532.887C210.568 535.52 209.632 537.848 207.88 539.872C206.128 541.896 203.75 543.423 200.745 544.453ZM222.956 536.347L215.684 515.132L218.398 516.501L207.816 520.129L205.28 512.731L231.639 503.696L234.175 511.094L223.592 514.721L224.944 511.958L232.216 533.173L222.956 536.347ZM257.116 525.131C253.98 526.205 251.035 526.558 248.28 526.188C245.547 525.775 243.174 524.763 241.162 523.153C239.172 521.499 237.723 519.349 236.816 516.704C235.91 514.058 235.724 511.493 236.26 509.01C236.817 506.483 238.011 504.267 239.84 502.363C241.658 500.426 243.955 498.981 246.731 498.03C249.344 497.134 251.913 496.856 254.439 497.194C256.953 497.501 259.199 498.464 261.179 500.086C263.158 501.707 264.651 503.987 265.659 506.927C265.771 507.253 265.883 507.635 265.996 508.07C266.109 508.506 266.211 508.909 266.301 509.28L245.282 516.484L243.603 511.585L259.673 506.077L256.616 508.658C256.234 507.438 255.647 506.471 254.855 505.757C254.096 505.032 253.207 504.57 252.19 504.371C251.206 504.161 250.158 504.246 249.047 504.627C247.937 505.008 247.041 505.589 246.36 506.37C245.711 507.139 245.315 508.06 245.171 509.131C245.016 510.17 245.146 511.294 245.56 512.502L246.047 513.923C246.495 515.229 247.142 516.267 247.99 517.035C248.87 517.792 249.905 518.258 251.097 518.433C252.278 518.576 253.57 518.407 254.975 517.926C256.281 517.478 257.33 516.917 258.122 516.245C258.934 515.528 259.664 514.621 260.31 513.524L266.956 516.94C266.163 518.781 264.965 520.396 263.361 521.786C261.745 523.142 259.663 524.257 257.116 525.131ZM289.371 513.582L280.269 487.027L307.706 477.622L316.808 504.177L307.548 507.351L300.293 486.186L303.039 487.489L290.056 491.939L291.376 489.242L298.631 510.408L289.371 513.582ZM336.383 497.96C333.476 498.957 330.694 499.253 328.037 498.85C325.381 498.446 323.046 497.44 321.034 495.83C319.044 494.176 317.59 492.01 316.672 489.332C315.754 486.653 315.579 484.067 316.147 481.572C316.749 479.067 317.98 476.856 319.842 474.94C321.693 472.992 324.071 471.52 326.978 470.523C329.885 469.527 332.667 469.23 335.324 469.634C338.002 469.993 340.331 470.983 342.31 472.605C344.29 474.226 345.738 476.375 346.656 479.054C347.574 481.732 347.755 484.335 347.197 486.862C346.629 489.356 345.403 491.583 343.52 493.543C341.669 495.491 339.29 496.964 336.383 497.96ZM333.847 490.562C334.925 490.193 335.788 489.623 336.437 488.853C337.118 488.072 337.542 487.124 337.707 486.009C337.861 484.861 337.708 483.617 337.249 482.278C336.79 480.939 336.159 479.896 335.356 479.149C334.541 478.37 333.625 477.881 332.608 477.682C331.623 477.472 330.592 477.552 329.514 477.921C328.469 478.28 327.606 478.849 326.925 479.63C326.276 480.4 325.853 481.348 325.655 482.475C325.478 483.557 325.62 484.768 326.079 486.107C326.538 487.446 327.18 488.522 328.006 489.334C328.853 490.102 329.769 490.591 330.754 490.801C331.771 491 332.802 490.92 333.847 490.562ZM364.805 488.328C362.747 489.033 360.628 489.559 358.447 489.905C356.255 490.218 354.093 490.302 351.963 490.156L352.214 483.062C353.853 483.157 355.506 483.083 357.175 482.84C358.843 482.596 360.494 482.195 362.127 481.635C363.107 481.299 363.929 480.926 364.591 480.517C365.243 480.074 365.703 479.606 365.971 479.113C366.262 478.575 366.317 478.045 366.138 477.523C365.892 476.804 365.451 476.371 364.817 476.223C364.182 476.076 363.326 476.187 362.248 476.556L356.516 478.521L354.652 473.083L359.551 471.403C360.27 471.157 360.852 470.885 361.297 470.586C361.731 470.255 362.012 469.903 362.14 469.531C362.289 469.115 362.291 468.694 362.145 468.27C362 467.845 361.713 467.542 361.286 467.36C360.88 467.134 360.322 467.051 359.613 467.112C358.925 467.128 358.075 467.31 357.063 467.657C355.756 468.105 354.44 468.739 353.115 469.558C351.811 470.333 350.503 471.256 349.191 472.327L344.936 466.941C346.454 465.618 348.054 464.431 349.738 463.379C351.421 462.327 353.139 461.483 354.892 460.846C357.417 459.907 359.793 459.385 362.02 459.279C364.268 459.129 366.192 459.418 367.793 460.147C369.382 460.843 370.468 462.041 371.05 463.739C371.498 465.046 371.503 466.339 371.066 467.621C370.629 468.902 369.848 470.082 368.721 471.162C367.584 472.209 366.182 473.018 364.516 473.589L364.124 471.807C367.031 470.811 369.519 470.615 371.588 471.22C373.678 471.781 375.065 473.057 375.748 475.05C376.375 476.879 376.286 478.643 375.482 480.342C374.677 482.042 373.342 483.576 371.475 484.946C369.608 486.316 367.385 487.443 364.805 488.328ZM383.006 481.486L373.904 454.931L383.164 451.757L386.539 461.605L396.093 458.331L392.717 448.483L402.026 445.292L411.129 471.847L401.82 475.038L398.629 465.729L389.075 469.003L392.266 478.312L383.006 481.486ZM433.134 464.304L431.438 459.355L430.382 458.349L427.258 449.236C426.754 447.766 425.911 446.796 424.727 446.326C423.565 445.811 422.005 445.89 420.045 446.562C418.771 446.998 417.554 447.653 416.393 448.525C415.22 449.365 414.3 450.301 413.632 451.333L408.33 446.088C409.497 444.593 411.036 443.226 412.947 441.987C414.88 440.704 416.891 439.704 418.982 438.987C423.293 437.509 426.966 437.364 430.001 438.55C433.057 439.693 435.307 442.371 436.752 446.584L441.806 461.331L433.134 464.304ZM425.446 467.432C423.323 468.16 421.404 468.416 419.688 468.201C417.972 467.987 416.509 467.393 415.299 466.42C414.123 465.437 413.271 464.177 412.745 462.642C412.185 461.009 412.112 459.465 412.526 458.009C412.961 456.509 413.937 455.152 415.456 453.938C416.963 452.692 419.088 451.598 421.832 450.658L428.103 448.508L429.766 453.359L424.769 455.072C423.266 455.587 422.288 456.195 421.836 456.898C421.416 457.589 421.346 458.344 421.626 459.16C421.906 459.977 422.44 460.524 423.228 460.801C424.017 461.078 424.95 461.032 426.028 460.662C427.04 460.315 427.871 459.757 428.52 458.987C429.19 458.173 429.542 457.177 429.575 455.997L432.025 458.99C432.162 460.987 431.674 462.706 430.562 464.145C429.471 465.541 427.766 466.637 425.446 467.432ZM447.407 459.412L438.305 432.857L452.562 427.97C455.992 426.794 458.877 426.48 461.218 427.028C463.549 427.544 465.094 428.912 465.856 431.133C466.583 433.256 466.267 435.262 464.907 437.152C463.569 438.998 461.397 440.436 458.392 441.466L458.554 439.22C461.787 438.112 464.428 437.882 466.475 438.531C468.544 439.136 469.97 440.581 470.754 442.868C471.56 445.22 471.284 447.395 469.925 449.394C468.599 451.381 466.074 453.013 462.35 454.29L447.407 459.412ZM453.67 450.53L459.452 448.549C460.595 448.157 461.377 447.67 461.798 447.088C462.207 446.473 462.272 445.757 461.992 444.94C461.701 444.091 461.211 443.566 460.521 443.364C459.864 443.151 458.981 443.235 457.87 443.616L451.991 445.631L453.67 450.53ZM450.295 440.683L455.39 438.936C456.501 438.555 457.25 438.079 457.638 437.508C458.015 436.905 458.069 436.211 457.801 435.427C457.532 434.643 457.075 434.161 456.429 433.981C455.772 433.768 454.888 433.852 453.778 434.233L448.682 435.979L450.295 440.683ZM493.803 443.508L492.107 438.56L491.05 437.553L487.927 428.44C487.423 426.971 486.579 426 485.396 425.53C484.234 425.016 482.674 425.094 480.714 425.766C479.44 426.203 478.223 426.857 477.062 427.73C475.889 428.57 474.969 429.506 474.301 430.538L468.999 425.292C470.165 423.797 471.704 422.43 473.616 421.191C475.549 419.908 477.56 418.908 479.651 418.192C483.962 416.714 487.635 416.568 490.67 417.755C493.726 418.897 495.976 421.575 497.42 425.789L502.475 440.536L493.803 443.508ZM486.115 446.636C483.992 447.364 482.073 447.621 480.357 447.406C478.64 447.191 477.178 446.597 475.968 445.625C474.792 444.641 473.94 443.382 473.414 441.847C472.854 440.213 472.781 438.669 473.195 437.213C473.63 435.714 474.606 434.357 476.125 433.143C477.632 431.896 479.757 430.803 482.501 429.862L488.772 427.713L490.435 432.563L485.437 434.276C483.935 434.791 482.957 435.4 482.505 436.103C482.085 436.794 482.015 437.548 482.295 438.365C482.574 439.181 483.109 439.728 483.897 440.005C484.686 440.283 485.619 440.236 486.697 439.867C487.709 439.52 488.54 438.961 489.189 438.192C489.859 437.378 490.211 436.381 490.244 435.202L492.694 438.195C492.831 440.192 492.343 441.91 491.231 443.35C490.14 444.746 488.434 445.841 486.115 446.636ZM514.004 436.584L506.732 415.37L509.446 416.739L498.864 420.366L496.328 412.968L522.687 403.933L525.223 411.331L514.64 414.959L515.992 412.196L523.264 433.41L514.004 436.584ZM544.695 405.587C548.234 404.411 551.197 404.271 553.585 405.168C555.973 406.065 557.654 407.934 558.628 410.776C559.636 413.716 559.353 416.404 557.779 418.842C556.227 421.235 553.568 423.059 549.8 424.314L535.396 429.252L526.294 402.697L535.554 399.523L538.375 407.754L544.695 405.587ZM546.686 418.264C547.797 417.883 548.573 417.325 549.014 416.59C549.456 415.855 549.492 414.948 549.122 413.87C548.741 412.76 548.162 412.082 547.385 411.838C546.64 411.582 545.691 411.634 544.536 411.993L540.323 413.437L542.456 419.659L546.686 418.264ZM121.45 631.395L109.118 621.771L115.102 614.792L132.425 627.634L121.45 631.395ZM102.833 637.777L93.7303 611.222L103.039 608.031L112.142 634.586L102.833 637.777ZM106.157 626.071L103.654 618.771L113.257 615.479L115.76 622.779L106.157 626.071ZM117.595 619.029L108.572 621.137L112.887 604.656L122.735 601.28L117.595 619.029ZM135.512 626.576L126.409 600.021L135.669 596.847L140.439 610.761L146.791 593.034L155.365 590.096L164.467 616.651L155.158 619.841L150.372 605.878L144.135 623.62L135.512 626.576ZM170.726 614.505L161.624 587.95L170.884 584.776L174.26 594.624L183.813 591.349L180.438 581.501L189.747 578.31L198.849 604.865L189.54 608.056L186.349 598.747L176.795 602.022L179.986 611.331L170.726 614.505ZM218.36 598.67C215.453 599.667 212.671 599.963 210.015 599.56C207.358 599.157 205.023 598.15 203.012 596.54C201.021 594.886 199.567 592.72 198.649 590.042C197.731 587.363 197.556 584.777 198.125 582.283C198.726 579.777 199.957 577.566 201.819 575.651C203.67 573.702 206.049 572.23 208.956 571.233C211.863 570.237 214.645 569.94 217.301 570.344C219.98 570.703 222.308 571.694 224.288 573.315C226.267 574.936 227.715 577.086 228.634 579.764C229.552 582.442 229.732 585.045 229.175 587.572C228.606 590.067 227.38 592.294 225.497 594.253C223.646 596.201 221.267 597.674 218.36 598.67ZM215.824 591.272C216.902 590.903 217.766 590.333 218.414 589.563C219.095 588.782 219.519 587.834 219.684 586.719C219.838 585.571 219.686 584.328 219.227 582.988C218.768 581.649 218.136 580.606 217.333 579.86C216.518 579.08 215.602 578.591 214.585 578.392C213.601 578.182 212.569 578.262 211.492 578.632C210.446 578.99 209.583 579.56 208.902 580.341C208.253 581.11 207.83 582.059 207.632 583.185C207.456 584.267 207.597 585.478 208.056 586.817C208.515 588.157 209.157 589.232 209.983 590.044C210.83 590.812 211.746 591.301 212.731 591.511C213.748 591.71 214.779 591.63 215.824 591.272ZM251.825 586.707L242.723 560.152L251.983 556.978L256.753 570.892L263.105 553.165L271.679 550.227L280.781 576.782L271.472 579.972L266.686 566.009L260.448 583.751L251.825 586.707ZM300.518 570.509C297.578 571.517 294.747 571.83 292.025 571.449C289.336 571.057 286.985 570.056 284.973 568.446C282.95 566.803 281.48 564.643 280.562 561.965C279.643 559.286 279.485 556.694 280.086 554.189C280.687 551.683 281.935 549.467 283.83 547.54C285.746 545.569 288.174 544.08 291.113 543.072C294.118 542.042 296.933 541.789 299.558 542.313C302.183 542.837 304.351 544.101 306.06 546.107L300.118 552.25C299.071 551.222 297.996 550.587 296.891 550.345C295.775 550.07 294.678 550.118 293.6 550.487C292.522 550.857 291.626 551.438 290.912 552.23C290.198 553.022 289.743 553.981 289.545 555.108C289.368 556.19 289.509 557.401 289.968 558.74C290.439 560.112 291.081 561.188 291.896 561.967C292.743 562.735 293.692 563.213 294.741 563.401C295.791 563.588 296.855 563.497 297.933 563.128C299.011 562.758 299.912 562.139 300.636 561.27C301.349 560.369 301.803 559.191 301.998 557.737L310.46 558.943C310.34 561.576 309.405 563.904 307.653 565.928C305.901 567.952 303.523 569.479 300.518 570.509ZM335.323 558.086L322.99 548.462L328.975 541.483L346.297 554.325L335.323 558.086ZM316.705 564.468L307.603 537.913L316.912 534.722L326.014 561.277L316.705 564.468ZM320.029 552.762L317.527 545.462L327.13 542.17L329.632 549.47L320.029 552.762ZM331.467 545.72L322.444 547.828L326.759 531.347L336.607 527.971L331.467 545.72ZM356.209 562.042C354.805 562.523 353.305 562.781 351.711 562.817C350.161 562.873 348.822 562.694 347.694 562.277L348.694 554.653C349.417 554.952 350.183 555.11 350.991 555.125C351.843 555.161 352.628 555.056 353.347 554.81C354.36 554.463 355.081 553.96 355.513 553.301C355.944 552.642 356.204 551.75 356.293 550.625L356.459 547.118L356.875 545.935L358.249 520.553L367.117 517.513L365.124 549.076C364.993 551.676 364.542 553.82 363.77 555.508C363.042 557.217 362.033 558.585 360.742 559.612C359.484 560.627 357.973 561.437 356.209 562.042ZM356.812 551.98L335.614 528.312L345.168 525.037L361.146 543.541L356.812 551.98ZM392 539.152C389.06 540.16 386.229 540.473 383.507 540.092C380.818 539.7 378.467 538.699 376.455 537.089C374.432 535.446 372.961 533.286 372.043 530.607C371.125 527.929 370.967 525.337 371.568 522.831C372.169 520.326 373.417 518.11 375.312 516.183C377.228 514.212 379.655 512.723 382.595 511.715C385.6 510.685 388.415 510.432 391.04 510.956C393.665 511.479 395.833 512.744 397.542 514.75L391.599 520.893C390.553 519.864 389.478 519.229 388.373 518.987C387.257 518.713 386.16 518.761 385.082 519.13C384.004 519.499 383.108 520.08 382.394 520.873C381.68 521.665 381.224 522.624 381.026 523.75C380.85 524.833 380.991 526.044 381.45 527.383C381.92 528.755 382.563 529.83 383.378 530.61C384.225 531.378 385.173 531.856 386.223 532.043C387.273 532.231 388.337 532.14 389.415 531.771C390.493 531.401 391.394 530.782 392.118 529.913C392.831 529.012 393.285 527.834 393.48 526.38L401.942 527.586C401.822 530.219 400.887 532.547 399.135 534.571C397.383 536.595 395.005 538.122 392 539.152ZM421.377 529.082C418.438 530.09 415.607 530.403 412.884 530.022C410.195 529.63 407.844 528.629 405.833 527.019C403.809 525.376 402.339 523.216 401.421 520.538C400.503 517.859 400.344 515.267 400.946 512.762C401.547 510.256 402.795 508.04 404.689 506.113C406.605 504.142 409.033 502.653 411.973 501.645C414.978 500.615 417.793 500.362 420.418 500.886C423.043 501.41 425.21 502.674 426.92 504.68L420.977 510.823C419.931 509.795 418.855 509.16 417.75 508.918C416.634 508.643 415.537 508.691 414.46 509.06C413.382 509.43 412.486 510.011 411.772 510.803C411.058 511.595 410.602 512.554 410.404 513.681C410.227 514.763 410.369 515.974 410.828 517.313C411.298 518.685 411.94 519.761 412.755 520.54C413.602 521.308 414.551 521.786 415.601 521.974C416.651 522.161 417.714 522.07 418.792 521.701C419.87 521.331 420.771 520.712 421.495 519.844C422.209 518.942 422.663 517.764 422.858 516.311L431.319 517.516C431.2 520.149 430.264 522.477 428.512 524.501C426.761 526.525 424.382 528.052 421.377 529.082ZM443.588 520.976L436.316 499.762L439.031 501.131L428.448 504.758L425.912 497.36L452.271 488.325L454.807 495.723L444.224 499.351L445.576 496.588L452.848 517.802L443.588 520.976ZM464.98 513.644L455.878 487.089L470.135 482.202C473.565 481.026 476.45 480.712 478.792 481.26C481.122 481.776 482.667 483.144 483.429 485.365C484.157 487.488 483.841 489.494 482.481 491.384C481.142 493.23 478.971 494.668 475.966 495.698L476.127 493.452C479.36 492.344 482.001 492.114 484.048 492.763C486.117 493.368 487.544 494.813 488.327 497.1C489.133 499.452 488.857 501.627 487.498 503.626C486.172 505.613 483.647 507.245 479.923 508.522L464.98 513.644ZM471.243 504.762L477.025 502.781C478.168 502.389 478.95 501.902 479.371 501.32C479.781 500.705 479.846 499.989 479.566 499.172C479.275 498.323 478.784 497.798 478.095 497.596C477.438 497.383 476.554 497.467 475.443 497.848L469.564 499.863L471.243 504.762ZM467.868 494.915L472.963 493.168C474.074 492.787 474.823 492.311 475.211 491.74C475.589 491.137 475.643 490.443 475.374 489.659C475.105 488.875 474.648 488.393 474.002 488.213C473.345 488 472.462 488.084 471.351 488.465L466.256 490.211L467.868 494.915ZM508.882 499.088C505.975 500.085 503.193 500.381 500.536 499.978C497.88 499.574 495.545 498.568 493.533 496.958C491.543 495.304 490.089 493.138 489.171 490.46C488.253 487.781 488.078 485.195 488.646 482.7C489.248 480.195 490.479 477.984 492.341 476.068C494.192 474.12 496.57 472.648 499.477 471.651C502.384 470.655 505.166 470.358 507.823 470.762C510.501 471.121 512.83 472.111 514.809 473.733C516.789 475.354 518.237 477.503 519.155 480.182C520.073 482.86 520.254 485.463 519.696 487.99C519.128 490.484 517.902 492.711 516.019 494.671C514.168 496.619 511.789 498.092 508.882 499.088ZM506.346 491.69C507.424 491.321 508.287 490.751 508.936 489.981C509.617 489.2 510.041 488.252 510.206 487.137C510.36 485.989 510.207 484.745 509.748 483.406C509.289 482.067 508.658 481.024 507.855 480.278C507.04 479.498 506.124 479.009 505.107 478.81C504.122 478.6 503.091 478.68 502.013 479.049C500.968 479.408 500.105 479.977 499.424 480.758C498.775 481.528 498.352 482.476 498.154 483.603C497.977 484.685 498.119 485.896 498.578 487.235C499.037 488.574 499.679 489.65 500.505 490.462C501.352 491.23 502.268 491.719 503.253 491.929C504.27 492.128 505.301 492.048 506.346 491.69Z" fill="#4F6234"/>
</svg>
