<svg width="1240" height="339" viewBox="0 0 1240 339" fill="none" xmlns="http://www.w3.org/2000/svg">
<line opacity="0.7" y1="109.947" x2="1240" y2="109.947" stroke="#FFD17C"/>
<path d="M412.694 20.5778L404 16.4276V26.4669L412.694 22.3167V20.5778ZM443.306 22.3167L452 26.4669V16.4276L443.306 20.5778V22.3167ZM411.825 22.3167H444.175V20.5778H411.825V22.3167Z" fill="#FFD17C"/>
<path d="M613.694 20.5778L605 16.4276V26.4669L613.694 22.3167V20.5778ZM677.306 22.3167L686 26.4669V16.4276L677.306 20.5778V22.3167ZM612.825 22.3167H678.175V20.5778H612.825V22.3167Z" fill="#FFD17C"/>
<path d="M843.694 20.5778L835 16.4276V26.4669L843.694 22.3167V20.5778ZM888.306 22.3167L897 26.4669V16.4276L888.306 20.5778V22.3167ZM842.825 22.3167H889.175V20.5778H842.825V22.3167Z" fill="#FFD17C"/>
<path d="M496.819 290.142C496.819 272.751 477.692 264.06 477.692 264.06" stroke="#FFD17C" stroke-width="1.73886"/>
<path d="M339.453 164.944C339.453 147.553 320.325 138.861 320.325 138.861" stroke="#FFD17C" stroke-width="1.73886"/>
<path d="M395.792 289.447L291.112 165.293L297.372 162.511L404.486 289.447H395.792ZM223.645 289.447V46.0073H230.6V289.447H223.645ZM227.818 168.771V162.163H298.763V168.771H227.818ZM297.372 168.075L291.112 165.293L388.488 46.0073H397.183L297.372 168.075ZM451.027 289.447V109.649H457.983V277.623L598.483 109.649H604.047V289.447H597.091V121.474L456.592 289.447H451.027ZM685.366 289.447V109.649H692.321V195.549H827.604V109.649H834.56V289.447H827.604V201.809H692.321V289.447H685.366ZM984.131 290.491C967.438 290.491 952.484 286.665 939.269 279.014C926.285 271.131 915.968 260.35 908.317 246.671C900.666 232.761 896.841 216.995 896.841 199.374C896.841 181.522 900.666 165.872 908.317 152.425C915.968 138.746 926.285 128.081 939.269 120.43C952.484 112.548 967.438 108.606 984.131 108.606C1000.82 108.606 1015.78 112.548 1028.99 120.43C1042.21 128.081 1052.53 138.746 1059.95 152.425C1067.6 165.872 1071.42 181.522 1071.42 199.374C1071.42 216.995 1067.6 232.761 1059.95 246.671C1052.53 260.35 1042.21 271.131 1028.99 279.014C1015.78 286.665 1000.82 290.491 984.131 290.491ZM984.131 283.883C999.433 283.883 1013.11 280.289 1025.17 273.102C1037.46 265.915 1047.08 255.945 1054.03 243.194C1060.99 230.442 1064.47 215.836 1064.47 199.374C1064.47 182.681 1060.99 168.075 1054.03 155.555C1047.08 142.804 1037.46 132.95 1025.17 125.995C1013.11 118.807 999.433 115.214 984.131 115.214C968.829 115.214 955.15 118.807 943.094 125.995C931.038 132.95 921.416 142.804 914.229 155.555C907.274 168.075 903.796 182.681 903.796 199.374C903.796 215.836 907.274 230.442 914.229 243.194C921.416 255.945 931.038 265.915 943.094 273.102C955.15 280.289 968.829 283.883 984.131 283.883Z" fill="#4F6234"/>
<path d="M224.688 165.814L233.382 170.834V160.795L224.688 165.814ZM403.79 165.814L395.096 160.795V170.834L403.79 165.814ZM232.513 166.684H395.965V164.945H232.513V166.684Z" fill="#FFD17C"/>
<path d="M600 290.495L605.02 281.801H594.98L600 290.495ZM600 111.393L594.98 120.087H605.02L600 111.393ZM600.869 282.67V119.218H599.131V282.67H600.869Z" fill="#FFD17C"/>
<path d="M894.148 195.375L902.842 200.395V190.355L894.148 195.375ZM1073.25 195.375L1064.56 190.355V200.395L1073.25 195.375ZM901.973 196.244H1065.43V194.506H901.973V196.244Z" fill="#FFD17C"/>
<line opacity="0.7" y1="289.947" x2="1240" y2="289.947" stroke="#FFD17C"/>
<line opacity="0.7" y1="45.9473" x2="1240" y2="45.9473" stroke="#FFD17C"/>
<line opacity="0.7" x1="223.5" y1="338.447" x2="223.5" y2="0.447266" stroke="#FFD17C"/>
<line opacity="0.7" x1="403.5" y1="338.447" x2="403.5" y2="0.447266" stroke="#FFD17C"/>
<line opacity="0.7" x1="451.5" y1="338.447" x2="451.5" y2="0.447266" stroke="#FFD17C"/>
<line opacity="0.7" x1="685.5" y1="338.447" x2="685.5" y2="0.447266" stroke="#FFD17C"/>
<line opacity="0.7" x1="834.5" y1="338.447" x2="834.5" y2="0.447266" stroke="#FFD17C"/>
<line opacity="0.7" x1="896.5" y1="338.447" x2="896.5" y2="0.447266" stroke="#FFD17C"/>
<line opacity="0.7" x1="1071.5" y1="338.447" x2="1071.5" y2="0.447266" stroke="#FFD17C"/>
<line opacity="0.7" x1="604.5" y1="338.447" x2="604.5" y2="0.447266" stroke="#FFD17C"/>
</svg>
