<svg width="461" height="461" viewBox="0 0 461 461" fill="none" xmlns="http://www.w3.org/2000/svg">
<path d="M4.75342 157.836H451.645V431.207C451.645 447.661 438.306 461 421.852 461H34.5461C18.0921 461 4.75342 447.661 4.75342 431.207V157.836Z" fill="#FFD17C"/>
<rect x="3.56177" y="116.143" width="457.021" height="41.6925" fill="#4F6234"/>
<rect width="457.015" height="41.6931" transform="matrix(0.983984 -0.178255 0.178399 0.983958 0.58252 81.4651)" fill="#4F6234"/>
<path d="M168.614 120.908L143.588 152.476H179.935L205.557 120.908H168.614Z" fill="#FFFEFD"/>
<path d="M169.201 88.6614L138.609 62.4474L174.288 55.5149L205.465 81.6153L169.201 88.6614Z" fill="#FFFEFD"/>
<path d="M416.489 120.908L391.463 152.476H427.811L453.432 120.908H416.489Z" fill="#FFFEFD"/>
<path d="M412.983 43.8206L382.391 17.6065L418.071 10.6741L449.248 36.7744L412.983 43.8206Z" fill="#FFFEFD"/>
<path d="M354.52 120.908L329.494 152.476H365.842L391.463 120.908H354.52Z" fill="#FFFEFD"/>
<path d="M352.038 55.0305L321.446 28.8165L357.125 21.884L388.302 47.9844L352.038 55.0305Z" fill="#FFFEFD"/>
<path d="M292.551 120.908L267.526 152.476H303.873L329.494 120.908H292.551Z" fill="#FFFEFD"/>
<path d="M291.092 66.2407L260.5 40.0267L296.179 33.0942L327.356 59.1946L291.092 66.2407Z" fill="#FFFEFD"/>
<path d="M230.583 120.908L205.557 152.476H241.904L267.526 120.908H230.583Z" fill="#FFFEFD"/>
<path d="M230.146 77.4509L199.554 51.2369L235.234 44.3044L266.411 70.4048L230.146 77.4509Z" fill="#FFFEFD"/>
<path d="M3.65983 97.7901L3.49484 146.229C3.48337 149.596 6.26234 152.304 9.62817 152.205L104.428 149.425C107.717 149.329 110.306 146.584 110.209 143.295L109.891 132.472C109.843 130.829 109.118 129.278 107.887 128.188L50.9917 77.7684C49.8567 76.7626 48.381 76.2274 46.8651 76.2718L9.02196 77.3816C5.73256 77.478 3.14423 80.2228 3.24078 83.5122L3.65983 97.7901Z" fill="#FFD17C"/>
<path d="M57.7105 234L62.7025 222.8H65.2625L70.2705 234H67.5505L63.4545 224.112H64.4785L60.3665 234H57.7105ZM60.2065 231.6L60.8945 229.632H66.6545L67.3585 231.6H60.2065ZM76.7158 234V232.32L76.5558 231.952V228.944C76.5558 228.411 76.3904 227.995 76.0598 227.696C75.7398 227.397 75.2438 227.248 74.5718 227.248C74.1131 227.248 73.6598 227.323 73.2118 227.472C72.7744 227.611 72.4011 227.803 72.0918 228.048L71.1958 226.304C71.6651 225.973 72.2304 225.717 72.8918 225.536C73.5531 225.355 74.2251 225.264 74.9078 225.264C76.2198 225.264 77.2384 225.573 77.9638 226.192C78.6891 226.811 79.0518 227.776 79.0518 229.088V234H76.7158ZM74.0918 234.128C73.4198 234.128 72.8438 234.016 72.3638 233.792C71.8838 233.557 71.5158 233.243 71.2598 232.848C71.0038 232.453 70.8758 232.011 70.8758 231.52C70.8758 231.008 70.9984 230.56 71.2438 230.176C71.4998 229.792 71.8998 229.493 72.4438 229.28C72.9878 229.056 73.6971 228.944 74.5718 228.944H76.8598V230.4H74.8438C74.2571 230.4 73.8518 230.496 73.6278 230.688C73.4144 230.88 73.3078 231.12 73.3078 231.408C73.3078 231.728 73.4304 231.984 73.6758 232.176C73.9318 232.357 74.2784 232.448 74.7158 232.448C75.1318 232.448 75.5051 232.352 75.8358 232.16C76.1664 231.957 76.4064 231.664 76.5558 231.28L76.9398 232.432C76.7584 232.987 76.4278 233.408 75.9478 233.696C75.4678 233.984 74.8491 234.128 74.0918 234.128Z" fill="#4F6234"/>
<path d="M58.5999 317.471V306.271H68.8079V317.471H66.2319V307.791L66.8239 308.383H60.5839L61.1759 307.791V317.471H58.5999ZM71.3923 317.471V308.863H79.9523V317.471H77.4563V310.351L78.0163 310.911H73.3123L73.8723 310.351V317.471H71.3923Z" fill="#4F6234"/>
<path d="M57.9665 274.008L58.7665 272.152C59.2465 272.44 59.7585 272.664 60.3025 272.824C60.8572 272.973 61.3959 273.059 61.9185 273.08C62.4519 273.091 62.9319 273.037 63.3585 272.92C63.7959 272.803 64.1425 272.627 64.3985 272.392C64.6652 272.157 64.7985 271.859 64.7985 271.496C64.7985 271.069 64.6225 270.755 64.2705 270.552C63.9185 270.339 63.4492 270.232 62.8625 270.232H60.1265V268.28H62.6705C63.1932 268.28 63.5985 268.173 63.8865 267.96C64.1852 267.747 64.3345 267.453 64.3345 267.08C64.3345 266.76 64.2279 266.504 64.0145 266.312C63.8012 266.109 63.5079 265.96 63.1345 265.864C62.7719 265.768 62.3612 265.725 61.9025 265.736C61.4439 265.747 60.9692 265.821 60.4785 265.96C59.9879 266.099 59.5185 266.291 59.0705 266.536L58.2865 264.536C59.0119 264.163 59.7745 263.907 60.5745 263.768C61.3852 263.619 62.1639 263.581 62.9105 263.656C63.6679 263.72 64.3505 263.891 64.9585 264.168C65.5665 264.435 66.0519 264.787 66.4145 265.224C66.7772 265.661 66.9585 266.179 66.9585 266.776C66.9585 267.309 66.8199 267.784 66.5425 268.2C66.2652 268.616 65.8759 268.936 65.3745 269.16C64.8839 269.384 64.3185 269.496 63.6785 269.496L63.7425 268.92C64.4892 268.92 65.1345 269.048 65.6785 269.304C66.2332 269.549 66.6599 269.896 66.9585 270.344C67.2679 270.781 67.4225 271.288 67.4225 271.864C67.4225 272.397 67.2785 272.877 66.9905 273.304C66.7132 273.72 66.3292 274.072 65.8385 274.36C65.3479 274.648 64.7879 274.861 64.1585 275C63.5292 275.139 62.8572 275.197 62.1425 275.176C61.4385 275.155 60.7292 275.053 60.0145 274.872C59.2999 274.68 58.6172 274.392 57.9665 274.008ZM72.1945 275.16C71.5332 275.16 70.8719 275.091 70.2105 274.952C69.5599 274.813 68.9572 274.605 68.4025 274.328L69.0745 272.584C69.5119 272.797 69.9865 272.963 70.4985 273.08C71.0212 273.187 71.5492 273.24 72.0825 273.24C72.4665 273.24 72.7972 273.203 73.0745 273.128C73.3625 273.043 73.5812 272.925 73.7305 272.776C73.8799 272.627 73.9545 272.445 73.9545 272.232C73.9545 271.955 73.8372 271.747 73.6025 271.608C73.3679 271.459 73.0265 271.384 72.5785 271.384H70.8185V269.832H72.3705C72.6585 269.832 72.9039 269.8 73.1065 269.736C73.3092 269.672 73.4585 269.581 73.5545 269.464C73.6612 269.336 73.7145 269.187 73.7145 269.016C73.7145 268.835 73.6505 268.68 73.5225 268.552C73.3945 268.424 73.2079 268.328 72.9625 268.264C72.7172 268.189 72.4079 268.152 72.0345 268.152C71.6079 268.152 71.1652 268.205 70.7065 268.312C70.2479 268.408 69.7785 268.552 69.2985 268.744L68.6905 267.016C69.2559 266.781 69.8159 266.595 70.3705 266.456C70.9252 266.317 71.4745 266.243 72.0185 266.232C72.8185 266.211 73.5385 266.296 74.1785 266.488C74.8185 266.68 75.3199 266.957 75.6825 267.32C76.0559 267.683 76.2425 268.125 76.2425 268.648C76.2425 269.064 76.1145 269.437 75.8585 269.768C75.6132 270.099 75.2719 270.36 74.8345 270.552C74.3972 270.733 73.9065 270.824 73.3625 270.824L73.4265 270.328C74.3759 270.328 75.1225 270.52 75.6665 270.904C76.2105 271.277 76.4825 271.789 76.4825 272.44C76.4825 272.995 76.2905 273.48 75.9065 273.896C75.5332 274.301 75.0212 274.616 74.3705 274.84C73.7305 275.053 73.0052 275.16 72.1945 275.16Z" fill="#4F6234"/>
<path d="M58.5999 359.454V348.254H61.1759V357.342H66.1679V348.254H68.7439V359.454H58.5999ZM67.9599 361.822V358.846L68.5199 359.454H66.1679V357.342H70.3439V361.822H67.9599ZM71.861 359.454V350.846H74.341V357.406H77.813V350.846H80.309V359.454H71.861ZM79.237 361.31V359.422L79.813 359.454H77.813V357.406H81.557V361.31H79.237Z" fill="#4F6234"/>
<path d="M110.6 233.506V222.306H119.64V224.37H113.176V226.674H116.28C117.635 226.674 118.664 226.957 119.368 227.522C120.083 228.087 120.44 228.909 120.44 229.986C120.44 231.095 120.045 231.959 119.256 232.578C118.467 233.197 117.352 233.506 115.912 233.506H110.6ZM113.176 231.586H115.768C116.429 231.586 116.936 231.458 117.288 231.202C117.64 230.935 117.816 230.551 117.816 230.05C117.816 229.069 117.133 228.578 115.768 228.578H113.176V231.586ZM126.492 233.698C125.788 233.698 125.148 233.597 124.572 233.394C123.996 233.181 123.495 232.855 123.068 232.418C122.652 231.97 122.327 231.399 122.092 230.706C121.868 230.013 121.756 229.186 121.756 228.226C121.756 227.543 121.815 226.919 121.932 226.354C122.05 225.789 122.226 225.277 122.46 224.818C122.695 224.349 122.994 223.938 123.356 223.586C123.73 223.223 124.162 222.925 124.652 222.69C125.154 222.445 125.719 222.258 126.348 222.13L130.444 221.314L130.78 223.458L127.164 224.178C126.951 224.221 126.706 224.279 126.428 224.354C126.162 224.418 125.89 224.519 125.612 224.658C125.346 224.797 125.095 224.994 124.86 225.25C124.636 225.495 124.455 225.821 124.316 226.226C124.178 226.621 124.108 227.111 124.108 227.698C124.108 227.879 124.114 228.018 124.124 228.114C124.146 228.21 124.162 228.311 124.172 228.418C124.194 228.525 124.204 228.69 124.204 228.914L123.404 228.13C123.639 227.629 123.938 227.202 124.3 226.85C124.674 226.498 125.1 226.231 125.58 226.05C126.071 225.858 126.615 225.762 127.212 225.762C128.023 225.762 128.732 225.927 129.34 226.258C129.959 226.578 130.439 227.031 130.78 227.618C131.122 228.205 131.292 228.871 131.292 229.618C131.292 230.429 131.09 231.143 130.684 231.762C130.279 232.37 129.714 232.845 128.988 233.186C128.274 233.527 127.442 233.698 126.492 233.698ZM126.62 231.762C127.036 231.762 127.404 231.671 127.724 231.49C128.044 231.298 128.29 231.047 128.46 230.738C128.642 230.418 128.732 230.061 128.732 229.666C128.732 229.282 128.642 228.941 128.46 228.642C128.29 228.343 128.044 228.109 127.724 227.938C127.404 227.767 127.031 227.682 126.604 227.682C126.188 227.682 125.815 227.767 125.484 227.938C125.154 228.098 124.898 228.322 124.716 228.61C124.535 228.898 124.444 229.234 124.444 229.618C124.444 230.013 124.535 230.375 124.716 230.706C124.908 231.026 125.164 231.282 125.484 231.474C125.815 231.666 126.194 231.762 126.62 231.762Z" fill="#4F6234"/>
<path d="M112.975 317V305.8H117.823C118.825 305.8 119.689 305.965 120.415 306.296C121.14 306.616 121.7 307.08 122.095 307.688C122.489 308.296 122.687 309.021 122.687 309.864C122.687 310.696 122.489 311.416 122.095 312.024C121.7 312.632 121.14 313.101 120.415 313.432C119.689 313.752 118.825 313.912 117.823 313.912H114.415L115.567 312.744V317H112.975ZM115.567 313.032L114.415 311.8H117.679C118.479 311.8 119.076 311.629 119.471 311.288C119.865 310.947 120.063 310.472 120.063 309.864C120.063 309.245 119.865 308.765 119.471 308.424C119.076 308.083 118.479 307.912 117.679 307.912H114.415L115.567 306.68V313.032ZM129.261 317.128C128.535 317.128 127.901 316.968 127.357 316.648C126.813 316.328 126.386 315.843 126.077 315.192C125.778 314.531 125.629 313.699 125.629 312.696C125.629 311.683 125.773 310.851 126.061 310.2C126.349 309.549 126.765 309.064 127.309 308.744C127.853 308.424 128.503 308.264 129.261 308.264C130.071 308.264 130.797 308.451 131.437 308.824C132.087 309.187 132.599 309.699 132.973 310.36C133.357 311.021 133.549 311.8 133.549 312.696C133.549 313.603 133.357 314.387 132.973 315.048C132.599 315.709 132.087 316.221 131.437 316.584C130.797 316.947 130.071 317.128 129.261 317.128ZM124.173 320.104V308.392H126.557V310.152L126.509 312.712L126.669 315.256V320.104H124.173ZM128.829 315.08C129.245 315.08 129.613 314.984 129.933 314.792C130.263 314.6 130.525 314.328 130.717 313.976C130.919 313.613 131.021 313.187 131.021 312.696C131.021 312.195 130.919 311.768 130.717 311.416C130.525 311.064 130.263 310.792 129.933 310.6C129.613 310.408 129.245 310.312 128.829 310.312C128.413 310.312 128.039 310.408 127.709 310.6C127.378 310.792 127.117 311.064 126.925 311.416C126.733 311.768 126.637 312.195 126.637 312.696C126.637 313.187 126.733 313.613 126.925 313.976C127.117 314.328 127.378 314.6 127.709 314.792C128.039 314.984 128.413 315.08 128.829 315.08Z" fill="#4F6234"/>
<path d="M107.6 275.489V264.289H110.176V271.585L115.52 264.289H117.952V275.489H115.392V268.209L110.048 275.489H107.6ZM120.549 275.489V266.881H123.029V272.001L127.221 266.881H129.509V275.489H127.029V270.369L122.853 275.489H120.549Z" fill="#4F6234"/>
<path d="M120.983 354.824C120.428 355.048 119.895 355.219 119.383 355.336C118.871 355.443 118.38 355.496 117.911 355.496C116.407 355.496 115.255 355.139 114.455 354.424C113.655 353.699 113.255 352.659 113.255 351.304V347.8H115.815V351.016C115.815 351.784 116.023 352.365 116.439 352.76C116.855 353.144 117.447 353.336 118.215 353.336C118.705 353.336 119.18 353.283 119.639 353.176C120.097 353.059 120.524 352.893 120.919 352.68L120.983 354.824ZM120.615 359V347.8H123.175V359H120.615ZM131.191 355.704C130.839 355.896 130.45 356.051 130.023 356.168C129.596 356.285 129.127 356.344 128.615 356.344C127.484 356.344 126.615 356.088 126.007 355.576C125.399 355.053 125.095 354.227 125.095 353.096V350.392H127.591V352.936C127.591 353.469 127.73 353.853 128.007 354.088C128.284 354.312 128.674 354.424 129.175 354.424C129.538 354.424 129.884 354.381 130.215 354.296C130.556 354.211 130.882 354.088 131.191 353.928V355.704ZM131.015 359V350.392H133.511V359H131.015Z" fill="#4F6234"/>
<path d="M163.6 233.506V222.306H168.816C170.117 222.306 171.131 222.557 171.856 223.058C172.581 223.559 172.944 224.274 172.944 225.202C172.944 226.119 172.603 226.834 171.92 227.346C171.237 227.847 170.331 228.098 169.2 228.098L169.504 227.426C170.763 227.426 171.739 227.677 172.432 228.178C173.125 228.679 173.472 229.405 173.472 230.354C173.472 231.335 173.099 232.109 172.352 232.674C171.616 233.229 170.539 233.506 169.12 233.506H163.6ZM166.176 231.586H169.024C169.621 231.586 170.075 231.469 170.384 231.234C170.693 230.999 170.848 230.637 170.848 230.146C170.848 229.677 170.693 229.33 170.384 229.106C170.075 228.871 169.621 228.754 169.024 228.754H166.176V231.586ZM166.176 226.946H168.592C169.157 226.946 169.584 226.834 169.872 226.61C170.16 226.375 170.304 226.034 170.304 225.586C170.304 225.138 170.16 224.802 169.872 224.578C169.584 224.343 169.157 224.226 168.592 224.226H166.176V226.946ZM175.33 233.506V224.898H179.73C180.807 224.898 181.65 225.095 182.258 225.49C182.866 225.874 183.17 226.418 183.17 227.122C183.17 227.826 182.882 228.381 182.306 228.786C181.74 229.181 180.988 229.378 180.05 229.378L180.306 228.802C181.351 228.802 182.13 228.994 182.642 229.378C183.164 229.762 183.426 230.322 183.426 231.058C183.426 231.815 183.138 232.413 182.562 232.85C181.986 233.287 181.106 233.506 179.922 233.506H175.33ZM177.618 231.81H179.714C180.172 231.81 180.514 231.735 180.738 231.586C180.972 231.426 181.09 231.186 181.09 230.866C181.09 230.535 180.983 230.295 180.77 230.146C180.556 229.986 180.22 229.906 179.762 229.906H177.618V231.81ZM177.618 228.434H179.506C179.943 228.434 180.268 228.354 180.482 228.194C180.706 228.034 180.818 227.805 180.818 227.506C180.818 227.197 180.706 226.967 180.482 226.818C180.268 226.669 179.943 226.594 179.506 226.594H177.618V228.434Z" fill="#4F6234"/>
<path d="M169.896 317.663C169.032 317.663 168.227 317.524 167.48 317.247C166.744 316.959 166.104 316.554 165.56 316.031C165.016 315.508 164.589 314.895 164.28 314.191C163.981 313.487 163.832 312.714 163.832 311.871C163.832 311.028 163.981 310.255 164.28 309.551C164.589 308.847 165.016 308.234 165.56 307.711C166.115 307.188 166.76 306.788 167.496 306.511C168.232 306.223 169.037 306.079 169.912 306.079C170.883 306.079 171.757 306.25 172.536 306.591C173.325 306.922 173.987 307.412 174.52 308.063L172.856 309.599C172.472 309.162 172.045 308.836 171.576 308.623C171.107 308.399 170.595 308.287 170.04 308.287C169.517 308.287 169.037 308.372 168.6 308.543C168.163 308.714 167.784 308.959 167.464 309.279C167.144 309.599 166.893 309.978 166.712 310.415C166.541 310.852 166.456 311.338 166.456 311.871C166.456 312.404 166.541 312.89 166.712 313.327C166.893 313.764 167.144 314.143 167.464 314.463C167.784 314.783 168.163 315.028 168.6 315.199C169.037 315.37 169.517 315.455 170.04 315.455C170.595 315.455 171.107 315.348 171.576 315.135C172.045 314.911 172.472 314.575 172.856 314.127L174.52 315.663C173.987 316.314 173.325 316.81 172.536 317.151C171.757 317.492 170.877 317.663 169.896 317.663ZM179.816 317.599C178.888 317.599 178.062 317.412 177.336 317.039C176.611 316.655 176.04 316.127 175.624 315.455C175.219 314.783 175.016 314.02 175.016 313.167C175.016 312.303 175.219 311.54 175.624 310.879C176.04 310.207 176.611 309.684 177.336 309.311C178.062 308.927 178.888 308.735 179.816 308.735C180.723 308.735 181.512 308.927 182.184 309.311C182.856 309.684 183.352 310.223 183.672 310.927L181.736 311.967C181.512 311.562 181.23 311.263 180.888 311.071C180.558 310.879 180.195 310.783 179.8 310.783C179.374 310.783 178.99 310.879 178.648 311.071C178.307 311.263 178.035 311.535 177.832 311.887C177.64 312.239 177.544 312.666 177.544 313.167C177.544 313.668 177.64 314.095 177.832 314.447C178.035 314.799 178.307 315.071 178.648 315.263C178.99 315.455 179.374 315.551 179.8 315.551C180.195 315.551 180.558 315.46 180.888 315.279C181.23 315.087 181.512 314.783 181.736 314.367L183.672 315.423C183.352 316.116 182.856 316.655 182.184 317.039C181.512 317.412 180.723 317.599 179.816 317.599Z" fill="#4F6234"/>
<path d="M170.223 275L166.735 269.608L168.831 268.344L173.167 275H170.223ZM162.943 275V263.8H165.519V275H162.943ZM164.767 270.488V268.328H168.671V270.488H164.767ZM169.071 269.688L166.687 269.4L170.319 263.8H173.055L169.071 269.688ZM180.488 275L177.608 270.92L179.64 269.72L183.432 275H180.488ZM174.392 275V266.392H176.888V275H174.392ZM176.152 271.736V269.736H179.16V271.736H176.152ZM179.88 270.984L177.544 270.728L180.568 266.392H183.224L179.88 270.984Z" fill="#4F6234"/>
<path d="M173.399 351.48C174.743 351.48 175.783 351.784 176.519 352.392C177.255 352.989 177.623 353.891 177.623 355.096C177.623 356.376 177.212 357.347 176.391 358.008C175.58 358.669 174.455 359 173.015 359H167.975V349.912H164.823V347.8H170.535V351.48H173.399ZM172.871 357.08C173.543 357.08 174.065 356.915 174.439 356.584C174.823 356.253 175.015 355.773 175.015 355.144C175.015 354.525 174.823 354.083 174.439 353.816C174.065 353.539 173.543 353.4 172.871 353.4H170.535V357.08H172.871ZM184.859 353.144C185.979 353.144 186.832 353.395 187.419 353.896C188.005 354.397 188.299 355.096 188.299 355.992C188.299 356.952 187.963 357.693 187.291 358.216C186.629 358.739 185.701 359 184.507 359H180.347V352.44H177.867V350.392H182.843V353.144H184.859ZM184.363 357.24C184.821 357.24 185.168 357.128 185.403 356.904C185.637 356.68 185.755 356.36 185.755 355.944C185.755 355.155 185.291 354.76 184.363 354.76H182.843V357.24H184.363Z" fill="#4F6234"/>
<path d="M215.975 234V222.8H223.879L223.863 224.912H217.943L218.535 224.32L218.551 234H215.975ZM224.392 234V225.392H231.288V227.44H226.312L226.872 226.896V234H224.392Z" fill="#4F6234"/>
<path d="M218.391 317V307.32L218.983 307.912H214.823V305.8H224.535V307.912H220.375L220.951 307.32V317H218.391ZM227.638 317V309.864L228.198 310.44H224.726V308.392H233.03V310.44H229.558L230.118 309.864V317H227.638Z" fill="#4F6234"/>
<path d="M214.087 275.176C213.895 275.176 213.692 275.16 213.479 275.128C213.276 275.096 213.052 275.053 212.807 275L212.967 272.808C213.116 272.851 213.271 272.872 213.431 272.872C213.868 272.872 214.209 272.696 214.455 272.344C214.7 271.981 214.876 271.464 214.983 270.792C215.089 270.12 215.159 269.304 215.191 268.344L215.351 263.8H223.959V275H221.399V265.32L221.991 265.912H217.047L217.575 265.288L217.479 268.248C217.447 269.347 217.372 270.323 217.255 271.176C217.137 272.029 216.956 272.755 216.711 273.352C216.465 273.949 216.129 274.403 215.703 274.712C215.276 275.021 214.737 275.176 214.087 275.176ZM225.476 274.984L225.604 272.936C225.668 272.947 225.732 272.957 225.796 272.968C225.86 272.968 225.918 272.968 225.972 272.968C226.27 272.968 226.505 272.883 226.676 272.712C226.846 272.541 226.974 272.312 227.06 272.024C227.145 271.725 227.204 271.389 227.236 271.016C227.278 270.643 227.31 270.253 227.332 269.848L227.46 266.392H234.82V275H232.324V267.832L232.884 268.44H229.108L229.636 267.8L229.524 269.96C229.492 270.728 229.428 271.432 229.332 272.072C229.246 272.712 229.102 273.267 228.9 273.736C228.697 274.195 228.425 274.552 228.084 274.808C227.742 275.053 227.305 275.176 226.772 275.176C226.58 275.176 226.377 275.16 226.164 275.128C225.95 275.096 225.721 275.048 225.476 274.984Z" fill="#4F6234"/>
<path d="M220.712 354.782V352.798H226.248V354.782H220.712ZM222.184 348.062C223.027 348.062 223.8 348.206 224.504 348.494C225.208 348.771 225.821 349.171 226.344 349.694C226.867 350.216 227.272 350.83 227.56 351.534C227.848 352.238 227.992 353.011 227.992 353.854C227.992 354.696 227.848 355.47 227.56 356.174C227.272 356.878 226.867 357.491 226.344 358.014C225.821 358.536 225.208 358.942 224.504 359.23C223.8 359.507 223.027 359.646 222.184 359.646C221.192 359.646 220.296 359.475 219.496 359.134C218.707 358.792 218.045 358.296 217.512 357.646L219.16 356.11C219.555 356.558 219.992 356.894 220.472 357.118C220.952 357.331 221.48 357.438 222.056 357.438C222.536 357.438 222.979 357.352 223.384 357.182C223.8 357 224.152 356.755 224.44 356.446C224.739 356.126 224.963 355.747 225.112 355.31C225.272 354.872 225.352 354.387 225.352 353.854C225.352 353.32 225.272 352.835 225.112 352.398C224.963 351.96 224.739 351.587 224.44 351.278C224.152 350.958 223.8 350.712 223.384 350.542C222.979 350.36 222.536 350.27 222.056 350.27C221.48 350.27 220.952 350.382 220.472 350.606C219.992 350.819 219.555 351.15 219.16 351.598L217.512 350.062C218.045 349.411 218.707 348.915 219.496 348.574C220.296 348.232 221.192 348.062 222.184 348.062ZM231.276 355.966V354.254H235.772V355.966H231.276ZM232.476 350.686C233.415 350.686 234.247 350.878 234.972 351.262C235.697 351.635 236.268 352.158 236.684 352.83C237.1 353.502 237.308 354.275 237.308 355.15C237.308 356.014 237.1 356.787 236.684 357.47C236.268 358.142 235.697 358.67 234.972 359.054C234.247 359.427 233.415 359.614 232.476 359.614C231.655 359.614 230.908 359.48 230.236 359.214C229.575 358.936 229.025 358.542 228.588 358.03L230.012 356.686C230.332 357.006 230.684 357.256 231.068 357.438C231.463 357.608 231.9 357.694 232.38 357.694C232.903 357.694 233.356 357.587 233.74 357.374C234.135 357.16 234.444 356.862 234.668 356.478C234.892 356.094 235.004 355.651 235.004 355.15C235.004 354.638 234.892 354.19 234.668 353.806C234.444 353.422 234.135 353.123 233.74 352.91C233.356 352.696 232.903 352.59 232.38 352.59C231.9 352.59 231.463 352.68 231.068 352.862C230.684 353.032 230.332 353.283 230.012 353.614L228.588 352.286C229.025 351.763 229.575 351.368 230.236 351.102C230.908 350.824 231.655 350.686 232.476 350.686Z" fill="#4F6234"/>
<path d="M268.399 232.848V224.912H264.559L264.511 226.544C264.479 227.237 264.431 227.893 264.367 228.512C264.313 229.131 264.228 229.696 264.111 230.208C263.993 230.709 263.839 231.136 263.647 231.488C263.465 231.84 263.236 232.091 262.959 232.24L260.191 231.888C260.575 231.899 260.889 231.765 261.135 231.488C261.391 231.211 261.593 230.821 261.743 230.32C261.892 229.808 261.999 229.211 262.063 228.528C262.137 227.845 262.191 227.104 262.223 226.304L262.351 222.8H270.959V232.848H268.399ZM259.823 236.32L259.839 231.888H272.527V236.32H270.127V234H262.223V236.32H259.823ZM279.999 232.88V227.44H277.183L277.135 228.544C277.114 229.003 277.087 229.44 277.055 229.856C277.023 230.272 276.959 230.651 276.863 230.992C276.778 231.323 276.65 231.605 276.479 231.84C276.309 232.064 276.079 232.219 275.791 232.304L273.327 231.952C273.637 231.952 273.887 231.861 274.079 231.68C274.271 231.488 274.421 231.227 274.527 230.896C274.634 230.555 274.714 230.171 274.767 229.744C274.821 229.307 274.858 228.848 274.879 228.368L274.991 225.392H282.495V232.88H279.999ZM273.039 235.856V231.952H283.727V235.856H281.407V234H275.359V235.856H273.039Z" fill="#4F6234"/>
<path d="M263.359 314.888C263.977 315.069 264.495 315.123 264.911 315.048C265.337 314.963 265.716 314.664 266.047 314.152L266.591 313.336L266.831 313.064L270.543 305.8H273.087L268.319 314.664C267.892 315.464 267.385 316.077 266.799 316.504C266.223 316.931 265.588 317.171 264.895 317.224C264.201 317.288 263.481 317.165 262.735 316.856L263.359 314.888ZM266.783 315.224L261.727 305.8H264.495L268.207 313.32L266.783 315.224ZM275.247 320.232C274.799 320.232 274.357 320.163 273.919 320.024C273.482 319.885 273.125 319.693 272.847 319.448L273.759 317.672C273.951 317.843 274.17 317.976 274.415 318.072C274.671 318.168 274.922 318.216 275.167 318.216C275.519 318.216 275.797 318.131 275.999 317.96C276.213 317.8 276.405 317.528 276.575 317.144L277.023 316.088L277.215 315.816L280.303 308.392H282.703L278.815 317.528C278.538 318.221 278.218 318.765 277.855 319.16C277.503 319.555 277.109 319.832 276.671 319.992C276.245 320.152 275.77 320.232 275.247 320.232ZM276.719 317.336L272.879 308.392H275.455L278.431 315.592L276.719 317.336Z" fill="#4F6234"/>
<path d="M266.6 275.489V264.289H268.744L273.512 272.193H272.376L277.064 264.289H279.208L279.224 275.489H276.792L276.776 268.017H277.24L273.48 274.305H272.328L268.488 268.017H269.032V275.489H266.6ZM281.814 275.489V266.881H284.422L287.67 272.769H286.63L290.102 266.881H292.438L292.47 275.489H290.214V269.441L290.598 269.697L287.638 274.657H286.582L283.606 269.521L284.07 269.409V275.489H281.814Z" fill="#4F6234"/>
<path d="M275.399 351.48C276.753 351.48 277.799 351.784 278.535 352.392C279.271 352.989 279.639 353.891 279.639 355.096C279.639 356.376 279.228 357.347 278.407 358.008C277.596 358.669 276.471 359 275.031 359H269.975V347.8H272.551V351.48H275.399ZM274.887 357.08C275.548 357.08 276.071 356.915 276.455 356.584C276.839 356.253 277.031 355.773 277.031 355.144C277.031 354.525 276.839 354.083 276.455 353.816C276.081 353.539 275.559 353.4 274.887 353.4H272.551V357.08H274.887ZM285.97 353.144C287.1 353.155 287.959 353.411 288.546 353.912C289.143 354.403 289.442 355.101 289.442 356.008C289.442 356.957 289.106 357.699 288.434 358.232C287.762 358.755 286.828 359.016 285.634 359.016L281.314 359V350.392H283.794V353.144H285.97ZM285.41 357.24C285.89 357.251 286.258 357.149 286.514 356.936C286.77 356.723 286.898 356.403 286.898 355.976C286.898 355.549 286.77 355.245 286.514 355.064C286.258 354.872 285.89 354.771 285.41 354.76L283.794 354.744V357.24H285.41Z" fill="#4F6234"/>
<path d="M316.984 226.818H322.376V228.834H316.984V226.818ZM317.176 231.426H323.272V233.506H314.6V222.306H323.064V224.386H317.176V231.426ZM329.335 233.634C328.353 233.634 327.489 233.442 326.743 233.058C326.007 232.674 325.436 232.151 325.031 231.49C324.625 230.818 324.423 230.055 324.423 229.202C324.423 228.338 324.62 227.575 325.015 226.914C325.42 226.242 325.969 225.719 326.663 225.346C327.356 224.962 328.14 224.77 329.015 224.77C329.857 224.77 330.615 224.951 331.287 225.314C331.969 225.666 332.508 226.178 332.903 226.85C333.297 227.511 333.495 228.306 333.495 229.234C333.495 229.33 333.489 229.442 333.479 229.57C333.468 229.687 333.457 229.799 333.447 229.906H326.455V228.45H332.135L331.175 228.882C331.175 228.434 331.084 228.045 330.903 227.714C330.721 227.383 330.471 227.127 330.151 226.946C329.831 226.754 329.457 226.658 329.031 226.658C328.604 226.658 328.225 226.754 327.895 226.946C327.575 227.127 327.324 227.389 327.143 227.73C326.961 228.061 326.871 228.455 326.871 228.914V229.298C326.871 229.767 326.972 230.183 327.175 230.546C327.388 230.898 327.681 231.17 328.055 231.362C328.439 231.543 328.887 231.634 329.399 231.634C329.857 231.634 330.257 231.565 330.599 231.426C330.951 231.287 331.271 231.079 331.559 230.802L332.887 232.242C332.492 232.69 331.996 233.037 331.399 233.282C330.801 233.517 330.113 233.634 329.335 233.634Z" fill="#4F6234"/>
<path d="M318.895 316.296C317.444 316.296 316.212 316.104 315.199 315.72C314.196 315.336 313.433 314.781 312.911 314.056C312.388 313.32 312.127 312.424 312.127 311.368C312.127 310.312 312.388 309.421 312.911 308.696C313.433 307.96 314.196 307.4 315.199 307.016C316.212 306.632 317.444 306.44 318.895 306.44C318.916 306.44 318.975 306.44 319.071 306.44C319.177 306.44 319.279 306.44 319.375 306.44C319.481 306.44 319.54 306.44 319.551 306.44C320.991 306.44 322.207 306.632 323.199 307.016C324.201 307.4 324.959 307.96 325.471 308.696C325.983 309.432 326.239 310.323 326.239 311.368C326.239 312.403 325.983 313.293 325.471 314.04C324.969 314.776 324.228 315.336 323.247 315.72C322.276 316.104 321.087 316.296 319.679 316.296C319.647 316.296 319.572 316.296 319.455 316.296C319.337 316.296 319.22 316.296 319.103 316.296C318.996 316.296 318.927 316.296 318.895 316.296ZM319.135 314.296C319.167 314.296 319.209 314.296 319.263 314.296C319.316 314.296 319.353 314.296 319.375 314.296C320.356 314.296 321.167 314.189 321.807 313.976C322.457 313.752 322.943 313.427 323.263 313C323.583 312.563 323.743 312.013 323.743 311.352C323.743 310.691 323.577 310.147 323.247 309.72C322.916 309.293 322.431 308.979 321.791 308.776C321.161 308.563 320.367 308.456 319.407 308.456C319.385 308.456 319.343 308.456 319.279 308.456C319.225 308.456 319.177 308.456 319.135 308.456C318.121 308.456 317.284 308.557 316.623 308.76C315.961 308.963 315.465 309.283 315.135 309.72C314.804 310.147 314.639 310.696 314.639 311.368C314.639 312.04 314.815 312.595 315.167 313.032C315.519 313.459 316.025 313.779 316.687 313.992C317.359 314.195 318.175 314.296 319.135 314.296ZM317.999 317.496V305.32H320.383V317.496H317.999ZM333.778 317.192C333.756 317.192 333.698 317.192 333.602 317.192C333.506 317.192 333.415 317.192 333.33 317.192C333.244 317.192 333.186 317.192 333.154 317.192C331.287 317.16 329.842 316.76 328.818 315.992C327.794 315.224 327.282 314.115 327.282 312.664C327.282 311.235 327.788 310.147 328.802 309.4C329.826 308.643 331.292 308.259 333.202 308.248C333.223 308.248 333.276 308.248 333.362 308.248C333.458 308.248 333.548 308.248 333.634 308.248C333.719 308.248 333.772 308.248 333.794 308.248C335.724 308.248 337.218 308.621 338.274 309.368C339.34 310.115 339.874 311.213 339.874 312.664C339.874 314.136 339.34 315.261 338.274 316.04C337.218 316.808 335.719 317.192 333.778 317.192ZM333.698 315.272C334.583 315.272 335.303 315.181 335.858 315C336.412 314.808 336.818 314.52 337.074 314.136C337.34 313.741 337.474 313.251 337.474 312.664C337.474 312.099 337.346 311.635 337.09 311.272C336.834 310.899 336.423 310.621 335.858 310.44C335.303 310.259 334.583 310.168 333.698 310.168C333.666 310.168 333.602 310.168 333.506 310.168C333.41 310.168 333.346 310.168 333.314 310.168C332.46 310.168 331.767 310.264 331.234 310.456C330.7 310.648 330.311 310.925 330.066 311.288C329.82 311.651 329.698 312.109 329.698 312.664C329.698 313.24 329.82 313.72 330.066 314.104C330.311 314.488 330.7 314.776 331.234 314.968C331.767 315.16 332.46 315.261 333.314 315.272C333.346 315.272 333.41 315.272 333.506 315.272C333.602 315.272 333.666 315.272 333.698 315.272ZM332.434 320.104V305.128H334.722V320.104H332.434Z" fill="#4F6234"/>
<path d="M333.655 263.8H336.247V275H333.655V263.8ZM328.567 275H325.975V263.8H328.567V275ZM333.847 270.408H328.375V268.216H333.847V270.408ZM338.861 275V266.392H341.341V269.752H345.085V266.392H347.581V275H345.085V271.784H341.341V275H338.861Z" fill="#4F6234"/>
<path d="M320.975 359V347.8H323.551V352.2H326.447V354.44H323.551V359H320.975ZM330.863 359.192C330.009 359.192 329.22 359.048 328.495 358.76C327.78 358.472 327.156 358.072 326.623 357.56C326.089 357.037 325.673 356.424 325.375 355.72C325.087 355.005 324.943 354.232 324.943 353.4C324.943 352.557 325.087 351.784 325.375 351.08C325.673 350.376 326.089 349.768 326.623 349.256C327.156 348.733 327.78 348.328 328.495 348.04C329.22 347.752 330.009 347.608 330.863 347.608C331.705 347.608 332.489 347.752 333.215 348.04C333.94 348.328 334.564 348.733 335.087 349.256C335.62 349.768 336.036 350.381 336.335 351.096C336.633 351.8 336.783 352.568 336.783 353.4C336.783 354.232 336.633 355.005 336.335 355.72C336.036 356.424 335.62 357.037 335.087 357.56C334.564 358.072 333.94 358.472 333.215 358.76C332.489 359.048 331.705 359.192 330.863 359.192ZM330.863 356.984C331.332 356.984 331.764 356.899 332.159 356.728C332.553 356.557 332.9 356.317 333.199 356.008C333.497 355.688 333.732 355.309 333.903 354.872C334.073 354.435 334.159 353.944 334.159 353.4C334.159 352.856 334.073 352.365 333.903 351.928C333.732 351.491 333.497 351.117 333.199 350.808C332.9 350.488 332.553 350.243 332.159 350.072C331.764 349.901 331.332 349.816 330.863 349.816C330.404 349.816 329.972 349.901 329.567 350.072C329.172 350.243 328.825 350.488 328.527 350.808C328.228 351.117 327.993 351.491 327.823 351.928C327.652 352.365 327.567 352.856 327.567 353.4C327.567 353.944 327.652 354.435 327.823 354.872C327.993 355.309 328.228 355.688 328.527 356.008C328.825 356.317 329.172 356.557 329.567 356.728C329.972 356.899 330.404 356.984 330.863 356.984ZM338.611 359V350.392H341.091V353.56H343.619V355.72H341.091V359H338.611ZM346.755 359.128C345.869 359.128 345.08 358.936 344.387 358.552C343.693 358.168 343.149 357.645 342.755 356.984C342.36 356.312 342.163 355.549 342.163 354.696C342.163 353.832 342.36 353.069 342.755 352.408C343.149 351.736 343.693 351.213 344.387 350.84C345.08 350.456 345.869 350.264 346.755 350.264C347.64 350.264 348.424 350.456 349.107 350.84C349.8 351.213 350.344 351.736 350.739 352.408C351.133 353.069 351.331 353.832 351.331 354.696C351.331 355.549 351.133 356.312 350.739 356.984C350.344 357.656 349.8 358.184 349.107 358.568C348.424 358.941 347.64 359.128 346.755 359.128ZM346.755 357.08C347.16 357.08 347.517 356.984 347.827 356.792C348.147 356.6 348.397 356.328 348.579 355.976C348.771 355.613 348.867 355.187 348.867 354.696C348.867 354.195 348.771 353.768 348.579 353.416C348.397 353.064 348.147 352.792 347.827 352.6C347.517 352.408 347.16 352.312 346.755 352.312C346.36 352.312 345.997 352.408 345.667 352.6C345.347 352.792 345.091 353.064 344.899 353.416C344.717 353.768 344.627 354.195 344.627 354.696C344.627 355.187 344.717 355.613 344.899 355.976C345.091 356.328 345.347 356.6 345.667 356.792C345.997 356.984 346.36 357.08 346.755 357.08Z" fill="#4F6234"/>
<path d="M378.647 234L375.639 228.608L377.831 227.344L381.639 234H378.647ZM373.735 229.488V227.328H377.223V229.488H373.735ZM377.975 228.688L375.575 228.4L378.695 222.8H381.431L377.975 228.688ZM367.783 234H364.791L368.599 227.344L370.791 228.608L367.783 234ZM374.503 234H371.959V222.8H374.503V234ZM372.711 229.488H369.207V227.328H372.711V229.488ZM368.471 228.688L364.999 222.8H367.735L370.839 228.4L368.471 228.688ZM392.697 234L390.409 229.92L392.425 228.72L395.657 234H392.697ZM388.937 230.736V228.736H391.929V230.736H388.937ZM392.681 229.984L390.329 229.728L392.809 225.392H395.449L392.681 229.984ZM384.185 234H381.241L384.457 228.72L386.473 229.92L384.185 234ZM389.673 234H387.209V225.392H389.673V234ZM387.945 230.736H384.969V228.736H387.945V230.736ZM384.201 229.984L381.433 225.392H384.073L386.537 229.728L384.201 229.984Z" fill="#4F6234"/>
<path d="M369.999 305.8H372.991L375.311 309.192L377.631 305.8H380.671L376.943 311.16L380.975 317H377.919L375.311 313.288L372.735 317H369.743L373.743 311.272L369.999 305.8ZM380.474 317L384.33 311.944L384.282 313.32L380.586 308.392H383.386L385.722 311.608L384.666 311.64L387.082 308.392H389.738L386.026 313.272V311.928L389.866 317H387.034L384.586 313.576L385.626 313.72L383.194 317H380.474Z" fill="#4F6234"/>
<path d="M384.96 275.681C384.075 275.681 383.253 275.537 382.496 275.249C381.749 274.961 381.099 274.555 380.544 274.033C380 273.51 379.573 272.897 379.264 272.193C378.965 271.489 378.816 270.721 378.816 269.889C378.816 269.057 378.965 268.289 379.264 267.585C379.573 266.881 380.005 266.267 380.56 265.745C381.115 265.222 381.765 264.817 382.512 264.529C383.259 264.241 384.069 264.097 384.944 264.097C385.829 264.097 386.64 264.241 387.376 264.529C388.123 264.817 388.768 265.222 389.312 265.745C389.867 266.267 390.299 266.881 390.608 267.585C390.917 268.278 391.072 269.046 391.072 269.889C391.072 270.721 390.917 271.494 390.608 272.209C390.299 272.913 389.867 273.526 389.312 274.049C388.768 274.561 388.123 274.961 387.376 275.249C386.64 275.537 385.835 275.681 384.96 275.681ZM384.944 273.473C385.445 273.473 385.904 273.387 386.32 273.217C386.747 273.046 387.12 272.801 387.44 272.481C387.76 272.161 388.005 271.782 388.176 271.345C388.357 270.907 388.448 270.422 388.448 269.889C388.448 269.355 388.357 268.87 388.176 268.433C388.005 267.995 387.76 267.617 387.44 267.297C387.131 266.977 386.763 266.731 386.336 266.561C385.909 266.39 385.445 266.305 384.944 266.305C384.443 266.305 383.979 266.39 383.552 266.561C383.136 266.731 382.768 266.977 382.448 267.297C382.128 267.617 381.877 267.995 381.696 268.433C381.525 268.87 381.44 269.355 381.44 269.889C381.44 270.411 381.525 270.897 381.696 271.345C381.877 271.782 382.123 272.161 382.432 272.481C382.752 272.801 383.125 273.046 383.552 273.217C383.979 273.387 384.443 273.473 384.944 273.473ZM396.909 275.617C395.991 275.617 395.175 275.425 394.461 275.041C393.757 274.657 393.197 274.134 392.781 273.473C392.375 272.801 392.173 272.038 392.173 271.185C392.173 270.321 392.375 269.558 392.781 268.897C393.197 268.225 393.757 267.702 394.461 267.329C395.175 266.945 395.991 266.753 396.909 266.753C397.815 266.753 398.626 266.945 399.341 267.329C400.055 267.702 400.615 268.219 401.021 268.881C401.426 269.542 401.629 270.31 401.629 271.185C401.629 272.038 401.426 272.801 401.021 273.473C400.615 274.134 400.055 274.657 399.341 275.041C398.626 275.425 397.815 275.617 396.909 275.617ZM396.909 273.569C397.325 273.569 397.698 273.473 398.029 273.281C398.359 273.089 398.621 272.817 398.813 272.465C399.005 272.102 399.101 271.675 399.101 271.185C399.101 270.683 399.005 270.257 398.813 269.905C398.621 269.553 398.359 269.281 398.029 269.089C397.698 268.897 397.325 268.801 396.909 268.801C396.493 268.801 396.119 268.897 395.789 269.089C395.458 269.281 395.191 269.553 394.989 269.905C394.797 270.257 394.701 270.683 394.701 271.185C394.701 271.675 394.797 272.102 394.989 272.465C395.191 272.817 395.458 273.089 395.789 273.281C396.119 273.473 396.493 273.569 396.909 273.569Z" fill="#4F6234"/>
<path d="M388.984 359.454V355.918L389.624 356.478H386.552C385.581 356.478 384.744 356.318 384.04 355.998C383.336 355.678 382.797 355.214 382.424 354.606C382.051 353.998 381.864 353.272 381.864 352.43C381.864 351.555 382.061 350.808 382.456 350.19C382.861 349.56 383.427 349.08 384.152 348.75C384.877 348.419 385.731 348.254 386.712 348.254H391.544V359.454H388.984ZM381.896 359.454L384.68 355.438H387.304L384.632 359.454H381.896ZM388.984 355.086V349.694L389.624 350.366H386.776C386.04 350.366 385.475 350.536 385.08 350.878C384.696 351.219 384.504 351.726 384.504 352.398C384.504 353.048 384.691 353.55 385.064 353.902C385.437 354.254 385.987 354.43 386.712 354.43H389.624L388.984 355.086ZM399.582 359.454V356.59L399.934 356.99H397.55C396.313 356.99 395.342 356.734 394.638 356.222C393.934 355.71 393.582 354.974 393.582 354.014C393.582 352.99 393.95 352.206 394.686 351.662C395.433 351.118 396.435 350.846 397.694 350.846H401.806V359.454H399.582ZM393.454 359.454L395.742 356.174H398.286L396.11 359.454H393.454ZM399.582 355.822V352.238L399.934 352.878H397.742C397.23 352.878 396.83 352.974 396.542 353.166C396.265 353.358 396.126 353.667 396.126 354.094C396.126 354.915 396.654 355.326 397.71 355.326H399.934L399.582 355.822Z" fill="#4F6234"/>
<line x1="57.5825" y1="404.5" x2="403.583" y2="404.5" stroke="#4F6234"/>
</svg>
