<svg width="440" height="371" viewBox="0 0 440 371" fill="none" xmlns="http://www.w3.org/2000/svg">
<path d="M5.38776 80.1191H433.739V342.443C433.739 358.215 420.954 371 405.182 371H33.9445C18.173 371 5.38776 358.215 5.38776 342.443V80.1191Z" fill="#FFD17C"/>
<rect x="1.38123" y="40.116" width="438.06" height="40.0033" fill="#4F6234"/>
<rect width="438.06" height="40.0033" transform="matrix(0.999992 -0.003999 0.00399424 0.999992 1.36566 1.75171)" fill="#4F6234"/>
<path d="M159.586 44.6875L135.598 74.9757H170.437L194.996 44.6875H159.586Z" fill="#FFFEFD"/>
<path d="M159.308 36.7533L134.819 6.87008L169.653 6.28804L194.714 36.1617L159.308 36.7533Z" fill="#FFFEFD"/>
<path d="M397.178 44.6875L373.19 74.9757H408.029L432.588 44.6875H397.178Z" fill="#FFFEFD"/>
<path d="M396.895 35.163L372.405 5.27974L407.24 4.69771L432.301 34.5714L396.895 35.163Z" fill="#FFFEFD"/>
<path d="M337.78 44.6875L313.792 74.9757H348.631L373.19 44.6875H337.78Z" fill="#FFFEFD"/>
<path d="M337.498 35.5604L313.009 5.6772L347.843 5.09517L372.904 34.9689L337.498 35.5604Z" fill="#FFFEFD"/>
<path d="M278.382 44.6875L254.394 74.9757H289.233L313.792 44.6875H278.382Z" fill="#FFFEFD"/>
<path d="M278.102 35.9584L253.612 6.07515L288.446 5.49312L313.507 35.3668L278.102 35.9584Z" fill="#FFFEFD"/>
<path d="M218.984 44.6875L194.996 74.9757H229.835L254.394 44.6875H218.984Z" fill="#FFFEFD"/>
<path d="M218.705 36.3556L194.215 6.47237L229.05 5.89033L254.11 35.764L218.705 36.3556Z" fill="#FFFEFD"/>
<path d="M1.88034 24.6255L0.551767 69.6168C0.45644 72.845 3.05465 75.51 6.28424 75.4965L97.184 75.1186C100.338 75.1055 102.885 72.5378 102.872 69.3836L102.831 59.554C102.824 57.9508 102.144 56.4242 100.957 55.3472L47.7076 7.05339C46.6509 6.09498 45.2737 5.56677 43.847 5.57271L7.51356 5.72377C4.35929 5.73688 1.81283 8.30455 1.82588 11.4588L1.88034 24.6255Z" fill="#FFD17C"/>
<path d="M53.4383 150L58.4303 138.8H60.9903L65.9983 150H63.2783L59.1823 140.112H60.2063L56.0943 150H53.4383ZM55.9343 147.6L56.6223 145.632H62.3823L63.0863 147.6H55.9343ZM72.2643 150V148.32L72.1043 147.952V144.944C72.1043 144.411 71.9389 143.995 71.6083 143.696C71.2883 143.397 70.7923 143.248 70.1203 143.248C69.6616 143.248 69.2083 143.323 68.7603 143.472C68.3229 143.611 67.9496 143.803 67.6403 144.048L66.7443 142.304C67.2136 141.973 67.7789 141.717 68.4403 141.536C69.1016 141.355 69.7736 141.264 70.4563 141.264C71.7683 141.264 72.7869 141.573 73.5123 142.192C74.2376 142.811 74.6003 143.776 74.6003 145.088V150H72.2643ZM69.6403 150.128C68.9683 150.128 68.3923 150.016 67.9123 149.792C67.4323 149.557 67.0643 149.243 66.8083 148.848C66.5523 148.453 66.4243 148.011 66.4243 147.52C66.4243 147.008 66.5469 146.56 66.7923 146.176C67.0483 145.792 67.4483 145.493 67.9923 145.28C68.5363 145.056 69.2456 144.944 70.1203 144.944H72.4083V146.4H70.3923C69.8056 146.4 69.4003 146.496 69.1763 146.688C68.9629 146.88 68.8563 147.12 68.8563 147.408C68.8563 147.728 68.9789 147.984 69.2243 148.176C69.4803 148.357 69.8269 148.448 70.2643 148.448C70.6803 148.448 71.0536 148.352 71.3843 148.16C71.7149 147.957 71.9549 147.664 72.1043 147.28L72.4883 148.432C72.3069 148.987 71.9763 149.408 71.4963 149.696C71.0163 149.984 70.3976 150.128 69.6403 150.128Z" fill="#4F6234"/>
<path d="M60.8215 234.539C59.9361 234.539 59.1148 234.395 58.3575 234.107C57.6108 233.819 56.9601 233.414 56.4055 232.891C55.8615 232.369 55.4348 231.755 55.1255 231.051C54.8268 230.347 54.6775 229.579 54.6775 228.747C54.6775 227.915 54.8268 227.147 55.1255 226.443C55.4348 225.739 55.8668 225.126 56.4215 224.603C56.9761 224.081 57.6268 223.675 58.3735 223.387C59.1201 223.099 59.9308 222.955 60.8055 222.955C61.6908 222.955 62.5015 223.099 63.2375 223.387C63.9841 223.675 64.6295 224.081 65.1735 224.603C65.7281 225.126 66.1601 225.739 66.4695 226.443C66.7788 227.137 66.9335 227.905 66.9335 228.747C66.9335 229.579 66.7788 230.353 66.4695 231.067C66.1601 231.771 65.7281 232.385 65.1735 232.907C64.6295 233.419 63.9841 233.819 63.2375 234.107C62.5015 234.395 61.6961 234.539 60.8215 234.539ZM60.8055 232.331C61.3068 232.331 61.7655 232.246 62.1815 232.075C62.6081 231.905 62.9815 231.659 63.3015 231.339C63.6215 231.019 63.8668 230.641 64.0375 230.203C64.2188 229.766 64.3095 229.281 64.3095 228.747C64.3095 228.214 64.2188 227.729 64.0375 227.291C63.8668 226.854 63.6215 226.475 63.3015 226.155C62.9921 225.835 62.6241 225.59 62.1975 225.419C61.7708 225.249 61.3068 225.163 60.8055 225.163C60.3041 225.163 59.8401 225.249 59.4135 225.419C58.9975 225.59 58.6295 225.835 58.3095 226.155C57.9895 226.475 57.7388 226.854 57.5575 227.291C57.3868 227.729 57.3015 228.214 57.3015 228.747C57.3015 229.27 57.3868 229.755 57.5575 230.203C57.7388 230.641 57.9841 231.019 58.2935 231.339C58.6135 231.659 58.9868 231.905 59.4135 232.075C59.8401 232.246 60.3041 232.331 60.8055 232.331ZM72.8015 234.475C71.8841 234.475 71.0681 234.283 70.3535 233.899C69.6495 233.515 69.0895 232.993 68.6735 232.331C68.2681 231.659 68.0655 230.897 68.0655 230.043C68.0655 229.179 68.2681 228.417 68.6735 227.755C69.0895 227.083 69.6495 226.561 70.3535 226.187C71.0681 225.803 71.8841 225.611 72.8015 225.611C73.7081 225.611 74.5188 225.803 75.2335 226.187C75.9481 226.561 76.5081 227.078 76.9135 227.739C77.3188 228.401 77.5215 229.169 77.5215 230.043C77.5215 230.897 77.3188 231.659 76.9135 232.331C76.5081 232.993 75.9481 233.515 75.2335 233.899C74.5188 234.283 73.7081 234.475 72.8015 234.475ZM72.8015 232.427C73.2175 232.427 73.5908 232.331 73.9215 232.139C74.2521 231.947 74.5135 231.675 74.7055 231.323C74.8975 230.961 74.9935 230.534 74.9935 230.043C74.9935 229.542 74.8975 229.115 74.7055 228.763C74.5135 228.411 74.2521 228.139 73.9215 227.947C73.5908 227.755 73.2175 227.659 72.8015 227.659C72.3855 227.659 72.0121 227.755 71.6815 227.947C71.3508 228.139 71.0841 228.411 70.8815 228.763C70.6895 229.115 70.5935 229.542 70.5935 230.043C70.5935 230.534 70.6895 230.961 70.8815 231.323C71.0841 231.675 71.3508 231.947 71.6815 232.139C72.0121 232.331 72.3855 232.427 72.8015 232.427Z" fill="#4F6234"/>
<path d="M63.0615 181.122H65.6535V192.322H63.0615V181.122ZM57.9735 192.322H55.3815V181.122H57.9735V192.322ZM63.2535 187.73H57.7815V185.538H63.2535V187.73ZM73.3593 183.586C74.042 183.586 74.65 183.725 75.1833 184.002C75.7273 184.269 76.154 184.685 76.4633 185.25C76.7727 185.805 76.9273 186.519 76.9273 187.394V192.322H74.4313V187.778C74.4313 187.085 74.2767 186.573 73.9673 186.242C73.6687 185.911 73.242 185.746 72.6873 185.746C72.2927 185.746 71.9353 185.831 71.6153 186.002C71.306 186.162 71.0607 186.413 70.8793 186.754C70.7087 187.095 70.6233 187.533 70.6233 188.066V192.322H68.1273V180.45H70.6233V186.098L70.0633 185.378C70.3727 184.802 70.8153 184.359 71.3913 184.05C71.9673 183.741 72.6233 183.586 73.3593 183.586Z" fill="#4F6234"/>
<path d="M355.27 234L350.438 222.8H353.238L357.462 232.72H355.814L360.102 222.8H362.678L357.83 234H355.27ZM365.727 234L362.111 225.392H364.687L367.695 232.8H366.415L369.535 225.392H371.935L368.303 234H365.727Z" fill="#4F6234"/>
<path d="M105.91 150V138.8H111.382C112.79 138.8 113.846 139.067 114.55 139.6C115.265 140.133 115.622 140.837 115.622 141.712C115.622 142.299 115.478 142.811 115.19 143.248C114.902 143.675 114.508 144.005 114.006 144.24C113.505 144.475 112.929 144.592 112.278 144.592L112.582 143.936C113.286 143.936 113.91 144.053 114.454 144.288C114.998 144.512 115.42 144.848 115.718 145.296C116.028 145.744 116.182 146.293 116.182 146.944C116.182 147.904 115.804 148.656 115.046 149.2C114.289 149.733 113.174 150 111.702 150H105.91ZM108.486 148.048H111.51C112.182 148.048 112.689 147.941 113.03 147.728C113.382 147.504 113.558 147.152 113.558 146.672C113.558 146.203 113.382 145.856 113.03 145.632C112.689 145.397 112.182 145.28 111.51 145.28H108.294V143.392H111.062C111.692 143.392 112.172 143.285 112.502 143.072C112.844 142.848 113.014 142.512 113.014 142.064C113.014 141.627 112.844 141.301 112.502 141.088C112.172 140.864 111.692 140.752 111.062 140.752H108.486V148.048ZM123.057 150.128C122.299 150.128 121.649 149.968 121.105 149.648C120.561 149.328 120.145 148.843 119.857 148.192C119.569 147.531 119.425 146.699 119.425 145.696C119.425 144.683 119.574 143.851 119.873 143.2C120.182 142.549 120.609 142.064 121.153 141.744C121.697 141.424 122.331 141.264 123.057 141.264C123.867 141.264 124.593 141.445 125.233 141.808C125.883 142.171 126.395 142.683 126.769 143.344C127.153 144.005 127.345 144.789 127.345 145.696C127.345 146.592 127.153 147.371 126.769 148.032C126.395 148.693 125.883 149.211 125.233 149.584C124.593 149.947 123.867 150.128 123.057 150.128ZM117.969 150V138.128H120.465V143.136L120.305 145.68L120.353 148.24V150H117.969ZM122.625 148.08C123.041 148.08 123.409 147.984 123.729 147.792C124.059 147.6 124.321 147.328 124.513 146.976C124.715 146.613 124.817 146.187 124.817 145.696C124.817 145.195 124.715 144.768 124.513 144.416C124.321 144.064 124.059 143.792 123.729 143.6C123.409 143.408 123.041 143.312 122.625 143.312C122.209 143.312 121.835 143.408 121.505 143.6C121.174 143.792 120.913 144.064 120.721 144.416C120.529 144.768 120.433 145.195 120.433 145.696C120.433 146.187 120.529 146.613 120.721 146.976C120.913 147.328 121.174 147.6 121.505 147.792C121.835 147.984 122.209 148.08 122.625 148.08Z" fill="#4F6234"/>
<path d="M98.9103 234V222.8H103.758C104.761 222.8 105.625 222.965 106.35 223.296C107.076 223.616 107.636 224.08 108.03 224.688C108.425 225.296 108.622 226.021 108.622 226.864C108.622 227.696 108.425 228.416 108.03 229.024C107.636 229.632 107.076 230.101 106.35 230.432C105.625 230.752 104.761 230.912 103.758 230.912H100.35L101.502 229.744V234H98.9103ZM101.502 230.032L100.35 228.8H103.614C104.414 228.8 105.012 228.629 105.406 228.288C105.801 227.947 105.998 227.472 105.998 226.864C105.998 226.245 105.801 225.765 105.406 225.424C105.012 225.083 104.414 224.912 103.614 224.912H100.35L101.502 223.68V230.032ZM115.369 234.128C114.644 234.128 114.009 233.968 113.465 233.648C112.921 233.328 112.494 232.843 112.185 232.192C111.886 231.531 111.737 230.699 111.737 229.696C111.737 228.683 111.881 227.851 112.169 227.2C112.457 226.549 112.873 226.064 113.417 225.744C113.961 225.424 114.612 225.264 115.369 225.264C116.18 225.264 116.905 225.451 117.545 225.824C118.196 226.187 118.708 226.699 119.081 227.36C119.465 228.021 119.657 228.8 119.657 229.696C119.657 230.603 119.465 231.387 119.081 232.048C118.708 232.709 118.196 233.221 117.545 233.584C116.905 233.947 116.18 234.128 115.369 234.128ZM110.281 237.104V225.392H112.665V227.152L112.617 229.712L112.777 232.256V237.104H110.281ZM114.937 232.08C115.353 232.08 115.721 231.984 116.041 231.792C116.372 231.6 116.633 231.328 116.825 230.976C117.028 230.613 117.129 230.187 117.129 229.696C117.129 229.195 117.028 228.768 116.825 228.416C116.633 228.064 116.372 227.792 116.041 227.6C115.721 227.408 115.353 227.312 114.937 227.312C114.521 227.312 114.148 227.408 113.817 227.6C113.486 227.792 113.225 228.064 113.033 228.416C112.841 228.768 112.745 229.195 112.745 229.696C112.745 230.187 112.841 230.613 113.033 230.976C113.225 231.328 113.486 231.6 113.817 231.792C114.148 231.984 114.521 232.08 114.937 232.08Z" fill="#4F6234"/>
<path d="M108.91 192V180.8H111.502V192H108.91ZM113.984 192V183.392H116.48V192H113.984ZM115.232 182.192C114.774 182.192 114.4 182.059 114.112 181.792C113.824 181.525 113.68 181.195 113.68 180.8C113.68 180.405 113.824 180.075 114.112 179.808C114.4 179.541 114.774 179.408 115.232 179.408C115.691 179.408 116.064 179.536 116.352 179.792C116.64 180.037 116.784 180.357 116.784 180.752C116.784 181.168 116.64 181.515 116.352 181.792C116.075 182.059 115.702 182.192 115.232 182.192Z" fill="#4F6234"/>
<path d="M57.5983 276L53.9343 264.8H56.6223L59.8063 274.72H58.4623L61.7903 264.8H64.1903L67.3903 274.72H66.0943L69.3583 264.8H71.8383L68.1743 276H65.3903L62.5583 267.296H63.2943L60.3823 276H57.5983ZM75.0304 276L71.9264 267.392H74.2784L76.8544 274.8H75.7344L78.4224 267.392H80.5344L83.1424 274.8H82.0224L84.6784 267.392H86.8864L83.7664 276H81.3504L79.0624 269.648H79.7984L77.4304 276H75.0304Z" fill="#4F6234"/>
<path d="M164.741 150.489C163.877 150.489 163.072 150.351 162.325 150.073C161.589 149.785 160.949 149.38 160.405 148.857C159.861 148.335 159.435 147.721 159.125 147.017C158.827 146.313 158.677 145.54 158.677 144.697C158.677 143.855 158.827 143.081 159.125 142.377C159.435 141.673 159.861 141.06 160.405 140.537C160.96 140.015 161.605 139.615 162.341 139.337C163.077 139.049 163.883 138.905 164.757 138.905C165.728 138.905 166.603 139.076 167.381 139.417C168.171 139.748 168.832 140.239 169.365 140.889L167.701 142.425C167.317 141.988 166.891 141.663 166.421 141.449C165.952 141.225 165.44 141.113 164.885 141.113C164.363 141.113 163.883 141.199 163.445 141.369C163.008 141.54 162.629 141.785 162.309 142.105C161.989 142.425 161.739 142.804 161.557 143.241C161.387 143.679 161.301 144.164 161.301 144.697C161.301 145.231 161.387 145.716 161.557 146.153C161.739 146.591 161.989 146.969 162.309 147.289C162.629 147.609 163.008 147.855 163.445 148.025C163.883 148.196 164.363 148.281 164.885 148.281C165.44 148.281 165.952 148.175 166.421 147.961C166.891 147.737 167.317 147.401 167.701 146.953L169.365 148.489C168.832 149.14 168.171 149.636 167.381 149.977C166.603 150.319 165.723 150.489 164.741 150.489ZM174.803 150.425C173.875 150.425 173.048 150.239 172.323 149.865C171.598 149.481 171.027 148.953 170.611 148.281C170.206 147.609 170.003 146.847 170.003 145.993C170.003 145.129 170.206 144.367 170.611 143.705C171.027 143.033 171.598 142.511 172.323 142.137C173.048 141.753 173.875 141.561 174.803 141.561C175.71 141.561 176.499 141.753 177.171 142.137C177.843 142.511 178.339 143.049 178.659 143.753L176.723 144.793C176.499 144.388 176.216 144.089 175.875 143.897C175.544 143.705 175.182 143.609 174.787 143.609C174.36 143.609 173.976 143.705 173.635 143.897C173.294 144.089 173.022 144.361 172.819 144.713C172.627 145.065 172.531 145.492 172.531 145.993C172.531 146.495 172.627 146.921 172.819 147.273C173.022 147.625 173.294 147.897 173.635 148.089C173.976 148.281 174.36 148.377 174.787 148.377C175.182 148.377 175.544 148.287 175.875 148.105C176.216 147.913 176.499 147.609 176.723 147.193L178.659 148.249C178.339 148.943 177.843 149.481 177.171 149.865C176.499 150.239 175.71 150.425 174.803 150.425Z" fill="#4F6234"/>
<path d="M146.805 234.539C145.931 234.539 145.115 234.395 144.357 234.107C143.611 233.819 142.96 233.414 142.405 232.891C141.861 232.369 141.435 231.755 141.125 231.051C140.827 230.347 140.677 229.579 140.677 228.747C140.677 227.915 140.827 227.147 141.125 226.443C141.435 225.739 141.867 225.126 142.421 224.603C142.976 224.081 143.627 223.675 144.373 223.387C145.12 223.099 145.931 222.955 146.805 222.955C147.691 222.955 148.501 223.099 149.237 223.387C149.984 223.675 150.629 224.081 151.173 224.603C151.728 225.115 152.16 225.723 152.469 226.427C152.779 227.131 152.933 227.905 152.933 228.747C152.933 229.579 152.779 230.353 152.469 231.067C152.16 231.771 151.728 232.385 151.173 232.907C150.629 233.419 149.984 233.819 149.237 234.107C148.501 234.395 147.691 234.539 146.805 234.539ZM150.469 236.923C150.032 236.923 149.616 236.875 149.221 236.779C148.837 236.683 148.453 236.529 148.069 236.315C147.696 236.102 147.301 235.814 146.885 235.451C146.48 235.089 146.037 234.641 145.557 234.107L148.277 233.419C148.565 233.814 148.832 234.129 149.077 234.363C149.323 234.598 149.557 234.763 149.781 234.859C150.016 234.955 150.261 235.003 150.517 235.003C151.2 235.003 151.808 234.726 152.341 234.171L153.493 235.547C152.736 236.465 151.728 236.923 150.469 236.923ZM146.805 232.331C147.307 232.331 147.765 232.246 148.181 232.075C148.608 231.905 148.981 231.659 149.301 231.339C149.621 231.019 149.867 230.641 150.037 230.203C150.219 229.755 150.309 229.27 150.309 228.747C150.309 228.214 150.219 227.729 150.037 227.291C149.867 226.854 149.621 226.475 149.301 226.155C148.981 225.835 148.608 225.59 148.181 225.419C147.765 225.249 147.307 225.163 146.805 225.163C146.304 225.163 145.84 225.249 145.413 225.419C144.987 225.59 144.613 225.835 144.293 226.155C143.984 226.475 143.739 226.854 143.557 227.291C143.387 227.729 143.301 228.214 143.301 228.747C143.301 229.27 143.387 229.755 143.557 230.203C143.739 230.641 143.984 231.019 144.293 231.339C144.613 231.659 144.987 231.905 145.413 232.075C145.84 232.246 146.304 232.331 146.805 232.331ZM158.369 234.475C157.559 234.475 156.828 234.294 156.177 233.931C155.527 233.569 155.009 233.057 154.625 232.395C154.252 231.734 154.065 230.95 154.065 230.043C154.065 229.147 154.252 228.369 154.625 227.707C155.009 227.046 155.527 226.534 156.177 226.171C156.828 225.798 157.559 225.611 158.369 225.611C159.127 225.611 159.772 225.771 160.305 226.091C160.849 226.411 161.265 226.897 161.553 227.547C161.841 228.198 161.985 229.03 161.985 230.043C161.985 231.046 161.836 231.878 161.537 232.539C161.239 233.19 160.817 233.675 160.273 233.995C159.729 234.315 159.095 234.475 158.369 234.475ZM158.801 232.427C159.207 232.427 159.575 232.331 159.905 232.139C160.236 231.947 160.497 231.675 160.689 231.323C160.892 230.961 160.993 230.534 160.993 230.043C160.993 229.542 160.892 229.115 160.689 228.763C160.497 228.411 160.236 228.139 159.905 227.947C159.575 227.755 159.207 227.659 158.801 227.659C158.385 227.659 158.012 227.755 157.681 227.947C157.351 228.139 157.084 228.411 156.881 228.763C156.689 229.115 156.593 229.542 156.593 230.043C156.593 230.534 156.689 230.961 156.881 231.323C157.084 231.675 157.351 231.947 157.681 232.139C158.012 232.331 158.385 232.427 158.801 232.427ZM160.945 237.451V232.603L161.105 230.059L161.057 227.499V225.739H163.441V237.451H160.945Z" fill="#4F6234"/>
<path d="M150.974 192.192C150.217 192.192 149.518 192.053 148.878 191.776C148.249 191.488 147.732 191.083 147.326 190.56L148.766 188.832C149.076 189.237 149.401 189.547 149.742 189.76C150.084 189.963 150.452 190.064 150.846 190.064C151.902 190.064 152.43 189.445 152.43 188.208V182.88H148.494V180.8H155.006V188.064C155.006 189.451 154.665 190.485 153.982 191.168C153.3 191.851 152.297 192.192 150.974 192.192ZM156.672 195.232C156.288 195.232 155.92 195.189 155.568 195.104C155.216 195.029 154.918 194.912 154.672 194.752L155.344 192.944C155.632 193.147 155.984 193.248 156.4 193.248C156.71 193.248 156.955 193.141 157.136 192.928C157.328 192.725 157.424 192.416 157.424 192V183.392H159.92V191.984C159.92 192.976 159.638 193.765 159.072 194.352C158.507 194.939 157.707 195.232 156.672 195.232ZM158.672 182.192C158.214 182.192 157.84 182.059 157.552 181.792C157.264 181.525 157.12 181.195 157.12 180.8C157.12 180.405 157.264 180.075 157.552 179.808C157.84 179.541 158.214 179.408 158.672 179.408C159.131 179.408 159.504 179.536 159.792 179.792C160.08 180.037 160.224 180.357 160.224 180.752C160.224 181.168 160.08 181.515 159.792 181.792C159.515 182.059 159.142 182.192 158.672 182.192Z" fill="#4F6234"/>
<path d="M115.63 276L120.446 269.36V271.248L115.838 264.8H118.782L121.966 269.296L120.734 269.312L123.87 264.8H126.686L122.11 271.136V269.28L126.958 276H123.966L120.67 271.248H121.854L118.606 276H115.63ZM126.365 276L130.221 270.944L130.173 272.32L126.477 267.392H129.277L131.613 270.608L130.557 270.64L132.973 267.392H135.629L131.917 272.272V270.928L135.757 276H132.925L130.477 272.576L131.517 272.72L129.085 276H126.365Z" fill="#4F6234"/>
<path d="M210.381 150.297V139.097H215.469C216.685 139.097 217.757 139.332 218.685 139.801C219.613 140.26 220.339 140.905 220.861 141.737C221.384 142.569 221.645 143.556 221.645 144.697C221.645 145.828 221.384 146.815 220.861 147.657C220.339 148.489 219.613 149.14 218.685 149.609C217.757 150.068 216.685 150.297 215.469 150.297H210.381ZM212.973 148.169H215.341C216.088 148.169 216.733 148.031 217.277 147.753C217.832 147.465 218.259 147.06 218.557 146.537C218.867 146.015 219.021 145.401 219.021 144.697C219.021 143.983 218.867 143.369 218.557 142.857C218.259 142.335 217.832 141.935 217.277 141.657C216.733 141.369 216.088 141.225 215.341 141.225H212.973V148.169ZM227.12 150.425C226.31 150.425 225.579 150.244 224.928 149.881C224.278 149.508 223.76 148.991 223.376 148.329C223.003 147.668 222.816 146.889 222.816 145.993C222.816 145.087 223.003 144.303 223.376 143.641C223.76 142.98 224.278 142.468 224.928 142.105C225.579 141.743 226.31 141.561 227.12 141.561C227.846 141.561 228.48 141.721 229.024 142.041C229.568 142.361 229.99 142.847 230.288 143.497C230.587 144.148 230.736 144.98 230.736 145.993C230.736 146.996 230.592 147.828 230.304 148.489C230.016 149.14 229.6 149.625 229.056 149.945C228.523 150.265 227.878 150.425 227.12 150.425ZM227.552 148.377C227.958 148.377 228.326 148.281 228.656 148.089C228.987 147.897 229.248 147.625 229.44 147.273C229.643 146.911 229.744 146.484 229.744 145.993C229.744 145.492 229.643 145.065 229.44 144.713C229.248 144.361 228.987 144.089 228.656 143.897C228.326 143.705 227.958 143.609 227.552 143.609C227.136 143.609 226.763 143.705 226.432 143.897C226.102 144.089 225.835 144.361 225.632 144.713C225.44 145.065 225.344 145.492 225.344 145.993C225.344 146.484 225.44 146.911 225.632 147.273C225.835 147.625 226.102 147.897 226.432 148.089C226.763 148.281 227.136 148.377 227.552 148.377ZM229.808 150.297V148.537L229.856 145.977L229.696 143.433V138.425H232.192V150.297H229.808Z" fill="#4F6234"/>
<path d="M185.91 234V222.8H190.758C191.761 222.8 192.625 222.965 193.35 223.296C194.076 223.616 194.636 224.08 195.03 224.688C195.425 225.296 195.622 226.021 195.622 226.864C195.622 227.696 195.425 228.416 195.03 229.024C194.636 229.621 194.076 230.08 193.35 230.4C192.625 230.72 191.761 230.88 190.758 230.88H187.35L188.502 229.744V234H185.91ZM193.03 234L190.23 229.936H192.998L195.83 234H193.03ZM188.502 230.032L187.35 228.816H190.614C191.414 228.816 192.012 228.645 192.406 228.304C192.801 227.952 192.998 227.472 192.998 226.864C192.998 226.245 192.801 225.765 192.406 225.424C192.012 225.083 191.414 224.912 190.614 224.912H187.35L188.502 223.68V230.032ZM197.5 234V225.392H199.884V227.824L199.548 227.12C199.804 226.512 200.215 226.053 200.78 225.744C201.345 225.424 202.033 225.264 202.844 225.264V227.568C202.737 227.557 202.641 227.552 202.556 227.552C202.471 227.541 202.38 227.536 202.284 227.536C201.601 227.536 201.047 227.733 200.62 228.128C200.204 228.512 199.996 229.115 199.996 229.936V234H197.5Z" fill="#4F6234"/>
<path d="M194.23 189.44L194.086 186.448L199.446 180.8H202.326L197.494 186L196.054 187.536L194.23 189.44ZM191.91 192V180.8H194.486V192H191.91ZM199.574 192L195.59 187.12L197.286 185.28L202.598 192H199.574ZM205.642 190.24L205.706 187.2L209.722 183.392H212.698L208.842 187.312L207.546 188.368L205.642 190.24ZM203.578 192V180.128H206.074V192H203.578ZM209.994 192L207.082 188.384L208.65 186.448L213.018 192H209.994Z" fill="#4F6234"/>
<path d="M168.694 276V271.424L169.286 272.992L164.358 264.8H167.11L170.886 271.088H169.302L173.094 264.8H175.638L170.71 272.992L171.286 271.424V276H168.694ZM176.947 279.232C176.499 279.232 176.057 279.163 175.619 279.024C175.182 278.885 174.825 278.693 174.547 278.448L175.459 276.672C175.651 276.843 175.87 276.976 176.115 277.072C176.371 277.168 176.622 277.216 176.867 277.216C177.219 277.216 177.497 277.131 177.699 276.96C177.913 276.8 178.105 276.528 178.275 276.144L178.723 275.088L178.915 274.816L182.003 267.392H184.403L180.515 276.528C180.238 277.221 179.918 277.765 179.555 278.16C179.203 278.555 178.809 278.832 178.371 278.992C177.945 279.152 177.47 279.232 176.947 279.232ZM178.419 276.336L174.579 267.392H177.155L180.131 274.592L178.419 276.336Z" fill="#4F6234"/>
<path d="M267.765 143.609H273.157V145.625H267.765V143.609ZM267.957 148.217H274.053V150.297H265.381V139.097H273.845V141.177H267.957V148.217ZM280.165 150.425C279.184 150.425 278.32 150.233 277.573 149.849C276.837 149.465 276.266 148.943 275.861 148.281C275.456 147.609 275.253 146.847 275.253 145.993C275.253 145.129 275.45 144.367 275.845 143.705C276.25 143.033 276.8 142.511 277.493 142.137C278.186 141.753 278.97 141.561 279.845 141.561C280.688 141.561 281.445 141.743 282.117 142.105C282.8 142.457 283.338 142.969 283.733 143.641C284.128 144.303 284.325 145.097 284.325 146.025C284.325 146.121 284.32 146.233 284.309 146.361C284.298 146.479 284.288 146.591 284.277 146.697H277.285V145.241H282.965L282.005 145.673C282.005 145.225 281.914 144.836 281.733 144.505C281.552 144.175 281.301 143.919 280.981 143.737C280.661 143.545 280.288 143.449 279.861 143.449C279.434 143.449 279.056 143.545 278.725 143.737C278.405 143.919 278.154 144.18 277.973 144.521C277.792 144.852 277.701 145.247 277.701 145.705V146.089C277.701 146.559 277.802 146.975 278.005 147.337C278.218 147.689 278.512 147.961 278.885 148.153C279.269 148.335 279.717 148.425 280.229 148.425C280.688 148.425 281.088 148.356 281.429 148.217C281.781 148.079 282.101 147.871 282.389 147.593L283.717 149.033C283.322 149.481 282.826 149.828 282.229 150.073C281.632 150.308 280.944 150.425 280.165 150.425Z" fill="#4F6234"/>
<path d="M227.59 234.192C226.694 234.192 225.836 234.075 225.014 233.84C224.193 233.595 223.532 233.28 223.03 232.896L223.91 230.944C224.39 231.285 224.956 231.568 225.606 231.792C226.268 232.005 226.934 232.112 227.606 232.112C228.118 232.112 228.529 232.064 228.838 231.968C229.158 231.861 229.393 231.717 229.542 231.536C229.692 231.355 229.766 231.147 229.766 230.912C229.766 230.613 229.649 230.379 229.414 230.208C229.18 230.027 228.87 229.883 228.486 229.776C228.102 229.659 227.676 229.552 227.206 229.456C226.748 229.349 226.284 229.221 225.814 229.072C225.356 228.923 224.934 228.731 224.55 228.496C224.166 228.261 223.852 227.952 223.606 227.568C223.372 227.184 223.254 226.693 223.254 226.096C223.254 225.456 223.425 224.875 223.766 224.352C224.118 223.819 224.641 223.397 225.334 223.088C226.038 222.768 226.918 222.608 227.974 222.608C228.678 222.608 229.372 222.693 230.054 222.864C230.737 223.024 231.34 223.269 231.862 223.6L231.062 225.568C230.54 225.269 230.017 225.051 229.494 224.912C228.972 224.763 228.46 224.688 227.958 224.688C227.457 224.688 227.046 224.747 226.726 224.864C226.406 224.981 226.177 225.136 226.038 225.328C225.9 225.509 225.83 225.723 225.83 225.968C225.83 226.256 225.948 226.491 226.182 226.672C226.417 226.843 226.726 226.981 227.11 227.088C227.494 227.195 227.916 227.301 228.374 227.408C228.844 227.515 229.308 227.637 229.766 227.776C230.236 227.915 230.662 228.101 231.046 228.336C231.43 228.571 231.74 228.88 231.974 229.264C232.22 229.648 232.342 230.133 232.342 230.72C232.342 231.349 232.166 231.925 231.814 232.448C231.462 232.971 230.934 233.392 230.23 233.712C229.537 234.032 228.657 234.192 227.59 234.192ZM236.833 234.128C236.097 234.128 235.388 234.043 234.705 233.872C234.033 233.691 233.5 233.467 233.105 233.2L233.937 231.408C234.332 231.653 234.796 231.856 235.329 232.016C235.873 232.165 236.407 232.24 236.929 232.24C237.505 232.24 237.911 232.171 238.145 232.032C238.391 231.893 238.513 231.701 238.513 231.456C238.513 231.253 238.417 231.104 238.225 231.008C238.044 230.901 237.799 230.821 237.489 230.768C237.18 230.715 236.839 230.661 236.465 230.608C236.103 230.555 235.735 230.485 235.361 230.4C234.988 230.304 234.647 230.165 234.337 229.984C234.028 229.803 233.777 229.557 233.585 229.248C233.404 228.939 233.313 228.539 233.313 228.048C233.313 227.504 233.468 227.024 233.777 226.608C234.097 226.192 234.556 225.867 235.153 225.632C235.751 225.387 236.465 225.264 237.297 225.264C237.884 225.264 238.481 225.328 239.089 225.456C239.697 225.584 240.204 225.771 240.609 226.016L239.777 227.792C239.361 227.547 238.94 227.381 238.513 227.296C238.097 227.2 237.692 227.152 237.297 227.152C236.743 227.152 236.337 227.227 236.081 227.376C235.825 227.525 235.697 227.717 235.697 227.952C235.697 228.165 235.788 228.325 235.969 228.432C236.161 228.539 236.412 228.624 236.721 228.688C237.031 228.752 237.367 228.811 237.729 228.864C238.103 228.907 238.476 228.976 238.849 229.072C239.223 229.168 239.559 229.307 239.857 229.488C240.167 229.659 240.417 229.899 240.609 230.208C240.801 230.507 240.897 230.901 240.897 231.392C240.897 231.925 240.737 232.4 240.417 232.816C240.097 233.221 239.633 233.541 239.025 233.776C238.428 234.011 237.697 234.128 236.833 234.128Z" fill="#4F6234"/>
<path d="M242.91 192V180.8H245.502V189.888H251.118V192H242.91ZM252.391 192V180.128H254.887V192H252.391Z" fill="#4F6234"/>
<path d="M214.19 276V274.32L221.118 265.968L221.438 266.912H214.318V264.8H223.742V266.48L216.83 274.832L216.51 273.888H223.982V276H214.19ZM224.877 276V274.496L229.965 268.48L230.397 269.312H224.989V267.392H232.413V268.896L227.325 274.912L226.877 274.08H232.557V276H224.877Z" fill="#4F6234"/>
<path d="M318.31 143.84H323.686V145.92H318.31V143.84ZM318.502 150H315.91V138.8H324.374V140.88H318.502V150ZM326.257 150V141.2C326.257 140.229 326.545 139.456 327.121 138.88C327.697 138.293 328.518 138 329.585 138C329.948 138 330.294 138.037 330.625 138.112C330.966 138.187 331.254 138.304 331.489 138.464L330.833 140.272C330.694 140.176 330.54 140.101 330.369 140.048C330.198 139.995 330.017 139.968 329.825 139.968C329.462 139.968 329.18 140.075 328.977 140.288C328.785 140.491 328.689 140.8 328.689 141.216V142.016L328.753 143.088V150H326.257ZM324.929 143.504V141.584H330.897V143.504H324.929Z" fill="#4F6234"/>
<path d="M264.23 234V224.912H260.646V222.8H270.406V224.912H266.822V234H264.23ZM275.207 234.128C274.194 234.128 273.405 233.872 272.839 233.36C272.274 232.837 271.991 232.064 271.991 231.04V223.488H274.487V231.008C274.487 231.371 274.583 231.653 274.775 231.856C274.967 232.048 275.229 232.144 275.559 232.144C275.954 232.144 276.29 232.037 276.567 231.824L277.239 233.584C276.983 233.765 276.674 233.904 276.311 234C275.959 234.085 275.591 234.128 275.207 234.128ZM270.663 227.504V225.584H276.631V227.504H270.663Z" fill="#4F6234"/>
<path d="M287.381 192.322V181.122H289.525L294.293 189.026H293.157L297.845 181.122H299.973L300.005 192.322H297.573L297.557 184.85H298.005L294.261 191.138H293.093L289.269 184.85H289.813V192.322H287.381ZM313.511 183.586C314.193 183.586 314.796 183.725 315.319 184.002C315.852 184.269 316.268 184.685 316.567 185.25C316.876 185.805 317.031 186.519 317.031 187.394V192.322H314.535V187.778C314.535 187.085 314.391 186.573 314.103 186.242C313.815 185.911 313.409 185.746 312.887 185.746C312.524 185.746 312.199 185.831 311.911 186.002C311.623 186.162 311.399 186.407 311.239 186.738C311.079 187.069 310.999 187.49 310.999 188.002V192.322H308.503V187.778C308.503 187.085 308.359 186.573 308.071 186.242C307.793 185.911 307.393 185.746 306.871 185.746C306.508 185.746 306.183 185.831 305.895 186.002C305.607 186.162 305.383 186.407 305.223 186.738C305.063 187.069 304.983 187.49 304.983 188.002V192.322H302.487V183.714H304.871V186.066L304.423 185.378C304.721 184.791 305.143 184.349 305.687 184.05C306.241 183.741 306.871 183.586 307.575 183.586C308.364 183.586 309.052 183.789 309.639 184.194C310.236 184.589 310.631 185.197 310.823 186.018L309.943 185.778C310.231 185.106 310.689 184.573 311.319 184.178C311.959 183.783 312.689 183.586 313.511 183.586Z" fill="#4F6234"/>
<path d="M367.789 150.489C366.904 150.489 366.088 150.351 365.341 150.073C364.605 149.785 363.96 149.38 363.405 148.857C362.861 148.335 362.435 147.721 362.125 147.017C361.827 146.313 361.677 145.54 361.677 144.697C361.677 143.855 361.827 143.081 362.125 142.377C362.435 141.673 362.867 141.06 363.421 140.537C363.976 140.015 364.627 139.615 365.373 139.337C366.12 139.049 366.941 138.905 367.837 138.905C368.829 138.905 369.72 139.071 370.509 139.401C371.309 139.732 371.981 140.212 372.525 140.841L370.861 142.377C370.456 141.951 370.013 141.636 369.533 141.433C369.053 141.22 368.531 141.113 367.965 141.113C367.421 141.113 366.925 141.199 366.477 141.369C366.029 141.54 365.64 141.785 365.309 142.105C364.989 142.425 364.739 142.804 364.557 143.241C364.387 143.679 364.301 144.164 364.301 144.697C364.301 145.22 364.387 145.7 364.557 146.137C364.739 146.575 364.989 146.959 365.309 147.289C365.64 147.609 366.024 147.855 366.461 148.025C366.909 148.196 367.4 148.281 367.933 148.281C368.445 148.281 368.941 148.201 369.421 148.041C369.912 147.871 370.387 147.588 370.845 147.193L372.317 149.065C371.709 149.524 371 149.876 370.189 150.121C369.389 150.367 368.589 150.489 367.789 150.489ZM369.949 148.729V144.521H372.317V149.065L369.949 148.729ZM378.597 153.529C377.787 153.529 377.003 153.428 376.245 153.225C375.499 153.033 374.875 152.74 374.373 152.345L375.365 150.553C375.728 150.852 376.187 151.087 376.741 151.257C377.307 151.439 377.861 151.529 378.405 151.529C379.291 151.529 379.931 151.332 380.325 150.937C380.731 150.543 380.933 149.956 380.933 149.177V147.881L381.093 145.721L381.061 143.545V141.689H383.429V148.857C383.429 150.457 383.013 151.636 382.181 152.393C381.349 153.151 380.155 153.529 378.597 153.529ZM378.213 149.881C377.413 149.881 376.688 149.711 376.037 149.369C375.397 149.017 374.88 148.532 374.485 147.913C374.101 147.284 373.909 146.553 373.909 145.721C373.909 144.879 374.101 144.148 374.485 143.529C374.88 142.9 375.397 142.415 376.037 142.073C376.688 141.732 377.413 141.561 378.213 141.561C378.939 141.561 379.579 141.711 380.133 142.009C380.688 142.297 381.12 142.751 381.429 143.369C381.739 143.977 381.893 144.761 381.893 145.721C381.893 146.671 381.739 147.455 381.429 148.073C381.12 148.681 380.688 149.135 380.133 149.433C379.579 149.732 378.939 149.881 378.213 149.881ZM378.709 147.833C379.147 147.833 379.536 147.748 379.877 147.577C380.219 147.396 380.485 147.145 380.677 146.825C380.869 146.505 380.965 146.137 380.965 145.721C380.965 145.295 380.869 144.927 380.677 144.617C380.485 144.297 380.219 144.052 379.877 143.881C379.536 143.7 379.147 143.609 378.709 143.609C378.272 143.609 377.883 143.7 377.541 143.881C377.2 144.052 376.928 144.297 376.725 144.617C376.533 144.927 376.437 145.295 376.437 145.721C376.437 146.137 376.533 146.505 376.725 146.825C376.928 147.145 377.2 147.396 377.541 147.577C377.883 147.748 378.272 147.833 378.709 147.833Z" fill="#4F6234"/>
<path d="M303.357 234.539C301.768 234.539 300.525 234.097 299.629 233.211C298.733 232.326 298.285 231.062 298.285 229.419V223.147H300.877V229.323C300.877 230.39 301.096 231.158 301.533 231.627C301.971 232.097 302.584 232.331 303.373 232.331C304.163 232.331 304.776 232.097 305.213 231.627C305.651 231.158 305.869 230.39 305.869 229.323V223.147H308.429V229.419C308.429 231.062 307.981 232.326 307.085 233.211C306.189 234.097 304.947 234.539 303.357 234.539ZM314.447 234.475C313.732 234.475 313.092 234.337 312.527 234.059C311.972 233.782 311.54 233.361 311.231 232.795C310.922 232.219 310.767 231.489 310.767 230.603V225.739H313.263V230.235C313.263 230.95 313.412 231.478 313.711 231.819C314.02 232.15 314.452 232.315 315.007 232.315C315.391 232.315 315.732 232.235 316.031 232.075C316.33 231.905 316.564 231.649 316.735 231.307C316.906 230.955 316.991 230.518 316.991 229.995V225.739H319.487V234.347H317.119V231.979L317.551 232.667C317.263 233.265 316.836 233.718 316.271 234.027C315.716 234.326 315.108 234.475 314.447 234.475Z" fill="#4F6234"/>
<path d="M350.381 192.322V181.122H352.525L359.133 189.186H358.093V181.122H360.653V192.322H358.525L351.901 184.258H352.941V192.322H350.381ZM368.359 183.586C369.042 183.586 369.65 183.725 370.183 184.002C370.727 184.269 371.154 184.685 371.463 185.25C371.773 185.805 371.927 186.519 371.927 187.394V192.322H369.431V187.778C369.431 187.085 369.277 186.573 368.967 186.242C368.669 185.911 368.242 185.746 367.687 185.746C367.293 185.746 366.935 185.831 366.615 186.002C366.306 186.162 366.061 186.413 365.879 186.754C365.709 187.095 365.623 187.533 365.623 188.066V192.322H363.127V183.714H365.511V186.098L365.063 185.378C365.373 184.802 365.815 184.359 366.391 184.05C366.967 183.741 367.623 183.586 368.359 183.586Z" fill="#4F6234"/>
<line x1="53.5823" y1="314.5" x2="384.582" y2="314.5" stroke="#4F6234"/>
</svg>
