<svg width="789" height="353" viewBox="0 0 789 353" fill="none" xmlns="http://www.w3.org/2000/svg">
<path d="M752.42 0H36.8223C36.8223 0 36.8223 33.0604 0.0292969 43.1918V310.341C36.8223 318.34 36.8223 353 36.8223 353H752.42C752.42 353 752.42 319.939 788.146 310.341V44.2583C752.42 31.9939 752.42 0 752.42 0Z" fill="#FFD17C"/>
<line x1="622.848" y1="352.999" x2="622.848" y2="-0.000640893" stroke="#FFFEFD" stroke-width="1.08856" stroke-dasharray="6.02 6.02"/>
<path d="M62.8868 105.91C62.0784 105.91 61.2095 105.849 60.2799 105.728C59.3907 105.607 58.4409 105.425 57.4305 105.183L58.0974 95.3614C58.6632 95.4827 59.2089 95.5433 59.7343 95.5433C61.3914 95.5433 62.6443 94.8966 63.493 93.6033C64.3418 92.2695 64.9278 90.4104 65.2511 88.0258C65.6149 85.6412 65.8372 82.8525 65.918 79.6596L66.5242 62.7453H100.717V105.183H88.8948V69.5959L91.5016 72.2634H74.3448L76.7698 69.4746L76.4667 79.1746C76.3455 83.2971 76.0625 87.0154 75.618 90.3296C75.1734 93.6033 74.4661 96.4122 73.4961 98.7564C72.5261 101.06 71.1721 102.838 69.4342 104.091C67.7367 105.304 65.5542 105.91 62.8868 105.91ZM115.19 117.489C113.452 117.489 111.694 117.207 109.915 116.641C108.178 116.115 106.763 115.408 105.672 114.519L109.673 106.456C110.36 107.062 111.148 107.527 112.037 107.85C112.967 108.214 113.876 108.396 114.765 108.396C116.018 108.396 117.009 108.113 117.736 107.547C118.464 106.981 119.09 106.092 119.615 104.879L121.131 101.06L122.04 99.9083L133.195 72.324H144.168L129.982 106.516C128.851 109.346 127.537 111.548 126.042 113.124C124.587 114.741 122.95 115.873 121.131 116.519C119.353 117.166 117.372 117.489 115.19 117.489ZM119.676 106.577L105.187 72.324H117.009L127.679 98.8776L119.676 106.577ZM168.7 93.0577C167.568 93.7447 166.255 94.3106 164.76 94.7552C163.264 95.1593 161.526 95.3614 159.546 95.3614C154.979 95.3614 151.523 94.351 149.179 92.3302C146.875 90.2689 145.723 86.9952 145.723 82.509V72.324H157.242V81.7208C157.242 83.58 157.666 84.8935 158.515 85.6614C159.364 86.4294 160.597 86.8133 162.213 86.8133C163.466 86.8133 164.618 86.6719 165.669 86.3889C166.76 86.0656 167.75 85.6412 168.64 85.1158L168.7 93.0577ZM167.912 105.183V72.324H179.37V105.183H167.912ZM210.014 95.9677L207.528 98.5745V72.324H218.986V98.5745L216.379 95.9677H230.323L227.837 98.5745V72.324H239.235V105.183H187.158V72.324H198.616V98.5745L196.13 95.9677H210.014ZM247.013 105.183V72.324H258.471V89.5414L272.233 72.324H282.842V105.183H271.324V87.9046L257.683 105.183H247.013ZM290.587 105.183V72.324H302.045V89.5414L315.807 72.324H326.416V105.183H314.898V87.9046L301.257 105.183H290.587ZM307.683 69.1715C303.803 69.1715 300.934 68.3632 299.075 66.7465C297.256 65.0895 296.326 62.5634 296.286 59.1684H303.743C303.783 60.5022 304.086 61.553 304.652 62.3209C305.258 63.0484 306.249 63.4122 307.623 63.4122C308.997 63.4122 310.007 63.0484 310.654 62.3209C311.301 61.553 311.624 60.5022 311.624 59.1684H319.202C319.202 62.5634 318.252 65.0895 316.353 66.7465C314.493 68.3632 311.604 69.1715 307.683 69.1715ZM351.804 105.183V72.324H369.446C373.689 72.324 377.004 73.0717 379.388 74.5671C381.773 76.0221 382.965 78.1238 382.965 80.8721C382.965 83.4992 381.854 85.6008 379.631 87.1771C377.448 88.7129 374.498 89.4808 370.779 89.4808L371.81 87.0558C375.811 87.0558 378.822 87.8035 380.843 89.2989C382.904 90.7539 383.935 92.896 383.935 95.7252C383.935 98.6351 382.803 100.939 380.54 102.636C378.317 104.334 374.902 105.183 370.294 105.183H351.804ZM362.11 97.7258H369.264C370.678 97.7258 371.729 97.4833 372.416 96.9983C373.103 96.4729 373.447 95.7049 373.447 94.6945C373.447 93.6437 373.103 92.8758 372.416 92.3908C371.77 91.9058 370.759 91.6633 369.385 91.6633H362.11V97.7258ZM362.11 85.5402H368.415C369.789 85.5402 370.8 85.2977 371.446 84.8127C372.093 84.2873 372.416 83.5396 372.416 82.5696C372.416 81.5996 372.093 80.8923 371.446 80.4477C370.8 79.9627 369.789 79.7202 368.415 79.7202H362.11V85.5402ZM407.396 105.183V72.324H419.521L430.979 93.7852H426.19L438.739 72.324H449.591L449.652 105.183H439.285V83.7215L441.043 84.934L430.858 102.273H425.948L415.763 84.0852L417.763 83.5396V105.183H407.396ZM457.424 105.183V72.324H468.882V89.5414L482.643 72.324H493.253V105.183H481.734V87.9046L468.094 105.183H457.424ZM521.671 105.728C518.882 105.728 516.497 105.122 514.517 103.909C512.537 102.657 511.021 100.797 509.97 98.332C508.96 95.8262 508.454 92.6333 508.454 88.7533C508.454 84.8329 508.939 81.64 509.909 79.1746C510.879 76.6688 512.334 74.8096 514.274 73.5971C516.255 72.3846 518.72 71.7784 521.671 71.7784C524.661 71.7784 527.369 72.4857 529.794 73.9002C532.26 75.2744 534.2 77.2346 535.614 79.7808C537.069 82.2867 537.797 85.2775 537.797 88.7533C537.797 92.2291 537.069 95.2402 535.614 97.7864C534.2 100.333 532.26 102.293 529.794 103.667C527.369 105.041 524.661 105.728 521.671 105.728ZM500.998 116.944V72.324H511.971V77.9015L511.91 88.7533L512.516 99.6658V116.944H500.998ZM519.246 96.5739C520.539 96.5739 521.691 96.2708 522.701 95.6645C523.752 95.0583 524.581 94.1691 525.187 92.997C525.834 91.825 526.157 90.4104 526.157 88.7533C526.157 87.0962 525.834 85.6817 525.187 84.5096C524.581 83.3375 523.752 82.4483 522.701 81.8421C521.691 81.2358 520.539 80.9327 519.246 80.9327C517.952 80.9327 516.78 81.2358 515.729 81.8421C514.719 82.4483 513.89 83.3375 513.244 84.5096C512.638 85.6817 512.334 87.0962 512.334 88.7533C512.334 90.4104 512.638 91.825 513.244 92.997C513.89 94.1691 514.719 95.0583 515.729 95.6645C516.78 96.2708 517.952 96.5739 519.246 96.5739ZM560.243 105.728C556.363 105.728 552.968 105.001 550.058 103.546C547.188 102.05 544.945 100.03 543.328 97.4833C541.752 94.8966 540.964 91.9664 540.964 88.6927C540.964 85.4189 541.732 82.509 543.268 79.9627C544.844 77.3761 547.006 75.3754 549.755 73.9609C552.503 72.5059 555.595 71.7784 559.03 71.7784C562.264 71.7784 565.214 72.4453 567.881 73.779C570.549 75.0723 572.671 76.9921 574.247 79.5383C575.823 82.0846 576.611 85.1765 576.611 88.8139C576.611 89.2181 576.591 89.6829 576.551 90.2083C576.51 90.7337 576.47 91.2187 576.429 91.6633H550.421V85.6008H570.306L565.941 87.2983C565.982 85.8029 565.699 84.5096 565.093 83.4183C564.527 82.3271 563.719 81.4783 562.668 80.8721C561.657 80.2658 560.465 79.9627 559.091 79.9627C557.717 79.9627 556.504 80.2658 555.453 80.8721C554.443 81.4783 553.655 82.3473 553.089 83.479C552.523 84.5702 552.24 85.8635 552.24 87.3589V89.1171C552.24 90.7337 552.564 92.1281 553.21 93.3002C553.897 94.4722 554.867 95.3816 556.12 96.0283C557.373 96.6345 558.869 96.9377 560.606 96.9377C562.223 96.9377 563.597 96.7154 564.729 96.2708C565.901 95.7858 567.053 95.0583 568.185 94.0883L574.247 100.393C572.671 102.131 570.731 103.465 568.427 104.394C566.123 105.284 563.395 105.728 560.243 105.728ZM84.0448 173.031C83.9235 173.031 83.6406 173.031 83.1961 173.031C82.7515 173.031 82.3271 173.031 81.9229 173.031C81.5188 173.031 81.2561 173.031 81.1348 173.031C73.7386 172.91 68.0399 171.394 64.0386 168.485C60.0778 165.534 58.0974 161.25 58.0974 155.632C58.0974 150.095 60.0778 145.912 64.0386 143.083C67.9994 140.213 73.7588 138.738 81.3167 138.657C81.3975 138.657 81.64 138.657 82.0442 138.657C82.4888 138.657 82.9131 138.657 83.3173 138.657C83.7215 138.657 83.964 138.657 84.0448 138.657C91.7239 138.657 97.6449 140.092 101.808 142.961C105.971 145.791 108.052 150.014 108.052 155.632C108.052 161.331 105.971 165.655 101.808 168.606C97.6449 171.556 91.7239 173.031 84.0448 173.031ZM83.5598 164.665C86.874 164.665 89.501 164.362 91.441 163.756C93.4214 163.109 94.8562 162.119 95.7454 160.785C96.675 159.451 97.1397 157.734 97.1397 155.632C97.1397 153.571 96.6952 151.914 95.806 150.661C94.9168 149.408 93.482 148.499 91.5016 147.933C89.5212 147.326 86.874 147.023 83.5598 147.023C83.479 147.023 83.2163 147.023 82.7717 147.023C82.3271 147.023 82.024 147.023 81.8623 147.023C78.7502 147.023 76.2444 147.347 74.3448 147.993C72.4857 148.6 71.1317 149.529 70.283 150.782C69.4747 152.035 69.0705 153.652 69.0705 155.632C69.0705 157.693 69.4747 159.391 70.283 160.725C71.1317 162.018 72.4857 162.988 74.3448 163.635C76.2444 164.281 78.7502 164.625 81.8623 164.665C81.9836 164.665 82.2665 164.665 82.7111 164.665C83.1556 164.665 83.4386 164.665 83.5598 164.665ZM77.9823 183.944V127.199H88.1673V183.944H77.9823ZM113.449 172.183V139.324H124.907V156.541L138.669 139.324H149.278V172.183H137.76V154.905L124.119 172.183H113.449ZM153.689 172.183L154.174 162.786C154.457 162.826 154.72 162.867 154.962 162.907C155.205 162.907 155.427 162.907 155.629 162.907C156.639 162.907 157.427 162.665 157.993 162.18C158.599 161.654 159.044 160.947 159.327 160.058C159.65 159.169 159.873 158.138 159.994 156.966C160.156 155.753 160.257 154.44 160.297 153.025L160.782 139.324H190.488V172.183H178.969V145.871L181.516 148.478H168.36L170.785 145.75L170.421 153.51C170.3 156.461 170.037 159.148 169.633 161.573C169.269 163.958 168.683 165.999 167.875 167.696C167.067 169.394 165.955 170.707 164.541 171.637C163.167 172.526 161.408 172.971 159.266 172.971C158.498 172.971 157.629 172.89 156.66 172.728C155.73 172.607 154.74 172.425 153.689 172.183ZM217.508 149.509C221.873 149.549 225.207 150.519 227.511 152.419C229.815 154.319 230.966 157.026 230.966 160.543C230.966 164.18 229.633 167.05 226.965 169.151C224.338 171.213 220.701 172.223 216.053 172.183H198.229V139.324H209.687V149.509H217.508ZM214.901 164.301C216.275 164.301 217.346 163.978 218.114 163.331C218.882 162.685 219.266 161.695 219.266 160.361C219.266 158.987 218.882 158.017 218.114 157.451C217.387 156.885 216.316 156.582 214.901 156.541H209.687V164.241L214.901 164.301ZM235.883 172.183V139.324H248.008L259.466 160.785H254.676L267.226 139.324H278.078L278.138 172.183H267.771V150.721L269.53 151.934L259.345 169.273H254.434L244.249 151.085L246.25 150.54V172.183H235.883Z" fill="#4F6234"/>
<path d="M126.925 285.101L132.122 273.731H133.308L138.506 285.101H137.239L132.463 274.429H132.951L128.175 285.101H126.925ZM128.971 282.063L129.328 281.089H135.939L136.297 282.063H128.971ZM140.928 285.101V274.218L141.448 274.77H138.248V273.731H142.097V285.101H140.928ZM149.477 285.198C148.47 285.198 147.62 284.976 146.927 284.532C146.234 284.077 145.708 283.428 145.351 282.583C144.994 281.728 144.815 280.704 144.815 279.513C144.815 278.225 145.032 277.147 145.465 276.281C145.909 275.404 146.521 274.743 147.3 274.299C148.08 273.855 148.984 273.633 150.013 273.633C150.522 273.633 151.009 273.682 151.475 273.779C151.94 273.877 152.352 274.034 152.709 274.25L152.238 275.193C151.946 274.998 151.61 274.862 151.231 274.786C150.852 274.7 150.451 274.657 150.029 274.657C148.805 274.657 147.825 275.046 147.089 275.826C146.364 276.606 146.001 277.77 146.001 279.318C146.001 279.556 146.012 279.854 146.033 280.212C146.066 280.558 146.131 280.905 146.228 281.251L145.822 280.942C145.941 280.379 146.174 279.903 146.521 279.513C146.867 279.112 147.3 278.809 147.82 278.604C148.34 278.398 148.908 278.295 149.525 278.295C150.283 278.295 150.949 278.436 151.523 278.717C152.097 278.999 152.547 279.394 152.871 279.903C153.196 280.412 153.359 281.013 153.359 281.706C153.359 282.41 153.191 283.027 152.855 283.558C152.52 284.077 152.054 284.483 151.458 284.776C150.874 285.057 150.213 285.198 149.477 285.198ZM149.428 284.207C149.969 284.207 150.446 284.11 150.857 283.915C151.28 283.709 151.61 283.422 151.848 283.054C152.086 282.675 152.205 282.236 152.205 281.738C152.205 280.991 151.946 280.396 151.426 279.952C150.917 279.508 150.224 279.286 149.347 279.286C148.762 279.286 148.253 279.394 147.82 279.611C147.387 279.827 147.046 280.125 146.797 280.504C146.548 280.872 146.423 281.294 146.423 281.771C146.423 282.182 146.537 282.578 146.764 282.957C146.992 283.325 147.327 283.628 147.771 283.866C148.226 284.094 148.778 284.207 149.428 284.207Z" fill="#4F6234"/>
<path d="M57.9987 285.101V276.427H60.1264L63.6186 282.583H62.774L66.4448 276.427H68.3452L68.3615 285.101H66.5261V278.604L66.8509 278.815L63.6024 284.191H62.7253L59.4605 278.668L59.8503 278.571V285.101H57.9987ZM75.1292 285.214C74.1655 285.214 73.3209 285.025 72.5954 284.646C71.8807 284.256 71.323 283.725 70.9224 283.054C70.5325 282.383 70.3376 281.619 70.3376 280.764C70.3376 279.898 70.5271 279.134 70.9061 278.474C71.2959 277.802 71.8265 277.277 72.4979 276.898C73.1801 276.519 73.9543 276.33 74.8206 276.33C75.6652 276.33 76.4178 276.514 77.0783 276.882C77.7389 277.25 78.2586 277.77 78.6376 278.441C79.0166 279.112 79.2061 279.903 79.2061 280.813C79.2061 280.899 79.2007 280.997 79.1899 281.105C79.1899 281.213 79.1845 281.316 79.1736 281.414H71.9456V280.065H78.1016L77.3057 280.488C77.3166 279.99 77.2137 279.551 76.9971 279.172C76.7805 278.793 76.4828 278.495 76.1038 278.279C75.7356 278.062 75.3079 277.954 74.8206 277.954C74.3225 277.954 73.8839 278.062 73.5049 278.279C73.1368 278.495 72.8444 278.798 72.6278 279.188C72.4221 279.567 72.3192 280.017 72.3192 280.536V280.861C72.3192 281.381 72.4383 281.841 72.6766 282.242C72.9148 282.643 73.2505 282.951 73.6836 283.168C74.1168 283.384 74.6149 283.493 75.1779 283.493C75.6652 283.493 76.1038 283.417 76.4936 283.265C76.8834 283.114 77.2299 282.875 77.5331 282.55L78.6214 283.801C78.2316 284.256 77.7389 284.608 77.1433 284.857C76.5586 285.095 75.8872 285.214 75.1292 285.214ZM85.3738 285.214C84.4642 285.214 83.652 285.025 82.9374 284.646C82.2335 284.256 81.6813 283.725 81.2806 283.054C80.88 282.383 80.6796 281.619 80.6796 280.764C80.6796 279.898 80.88 279.134 81.2806 278.474C81.6813 277.802 82.2335 277.277 82.9374 276.898C83.652 276.519 84.4642 276.33 85.3738 276.33C86.2184 276.33 86.9601 276.503 87.599 276.849C88.2487 277.185 88.7414 277.683 89.0771 278.344L87.5178 279.253C87.2579 278.842 86.9385 278.539 86.5595 278.344C86.1913 278.149 85.7907 278.051 85.3575 278.051C84.8594 278.051 84.41 278.16 84.0094 278.376C83.6087 278.593 83.2947 278.907 83.0673 279.318C82.8399 279.719 82.7262 280.201 82.7262 280.764C82.7262 281.327 82.8399 281.814 83.0673 282.226C83.2947 282.626 83.6087 282.935 84.0094 283.151C84.41 283.368 84.8594 283.476 85.3575 283.476C85.7907 283.476 86.1913 283.379 86.5595 283.184C86.9385 282.989 87.2579 282.686 87.5178 282.274L89.0771 283.184C88.7414 283.834 88.2487 284.337 87.599 284.695C86.9601 285.041 86.2184 285.214 85.3738 285.214ZM92.6042 285.101V277.661L93.0752 278.149H89.5505V276.427H97.6719V278.149H94.1635L94.6345 277.661V285.101H92.6042ZM102.63 285.214C101.742 285.214 100.951 285.025 100.258 284.646C99.5652 284.256 99.0184 283.725 98.6177 283.054C98.2171 282.383 98.0168 281.619 98.0168 280.764C98.0168 279.898 98.2171 279.134 98.6177 278.474C99.0184 277.802 99.5652 277.277 100.258 276.898C100.951 276.519 101.742 276.33 102.63 276.33C103.528 276.33 104.324 276.519 105.017 276.898C105.721 277.277 106.268 277.797 106.658 278.457C107.059 279.118 107.259 279.887 107.259 280.764C107.259 281.619 107.059 282.383 106.658 283.054C106.268 283.725 105.721 284.256 105.017 284.646C104.324 285.025 103.528 285.214 102.63 285.214ZM102.63 283.476C103.128 283.476 103.572 283.368 103.962 283.151C104.351 282.935 104.655 282.621 104.871 282.209C105.099 281.798 105.212 281.316 105.212 280.764C105.212 280.201 105.099 279.719 104.871 279.318C104.655 278.907 104.351 278.593 103.962 278.376C103.572 278.16 103.133 278.051 102.646 278.051C102.148 278.051 101.704 278.16 101.314 278.376C100.935 278.593 100.632 278.907 100.404 279.318C100.177 279.719 100.063 280.201 100.063 280.764C100.063 281.316 100.177 281.798 100.404 282.209C100.632 282.621 100.935 282.935 101.314 283.151C101.704 283.368 102.142 283.476 102.63 283.476ZM109.882 279.026C109.514 279.026 109.2 278.901 108.94 278.652C108.68 278.392 108.55 278.068 108.55 277.678C108.55 277.266 108.68 276.941 108.94 276.703C109.2 276.454 109.514 276.33 109.882 276.33C110.25 276.33 110.564 276.454 110.824 276.703C111.084 276.941 111.214 277.266 111.214 277.678C111.214 278.068 111.084 278.392 110.824 278.652C110.564 278.901 110.25 279.026 109.882 279.026ZM109.882 285.214C109.514 285.214 109.2 285.09 108.94 284.841C108.68 284.581 108.55 284.256 108.55 283.866C108.55 283.455 108.68 283.13 108.94 282.892C109.2 282.643 109.514 282.518 109.882 282.518C110.25 282.518 110.564 282.643 110.824 282.892C111.084 283.13 111.214 283.455 111.214 283.866C111.214 284.256 111.084 284.581 110.824 284.841C110.564 285.09 110.25 285.214 109.882 285.214Z" fill="#4F6234"/>
<path d="M538.439 284.785V273.903L538.958 274.455H535.758V273.415H539.608V284.785H538.439ZM545.915 284.883C545.103 284.883 544.329 284.753 543.593 284.493C542.856 284.222 542.272 283.865 541.839 283.421L542.407 282.495C542.764 282.874 543.252 283.188 543.869 283.437C544.497 283.686 545.174 283.811 545.899 283.811C546.863 283.811 547.594 283.599 548.092 283.177C548.601 282.744 548.855 282.181 548.855 281.488C548.855 281.001 548.736 280.584 548.498 280.237C548.271 279.88 547.881 279.604 547.329 279.409C546.776 279.214 546.018 279.116 545.055 279.116H542.634L543.219 273.415H549.44V274.455H543.69L544.291 273.886L543.788 278.662L543.187 278.077H545.315C546.462 278.077 547.383 278.218 548.076 278.499C548.769 278.781 549.267 279.176 549.57 279.685C549.884 280.183 550.041 280.768 550.041 281.439C550.041 282.078 549.89 282.663 549.586 283.193C549.283 283.713 548.828 284.125 548.222 284.428C547.616 284.731 546.847 284.883 545.915 284.883ZM552.403 284.866C552.165 284.866 551.959 284.78 551.786 284.606C551.623 284.433 551.542 284.222 551.542 283.973C551.542 283.713 551.623 283.502 551.786 283.34C551.959 283.177 552.165 283.096 552.403 283.096C552.641 283.096 552.841 283.177 553.004 283.34C553.177 283.502 553.264 283.713 553.264 283.973C553.264 284.222 553.177 284.433 553.004 284.606C552.841 284.78 552.641 284.866 552.403 284.866ZM558.521 284.883C557.698 284.883 556.919 284.753 556.182 284.493C555.457 284.222 554.872 283.865 554.428 283.421L554.997 282.495C555.365 282.874 555.857 283.188 556.475 283.437C557.103 283.686 557.785 283.811 558.521 283.811C559.463 283.811 560.183 283.605 560.681 283.193C561.19 282.782 561.445 282.23 561.445 281.537C561.445 280.844 561.196 280.291 560.698 279.88C560.21 279.468 559.436 279.263 558.375 279.263H557.563V278.402L561.071 274L561.234 274.455H554.899V273.415H562.208V274.244L558.7 278.645L558.131 278.272H558.57C559.934 278.272 560.952 278.575 561.624 279.181C562.306 279.788 562.647 280.567 562.647 281.52C562.647 282.159 562.495 282.733 562.192 283.242C561.889 283.751 561.429 284.152 560.811 284.444C560.205 284.736 559.442 284.883 558.521 284.883ZM568.826 284.883C567.949 284.883 567.17 284.655 566.487 284.2C565.805 283.735 565.269 283.074 564.879 282.219C564.49 281.353 564.295 280.313 564.295 279.1C564.295 277.887 564.49 276.853 564.879 275.998C565.269 275.132 565.805 274.471 566.487 274.016C567.17 273.551 567.949 273.318 568.826 273.318C569.703 273.318 570.483 273.551 571.165 274.016C571.848 274.471 572.384 275.132 572.773 275.998C573.174 276.853 573.374 277.887 573.374 279.1C573.374 280.313 573.174 281.353 572.773 282.219C572.384 283.074 571.848 283.735 571.165 284.2C570.483 284.655 569.703 284.883 568.826 284.883ZM568.826 283.811C569.498 283.811 570.082 283.632 570.581 283.275C571.079 282.906 571.469 282.376 571.75 281.683C572.032 280.979 572.172 280.118 572.172 279.1C572.172 278.082 572.032 277.227 571.75 276.534C571.469 275.83 571.079 275.299 570.581 274.942C570.082 274.574 569.498 274.39 568.826 274.39C568.177 274.39 567.597 274.574 567.088 274.942C566.579 275.299 566.184 275.83 565.903 276.534C565.621 277.227 565.48 278.082 565.48 279.1C565.48 280.118 565.621 280.979 565.903 281.683C566.184 282.376 566.579 282.906 567.088 283.275C567.597 283.632 568.177 283.811 568.826 283.811Z" fill="#4F6234"/>
<path d="M461.854 284.785V276.112H466.094C467.144 276.112 467.967 276.306 468.563 276.696C469.169 277.086 469.472 277.638 469.472 278.353C469.472 279.057 469.191 279.609 468.628 280.01C468.065 280.4 467.317 280.595 466.386 280.595L466.63 280.091C467.68 280.091 468.46 280.286 468.969 280.676C469.489 281.055 469.748 281.612 469.748 282.349C469.748 283.118 469.461 283.719 468.888 284.152C468.314 284.574 467.442 284.785 466.272 284.785H461.854ZM463.787 283.307H466.11C466.662 283.307 467.079 283.22 467.361 283.047C467.642 282.863 467.783 282.587 467.783 282.219C467.783 281.829 467.653 281.542 467.393 281.358C467.133 281.174 466.727 281.082 466.175 281.082H463.787V283.307ZM463.787 279.734H465.915C466.435 279.734 466.825 279.642 467.085 279.458C467.355 279.263 467.491 278.992 467.491 278.645C467.491 278.288 467.355 278.023 467.085 277.85C466.825 277.676 466.435 277.59 465.915 277.59H463.787V279.734ZM476.719 284.899C476.015 284.899 475.371 284.736 474.786 284.412C474.212 284.087 473.752 283.599 473.405 282.95C473.07 282.289 472.902 281.455 472.902 280.448C472.902 279.43 473.064 278.597 473.389 277.947C473.725 277.297 474.18 276.815 474.753 276.501C475.327 276.177 475.982 276.014 476.719 276.014C477.574 276.014 478.327 276.198 478.977 276.566C479.637 276.935 480.157 277.449 480.536 278.109C480.926 278.77 481.121 279.55 481.121 280.448C481.121 281.347 480.926 282.132 480.536 282.804C480.157 283.464 479.637 283.978 478.977 284.347C478.327 284.715 477.574 284.899 476.719 284.899ZM471.911 287.936V276.112H473.844V278.158L473.779 280.465L473.941 282.771V287.936H471.911ZM476.491 283.161C476.979 283.161 477.412 283.053 477.791 282.836C478.181 282.619 478.489 282.305 478.717 281.894C478.944 281.482 479.058 281.001 479.058 280.448C479.058 279.885 478.944 279.403 478.717 279.003C478.489 278.591 478.181 278.277 477.791 278.061C477.412 277.844 476.979 277.736 476.491 277.736C476.004 277.736 475.566 277.844 475.176 278.061C474.786 278.277 474.477 278.591 474.25 279.003C474.023 279.403 473.909 279.885 473.909 280.448C473.909 281.001 474.023 281.482 474.25 281.894C474.477 282.305 474.786 282.619 475.176 282.836C475.566 283.053 476.004 283.161 476.491 283.161ZM487.186 284.899C486.222 284.899 485.377 284.709 484.652 284.33C483.937 283.941 483.379 283.41 482.979 282.739C482.589 282.067 482.394 281.304 482.394 280.448C482.394 279.582 482.584 278.819 482.963 278.158C483.352 277.487 483.883 276.962 484.554 276.583C485.237 276.204 486.011 276.014 486.877 276.014C487.722 276.014 488.474 276.198 489.135 276.566C489.795 276.935 490.315 277.454 490.694 278.126C491.073 278.797 491.263 279.588 491.263 280.497C491.263 280.584 491.257 280.681 491.246 280.789C491.246 280.898 491.241 281.001 491.23 281.098H484.002V279.75H490.158L489.362 280.172C489.373 279.674 489.27 279.236 489.054 278.857C488.837 278.478 488.539 278.18 488.16 277.963C487.792 277.747 487.364 277.638 486.877 277.638C486.379 277.638 485.94 277.747 485.561 277.963C485.193 278.18 484.901 278.483 484.684 278.873C484.479 279.252 484.376 279.701 484.376 280.221V280.546C484.376 281.066 484.495 281.526 484.733 281.926C484.971 282.327 485.307 282.636 485.74 282.852C486.173 283.069 486.671 283.177 487.234 283.177C487.722 283.177 488.16 283.101 488.55 282.95C488.94 282.798 489.286 282.56 489.59 282.235L490.678 283.486C490.288 283.941 489.795 284.292 489.2 284.542C488.615 284.78 487.944 284.899 487.186 284.899ZM493.483 284.785V276.112H495.611L499.103 282.268H498.259L501.929 276.112H503.83L503.846 284.785H502.011V278.288L502.336 278.499L499.087 283.876H498.21L494.945 278.353L495.335 278.256V284.785H493.483ZM512.076 284.785V281.829L512.368 282.17H509.769C508.578 282.17 507.641 281.921 506.959 281.423C506.288 280.914 505.952 280.183 505.952 279.23C505.952 278.212 506.31 277.438 507.024 276.907C507.75 276.377 508.713 276.112 509.915 276.112H513.895V284.785H512.076ZM505.838 284.785L508.177 281.472H510.256L508.015 284.785H505.838ZM512.076 281.179V277.281L512.368 277.817H509.98C509.352 277.817 508.865 277.936 508.519 278.174C508.183 278.402 508.015 278.775 508.015 279.295C508.015 280.27 508.648 280.757 509.915 280.757H512.368L512.076 281.179ZM517.243 278.71C516.875 278.71 516.561 278.586 516.301 278.337C516.041 278.077 515.911 277.752 515.911 277.362C515.911 276.951 516.041 276.626 516.301 276.388C516.561 276.139 516.875 276.014 517.243 276.014C517.611 276.014 517.925 276.139 518.185 276.388C518.445 276.626 518.575 276.951 518.575 277.362C518.575 277.752 518.445 278.077 518.185 278.337C517.925 278.586 517.611 278.71 517.243 278.71ZM517.243 284.899C516.875 284.899 516.561 284.774 516.301 284.525C516.041 284.265 515.911 283.941 515.911 283.551C515.911 283.139 516.041 282.814 516.301 282.576C516.561 282.327 516.875 282.203 517.243 282.203C517.611 282.203 517.925 282.327 518.185 282.576C518.445 282.814 518.575 283.139 518.575 283.551C518.575 283.941 518.445 284.265 518.185 284.525C517.925 284.774 517.611 284.899 517.243 284.899Z" fill="#4F6234"/>
<path d="M712.587 313.027L700.19 313.027L700.19 302.198L712.587 302.198L712.587 303.385L700.903 303.385L701.259 303.053L701.259 312.172L700.903 311.84L712.587 311.84L712.587 313.027ZM712.682 290.825C712.682 291.917 712.429 292.907 711.922 293.794C711.415 294.664 710.695 295.361 709.761 295.883C708.811 296.39 707.687 296.643 706.388 296.643C705.09 296.643 703.974 296.39 703.04 295.883C702.09 295.361 701.362 294.664 700.855 293.794C700.348 292.907 700.095 291.917 700.095 290.825C700.095 289.653 700.364 288.609 700.903 287.69C701.425 286.756 702.161 286.028 703.111 285.505C704.061 284.967 705.154 284.698 706.388 284.698C707.623 284.698 708.716 284.967 709.666 285.505C710.616 286.028 711.36 286.756 711.898 287.69C712.421 288.609 712.682 289.653 712.682 290.825ZM717.194 297.047L700.19 297.047L700.19 295.907L704.251 295.907L706.412 296.097L708.573 295.86L717.194 295.86L717.194 297.047ZM711.613 290.896C711.613 289.946 711.399 289.091 710.972 288.331C710.529 287.571 709.911 286.978 709.12 286.55C708.328 286.107 707.418 285.885 706.388 285.885C705.344 285.885 704.433 286.107 703.657 286.55C702.866 286.978 702.256 287.571 701.829 288.331C701.385 289.091 701.164 289.946 701.164 290.896C701.164 291.846 701.385 292.701 701.829 293.461C702.256 294.205 702.866 294.799 703.657 295.242C704.433 295.67 705.344 295.883 706.388 295.883C707.418 295.883 708.328 295.67 709.12 295.242C709.911 294.799 710.529 294.205 710.972 293.461C711.399 292.701 711.613 291.846 711.613 290.896ZM712.587 280.837L700.19 280.837L700.19 279.649L710.758 279.649L700.19 270.815L700.19 269.77L712.587 269.77L712.587 270.957L702.019 270.957L712.587 279.792L712.587 280.837ZM712.587 256.598L708.027 256.598L708.312 256.337L708.312 260.73C708.312 262.282 707.98 263.493 707.315 264.364C706.634 265.219 705.636 265.646 704.322 265.646C702.929 265.646 701.892 265.179 701.211 264.245C700.531 263.311 700.19 262.076 700.19 260.54L700.19 255.505L712.587 255.505L712.587 256.598ZM712.587 265.717L707.813 262.274L707.813 261.015L712.587 264.411L712.587 265.717ZM707.695 256.598L700.879 256.598L701.235 256.337L701.235 260.469C701.235 261.735 701.48 262.717 701.971 263.414C702.462 264.11 703.262 264.459 704.37 264.459C706.396 264.459 707.41 263.176 707.41 260.611L707.41 256.337L707.695 256.598ZM712.587 248.129L700.903 248.129L701.259 247.797L701.259 252.974L700.19 252.974L700.19 242.097L701.259 242.097L701.259 247.274L700.903 246.942L712.587 246.942L712.587 248.129ZM712.587 239.555L700.19 239.555L700.19 238.367L705.842 238.367L705.842 229.96L700.19 229.96L700.19 228.773L712.587 228.773L712.587 229.96L706.887 229.96L706.887 238.367L712.587 238.367L712.587 239.555ZM712.682 218.706C712.682 219.893 712.413 220.954 711.874 221.888C711.336 222.806 710.592 223.542 709.642 224.096C708.692 224.635 707.608 224.904 706.388 224.904C705.154 224.904 704.069 224.635 703.135 224.096C702.185 223.542 701.441 222.806 700.903 221.888C700.364 220.954 700.095 219.893 700.095 218.706C700.095 217.518 700.364 216.457 700.903 215.523C701.441 214.589 702.185 213.853 703.135 213.315C704.069 212.776 705.154 212.507 706.388 212.507C707.608 212.507 708.692 212.776 709.642 213.315C710.592 213.853 711.336 214.589 711.874 215.523C712.413 216.457 712.682 217.518 712.682 218.706ZM711.613 218.706C711.613 217.756 711.399 216.901 710.972 216.141C710.529 215.381 709.911 214.787 709.12 214.36C708.328 213.932 707.418 213.718 706.388 213.718C705.344 213.718 704.433 213.932 703.657 214.36C702.866 214.787 702.256 215.381 701.829 216.141C701.385 216.901 701.164 217.756 701.164 218.706C701.164 219.655 701.385 220.51 701.829 221.27C702.256 222.014 702.866 222.608 703.657 223.052C704.433 223.479 705.344 223.693 706.388 223.693C707.418 223.693 708.328 223.479 709.12 223.052C709.911 222.608 710.529 222.014 710.972 221.27C711.399 220.51 711.613 219.655 711.613 218.706ZM712.587 208.64L700.19 208.64L700.19 200.162L701.259 200.162L701.259 207.785L700.926 207.453L712.587 207.453L712.587 208.64ZM712.682 193.264C712.682 194.451 712.413 195.512 711.874 196.446C711.336 197.365 710.592 198.101 709.642 198.655C708.692 199.193 707.608 199.462 706.388 199.462C705.154 199.462 704.069 199.193 703.135 198.655C702.185 198.101 701.441 197.365 700.903 196.446C700.364 195.512 700.095 194.451 700.095 193.264C700.095 192.077 700.364 191.016 700.903 190.082C701.441 189.148 702.185 188.411 703.135 187.873C704.069 187.335 705.154 187.066 706.388 187.066C707.608 187.066 708.692 187.335 709.642 187.873C710.592 188.411 711.336 189.148 711.874 190.082C712.413 191.016 712.682 192.077 712.682 193.264ZM711.613 193.264C711.613 192.314 711.399 191.459 710.972 190.699C710.529 189.939 709.911 189.345 709.12 188.918C708.328 188.491 707.418 188.277 706.388 188.277C705.344 188.277 704.433 188.491 703.657 188.918C702.866 189.345 702.256 189.939 701.829 190.699C701.385 191.459 701.164 192.314 701.164 193.264C701.164 194.214 701.385 195.069 701.829 195.829C702.256 196.573 702.866 197.167 703.657 197.61C704.433 198.037 705.344 198.251 706.388 198.251C707.418 198.251 708.328 198.037 709.12 197.61C709.911 197.167 710.529 196.573 710.972 195.829C711.399 195.069 711.613 194.214 711.613 193.264ZM712.587 177.099L700.19 177.099L700.19 166.27L712.587 166.27L712.587 167.457L700.903 167.457L701.259 167.125L701.259 176.244L700.903 175.912L712.587 175.912L712.587 177.099ZM712.682 154.897C712.682 155.99 712.429 156.979 711.922 157.866C711.415 158.736 710.695 159.433 709.761 159.956C708.811 160.462 707.687 160.715 706.388 160.715C705.09 160.715 703.974 160.462 703.04 159.956C702.09 159.433 701.362 158.736 700.855 157.866C700.348 156.979 700.095 155.99 700.095 154.897C700.095 153.726 700.364 152.681 700.903 151.762C701.425 150.828 702.161 150.1 703.111 149.577C704.061 149.039 705.154 148.77 706.388 148.77C707.623 148.77 708.716 149.039 709.666 149.577C710.616 150.1 711.36 150.828 711.898 151.762C712.421 152.681 712.682 153.726 712.682 154.897ZM717.194 161.119L700.19 161.119L700.19 159.979L704.251 159.979L706.412 160.169L708.573 159.932L717.194 159.932L717.194 161.119ZM711.613 154.968C711.613 154.018 711.399 153.163 710.972 152.404C710.529 151.644 709.911 151.05 709.12 150.622C708.328 150.179 707.418 149.957 706.388 149.957C705.344 149.957 704.433 150.179 703.657 150.622C702.866 151.05 702.256 151.644 701.829 152.404C701.385 153.163 701.164 154.018 701.164 154.968C701.164 155.918 701.385 156.773 701.829 157.533C702.256 158.277 702.866 158.871 703.657 159.314C704.433 159.742 705.344 159.956 706.388 159.956C707.418 159.956 708.328 159.742 709.12 159.314C709.911 158.871 710.529 158.277 710.972 157.533C711.399 156.773 711.613 155.918 711.613 154.968ZM712.682 139.969C712.682 141.156 712.413 142.217 711.874 143.151C711.336 144.069 710.592 144.806 709.642 145.36C708.692 145.898 707.608 146.167 706.388 146.167C705.154 146.167 704.069 145.898 703.135 145.36C702.185 144.806 701.441 144.069 700.903 143.151C700.364 142.217 700.095 141.156 700.095 139.969C700.095 138.781 700.364 137.721 700.903 136.787C701.441 135.852 702.185 135.116 703.135 134.578C704.069 134.04 705.154 133.771 706.388 133.771C707.608 133.771 708.692 134.04 709.642 134.578C710.592 135.116 711.336 135.852 711.874 136.787C712.413 137.721 712.682 138.781 712.682 139.969ZM711.613 139.969C711.613 139.019 711.399 138.164 710.972 137.404C710.529 136.644 709.911 136.05 709.12 135.623C708.328 135.195 707.418 134.982 706.388 134.982C705.344 134.982 704.433 135.195 703.657 135.623C702.866 136.05 702.256 136.644 701.829 137.404C701.385 138.164 701.164 139.019 701.164 139.969C701.164 140.919 701.385 141.774 701.829 142.534C702.256 143.278 702.866 143.872 703.657 144.315C704.433 144.742 705.344 144.956 706.388 144.956C707.418 144.956 708.328 144.742 709.12 144.315C709.911 143.872 710.529 143.278 710.972 142.534C711.399 141.774 711.613 140.919 711.613 139.969ZM712.682 124.892C712.682 126.096 712.413 127.172 711.874 128.122C711.336 129.056 710.592 129.801 709.642 130.355C708.692 130.893 707.608 131.162 706.388 131.162C705.154 131.162 704.061 130.893 703.111 130.355C702.161 129.801 701.425 129.056 700.903 128.122C700.364 127.172 700.095 126.096 700.095 124.892C700.095 123.895 700.285 122.993 700.665 122.185C701.045 121.362 701.615 120.697 702.375 120.19L703.016 121.069C702.383 121.512 701.916 122.066 701.615 122.731C701.314 123.396 701.164 124.117 701.164 124.892C701.164 125.858 701.385 126.729 701.829 127.505C702.256 128.265 702.866 128.866 703.657 129.31C704.433 129.737 705.344 129.951 706.388 129.951C707.433 129.951 708.352 129.737 709.143 129.31C709.919 128.866 710.529 128.265 710.972 127.505C711.399 126.729 711.613 125.858 711.613 124.892C711.613 124.117 711.463 123.396 711.162 122.731C710.861 122.066 710.394 121.512 709.761 121.069L710.402 120.19C711.162 120.697 711.732 121.362 712.112 122.185C712.492 122.993 712.682 123.895 712.682 124.892ZM712.587 116.684L700.19 116.684L700.19 115.52L709.998 109.654L709.998 110.177L700.19 104.287L700.19 103.195L712.587 103.195L712.587 104.287L701.615 104.287L701.71 104.05L710.996 109.678L710.996 110.224L701.639 115.877L701.591 115.592L712.587 115.592L712.587 116.684ZM712.682 93.1212C712.682 94.3086 712.413 95.3694 711.874 96.3035C711.336 97.2218 710.592 97.958 709.642 98.5121C708.692 99.0504 707.608 99.3196 706.388 99.3196C705.154 99.3196 704.069 99.0504 703.135 98.5121C702.185 97.958 701.441 97.2218 700.903 96.3035C700.364 95.3694 700.095 94.3086 700.095 93.1212C700.095 91.9338 700.364 90.873 700.903 89.9389C701.441 89.0048 702.185 88.2686 703.135 87.7303C704.069 87.192 705.154 86.9228 706.388 86.9228C707.608 86.9228 708.692 87.192 709.642 87.7303C710.592 88.2686 711.336 89.0048 711.874 89.9389C712.413 90.873 712.682 91.9338 712.682 93.1212ZM711.613 93.1212C711.613 92.1712 711.399 91.3163 710.972 90.5563C710.529 89.7964 709.911 89.2027 709.12 88.7752C708.328 88.3477 707.418 88.134 706.388 88.134C705.344 88.134 704.433 88.3477 703.657 88.7752C702.866 89.2027 702.256 89.7964 701.829 90.5563C701.385 91.3163 701.164 92.1713 701.164 93.1212C701.164 94.0711 701.385 94.9261 701.829 95.686C702.256 96.4302 702.866 97.0239 703.657 97.4672C704.433 97.8946 705.344 98.1084 706.388 98.1084C707.418 98.1084 708.328 97.8946 709.12 97.4672C709.911 97.0239 710.529 96.4302 710.972 95.686C711.399 94.9261 711.613 94.0711 711.613 93.1212ZM712.587 81.2634L700.903 81.2634L701.259 80.931L701.259 86.1081L700.19 86.1081L700.19 75.2313L701.259 75.2313L701.259 80.4085L700.903 80.076L712.587 80.076L712.587 81.2634ZM712.682 66.443C712.682 67.5355 712.429 68.525 711.922 69.4116C711.415 70.2824 710.695 70.979 709.761 71.5015C708.811 72.0081 707.687 72.2614 706.388 72.2614C705.09 72.2614 703.974 72.0081 703.04 71.5015C702.09 70.979 701.362 70.2824 700.855 69.4116C700.348 68.525 700.095 67.5355 700.095 66.443C700.095 65.2714 700.364 64.2265 700.903 63.3082C701.425 62.3741 702.161 61.6458 703.111 61.1234C704.061 60.5851 705.154 60.3159 706.388 60.3159C707.623 60.3159 708.716 60.5851 709.666 61.1234C710.616 61.6458 711.36 62.3741 711.898 63.3082C712.421 64.2265 712.682 65.2714 712.682 66.443ZM717.194 72.6652L700.19 72.6652L700.19 71.5252L704.251 71.5252L706.412 71.7152L708.573 71.4777L717.194 71.4777L717.194 72.6652ZM711.613 66.5143C711.613 65.5643 711.399 64.7094 710.972 63.9494C710.529 63.1895 709.911 62.5958 709.12 62.1683C708.328 61.725 707.418 61.5033 706.388 61.5033C705.344 61.5033 704.433 61.725 703.657 62.1683C702.866 62.5958 702.256 63.1895 701.829 63.9494C701.385 64.7094 701.164 65.5643 701.164 66.5143C701.164 67.4642 701.385 68.3192 701.829 69.0791C702.256 69.8233 702.866 70.417 703.657 70.8603C704.433 71.2877 705.344 71.5015 706.388 71.5015C707.418 71.5015 708.328 71.2877 709.12 70.8603C709.911 70.417 710.529 69.8233 710.972 69.0791C711.399 68.3192 711.613 67.4642 711.613 66.5143ZM712.587 48.7589L709.761 48.7589L709.333 48.8064L704.679 48.8064C703.523 48.8064 702.644 49.1231 702.042 49.7564C701.441 50.3738 701.14 51.2842 701.14 52.4874C701.14 53.3424 701.29 54.1419 701.591 54.8861C701.876 55.6143 702.248 56.2397 702.707 56.7622L701.852 57.3559C701.298 56.7384 700.871 55.9943 700.57 55.1235C700.253 54.2528 700.095 53.3424 700.095 52.3925C700.095 50.8567 700.483 49.6772 701.259 48.8539C702.035 48.0306 703.19 47.619 704.726 47.619L712.587 47.619L712.587 48.7589ZM712.682 53.2237C712.682 54.1419 712.539 54.9415 712.254 55.6223C711.954 56.2872 711.534 56.8018 710.996 57.1659C710.457 57.5142 709.84 57.6884 709.143 57.6884C708.51 57.6884 707.94 57.5459 707.433 57.2609C706.911 56.9601 706.491 56.4693 706.175 55.7885C705.842 55.1077 705.676 54.1973 705.676 53.0574L705.676 48.4977L706.602 48.4977L706.602 53.0337C706.602 54.3161 706.84 55.2185 707.315 55.741C707.79 56.2476 708.383 56.501 709.096 56.501C709.887 56.501 710.521 56.2001 710.996 55.5985C711.471 54.9969 711.708 54.1498 711.708 53.0574C711.708 52.0125 711.471 51.1338 710.996 50.4213C710.521 49.693 709.832 49.1547 708.93 48.8064L709.737 48.4739C710.639 48.8064 711.36 49.3764 711.898 50.1838C712.421 50.9755 712.682 51.9887 712.682 53.2237ZM707.813 42.8182L695.963 43.0557L695.963 41.6783L707.813 41.9158L707.813 42.8182ZM712.682 42.367C712.682 42.6362 712.587 42.8657 712.397 43.0557C712.191 43.2457 711.961 43.3407 711.708 43.3407C711.439 43.3407 711.209 43.2457 711.019 43.0557C710.829 42.8657 710.734 42.6362 710.734 42.367C710.734 42.082 710.829 41.8446 711.019 41.6546C711.209 41.4646 711.439 41.3696 711.708 41.3696C711.961 41.3696 712.191 41.4646 712.397 41.6546C712.587 41.8446 712.682 42.082 712.682 42.367Z" fill="#4F6234"/>
<path d="M112.266 316.832L117.171 305.982L117.528 306.502H110.495L111.096 305.933V308.629H109.943V305.462H118.292V306.291L113.532 316.832H112.266Z" fill="#4F6234"/>
<path d="M62.8066 316.946C62.1028 316.946 61.4585 316.783 60.8737 316.458C60.2998 316.134 59.8396 315.646 59.4931 314.997C59.1574 314.336 58.9896 313.502 58.9896 312.495C58.9896 311.477 59.152 310.644 59.4769 309.994C59.8125 309.344 60.2673 308.862 60.8412 308.548C61.4152 308.223 62.0703 308.061 62.8066 308.061C63.6621 308.061 64.4146 308.245 65.0643 308.613C65.7249 308.981 66.2446 309.496 66.6236 310.156C67.0135 310.817 67.2084 311.596 67.2084 312.495C67.2084 313.394 67.0135 314.179 66.6236 314.85C66.2446 315.511 65.7249 316.025 65.0643 316.393C64.4146 316.762 63.6621 316.946 62.8066 316.946ZM57.9988 319.983V308.158H59.9317V310.205L59.8667 312.511L60.0291 314.818V319.983H57.9988ZM62.5792 315.208C63.0665 315.208 63.4996 315.099 63.8786 314.883C64.2684 314.666 64.5771 314.352 64.8045 313.941C65.0319 313.529 65.1456 313.047 65.1456 312.495C65.1456 311.932 65.0319 311.45 64.8045 311.05C64.5771 310.638 64.2684 310.324 63.8786 310.108C63.4996 309.891 63.0665 309.783 62.5792 309.783C62.0919 309.783 61.6534 309.891 61.2636 310.108C60.8737 310.324 60.5651 310.638 60.3377 311.05C60.1103 311.45 59.9966 311.932 59.9966 312.495C59.9966 313.047 60.1103 313.529 60.3377 313.941C60.5651 314.352 60.8737 314.666 61.2636 314.883C61.6534 315.099 62.0919 315.208 62.5792 315.208ZM74.4498 316.832V313.876L74.7422 314.217H72.1433C70.9522 314.217 70.0156 313.968 69.3334 313.47C68.662 312.961 68.3263 312.23 68.3263 311.277C68.3263 310.259 68.6837 309.485 69.3983 308.954C70.1238 308.424 71.0876 308.158 72.2895 308.158H76.269V316.832H74.4498ZM68.2126 316.832L70.5516 313.519H72.6306L70.3891 316.832H68.2126ZM74.4498 313.226V309.328L74.7422 309.864H72.3545C71.7265 309.864 71.2392 309.983 70.8927 310.221C70.557 310.449 70.3891 310.822 70.3891 311.342C70.3891 312.317 71.0226 312.804 72.2895 312.804H74.7422L74.4498 313.226ZM84.9448 315.89V309.88H81.6151L81.5664 311.277C81.5447 311.775 81.5122 312.257 81.4689 312.723C81.4256 313.177 81.3552 313.6 81.2578 313.99C81.1603 314.369 81.0195 314.683 80.8355 314.932C80.6514 315.181 80.4077 315.343 80.1045 315.419L78.0904 315.11C78.4153 315.11 78.6752 315.007 78.8701 314.802C79.0758 314.585 79.2328 314.293 79.3411 313.925C79.4602 313.546 79.5469 313.118 79.601 312.641C79.6552 312.154 79.6931 311.651 79.7147 311.131L79.8284 308.158H86.9752V315.89H84.9448ZM77.7818 318.765V315.11H88.2584V318.765H86.358V316.832H79.666V318.765H77.7818ZM90.6889 310.757C90.3207 310.757 90.0067 310.633 89.7468 310.384C89.487 310.124 89.357 309.799 89.357 309.409C89.357 308.998 89.487 308.673 89.7468 308.435C90.0067 308.186 90.3207 308.061 90.6889 308.061C91.0571 308.061 91.3711 308.186 91.631 308.435C91.8909 308.673 92.0208 308.998 92.0208 309.409C92.0208 309.799 91.8909 310.124 91.631 310.384C91.3711 310.633 91.0571 310.757 90.6889 310.757ZM90.6889 316.946C90.3207 316.946 90.0067 316.821 89.7468 316.572C89.487 316.312 89.357 315.987 89.357 315.598C89.357 315.186 89.487 314.861 89.7468 314.623C90.0067 314.374 90.3207 314.249 90.6889 314.249C91.0571 314.249 91.3711 314.374 91.631 314.623C91.8909 314.861 92.0208 315.186 92.0208 315.598C92.0208 315.987 91.8909 316.312 91.631 316.572C91.3711 316.821 91.0571 316.946 90.6889 316.946Z" fill="#4F6234"/>
</svg>
